%TF.GenerationSoftware,KiCad,Pcbnew,9.0.7+1*%
%TF.CreationDate,2026-06-05T15:49:27+00:00*%
%TF.ProjectId,hw-universal-logic,68772d75-6e69-4766-9572-73616c2d6c6f,rev?*%
%TF.SameCoordinates,Original*%
%TF.FileFunction,Drillmap*%
%TF.FilePolarity,Positive*%
%FSLAX45Y45*%
G04 Gerber Fmt 4.5, Leading zero omitted, Abs format (unit mm)*
G04 Created by KiCad (PCBNEW 9.0.7+1) date 2026-06-05 15:49:27*
%MOMM*%
%LPD*%
G01*
G04 APERTURE LIST*
%ADD10C,0.050000*%
%ADD11C,0.200000*%
%ADD12C,0.110000*%
%ADD13C,0.160000*%
%ADD14C,0.300000*%
%ADD15C,0.100000*%
%ADD16C,0.325000*%
%ADD17C,0.350000*%
G04 APERTURE END LIST*
D10*
X15600000Y-2500000D02*
G75*
G02*
X16100000Y-2000000I500000J0D01*
G01*
X15600000Y-11550000D02*
X15600000Y-2500000D01*
X16100000Y-12050000D02*
G75*
G02*
X15600000Y-11550000I0J500000D01*
G01*
X16100000Y-12050000D02*
X25025711Y-12050000D01*
X25025711Y-12050000D02*
X26000000Y-12050000D01*
X26000000Y-2000000D02*
X16100000Y-2000000D01*
X26000000Y-2000000D02*
G75*
G02*
X26500000Y-2500000I0J-500000D01*
G01*
X26500000Y-11550000D02*
G75*
G02*
X26000000Y-12050000I-500000J0D01*
G01*
X26500000Y-11550000D02*
X26500000Y-2500000D01*
D11*
D12*
X20287000Y-10729700D02*
X20397000Y-10839700D01*
X20397000Y-10729700D02*
X20287000Y-10839700D01*
D13*
X20422000Y-4104700D02*
G75*
G02*
X20262000Y-4104700I-80000J0D01*
G01*
X20262000Y-4104700D02*
G75*
G02*
X20422000Y-4104700I80000J0D01*
G01*
D14*
X26022000Y-6214700D02*
X26022000Y-6514700D01*
X25872000Y-6364700D02*
X26172000Y-6364700D01*
D15*
X26122000Y-6214700D02*
X25922000Y-6214700D01*
X25922000Y-6514700D02*
G75*
G02*
X25922000Y-6214700I0J150000D01*
G01*
X25922000Y-6514700D02*
X26122000Y-6514700D01*
X26122000Y-6514700D02*
G75*
G03*
X26122000Y-6214700I0J150000D01*
G01*
D14*
X26022000Y-9514700D02*
X26022000Y-9814700D01*
X25872000Y-9664700D02*
X26172000Y-9664700D01*
D15*
X26122000Y-9514700D02*
X25922000Y-9514700D01*
X25922000Y-9814700D02*
G75*
G02*
X25922000Y-9514700I0J150000D01*
G01*
X25922000Y-9814700D02*
X26122000Y-9814700D01*
X26122000Y-9814700D02*
G75*
G03*
X26122000Y-9514700I0J150000D01*
G01*
D16*
X20418406Y-2845406D02*
X20418406Y-2615594D01*
X20188594Y-2615594D01*
X20188594Y-2845406D01*
X20418406Y-2845406D01*
X21561406Y-2845406D02*
X21561406Y-2615594D01*
X21331594Y-2615594D01*
X21331594Y-2845406D01*
X21561406Y-2845406D01*
X22368406Y-2845406D02*
X22368406Y-2615594D01*
X22138594Y-2615594D01*
X22138594Y-2845406D01*
X22368406Y-2845406D01*
X23511406Y-2845406D02*
X23511406Y-2615594D01*
X23281594Y-2615594D01*
X23281594Y-2845406D01*
X23511406Y-2845406D01*
D17*
X15950000Y-3525000D02*
X16125000Y-3350000D01*
X15950000Y-3175000D01*
X15775000Y-3350000D01*
X15950000Y-3525000D01*
X15950000Y-6625000D02*
X16125000Y-6450000D01*
X15950000Y-6275000D01*
X15775000Y-6450000D01*
X15950000Y-6625000D01*
X17925000Y-6625000D02*
X18100000Y-6450000D01*
X17925000Y-6275000D01*
X17750000Y-6450000D01*
X17925000Y-6625000D01*
X17950000Y-3525000D02*
X18125000Y-3350000D01*
X17950000Y-3175000D01*
X17775000Y-3350000D01*
X17950000Y-3525000D01*
D11*
X15858277Y-12363984D02*
X15858277Y-12163984D01*
X15858277Y-12163984D02*
X15905896Y-12163984D01*
X15905896Y-12163984D02*
X15934467Y-12173508D01*
X15934467Y-12173508D02*
X15953515Y-12192555D01*
X15953515Y-12192555D02*
X15963039Y-12211603D01*
X15963039Y-12211603D02*
X15972562Y-12249698D01*
X15972562Y-12249698D02*
X15972562Y-12278269D01*
X15972562Y-12278269D02*
X15963039Y-12316365D01*
X15963039Y-12316365D02*
X15953515Y-12335412D01*
X15953515Y-12335412D02*
X15934467Y-12354460D01*
X15934467Y-12354460D02*
X15905896Y-12363984D01*
X15905896Y-12363984D02*
X15858277Y-12363984D01*
X16058277Y-12363984D02*
X16058277Y-12230650D01*
X16058277Y-12268746D02*
X16067801Y-12249698D01*
X16067801Y-12249698D02*
X16077324Y-12240174D01*
X16077324Y-12240174D02*
X16096372Y-12230650D01*
X16096372Y-12230650D02*
X16115420Y-12230650D01*
X16182086Y-12363984D02*
X16182086Y-12230650D01*
X16182086Y-12163984D02*
X16172562Y-12173508D01*
X16172562Y-12173508D02*
X16182086Y-12183031D01*
X16182086Y-12183031D02*
X16191610Y-12173508D01*
X16191610Y-12173508D02*
X16182086Y-12163984D01*
X16182086Y-12163984D02*
X16182086Y-12183031D01*
X16305896Y-12363984D02*
X16286848Y-12354460D01*
X16286848Y-12354460D02*
X16277324Y-12335412D01*
X16277324Y-12335412D02*
X16277324Y-12163984D01*
X16410658Y-12363984D02*
X16391610Y-12354460D01*
X16391610Y-12354460D02*
X16382086Y-12335412D01*
X16382086Y-12335412D02*
X16382086Y-12163984D01*
X16639229Y-12363984D02*
X16639229Y-12163984D01*
X16639229Y-12163984D02*
X16705896Y-12306841D01*
X16705896Y-12306841D02*
X16772562Y-12163984D01*
X16772562Y-12163984D02*
X16772562Y-12363984D01*
X16953515Y-12363984D02*
X16953515Y-12259222D01*
X16953515Y-12259222D02*
X16943991Y-12240174D01*
X16943991Y-12240174D02*
X16924944Y-12230650D01*
X16924944Y-12230650D02*
X16886848Y-12230650D01*
X16886848Y-12230650D02*
X16867801Y-12240174D01*
X16953515Y-12354460D02*
X16934467Y-12363984D01*
X16934467Y-12363984D02*
X16886848Y-12363984D01*
X16886848Y-12363984D02*
X16867801Y-12354460D01*
X16867801Y-12354460D02*
X16858277Y-12335412D01*
X16858277Y-12335412D02*
X16858277Y-12316365D01*
X16858277Y-12316365D02*
X16867801Y-12297317D01*
X16867801Y-12297317D02*
X16886848Y-12287793D01*
X16886848Y-12287793D02*
X16934467Y-12287793D01*
X16934467Y-12287793D02*
X16953515Y-12278269D01*
X17048753Y-12230650D02*
X17048753Y-12430650D01*
X17048753Y-12240174D02*
X17067801Y-12230650D01*
X17067801Y-12230650D02*
X17105896Y-12230650D01*
X17105896Y-12230650D02*
X17124944Y-12240174D01*
X17124944Y-12240174D02*
X17134467Y-12249698D01*
X17134467Y-12249698D02*
X17143991Y-12268746D01*
X17143991Y-12268746D02*
X17143991Y-12325888D01*
X17143991Y-12325888D02*
X17134467Y-12344936D01*
X17134467Y-12344936D02*
X17124944Y-12354460D01*
X17124944Y-12354460D02*
X17105896Y-12363984D01*
X17105896Y-12363984D02*
X17067801Y-12363984D01*
X17067801Y-12363984D02*
X17048753Y-12354460D01*
X17229705Y-12344936D02*
X17239229Y-12354460D01*
X17239229Y-12354460D02*
X17229705Y-12363984D01*
X17229705Y-12363984D02*
X17220182Y-12354460D01*
X17220182Y-12354460D02*
X17229705Y-12344936D01*
X17229705Y-12344936D02*
X17229705Y-12363984D01*
X17229705Y-12240174D02*
X17239229Y-12249698D01*
X17239229Y-12249698D02*
X17229705Y-12259222D01*
X17229705Y-12259222D02*
X17220182Y-12249698D01*
X17220182Y-12249698D02*
X17229705Y-12240174D01*
X17229705Y-12240174D02*
X17229705Y-12259222D01*
D12*
X15487500Y-12637500D02*
X15597500Y-12747500D01*
X15597500Y-12637500D02*
X15487500Y-12747500D01*
D11*
X15963039Y-12783984D02*
X15848753Y-12783984D01*
X15905896Y-12783984D02*
X15905896Y-12583984D01*
X15905896Y-12583984D02*
X15886848Y-12612555D01*
X15886848Y-12612555D02*
X15867801Y-12631603D01*
X15867801Y-12631603D02*
X15848753Y-12641127D01*
X16048753Y-12764936D02*
X16058277Y-12774460D01*
X16058277Y-12774460D02*
X16048753Y-12783984D01*
X16048753Y-12783984D02*
X16039229Y-12774460D01*
X16039229Y-12774460D02*
X16048753Y-12764936D01*
X16048753Y-12764936D02*
X16048753Y-12783984D01*
X16248753Y-12783984D02*
X16134467Y-12783984D01*
X16191610Y-12783984D02*
X16191610Y-12583984D01*
X16191610Y-12583984D02*
X16172562Y-12612555D01*
X16172562Y-12612555D02*
X16153515Y-12631603D01*
X16153515Y-12631603D02*
X16134467Y-12641127D01*
X16372562Y-12583984D02*
X16391610Y-12583984D01*
X16391610Y-12583984D02*
X16410658Y-12593508D01*
X16410658Y-12593508D02*
X16420182Y-12603031D01*
X16420182Y-12603031D02*
X16429705Y-12622079D01*
X16429705Y-12622079D02*
X16439229Y-12660174D01*
X16439229Y-12660174D02*
X16439229Y-12707793D01*
X16439229Y-12707793D02*
X16429705Y-12745888D01*
X16429705Y-12745888D02*
X16420182Y-12764936D01*
X16420182Y-12764936D02*
X16410658Y-12774460D01*
X16410658Y-12774460D02*
X16391610Y-12783984D01*
X16391610Y-12783984D02*
X16372562Y-12783984D01*
X16372562Y-12783984D02*
X16353515Y-12774460D01*
X16353515Y-12774460D02*
X16343991Y-12764936D01*
X16343991Y-12764936D02*
X16334467Y-12745888D01*
X16334467Y-12745888D02*
X16324943Y-12707793D01*
X16324943Y-12707793D02*
X16324943Y-12660174D01*
X16324943Y-12660174D02*
X16334467Y-12622079D01*
X16334467Y-12622079D02*
X16343991Y-12603031D01*
X16343991Y-12603031D02*
X16353515Y-12593508D01*
X16353515Y-12593508D02*
X16372562Y-12583984D01*
X16563039Y-12583984D02*
X16582086Y-12583984D01*
X16582086Y-12583984D02*
X16601134Y-12593508D01*
X16601134Y-12593508D02*
X16610658Y-12603031D01*
X16610658Y-12603031D02*
X16620182Y-12622079D01*
X16620182Y-12622079D02*
X16629705Y-12660174D01*
X16629705Y-12660174D02*
X16629705Y-12707793D01*
X16629705Y-12707793D02*
X16620182Y-12745888D01*
X16620182Y-12745888D02*
X16610658Y-12764936D01*
X16610658Y-12764936D02*
X16601134Y-12774460D01*
X16601134Y-12774460D02*
X16582086Y-12783984D01*
X16582086Y-12783984D02*
X16563039Y-12783984D01*
X16563039Y-12783984D02*
X16543991Y-12774460D01*
X16543991Y-12774460D02*
X16534467Y-12764936D01*
X16534467Y-12764936D02*
X16524943Y-12745888D01*
X16524943Y-12745888D02*
X16515420Y-12707793D01*
X16515420Y-12707793D02*
X16515420Y-12660174D01*
X16515420Y-12660174D02*
X16524943Y-12622079D01*
X16524943Y-12622079D02*
X16534467Y-12603031D01*
X16534467Y-12603031D02*
X16543991Y-12593508D01*
X16543991Y-12593508D02*
X16563039Y-12583984D01*
X16715420Y-12783984D02*
X16715420Y-12650650D01*
X16715420Y-12669698D02*
X16724943Y-12660174D01*
X16724943Y-12660174D02*
X16743991Y-12650650D01*
X16743991Y-12650650D02*
X16772563Y-12650650D01*
X16772563Y-12650650D02*
X16791610Y-12660174D01*
X16791610Y-12660174D02*
X16801134Y-12679222D01*
X16801134Y-12679222D02*
X16801134Y-12783984D01*
X16801134Y-12679222D02*
X16810658Y-12660174D01*
X16810658Y-12660174D02*
X16829705Y-12650650D01*
X16829705Y-12650650D02*
X16858277Y-12650650D01*
X16858277Y-12650650D02*
X16877325Y-12660174D01*
X16877325Y-12660174D02*
X16886848Y-12679222D01*
X16886848Y-12679222D02*
X16886848Y-12783984D01*
X16982086Y-12783984D02*
X16982086Y-12650650D01*
X16982086Y-12669698D02*
X16991610Y-12660174D01*
X16991610Y-12660174D02*
X17010658Y-12650650D01*
X17010658Y-12650650D02*
X17039229Y-12650650D01*
X17039229Y-12650650D02*
X17058277Y-12660174D01*
X17058277Y-12660174D02*
X17067801Y-12679222D01*
X17067801Y-12679222D02*
X17067801Y-12783984D01*
X17067801Y-12679222D02*
X17077325Y-12660174D01*
X17077325Y-12660174D02*
X17096372Y-12650650D01*
X17096372Y-12650650D02*
X17124944Y-12650650D01*
X17124944Y-12650650D02*
X17143991Y-12660174D01*
X17143991Y-12660174D02*
X17153515Y-12679222D01*
X17153515Y-12679222D02*
X17153515Y-12783984D01*
X17543991Y-12574460D02*
X17372563Y-12831603D01*
X17801134Y-12583984D02*
X17820182Y-12583984D01*
X17820182Y-12583984D02*
X17839229Y-12593508D01*
X17839229Y-12593508D02*
X17848753Y-12603031D01*
X17848753Y-12603031D02*
X17858277Y-12622079D01*
X17858277Y-12622079D02*
X17867801Y-12660174D01*
X17867801Y-12660174D02*
X17867801Y-12707793D01*
X17867801Y-12707793D02*
X17858277Y-12745888D01*
X17858277Y-12745888D02*
X17848753Y-12764936D01*
X17848753Y-12764936D02*
X17839229Y-12774460D01*
X17839229Y-12774460D02*
X17820182Y-12783984D01*
X17820182Y-12783984D02*
X17801134Y-12783984D01*
X17801134Y-12783984D02*
X17782087Y-12774460D01*
X17782087Y-12774460D02*
X17772563Y-12764936D01*
X17772563Y-12764936D02*
X17763039Y-12745888D01*
X17763039Y-12745888D02*
X17753515Y-12707793D01*
X17753515Y-12707793D02*
X17753515Y-12660174D01*
X17753515Y-12660174D02*
X17763039Y-12622079D01*
X17763039Y-12622079D02*
X17772563Y-12603031D01*
X17772563Y-12603031D02*
X17782087Y-12593508D01*
X17782087Y-12593508D02*
X17801134Y-12583984D01*
X17953515Y-12764936D02*
X17963039Y-12774460D01*
X17963039Y-12774460D02*
X17953515Y-12783984D01*
X17953515Y-12783984D02*
X17943991Y-12774460D01*
X17943991Y-12774460D02*
X17953515Y-12764936D01*
X17953515Y-12764936D02*
X17953515Y-12783984D01*
X18086848Y-12583984D02*
X18105896Y-12583984D01*
X18105896Y-12583984D02*
X18124944Y-12593508D01*
X18124944Y-12593508D02*
X18134468Y-12603031D01*
X18134468Y-12603031D02*
X18143991Y-12622079D01*
X18143991Y-12622079D02*
X18153515Y-12660174D01*
X18153515Y-12660174D02*
X18153515Y-12707793D01*
X18153515Y-12707793D02*
X18143991Y-12745888D01*
X18143991Y-12745888D02*
X18134468Y-12764936D01*
X18134468Y-12764936D02*
X18124944Y-12774460D01*
X18124944Y-12774460D02*
X18105896Y-12783984D01*
X18105896Y-12783984D02*
X18086848Y-12783984D01*
X18086848Y-12783984D02*
X18067801Y-12774460D01*
X18067801Y-12774460D02*
X18058277Y-12764936D01*
X18058277Y-12764936D02*
X18048753Y-12745888D01*
X18048753Y-12745888D02*
X18039229Y-12707793D01*
X18039229Y-12707793D02*
X18039229Y-12660174D01*
X18039229Y-12660174D02*
X18048753Y-12622079D01*
X18048753Y-12622079D02*
X18058277Y-12603031D01*
X18058277Y-12603031D02*
X18067801Y-12593508D01*
X18067801Y-12593508D02*
X18086848Y-12583984D01*
X18324944Y-12650650D02*
X18324944Y-12783984D01*
X18277325Y-12574460D02*
X18229706Y-12717317D01*
X18229706Y-12717317D02*
X18353515Y-12717317D01*
X18410658Y-12583984D02*
X18534468Y-12583984D01*
X18534468Y-12583984D02*
X18467801Y-12660174D01*
X18467801Y-12660174D02*
X18496372Y-12660174D01*
X18496372Y-12660174D02*
X18515420Y-12669698D01*
X18515420Y-12669698D02*
X18524944Y-12679222D01*
X18524944Y-12679222D02*
X18534468Y-12698269D01*
X18534468Y-12698269D02*
X18534468Y-12745888D01*
X18534468Y-12745888D02*
X18524944Y-12764936D01*
X18524944Y-12764936D02*
X18515420Y-12774460D01*
X18515420Y-12774460D02*
X18496372Y-12783984D01*
X18496372Y-12783984D02*
X18439229Y-12783984D01*
X18439229Y-12783984D02*
X18420182Y-12774460D01*
X18420182Y-12774460D02*
X18410658Y-12764936D01*
X18601134Y-12583984D02*
X18724944Y-12583984D01*
X18724944Y-12583984D02*
X18658277Y-12660174D01*
X18658277Y-12660174D02*
X18686849Y-12660174D01*
X18686849Y-12660174D02*
X18705896Y-12669698D01*
X18705896Y-12669698D02*
X18715420Y-12679222D01*
X18715420Y-12679222D02*
X18724944Y-12698269D01*
X18724944Y-12698269D02*
X18724944Y-12745888D01*
X18724944Y-12745888D02*
X18715420Y-12764936D01*
X18715420Y-12764936D02*
X18705896Y-12774460D01*
X18705896Y-12774460D02*
X18686849Y-12783984D01*
X18686849Y-12783984D02*
X18629706Y-12783984D01*
X18629706Y-12783984D02*
X18610658Y-12774460D01*
X18610658Y-12774460D02*
X18601134Y-12764936D01*
X18801134Y-12583984D02*
X18801134Y-12622079D01*
X18877325Y-12583984D02*
X18877325Y-12622079D01*
X19172563Y-12860174D02*
X19163039Y-12850650D01*
X19163039Y-12850650D02*
X19143991Y-12822079D01*
X19143991Y-12822079D02*
X19134468Y-12803031D01*
X19134468Y-12803031D02*
X19124944Y-12774460D01*
X19124944Y-12774460D02*
X19115420Y-12726841D01*
X19115420Y-12726841D02*
X19115420Y-12688746D01*
X19115420Y-12688746D02*
X19124944Y-12641127D01*
X19124944Y-12641127D02*
X19134468Y-12612555D01*
X19134468Y-12612555D02*
X19143991Y-12593508D01*
X19143991Y-12593508D02*
X19163039Y-12564936D01*
X19163039Y-12564936D02*
X19172563Y-12555412D01*
X19353515Y-12783984D02*
X19239230Y-12783984D01*
X19296372Y-12783984D02*
X19296372Y-12583984D01*
X19296372Y-12583984D02*
X19277325Y-12612555D01*
X19277325Y-12612555D02*
X19258277Y-12631603D01*
X19258277Y-12631603D02*
X19239230Y-12641127D01*
X19591611Y-12783984D02*
X19591611Y-12583984D01*
X19677325Y-12783984D02*
X19677325Y-12679222D01*
X19677325Y-12679222D02*
X19667801Y-12660174D01*
X19667801Y-12660174D02*
X19648753Y-12650650D01*
X19648753Y-12650650D02*
X19620182Y-12650650D01*
X19620182Y-12650650D02*
X19601134Y-12660174D01*
X19601134Y-12660174D02*
X19591611Y-12669698D01*
X19801134Y-12783984D02*
X19782087Y-12774460D01*
X19782087Y-12774460D02*
X19772563Y-12764936D01*
X19772563Y-12764936D02*
X19763039Y-12745888D01*
X19763039Y-12745888D02*
X19763039Y-12688746D01*
X19763039Y-12688746D02*
X19772563Y-12669698D01*
X19772563Y-12669698D02*
X19782087Y-12660174D01*
X19782087Y-12660174D02*
X19801134Y-12650650D01*
X19801134Y-12650650D02*
X19829706Y-12650650D01*
X19829706Y-12650650D02*
X19848753Y-12660174D01*
X19848753Y-12660174D02*
X19858277Y-12669698D01*
X19858277Y-12669698D02*
X19867801Y-12688746D01*
X19867801Y-12688746D02*
X19867801Y-12745888D01*
X19867801Y-12745888D02*
X19858277Y-12764936D01*
X19858277Y-12764936D02*
X19848753Y-12774460D01*
X19848753Y-12774460D02*
X19829706Y-12783984D01*
X19829706Y-12783984D02*
X19801134Y-12783984D01*
X19982087Y-12783984D02*
X19963039Y-12774460D01*
X19963039Y-12774460D02*
X19953515Y-12755412D01*
X19953515Y-12755412D02*
X19953515Y-12583984D01*
X20134468Y-12774460D02*
X20115420Y-12783984D01*
X20115420Y-12783984D02*
X20077325Y-12783984D01*
X20077325Y-12783984D02*
X20058277Y-12774460D01*
X20058277Y-12774460D02*
X20048753Y-12755412D01*
X20048753Y-12755412D02*
X20048753Y-12679222D01*
X20048753Y-12679222D02*
X20058277Y-12660174D01*
X20058277Y-12660174D02*
X20077325Y-12650650D01*
X20077325Y-12650650D02*
X20115420Y-12650650D01*
X20115420Y-12650650D02*
X20134468Y-12660174D01*
X20134468Y-12660174D02*
X20143992Y-12679222D01*
X20143992Y-12679222D02*
X20143992Y-12698269D01*
X20143992Y-12698269D02*
X20048753Y-12717317D01*
X20210658Y-12860174D02*
X20220182Y-12850650D01*
X20220182Y-12850650D02*
X20239230Y-12822079D01*
X20239230Y-12822079D02*
X20248753Y-12803031D01*
X20248753Y-12803031D02*
X20258277Y-12774460D01*
X20258277Y-12774460D02*
X20267801Y-12726841D01*
X20267801Y-12726841D02*
X20267801Y-12688746D01*
X20267801Y-12688746D02*
X20258277Y-12641127D01*
X20258277Y-12641127D02*
X20248753Y-12612555D01*
X20248753Y-12612555D02*
X20239230Y-12593508D01*
X20239230Y-12593508D02*
X20220182Y-12564936D01*
X20220182Y-12564936D02*
X20210658Y-12555412D01*
X20572563Y-12860174D02*
X20563039Y-12850650D01*
X20563039Y-12850650D02*
X20543992Y-12822079D01*
X20543992Y-12822079D02*
X20534468Y-12803031D01*
X20534468Y-12803031D02*
X20524944Y-12774460D01*
X20524944Y-12774460D02*
X20515420Y-12726841D01*
X20515420Y-12726841D02*
X20515420Y-12688746D01*
X20515420Y-12688746D02*
X20524944Y-12641127D01*
X20524944Y-12641127D02*
X20534468Y-12612555D01*
X20534468Y-12612555D02*
X20543992Y-12593508D01*
X20543992Y-12593508D02*
X20563039Y-12564936D01*
X20563039Y-12564936D02*
X20572563Y-12555412D01*
X20648753Y-12650650D02*
X20648753Y-12783984D01*
X20648753Y-12669698D02*
X20658277Y-12660174D01*
X20658277Y-12660174D02*
X20677325Y-12650650D01*
X20677325Y-12650650D02*
X20705896Y-12650650D01*
X20705896Y-12650650D02*
X20724944Y-12660174D01*
X20724944Y-12660174D02*
X20734468Y-12679222D01*
X20734468Y-12679222D02*
X20734468Y-12783984D01*
X20858277Y-12783984D02*
X20839230Y-12774460D01*
X20839230Y-12774460D02*
X20829706Y-12764936D01*
X20829706Y-12764936D02*
X20820182Y-12745888D01*
X20820182Y-12745888D02*
X20820182Y-12688746D01*
X20820182Y-12688746D02*
X20829706Y-12669698D01*
X20829706Y-12669698D02*
X20839230Y-12660174D01*
X20839230Y-12660174D02*
X20858277Y-12650650D01*
X20858277Y-12650650D02*
X20886849Y-12650650D01*
X20886849Y-12650650D02*
X20905896Y-12660174D01*
X20905896Y-12660174D02*
X20915420Y-12669698D01*
X20915420Y-12669698D02*
X20924944Y-12688746D01*
X20924944Y-12688746D02*
X20924944Y-12745888D01*
X20924944Y-12745888D02*
X20915420Y-12764936D01*
X20915420Y-12764936D02*
X20905896Y-12774460D01*
X20905896Y-12774460D02*
X20886849Y-12783984D01*
X20886849Y-12783984D02*
X20858277Y-12783984D01*
X20982087Y-12650650D02*
X21058277Y-12650650D01*
X21010658Y-12583984D02*
X21010658Y-12755412D01*
X21010658Y-12755412D02*
X21020182Y-12774460D01*
X21020182Y-12774460D02*
X21039230Y-12783984D01*
X21039230Y-12783984D02*
X21058277Y-12783984D01*
X21277325Y-12650650D02*
X21277325Y-12850650D01*
X21277325Y-12660174D02*
X21296373Y-12650650D01*
X21296373Y-12650650D02*
X21334468Y-12650650D01*
X21334468Y-12650650D02*
X21353515Y-12660174D01*
X21353515Y-12660174D02*
X21363039Y-12669698D01*
X21363039Y-12669698D02*
X21372563Y-12688746D01*
X21372563Y-12688746D02*
X21372563Y-12745888D01*
X21372563Y-12745888D02*
X21363039Y-12764936D01*
X21363039Y-12764936D02*
X21353515Y-12774460D01*
X21353515Y-12774460D02*
X21334468Y-12783984D01*
X21334468Y-12783984D02*
X21296373Y-12783984D01*
X21296373Y-12783984D02*
X21277325Y-12774460D01*
X21486849Y-12783984D02*
X21467801Y-12774460D01*
X21467801Y-12774460D02*
X21458277Y-12755412D01*
X21458277Y-12755412D02*
X21458277Y-12583984D01*
X21648754Y-12783984D02*
X21648754Y-12679222D01*
X21648754Y-12679222D02*
X21639230Y-12660174D01*
X21639230Y-12660174D02*
X21620182Y-12650650D01*
X21620182Y-12650650D02*
X21582087Y-12650650D01*
X21582087Y-12650650D02*
X21563039Y-12660174D01*
X21648754Y-12774460D02*
X21629706Y-12783984D01*
X21629706Y-12783984D02*
X21582087Y-12783984D01*
X21582087Y-12783984D02*
X21563039Y-12774460D01*
X21563039Y-12774460D02*
X21553515Y-12755412D01*
X21553515Y-12755412D02*
X21553515Y-12736365D01*
X21553515Y-12736365D02*
X21563039Y-12717317D01*
X21563039Y-12717317D02*
X21582087Y-12707793D01*
X21582087Y-12707793D02*
X21629706Y-12707793D01*
X21629706Y-12707793D02*
X21648754Y-12698269D01*
X21715420Y-12650650D02*
X21791611Y-12650650D01*
X21743992Y-12583984D02*
X21743992Y-12755412D01*
X21743992Y-12755412D02*
X21753515Y-12774460D01*
X21753515Y-12774460D02*
X21772563Y-12783984D01*
X21772563Y-12783984D02*
X21791611Y-12783984D01*
X21934468Y-12774460D02*
X21915420Y-12783984D01*
X21915420Y-12783984D02*
X21877325Y-12783984D01*
X21877325Y-12783984D02*
X21858277Y-12774460D01*
X21858277Y-12774460D02*
X21848754Y-12755412D01*
X21848754Y-12755412D02*
X21848754Y-12679222D01*
X21848754Y-12679222D02*
X21858277Y-12660174D01*
X21858277Y-12660174D02*
X21877325Y-12650650D01*
X21877325Y-12650650D02*
X21915420Y-12650650D01*
X21915420Y-12650650D02*
X21934468Y-12660174D01*
X21934468Y-12660174D02*
X21943992Y-12679222D01*
X21943992Y-12679222D02*
X21943992Y-12698269D01*
X21943992Y-12698269D02*
X21848754Y-12717317D01*
X22115420Y-12783984D02*
X22115420Y-12583984D01*
X22115420Y-12774460D02*
X22096373Y-12783984D01*
X22096373Y-12783984D02*
X22058277Y-12783984D01*
X22058277Y-12783984D02*
X22039230Y-12774460D01*
X22039230Y-12774460D02*
X22029706Y-12764936D01*
X22029706Y-12764936D02*
X22020182Y-12745888D01*
X22020182Y-12745888D02*
X22020182Y-12688746D01*
X22020182Y-12688746D02*
X22029706Y-12669698D01*
X22029706Y-12669698D02*
X22039230Y-12660174D01*
X22039230Y-12660174D02*
X22058277Y-12650650D01*
X22058277Y-12650650D02*
X22096373Y-12650650D01*
X22096373Y-12650650D02*
X22115420Y-12660174D01*
X22191611Y-12860174D02*
X22201135Y-12850650D01*
X22201135Y-12850650D02*
X22220182Y-12822079D01*
X22220182Y-12822079D02*
X22229706Y-12803031D01*
X22229706Y-12803031D02*
X22239230Y-12774460D01*
X22239230Y-12774460D02*
X22248754Y-12726841D01*
X22248754Y-12726841D02*
X22248754Y-12688746D01*
X22248754Y-12688746D02*
X22239230Y-12641127D01*
X22239230Y-12641127D02*
X22229706Y-12612555D01*
X22229706Y-12612555D02*
X22220182Y-12593508D01*
X22220182Y-12593508D02*
X22201135Y-12564936D01*
X22201135Y-12564936D02*
X22191611Y-12555412D01*
D13*
X15597500Y-12956500D02*
G75*
G02*
X15437500Y-12956500I-80000J0D01*
G01*
X15437500Y-12956500D02*
G75*
G02*
X15597500Y-12956500I80000J0D01*
G01*
D11*
X15963039Y-13047984D02*
X15848753Y-13047984D01*
X15905896Y-13047984D02*
X15905896Y-12847984D01*
X15905896Y-12847984D02*
X15886848Y-12876555D01*
X15886848Y-12876555D02*
X15867801Y-12895603D01*
X15867801Y-12895603D02*
X15848753Y-12905127D01*
X16048753Y-13028936D02*
X16058277Y-13038460D01*
X16058277Y-13038460D02*
X16048753Y-13047984D01*
X16048753Y-13047984D02*
X16039229Y-13038460D01*
X16039229Y-13038460D02*
X16048753Y-13028936D01*
X16048753Y-13028936D02*
X16048753Y-13047984D01*
X16229705Y-12847984D02*
X16191610Y-12847984D01*
X16191610Y-12847984D02*
X16172562Y-12857508D01*
X16172562Y-12857508D02*
X16163039Y-12867031D01*
X16163039Y-12867031D02*
X16143991Y-12895603D01*
X16143991Y-12895603D02*
X16134467Y-12933698D01*
X16134467Y-12933698D02*
X16134467Y-13009888D01*
X16134467Y-13009888D02*
X16143991Y-13028936D01*
X16143991Y-13028936D02*
X16153515Y-13038460D01*
X16153515Y-13038460D02*
X16172562Y-13047984D01*
X16172562Y-13047984D02*
X16210658Y-13047984D01*
X16210658Y-13047984D02*
X16229705Y-13038460D01*
X16229705Y-13038460D02*
X16239229Y-13028936D01*
X16239229Y-13028936D02*
X16248753Y-13009888D01*
X16248753Y-13009888D02*
X16248753Y-12962269D01*
X16248753Y-12962269D02*
X16239229Y-12943222D01*
X16239229Y-12943222D02*
X16229705Y-12933698D01*
X16229705Y-12933698D02*
X16210658Y-12924174D01*
X16210658Y-12924174D02*
X16172562Y-12924174D01*
X16172562Y-12924174D02*
X16153515Y-12933698D01*
X16153515Y-12933698D02*
X16143991Y-12943222D01*
X16143991Y-12943222D02*
X16134467Y-12962269D01*
X16372562Y-12847984D02*
X16391610Y-12847984D01*
X16391610Y-12847984D02*
X16410658Y-12857508D01*
X16410658Y-12857508D02*
X16420182Y-12867031D01*
X16420182Y-12867031D02*
X16429705Y-12886079D01*
X16429705Y-12886079D02*
X16439229Y-12924174D01*
X16439229Y-12924174D02*
X16439229Y-12971793D01*
X16439229Y-12971793D02*
X16429705Y-13009888D01*
X16429705Y-13009888D02*
X16420182Y-13028936D01*
X16420182Y-13028936D02*
X16410658Y-13038460D01*
X16410658Y-13038460D02*
X16391610Y-13047984D01*
X16391610Y-13047984D02*
X16372562Y-13047984D01*
X16372562Y-13047984D02*
X16353515Y-13038460D01*
X16353515Y-13038460D02*
X16343991Y-13028936D01*
X16343991Y-13028936D02*
X16334467Y-13009888D01*
X16334467Y-13009888D02*
X16324943Y-12971793D01*
X16324943Y-12971793D02*
X16324943Y-12924174D01*
X16324943Y-12924174D02*
X16334467Y-12886079D01*
X16334467Y-12886079D02*
X16343991Y-12867031D01*
X16343991Y-12867031D02*
X16353515Y-12857508D01*
X16353515Y-12857508D02*
X16372562Y-12847984D01*
X16563039Y-12847984D02*
X16582086Y-12847984D01*
X16582086Y-12847984D02*
X16601134Y-12857508D01*
X16601134Y-12857508D02*
X16610658Y-12867031D01*
X16610658Y-12867031D02*
X16620182Y-12886079D01*
X16620182Y-12886079D02*
X16629705Y-12924174D01*
X16629705Y-12924174D02*
X16629705Y-12971793D01*
X16629705Y-12971793D02*
X16620182Y-13009888D01*
X16620182Y-13009888D02*
X16610658Y-13028936D01*
X16610658Y-13028936D02*
X16601134Y-13038460D01*
X16601134Y-13038460D02*
X16582086Y-13047984D01*
X16582086Y-13047984D02*
X16563039Y-13047984D01*
X16563039Y-13047984D02*
X16543991Y-13038460D01*
X16543991Y-13038460D02*
X16534467Y-13028936D01*
X16534467Y-13028936D02*
X16524943Y-13009888D01*
X16524943Y-13009888D02*
X16515420Y-12971793D01*
X16515420Y-12971793D02*
X16515420Y-12924174D01*
X16515420Y-12924174D02*
X16524943Y-12886079D01*
X16524943Y-12886079D02*
X16534467Y-12867031D01*
X16534467Y-12867031D02*
X16543991Y-12857508D01*
X16543991Y-12857508D02*
X16563039Y-12847984D01*
X16715420Y-13047984D02*
X16715420Y-12914650D01*
X16715420Y-12933698D02*
X16724943Y-12924174D01*
X16724943Y-12924174D02*
X16743991Y-12914650D01*
X16743991Y-12914650D02*
X16772563Y-12914650D01*
X16772563Y-12914650D02*
X16791610Y-12924174D01*
X16791610Y-12924174D02*
X16801134Y-12943222D01*
X16801134Y-12943222D02*
X16801134Y-13047984D01*
X16801134Y-12943222D02*
X16810658Y-12924174D01*
X16810658Y-12924174D02*
X16829705Y-12914650D01*
X16829705Y-12914650D02*
X16858277Y-12914650D01*
X16858277Y-12914650D02*
X16877325Y-12924174D01*
X16877325Y-12924174D02*
X16886848Y-12943222D01*
X16886848Y-12943222D02*
X16886848Y-13047984D01*
X16982086Y-13047984D02*
X16982086Y-12914650D01*
X16982086Y-12933698D02*
X16991610Y-12924174D01*
X16991610Y-12924174D02*
X17010658Y-12914650D01*
X17010658Y-12914650D02*
X17039229Y-12914650D01*
X17039229Y-12914650D02*
X17058277Y-12924174D01*
X17058277Y-12924174D02*
X17067801Y-12943222D01*
X17067801Y-12943222D02*
X17067801Y-13047984D01*
X17067801Y-12943222D02*
X17077325Y-12924174D01*
X17077325Y-12924174D02*
X17096372Y-12914650D01*
X17096372Y-12914650D02*
X17124944Y-12914650D01*
X17124944Y-12914650D02*
X17143991Y-12924174D01*
X17143991Y-12924174D02*
X17153515Y-12943222D01*
X17153515Y-12943222D02*
X17153515Y-13047984D01*
X17543991Y-12838460D02*
X17372563Y-13095603D01*
X17801134Y-12847984D02*
X17820182Y-12847984D01*
X17820182Y-12847984D02*
X17839229Y-12857508D01*
X17839229Y-12857508D02*
X17848753Y-12867031D01*
X17848753Y-12867031D02*
X17858277Y-12886079D01*
X17858277Y-12886079D02*
X17867801Y-12924174D01*
X17867801Y-12924174D02*
X17867801Y-12971793D01*
X17867801Y-12971793D02*
X17858277Y-13009888D01*
X17858277Y-13009888D02*
X17848753Y-13028936D01*
X17848753Y-13028936D02*
X17839229Y-13038460D01*
X17839229Y-13038460D02*
X17820182Y-13047984D01*
X17820182Y-13047984D02*
X17801134Y-13047984D01*
X17801134Y-13047984D02*
X17782087Y-13038460D01*
X17782087Y-13038460D02*
X17772563Y-13028936D01*
X17772563Y-13028936D02*
X17763039Y-13009888D01*
X17763039Y-13009888D02*
X17753515Y-12971793D01*
X17753515Y-12971793D02*
X17753515Y-12924174D01*
X17753515Y-12924174D02*
X17763039Y-12886079D01*
X17763039Y-12886079D02*
X17772563Y-12867031D01*
X17772563Y-12867031D02*
X17782087Y-12857508D01*
X17782087Y-12857508D02*
X17801134Y-12847984D01*
X17953515Y-13028936D02*
X17963039Y-13038460D01*
X17963039Y-13038460D02*
X17953515Y-13047984D01*
X17953515Y-13047984D02*
X17943991Y-13038460D01*
X17943991Y-13038460D02*
X17953515Y-13028936D01*
X17953515Y-13028936D02*
X17953515Y-13047984D01*
X18086848Y-12847984D02*
X18105896Y-12847984D01*
X18105896Y-12847984D02*
X18124944Y-12857508D01*
X18124944Y-12857508D02*
X18134468Y-12867031D01*
X18134468Y-12867031D02*
X18143991Y-12886079D01*
X18143991Y-12886079D02*
X18153515Y-12924174D01*
X18153515Y-12924174D02*
X18153515Y-12971793D01*
X18153515Y-12971793D02*
X18143991Y-13009888D01*
X18143991Y-13009888D02*
X18134468Y-13028936D01*
X18134468Y-13028936D02*
X18124944Y-13038460D01*
X18124944Y-13038460D02*
X18105896Y-13047984D01*
X18105896Y-13047984D02*
X18086848Y-13047984D01*
X18086848Y-13047984D02*
X18067801Y-13038460D01*
X18067801Y-13038460D02*
X18058277Y-13028936D01*
X18058277Y-13028936D02*
X18048753Y-13009888D01*
X18048753Y-13009888D02*
X18039229Y-12971793D01*
X18039229Y-12971793D02*
X18039229Y-12924174D01*
X18039229Y-12924174D02*
X18048753Y-12886079D01*
X18048753Y-12886079D02*
X18058277Y-12867031D01*
X18058277Y-12867031D02*
X18067801Y-12857508D01*
X18067801Y-12857508D02*
X18086848Y-12847984D01*
X18324944Y-12847984D02*
X18286848Y-12847984D01*
X18286848Y-12847984D02*
X18267801Y-12857508D01*
X18267801Y-12857508D02*
X18258277Y-12867031D01*
X18258277Y-12867031D02*
X18239229Y-12895603D01*
X18239229Y-12895603D02*
X18229706Y-12933698D01*
X18229706Y-12933698D02*
X18229706Y-13009888D01*
X18229706Y-13009888D02*
X18239229Y-13028936D01*
X18239229Y-13028936D02*
X18248753Y-13038460D01*
X18248753Y-13038460D02*
X18267801Y-13047984D01*
X18267801Y-13047984D02*
X18305896Y-13047984D01*
X18305896Y-13047984D02*
X18324944Y-13038460D01*
X18324944Y-13038460D02*
X18334468Y-13028936D01*
X18334468Y-13028936D02*
X18343991Y-13009888D01*
X18343991Y-13009888D02*
X18343991Y-12962269D01*
X18343991Y-12962269D02*
X18334468Y-12943222D01*
X18334468Y-12943222D02*
X18324944Y-12933698D01*
X18324944Y-12933698D02*
X18305896Y-12924174D01*
X18305896Y-12924174D02*
X18267801Y-12924174D01*
X18267801Y-12924174D02*
X18248753Y-12933698D01*
X18248753Y-12933698D02*
X18239229Y-12943222D01*
X18239229Y-12943222D02*
X18229706Y-12962269D01*
X18410658Y-12847984D02*
X18534468Y-12847984D01*
X18534468Y-12847984D02*
X18467801Y-12924174D01*
X18467801Y-12924174D02*
X18496372Y-12924174D01*
X18496372Y-12924174D02*
X18515420Y-12933698D01*
X18515420Y-12933698D02*
X18524944Y-12943222D01*
X18524944Y-12943222D02*
X18534468Y-12962269D01*
X18534468Y-12962269D02*
X18534468Y-13009888D01*
X18534468Y-13009888D02*
X18524944Y-13028936D01*
X18524944Y-13028936D02*
X18515420Y-13038460D01*
X18515420Y-13038460D02*
X18496372Y-13047984D01*
X18496372Y-13047984D02*
X18439229Y-13047984D01*
X18439229Y-13047984D02*
X18420182Y-13038460D01*
X18420182Y-13038460D02*
X18410658Y-13028936D01*
X18658277Y-12847984D02*
X18677325Y-12847984D01*
X18677325Y-12847984D02*
X18696372Y-12857508D01*
X18696372Y-12857508D02*
X18705896Y-12867031D01*
X18705896Y-12867031D02*
X18715420Y-12886079D01*
X18715420Y-12886079D02*
X18724944Y-12924174D01*
X18724944Y-12924174D02*
X18724944Y-12971793D01*
X18724944Y-12971793D02*
X18715420Y-13009888D01*
X18715420Y-13009888D02*
X18705896Y-13028936D01*
X18705896Y-13028936D02*
X18696372Y-13038460D01*
X18696372Y-13038460D02*
X18677325Y-13047984D01*
X18677325Y-13047984D02*
X18658277Y-13047984D01*
X18658277Y-13047984D02*
X18639229Y-13038460D01*
X18639229Y-13038460D02*
X18629706Y-13028936D01*
X18629706Y-13028936D02*
X18620182Y-13009888D01*
X18620182Y-13009888D02*
X18610658Y-12971793D01*
X18610658Y-12971793D02*
X18610658Y-12924174D01*
X18610658Y-12924174D02*
X18620182Y-12886079D01*
X18620182Y-12886079D02*
X18629706Y-12867031D01*
X18629706Y-12867031D02*
X18639229Y-12857508D01*
X18639229Y-12857508D02*
X18658277Y-12847984D01*
X18801134Y-12847984D02*
X18801134Y-12886079D01*
X18877325Y-12847984D02*
X18877325Y-12886079D01*
X19172563Y-13124174D02*
X19163039Y-13114650D01*
X19163039Y-13114650D02*
X19143991Y-13086079D01*
X19143991Y-13086079D02*
X19134468Y-13067031D01*
X19134468Y-13067031D02*
X19124944Y-13038460D01*
X19124944Y-13038460D02*
X19115420Y-12990841D01*
X19115420Y-12990841D02*
X19115420Y-12952746D01*
X19115420Y-12952746D02*
X19124944Y-12905127D01*
X19124944Y-12905127D02*
X19134468Y-12876555D01*
X19134468Y-12876555D02*
X19143991Y-12857508D01*
X19143991Y-12857508D02*
X19163039Y-12828936D01*
X19163039Y-12828936D02*
X19172563Y-12819412D01*
X19353515Y-13047984D02*
X19239230Y-13047984D01*
X19296372Y-13047984D02*
X19296372Y-12847984D01*
X19296372Y-12847984D02*
X19277325Y-12876555D01*
X19277325Y-12876555D02*
X19258277Y-12895603D01*
X19258277Y-12895603D02*
X19239230Y-12905127D01*
X19591611Y-13047984D02*
X19591611Y-12847984D01*
X19677325Y-13047984D02*
X19677325Y-12943222D01*
X19677325Y-12943222D02*
X19667801Y-12924174D01*
X19667801Y-12924174D02*
X19648753Y-12914650D01*
X19648753Y-12914650D02*
X19620182Y-12914650D01*
X19620182Y-12914650D02*
X19601134Y-12924174D01*
X19601134Y-12924174D02*
X19591611Y-12933698D01*
X19801134Y-13047984D02*
X19782087Y-13038460D01*
X19782087Y-13038460D02*
X19772563Y-13028936D01*
X19772563Y-13028936D02*
X19763039Y-13009888D01*
X19763039Y-13009888D02*
X19763039Y-12952746D01*
X19763039Y-12952746D02*
X19772563Y-12933698D01*
X19772563Y-12933698D02*
X19782087Y-12924174D01*
X19782087Y-12924174D02*
X19801134Y-12914650D01*
X19801134Y-12914650D02*
X19829706Y-12914650D01*
X19829706Y-12914650D02*
X19848753Y-12924174D01*
X19848753Y-12924174D02*
X19858277Y-12933698D01*
X19858277Y-12933698D02*
X19867801Y-12952746D01*
X19867801Y-12952746D02*
X19867801Y-13009888D01*
X19867801Y-13009888D02*
X19858277Y-13028936D01*
X19858277Y-13028936D02*
X19848753Y-13038460D01*
X19848753Y-13038460D02*
X19829706Y-13047984D01*
X19829706Y-13047984D02*
X19801134Y-13047984D01*
X19982087Y-13047984D02*
X19963039Y-13038460D01*
X19963039Y-13038460D02*
X19953515Y-13019412D01*
X19953515Y-13019412D02*
X19953515Y-12847984D01*
X20134468Y-13038460D02*
X20115420Y-13047984D01*
X20115420Y-13047984D02*
X20077325Y-13047984D01*
X20077325Y-13047984D02*
X20058277Y-13038460D01*
X20058277Y-13038460D02*
X20048753Y-13019412D01*
X20048753Y-13019412D02*
X20048753Y-12943222D01*
X20048753Y-12943222D02*
X20058277Y-12924174D01*
X20058277Y-12924174D02*
X20077325Y-12914650D01*
X20077325Y-12914650D02*
X20115420Y-12914650D01*
X20115420Y-12914650D02*
X20134468Y-12924174D01*
X20134468Y-12924174D02*
X20143992Y-12943222D01*
X20143992Y-12943222D02*
X20143992Y-12962269D01*
X20143992Y-12962269D02*
X20048753Y-12981317D01*
X20210658Y-13124174D02*
X20220182Y-13114650D01*
X20220182Y-13114650D02*
X20239230Y-13086079D01*
X20239230Y-13086079D02*
X20248753Y-13067031D01*
X20248753Y-13067031D02*
X20258277Y-13038460D01*
X20258277Y-13038460D02*
X20267801Y-12990841D01*
X20267801Y-12990841D02*
X20267801Y-12952746D01*
X20267801Y-12952746D02*
X20258277Y-12905127D01*
X20258277Y-12905127D02*
X20248753Y-12876555D01*
X20248753Y-12876555D02*
X20239230Y-12857508D01*
X20239230Y-12857508D02*
X20220182Y-12828936D01*
X20220182Y-12828936D02*
X20210658Y-12819412D01*
X20572563Y-13124174D02*
X20563039Y-13114650D01*
X20563039Y-13114650D02*
X20543992Y-13086079D01*
X20543992Y-13086079D02*
X20534468Y-13067031D01*
X20534468Y-13067031D02*
X20524944Y-13038460D01*
X20524944Y-13038460D02*
X20515420Y-12990841D01*
X20515420Y-12990841D02*
X20515420Y-12952746D01*
X20515420Y-12952746D02*
X20524944Y-12905127D01*
X20524944Y-12905127D02*
X20534468Y-12876555D01*
X20534468Y-12876555D02*
X20543992Y-12857508D01*
X20543992Y-12857508D02*
X20563039Y-12828936D01*
X20563039Y-12828936D02*
X20572563Y-12819412D01*
X20648753Y-12914650D02*
X20648753Y-13047984D01*
X20648753Y-12933698D02*
X20658277Y-12924174D01*
X20658277Y-12924174D02*
X20677325Y-12914650D01*
X20677325Y-12914650D02*
X20705896Y-12914650D01*
X20705896Y-12914650D02*
X20724944Y-12924174D01*
X20724944Y-12924174D02*
X20734468Y-12943222D01*
X20734468Y-12943222D02*
X20734468Y-13047984D01*
X20858277Y-13047984D02*
X20839230Y-13038460D01*
X20839230Y-13038460D02*
X20829706Y-13028936D01*
X20829706Y-13028936D02*
X20820182Y-13009888D01*
X20820182Y-13009888D02*
X20820182Y-12952746D01*
X20820182Y-12952746D02*
X20829706Y-12933698D01*
X20829706Y-12933698D02*
X20839230Y-12924174D01*
X20839230Y-12924174D02*
X20858277Y-12914650D01*
X20858277Y-12914650D02*
X20886849Y-12914650D01*
X20886849Y-12914650D02*
X20905896Y-12924174D01*
X20905896Y-12924174D02*
X20915420Y-12933698D01*
X20915420Y-12933698D02*
X20924944Y-12952746D01*
X20924944Y-12952746D02*
X20924944Y-13009888D01*
X20924944Y-13009888D02*
X20915420Y-13028936D01*
X20915420Y-13028936D02*
X20905896Y-13038460D01*
X20905896Y-13038460D02*
X20886849Y-13047984D01*
X20886849Y-13047984D02*
X20858277Y-13047984D01*
X20982087Y-12914650D02*
X21058277Y-12914650D01*
X21010658Y-12847984D02*
X21010658Y-13019412D01*
X21010658Y-13019412D02*
X21020182Y-13038460D01*
X21020182Y-13038460D02*
X21039230Y-13047984D01*
X21039230Y-13047984D02*
X21058277Y-13047984D01*
X21277325Y-12914650D02*
X21277325Y-13114650D01*
X21277325Y-12924174D02*
X21296373Y-12914650D01*
X21296373Y-12914650D02*
X21334468Y-12914650D01*
X21334468Y-12914650D02*
X21353515Y-12924174D01*
X21353515Y-12924174D02*
X21363039Y-12933698D01*
X21363039Y-12933698D02*
X21372563Y-12952746D01*
X21372563Y-12952746D02*
X21372563Y-13009888D01*
X21372563Y-13009888D02*
X21363039Y-13028936D01*
X21363039Y-13028936D02*
X21353515Y-13038460D01*
X21353515Y-13038460D02*
X21334468Y-13047984D01*
X21334468Y-13047984D02*
X21296373Y-13047984D01*
X21296373Y-13047984D02*
X21277325Y-13038460D01*
X21486849Y-13047984D02*
X21467801Y-13038460D01*
X21467801Y-13038460D02*
X21458277Y-13019412D01*
X21458277Y-13019412D02*
X21458277Y-12847984D01*
X21648754Y-13047984D02*
X21648754Y-12943222D01*
X21648754Y-12943222D02*
X21639230Y-12924174D01*
X21639230Y-12924174D02*
X21620182Y-12914650D01*
X21620182Y-12914650D02*
X21582087Y-12914650D01*
X21582087Y-12914650D02*
X21563039Y-12924174D01*
X21648754Y-13038460D02*
X21629706Y-13047984D01*
X21629706Y-13047984D02*
X21582087Y-13047984D01*
X21582087Y-13047984D02*
X21563039Y-13038460D01*
X21563039Y-13038460D02*
X21553515Y-13019412D01*
X21553515Y-13019412D02*
X21553515Y-13000365D01*
X21553515Y-13000365D02*
X21563039Y-12981317D01*
X21563039Y-12981317D02*
X21582087Y-12971793D01*
X21582087Y-12971793D02*
X21629706Y-12971793D01*
X21629706Y-12971793D02*
X21648754Y-12962269D01*
X21715420Y-12914650D02*
X21791611Y-12914650D01*
X21743992Y-12847984D02*
X21743992Y-13019412D01*
X21743992Y-13019412D02*
X21753515Y-13038460D01*
X21753515Y-13038460D02*
X21772563Y-13047984D01*
X21772563Y-13047984D02*
X21791611Y-13047984D01*
X21934468Y-13038460D02*
X21915420Y-13047984D01*
X21915420Y-13047984D02*
X21877325Y-13047984D01*
X21877325Y-13047984D02*
X21858277Y-13038460D01*
X21858277Y-13038460D02*
X21848754Y-13019412D01*
X21848754Y-13019412D02*
X21848754Y-12943222D01*
X21848754Y-12943222D02*
X21858277Y-12924174D01*
X21858277Y-12924174D02*
X21877325Y-12914650D01*
X21877325Y-12914650D02*
X21915420Y-12914650D01*
X21915420Y-12914650D02*
X21934468Y-12924174D01*
X21934468Y-12924174D02*
X21943992Y-12943222D01*
X21943992Y-12943222D02*
X21943992Y-12962269D01*
X21943992Y-12962269D02*
X21848754Y-12981317D01*
X22115420Y-13047984D02*
X22115420Y-12847984D01*
X22115420Y-13038460D02*
X22096373Y-13047984D01*
X22096373Y-13047984D02*
X22058277Y-13047984D01*
X22058277Y-13047984D02*
X22039230Y-13038460D01*
X22039230Y-13038460D02*
X22029706Y-13028936D01*
X22029706Y-13028936D02*
X22020182Y-13009888D01*
X22020182Y-13009888D02*
X22020182Y-12952746D01*
X22020182Y-12952746D02*
X22029706Y-12933698D01*
X22029706Y-12933698D02*
X22039230Y-12924174D01*
X22039230Y-12924174D02*
X22058277Y-12914650D01*
X22058277Y-12914650D02*
X22096373Y-12914650D01*
X22096373Y-12914650D02*
X22115420Y-12924174D01*
X22191611Y-13124174D02*
X22201135Y-13114650D01*
X22201135Y-13114650D02*
X22220182Y-13086079D01*
X22220182Y-13086079D02*
X22229706Y-13067031D01*
X22229706Y-13067031D02*
X22239230Y-13038460D01*
X22239230Y-13038460D02*
X22248754Y-12990841D01*
X22248754Y-12990841D02*
X22248754Y-12952746D01*
X22248754Y-12952746D02*
X22239230Y-12905127D01*
X22239230Y-12905127D02*
X22229706Y-12876555D01*
X22229706Y-12876555D02*
X22220182Y-12857508D01*
X22220182Y-12857508D02*
X22201135Y-12828936D01*
X22201135Y-12828936D02*
X22191611Y-12819412D01*
X15497500Y-13136500D02*
X15497500Y-13336500D01*
X15397500Y-13236500D02*
X15597500Y-13236500D01*
X15839229Y-13127984D02*
X15963039Y-13127984D01*
X15963039Y-13127984D02*
X15896372Y-13204174D01*
X15896372Y-13204174D02*
X15924943Y-13204174D01*
X15924943Y-13204174D02*
X15943991Y-13213698D01*
X15943991Y-13213698D02*
X15953515Y-13223222D01*
X15953515Y-13223222D02*
X15963039Y-13242269D01*
X15963039Y-13242269D02*
X15963039Y-13289888D01*
X15963039Y-13289888D02*
X15953515Y-13308936D01*
X15953515Y-13308936D02*
X15943991Y-13318460D01*
X15943991Y-13318460D02*
X15924943Y-13327984D01*
X15924943Y-13327984D02*
X15867801Y-13327984D01*
X15867801Y-13327984D02*
X15848753Y-13318460D01*
X15848753Y-13318460D02*
X15839229Y-13308936D01*
X16048753Y-13308936D02*
X16058277Y-13318460D01*
X16058277Y-13318460D02*
X16048753Y-13327984D01*
X16048753Y-13327984D02*
X16039229Y-13318460D01*
X16039229Y-13318460D02*
X16048753Y-13308936D01*
X16048753Y-13308936D02*
X16048753Y-13327984D01*
X16182086Y-13127984D02*
X16201134Y-13127984D01*
X16201134Y-13127984D02*
X16220182Y-13137508D01*
X16220182Y-13137508D02*
X16229705Y-13147031D01*
X16229705Y-13147031D02*
X16239229Y-13166079D01*
X16239229Y-13166079D02*
X16248753Y-13204174D01*
X16248753Y-13204174D02*
X16248753Y-13251793D01*
X16248753Y-13251793D02*
X16239229Y-13289888D01*
X16239229Y-13289888D02*
X16229705Y-13308936D01*
X16229705Y-13308936D02*
X16220182Y-13318460D01*
X16220182Y-13318460D02*
X16201134Y-13327984D01*
X16201134Y-13327984D02*
X16182086Y-13327984D01*
X16182086Y-13327984D02*
X16163039Y-13318460D01*
X16163039Y-13318460D02*
X16153515Y-13308936D01*
X16153515Y-13308936D02*
X16143991Y-13289888D01*
X16143991Y-13289888D02*
X16134467Y-13251793D01*
X16134467Y-13251793D02*
X16134467Y-13204174D01*
X16134467Y-13204174D02*
X16143991Y-13166079D01*
X16143991Y-13166079D02*
X16153515Y-13147031D01*
X16153515Y-13147031D02*
X16163039Y-13137508D01*
X16163039Y-13137508D02*
X16182086Y-13127984D01*
X16372562Y-13127984D02*
X16391610Y-13127984D01*
X16391610Y-13127984D02*
X16410658Y-13137508D01*
X16410658Y-13137508D02*
X16420182Y-13147031D01*
X16420182Y-13147031D02*
X16429705Y-13166079D01*
X16429705Y-13166079D02*
X16439229Y-13204174D01*
X16439229Y-13204174D02*
X16439229Y-13251793D01*
X16439229Y-13251793D02*
X16429705Y-13289888D01*
X16429705Y-13289888D02*
X16420182Y-13308936D01*
X16420182Y-13308936D02*
X16410658Y-13318460D01*
X16410658Y-13318460D02*
X16391610Y-13327984D01*
X16391610Y-13327984D02*
X16372562Y-13327984D01*
X16372562Y-13327984D02*
X16353515Y-13318460D01*
X16353515Y-13318460D02*
X16343991Y-13308936D01*
X16343991Y-13308936D02*
X16334467Y-13289888D01*
X16334467Y-13289888D02*
X16324943Y-13251793D01*
X16324943Y-13251793D02*
X16324943Y-13204174D01*
X16324943Y-13204174D02*
X16334467Y-13166079D01*
X16334467Y-13166079D02*
X16343991Y-13147031D01*
X16343991Y-13147031D02*
X16353515Y-13137508D01*
X16353515Y-13137508D02*
X16372562Y-13127984D01*
X16563039Y-13127984D02*
X16582086Y-13127984D01*
X16582086Y-13127984D02*
X16601134Y-13137508D01*
X16601134Y-13137508D02*
X16610658Y-13147031D01*
X16610658Y-13147031D02*
X16620182Y-13166079D01*
X16620182Y-13166079D02*
X16629705Y-13204174D01*
X16629705Y-13204174D02*
X16629705Y-13251793D01*
X16629705Y-13251793D02*
X16620182Y-13289888D01*
X16620182Y-13289888D02*
X16610658Y-13308936D01*
X16610658Y-13308936D02*
X16601134Y-13318460D01*
X16601134Y-13318460D02*
X16582086Y-13327984D01*
X16582086Y-13327984D02*
X16563039Y-13327984D01*
X16563039Y-13327984D02*
X16543991Y-13318460D01*
X16543991Y-13318460D02*
X16534467Y-13308936D01*
X16534467Y-13308936D02*
X16524943Y-13289888D01*
X16524943Y-13289888D02*
X16515420Y-13251793D01*
X16515420Y-13251793D02*
X16515420Y-13204174D01*
X16515420Y-13204174D02*
X16524943Y-13166079D01*
X16524943Y-13166079D02*
X16534467Y-13147031D01*
X16534467Y-13147031D02*
X16543991Y-13137508D01*
X16543991Y-13137508D02*
X16563039Y-13127984D01*
X16715420Y-13327984D02*
X16715420Y-13194650D01*
X16715420Y-13213698D02*
X16724943Y-13204174D01*
X16724943Y-13204174D02*
X16743991Y-13194650D01*
X16743991Y-13194650D02*
X16772563Y-13194650D01*
X16772563Y-13194650D02*
X16791610Y-13204174D01*
X16791610Y-13204174D02*
X16801134Y-13223222D01*
X16801134Y-13223222D02*
X16801134Y-13327984D01*
X16801134Y-13223222D02*
X16810658Y-13204174D01*
X16810658Y-13204174D02*
X16829705Y-13194650D01*
X16829705Y-13194650D02*
X16858277Y-13194650D01*
X16858277Y-13194650D02*
X16877325Y-13204174D01*
X16877325Y-13204174D02*
X16886848Y-13223222D01*
X16886848Y-13223222D02*
X16886848Y-13327984D01*
X16982086Y-13327984D02*
X16982086Y-13194650D01*
X16982086Y-13213698D02*
X16991610Y-13204174D01*
X16991610Y-13204174D02*
X17010658Y-13194650D01*
X17010658Y-13194650D02*
X17039229Y-13194650D01*
X17039229Y-13194650D02*
X17058277Y-13204174D01*
X17058277Y-13204174D02*
X17067801Y-13223222D01*
X17067801Y-13223222D02*
X17067801Y-13327984D01*
X17067801Y-13223222D02*
X17077325Y-13204174D01*
X17077325Y-13204174D02*
X17096372Y-13194650D01*
X17096372Y-13194650D02*
X17124944Y-13194650D01*
X17124944Y-13194650D02*
X17143991Y-13204174D01*
X17143991Y-13204174D02*
X17153515Y-13223222D01*
X17153515Y-13223222D02*
X17153515Y-13327984D01*
X17543991Y-13118460D02*
X17372563Y-13375603D01*
X17801134Y-13127984D02*
X17820182Y-13127984D01*
X17820182Y-13127984D02*
X17839229Y-13137508D01*
X17839229Y-13137508D02*
X17848753Y-13147031D01*
X17848753Y-13147031D02*
X17858277Y-13166079D01*
X17858277Y-13166079D02*
X17867801Y-13204174D01*
X17867801Y-13204174D02*
X17867801Y-13251793D01*
X17867801Y-13251793D02*
X17858277Y-13289888D01*
X17858277Y-13289888D02*
X17848753Y-13308936D01*
X17848753Y-13308936D02*
X17839229Y-13318460D01*
X17839229Y-13318460D02*
X17820182Y-13327984D01*
X17820182Y-13327984D02*
X17801134Y-13327984D01*
X17801134Y-13327984D02*
X17782087Y-13318460D01*
X17782087Y-13318460D02*
X17772563Y-13308936D01*
X17772563Y-13308936D02*
X17763039Y-13289888D01*
X17763039Y-13289888D02*
X17753515Y-13251793D01*
X17753515Y-13251793D02*
X17753515Y-13204174D01*
X17753515Y-13204174D02*
X17763039Y-13166079D01*
X17763039Y-13166079D02*
X17772563Y-13147031D01*
X17772563Y-13147031D02*
X17782087Y-13137508D01*
X17782087Y-13137508D02*
X17801134Y-13127984D01*
X17953515Y-13308936D02*
X17963039Y-13318460D01*
X17963039Y-13318460D02*
X17953515Y-13327984D01*
X17953515Y-13327984D02*
X17943991Y-13318460D01*
X17943991Y-13318460D02*
X17953515Y-13308936D01*
X17953515Y-13308936D02*
X17953515Y-13327984D01*
X18153515Y-13327984D02*
X18039229Y-13327984D01*
X18096372Y-13327984D02*
X18096372Y-13127984D01*
X18096372Y-13127984D02*
X18077325Y-13156555D01*
X18077325Y-13156555D02*
X18058277Y-13175603D01*
X18058277Y-13175603D02*
X18039229Y-13185127D01*
X18343991Y-13327984D02*
X18229706Y-13327984D01*
X18286848Y-13327984D02*
X18286848Y-13127984D01*
X18286848Y-13127984D02*
X18267801Y-13156555D01*
X18267801Y-13156555D02*
X18248753Y-13175603D01*
X18248753Y-13175603D02*
X18229706Y-13185127D01*
X18458277Y-13213698D02*
X18439229Y-13204174D01*
X18439229Y-13204174D02*
X18429706Y-13194650D01*
X18429706Y-13194650D02*
X18420182Y-13175603D01*
X18420182Y-13175603D02*
X18420182Y-13166079D01*
X18420182Y-13166079D02*
X18429706Y-13147031D01*
X18429706Y-13147031D02*
X18439229Y-13137508D01*
X18439229Y-13137508D02*
X18458277Y-13127984D01*
X18458277Y-13127984D02*
X18496372Y-13127984D01*
X18496372Y-13127984D02*
X18515420Y-13137508D01*
X18515420Y-13137508D02*
X18524944Y-13147031D01*
X18524944Y-13147031D02*
X18534468Y-13166079D01*
X18534468Y-13166079D02*
X18534468Y-13175603D01*
X18534468Y-13175603D02*
X18524944Y-13194650D01*
X18524944Y-13194650D02*
X18515420Y-13204174D01*
X18515420Y-13204174D02*
X18496372Y-13213698D01*
X18496372Y-13213698D02*
X18458277Y-13213698D01*
X18458277Y-13213698D02*
X18439229Y-13223222D01*
X18439229Y-13223222D02*
X18429706Y-13232746D01*
X18429706Y-13232746D02*
X18420182Y-13251793D01*
X18420182Y-13251793D02*
X18420182Y-13289888D01*
X18420182Y-13289888D02*
X18429706Y-13308936D01*
X18429706Y-13308936D02*
X18439229Y-13318460D01*
X18439229Y-13318460D02*
X18458277Y-13327984D01*
X18458277Y-13327984D02*
X18496372Y-13327984D01*
X18496372Y-13327984D02*
X18515420Y-13318460D01*
X18515420Y-13318460D02*
X18524944Y-13308936D01*
X18524944Y-13308936D02*
X18534468Y-13289888D01*
X18534468Y-13289888D02*
X18534468Y-13251793D01*
X18534468Y-13251793D02*
X18524944Y-13232746D01*
X18524944Y-13232746D02*
X18515420Y-13223222D01*
X18515420Y-13223222D02*
X18496372Y-13213698D01*
X18724944Y-13327984D02*
X18610658Y-13327984D01*
X18667801Y-13327984D02*
X18667801Y-13127984D01*
X18667801Y-13127984D02*
X18648753Y-13156555D01*
X18648753Y-13156555D02*
X18629706Y-13175603D01*
X18629706Y-13175603D02*
X18610658Y-13185127D01*
X18801134Y-13127984D02*
X18801134Y-13166079D01*
X18877325Y-13127984D02*
X18877325Y-13166079D01*
X19172563Y-13404174D02*
X19163039Y-13394650D01*
X19163039Y-13394650D02*
X19143991Y-13366079D01*
X19143991Y-13366079D02*
X19134468Y-13347031D01*
X19134468Y-13347031D02*
X19124944Y-13318460D01*
X19124944Y-13318460D02*
X19115420Y-13270841D01*
X19115420Y-13270841D02*
X19115420Y-13232746D01*
X19115420Y-13232746D02*
X19124944Y-13185127D01*
X19124944Y-13185127D02*
X19134468Y-13156555D01*
X19134468Y-13156555D02*
X19143991Y-13137508D01*
X19143991Y-13137508D02*
X19163039Y-13108936D01*
X19163039Y-13108936D02*
X19172563Y-13099412D01*
X19286849Y-13127984D02*
X19305896Y-13127984D01*
X19305896Y-13127984D02*
X19324944Y-13137508D01*
X19324944Y-13137508D02*
X19334468Y-13147031D01*
X19334468Y-13147031D02*
X19343991Y-13166079D01*
X19343991Y-13166079D02*
X19353515Y-13204174D01*
X19353515Y-13204174D02*
X19353515Y-13251793D01*
X19353515Y-13251793D02*
X19343991Y-13289888D01*
X19343991Y-13289888D02*
X19334468Y-13308936D01*
X19334468Y-13308936D02*
X19324944Y-13318460D01*
X19324944Y-13318460D02*
X19305896Y-13327984D01*
X19305896Y-13327984D02*
X19286849Y-13327984D01*
X19286849Y-13327984D02*
X19267801Y-13318460D01*
X19267801Y-13318460D02*
X19258277Y-13308936D01*
X19258277Y-13308936D02*
X19248753Y-13289888D01*
X19248753Y-13289888D02*
X19239230Y-13251793D01*
X19239230Y-13251793D02*
X19239230Y-13204174D01*
X19239230Y-13204174D02*
X19248753Y-13166079D01*
X19248753Y-13166079D02*
X19258277Y-13147031D01*
X19258277Y-13147031D02*
X19267801Y-13137508D01*
X19267801Y-13137508D02*
X19286849Y-13127984D01*
X19591611Y-13327984D02*
X19591611Y-13127984D01*
X19677325Y-13327984D02*
X19677325Y-13223222D01*
X19677325Y-13223222D02*
X19667801Y-13204174D01*
X19667801Y-13204174D02*
X19648753Y-13194650D01*
X19648753Y-13194650D02*
X19620182Y-13194650D01*
X19620182Y-13194650D02*
X19601134Y-13204174D01*
X19601134Y-13204174D02*
X19591611Y-13213698D01*
X19801134Y-13327984D02*
X19782087Y-13318460D01*
X19782087Y-13318460D02*
X19772563Y-13308936D01*
X19772563Y-13308936D02*
X19763039Y-13289888D01*
X19763039Y-13289888D02*
X19763039Y-13232746D01*
X19763039Y-13232746D02*
X19772563Y-13213698D01*
X19772563Y-13213698D02*
X19782087Y-13204174D01*
X19782087Y-13204174D02*
X19801134Y-13194650D01*
X19801134Y-13194650D02*
X19829706Y-13194650D01*
X19829706Y-13194650D02*
X19848753Y-13204174D01*
X19848753Y-13204174D02*
X19858277Y-13213698D01*
X19858277Y-13213698D02*
X19867801Y-13232746D01*
X19867801Y-13232746D02*
X19867801Y-13289888D01*
X19867801Y-13289888D02*
X19858277Y-13308936D01*
X19858277Y-13308936D02*
X19848753Y-13318460D01*
X19848753Y-13318460D02*
X19829706Y-13327984D01*
X19829706Y-13327984D02*
X19801134Y-13327984D01*
X19982087Y-13327984D02*
X19963039Y-13318460D01*
X19963039Y-13318460D02*
X19953515Y-13299412D01*
X19953515Y-13299412D02*
X19953515Y-13127984D01*
X20134468Y-13318460D02*
X20115420Y-13327984D01*
X20115420Y-13327984D02*
X20077325Y-13327984D01*
X20077325Y-13327984D02*
X20058277Y-13318460D01*
X20058277Y-13318460D02*
X20048753Y-13299412D01*
X20048753Y-13299412D02*
X20048753Y-13223222D01*
X20048753Y-13223222D02*
X20058277Y-13204174D01*
X20058277Y-13204174D02*
X20077325Y-13194650D01*
X20077325Y-13194650D02*
X20115420Y-13194650D01*
X20115420Y-13194650D02*
X20134468Y-13204174D01*
X20134468Y-13204174D02*
X20143992Y-13223222D01*
X20143992Y-13223222D02*
X20143992Y-13242269D01*
X20143992Y-13242269D02*
X20048753Y-13261317D01*
X20220182Y-13318460D02*
X20239230Y-13327984D01*
X20239230Y-13327984D02*
X20277325Y-13327984D01*
X20277325Y-13327984D02*
X20296373Y-13318460D01*
X20296373Y-13318460D02*
X20305896Y-13299412D01*
X20305896Y-13299412D02*
X20305896Y-13289888D01*
X20305896Y-13289888D02*
X20296373Y-13270841D01*
X20296373Y-13270841D02*
X20277325Y-13261317D01*
X20277325Y-13261317D02*
X20248753Y-13261317D01*
X20248753Y-13261317D02*
X20229706Y-13251793D01*
X20229706Y-13251793D02*
X20220182Y-13232746D01*
X20220182Y-13232746D02*
X20220182Y-13223222D01*
X20220182Y-13223222D02*
X20229706Y-13204174D01*
X20229706Y-13204174D02*
X20248753Y-13194650D01*
X20248753Y-13194650D02*
X20277325Y-13194650D01*
X20277325Y-13194650D02*
X20296373Y-13204174D01*
X20543992Y-13251793D02*
X20696373Y-13251793D01*
X20620182Y-13327984D02*
X20620182Y-13175603D01*
X20934468Y-13147031D02*
X20943992Y-13137508D01*
X20943992Y-13137508D02*
X20963039Y-13127984D01*
X20963039Y-13127984D02*
X21010658Y-13127984D01*
X21010658Y-13127984D02*
X21029706Y-13137508D01*
X21029706Y-13137508D02*
X21039230Y-13147031D01*
X21039230Y-13147031D02*
X21048754Y-13166079D01*
X21048754Y-13166079D02*
X21048754Y-13185127D01*
X21048754Y-13185127D02*
X21039230Y-13213698D01*
X21039230Y-13213698D02*
X20924944Y-13327984D01*
X20924944Y-13327984D02*
X21048754Y-13327984D01*
X21277325Y-13318460D02*
X21296373Y-13327984D01*
X21296373Y-13327984D02*
X21334468Y-13327984D01*
X21334468Y-13327984D02*
X21353516Y-13318460D01*
X21353516Y-13318460D02*
X21363039Y-13299412D01*
X21363039Y-13299412D02*
X21363039Y-13289888D01*
X21363039Y-13289888D02*
X21353516Y-13270841D01*
X21353516Y-13270841D02*
X21334468Y-13261317D01*
X21334468Y-13261317D02*
X21305896Y-13261317D01*
X21305896Y-13261317D02*
X21286849Y-13251793D01*
X21286849Y-13251793D02*
X21277325Y-13232746D01*
X21277325Y-13232746D02*
X21277325Y-13223222D01*
X21277325Y-13223222D02*
X21286849Y-13204174D01*
X21286849Y-13204174D02*
X21305896Y-13194650D01*
X21305896Y-13194650D02*
X21334468Y-13194650D01*
X21334468Y-13194650D02*
X21353516Y-13204174D01*
X21477325Y-13327984D02*
X21458277Y-13318460D01*
X21458277Y-13318460D02*
X21448754Y-13299412D01*
X21448754Y-13299412D02*
X21448754Y-13127984D01*
X21582087Y-13327984D02*
X21563039Y-13318460D01*
X21563039Y-13318460D02*
X21553516Y-13308936D01*
X21553516Y-13308936D02*
X21543992Y-13289888D01*
X21543992Y-13289888D02*
X21543992Y-13232746D01*
X21543992Y-13232746D02*
X21553516Y-13213698D01*
X21553516Y-13213698D02*
X21563039Y-13204174D01*
X21563039Y-13204174D02*
X21582087Y-13194650D01*
X21582087Y-13194650D02*
X21610658Y-13194650D01*
X21610658Y-13194650D02*
X21629706Y-13204174D01*
X21629706Y-13204174D02*
X21639230Y-13213698D01*
X21639230Y-13213698D02*
X21648754Y-13232746D01*
X21648754Y-13232746D02*
X21648754Y-13289888D01*
X21648754Y-13289888D02*
X21639230Y-13308936D01*
X21639230Y-13308936D02*
X21629706Y-13318460D01*
X21629706Y-13318460D02*
X21610658Y-13327984D01*
X21610658Y-13327984D02*
X21582087Y-13327984D01*
X21705897Y-13194650D02*
X21782087Y-13194650D01*
X21734468Y-13127984D02*
X21734468Y-13299412D01*
X21734468Y-13299412D02*
X21743992Y-13318460D01*
X21743992Y-13318460D02*
X21763039Y-13327984D01*
X21763039Y-13327984D02*
X21782087Y-13327984D01*
X21839230Y-13318460D02*
X21858277Y-13327984D01*
X21858277Y-13327984D02*
X21896373Y-13327984D01*
X21896373Y-13327984D02*
X21915420Y-13318460D01*
X21915420Y-13318460D02*
X21924944Y-13299412D01*
X21924944Y-13299412D02*
X21924944Y-13289888D01*
X21924944Y-13289888D02*
X21915420Y-13270841D01*
X21915420Y-13270841D02*
X21896373Y-13261317D01*
X21896373Y-13261317D02*
X21867801Y-13261317D01*
X21867801Y-13261317D02*
X21848754Y-13251793D01*
X21848754Y-13251793D02*
X21839230Y-13232746D01*
X21839230Y-13232746D02*
X21839230Y-13223222D01*
X21839230Y-13223222D02*
X21848754Y-13204174D01*
X21848754Y-13204174D02*
X21867801Y-13194650D01*
X21867801Y-13194650D02*
X21896373Y-13194650D01*
X21896373Y-13194650D02*
X21915420Y-13204174D01*
X21991611Y-13404174D02*
X22001135Y-13394650D01*
X22001135Y-13394650D02*
X22020182Y-13366079D01*
X22020182Y-13366079D02*
X22029706Y-13347031D01*
X22029706Y-13347031D02*
X22039230Y-13318460D01*
X22039230Y-13318460D02*
X22048754Y-13270841D01*
X22048754Y-13270841D02*
X22048754Y-13232746D01*
X22048754Y-13232746D02*
X22039230Y-13185127D01*
X22039230Y-13185127D02*
X22029706Y-13156555D01*
X22029706Y-13156555D02*
X22020182Y-13137508D01*
X22020182Y-13137508D02*
X22001135Y-13108936D01*
X22001135Y-13108936D02*
X21991611Y-13099412D01*
X22353516Y-13404174D02*
X22343992Y-13394650D01*
X22343992Y-13394650D02*
X22324944Y-13366079D01*
X22324944Y-13366079D02*
X22315420Y-13347031D01*
X22315420Y-13347031D02*
X22305897Y-13318460D01*
X22305897Y-13318460D02*
X22296373Y-13270841D01*
X22296373Y-13270841D02*
X22296373Y-13232746D01*
X22296373Y-13232746D02*
X22305897Y-13185127D01*
X22305897Y-13185127D02*
X22315420Y-13156555D01*
X22315420Y-13156555D02*
X22324944Y-13137508D01*
X22324944Y-13137508D02*
X22343992Y-13108936D01*
X22343992Y-13108936D02*
X22353516Y-13099412D01*
X22429706Y-13194650D02*
X22429706Y-13327984D01*
X22429706Y-13213698D02*
X22439230Y-13204174D01*
X22439230Y-13204174D02*
X22458277Y-13194650D01*
X22458277Y-13194650D02*
X22486849Y-13194650D01*
X22486849Y-13194650D02*
X22505896Y-13204174D01*
X22505896Y-13204174D02*
X22515420Y-13223222D01*
X22515420Y-13223222D02*
X22515420Y-13327984D01*
X22639230Y-13327984D02*
X22620182Y-13318460D01*
X22620182Y-13318460D02*
X22610658Y-13308936D01*
X22610658Y-13308936D02*
X22601135Y-13289888D01*
X22601135Y-13289888D02*
X22601135Y-13232746D01*
X22601135Y-13232746D02*
X22610658Y-13213698D01*
X22610658Y-13213698D02*
X22620182Y-13204174D01*
X22620182Y-13204174D02*
X22639230Y-13194650D01*
X22639230Y-13194650D02*
X22667801Y-13194650D01*
X22667801Y-13194650D02*
X22686849Y-13204174D01*
X22686849Y-13204174D02*
X22696373Y-13213698D01*
X22696373Y-13213698D02*
X22705896Y-13232746D01*
X22705896Y-13232746D02*
X22705896Y-13289888D01*
X22705896Y-13289888D02*
X22696373Y-13308936D01*
X22696373Y-13308936D02*
X22686849Y-13318460D01*
X22686849Y-13318460D02*
X22667801Y-13327984D01*
X22667801Y-13327984D02*
X22639230Y-13327984D01*
X22763039Y-13194650D02*
X22839230Y-13194650D01*
X22791611Y-13127984D02*
X22791611Y-13299412D01*
X22791611Y-13299412D02*
X22801135Y-13318460D01*
X22801135Y-13318460D02*
X22820182Y-13327984D01*
X22820182Y-13327984D02*
X22839230Y-13327984D01*
X23058277Y-13194650D02*
X23058277Y-13394650D01*
X23058277Y-13204174D02*
X23077325Y-13194650D01*
X23077325Y-13194650D02*
X23115420Y-13194650D01*
X23115420Y-13194650D02*
X23134468Y-13204174D01*
X23134468Y-13204174D02*
X23143992Y-13213698D01*
X23143992Y-13213698D02*
X23153516Y-13232746D01*
X23153516Y-13232746D02*
X23153516Y-13289888D01*
X23153516Y-13289888D02*
X23143992Y-13308936D01*
X23143992Y-13308936D02*
X23134468Y-13318460D01*
X23134468Y-13318460D02*
X23115420Y-13327984D01*
X23115420Y-13327984D02*
X23077325Y-13327984D01*
X23077325Y-13327984D02*
X23058277Y-13318460D01*
X23267801Y-13327984D02*
X23248754Y-13318460D01*
X23248754Y-13318460D02*
X23239230Y-13299412D01*
X23239230Y-13299412D02*
X23239230Y-13127984D01*
X23429706Y-13327984D02*
X23429706Y-13223222D01*
X23429706Y-13223222D02*
X23420182Y-13204174D01*
X23420182Y-13204174D02*
X23401135Y-13194650D01*
X23401135Y-13194650D02*
X23363039Y-13194650D01*
X23363039Y-13194650D02*
X23343992Y-13204174D01*
X23429706Y-13318460D02*
X23410658Y-13327984D01*
X23410658Y-13327984D02*
X23363039Y-13327984D01*
X23363039Y-13327984D02*
X23343992Y-13318460D01*
X23343992Y-13318460D02*
X23334468Y-13299412D01*
X23334468Y-13299412D02*
X23334468Y-13280365D01*
X23334468Y-13280365D02*
X23343992Y-13261317D01*
X23343992Y-13261317D02*
X23363039Y-13251793D01*
X23363039Y-13251793D02*
X23410658Y-13251793D01*
X23410658Y-13251793D02*
X23429706Y-13242269D01*
X23496373Y-13194650D02*
X23572563Y-13194650D01*
X23524944Y-13127984D02*
X23524944Y-13299412D01*
X23524944Y-13299412D02*
X23534468Y-13318460D01*
X23534468Y-13318460D02*
X23553516Y-13327984D01*
X23553516Y-13327984D02*
X23572563Y-13327984D01*
X23715420Y-13318460D02*
X23696373Y-13327984D01*
X23696373Y-13327984D02*
X23658277Y-13327984D01*
X23658277Y-13327984D02*
X23639230Y-13318460D01*
X23639230Y-13318460D02*
X23629706Y-13299412D01*
X23629706Y-13299412D02*
X23629706Y-13223222D01*
X23629706Y-13223222D02*
X23639230Y-13204174D01*
X23639230Y-13204174D02*
X23658277Y-13194650D01*
X23658277Y-13194650D02*
X23696373Y-13194650D01*
X23696373Y-13194650D02*
X23715420Y-13204174D01*
X23715420Y-13204174D02*
X23724944Y-13223222D01*
X23724944Y-13223222D02*
X23724944Y-13242269D01*
X23724944Y-13242269D02*
X23629706Y-13261317D01*
X23896373Y-13327984D02*
X23896373Y-13127984D01*
X23896373Y-13318460D02*
X23877325Y-13327984D01*
X23877325Y-13327984D02*
X23839230Y-13327984D01*
X23839230Y-13327984D02*
X23820182Y-13318460D01*
X23820182Y-13318460D02*
X23810658Y-13308936D01*
X23810658Y-13308936D02*
X23801135Y-13289888D01*
X23801135Y-13289888D02*
X23801135Y-13232746D01*
X23801135Y-13232746D02*
X23810658Y-13213698D01*
X23810658Y-13213698D02*
X23820182Y-13204174D01*
X23820182Y-13204174D02*
X23839230Y-13194650D01*
X23839230Y-13194650D02*
X23877325Y-13194650D01*
X23877325Y-13194650D02*
X23896373Y-13204174D01*
X23972563Y-13404174D02*
X23982087Y-13394650D01*
X23982087Y-13394650D02*
X24001135Y-13366079D01*
X24001135Y-13366079D02*
X24010658Y-13347031D01*
X24010658Y-13347031D02*
X24020182Y-13318460D01*
X24020182Y-13318460D02*
X24029706Y-13270841D01*
X24029706Y-13270841D02*
X24029706Y-13232746D01*
X24029706Y-13232746D02*
X24020182Y-13185127D01*
X24020182Y-13185127D02*
X24010658Y-13156555D01*
X24010658Y-13156555D02*
X24001135Y-13137508D01*
X24001135Y-13137508D02*
X23982087Y-13108936D01*
X23982087Y-13108936D02*
X23972563Y-13099412D01*
X15568211Y-13627211D02*
X15568211Y-13485789D01*
X15426789Y-13485789D01*
X15426789Y-13627211D01*
X15568211Y-13627211D01*
X15839229Y-13447984D02*
X15963039Y-13447984D01*
X15963039Y-13447984D02*
X15896372Y-13524174D01*
X15896372Y-13524174D02*
X15924943Y-13524174D01*
X15924943Y-13524174D02*
X15943991Y-13533698D01*
X15943991Y-13533698D02*
X15953515Y-13543222D01*
X15953515Y-13543222D02*
X15963039Y-13562269D01*
X15963039Y-13562269D02*
X15963039Y-13609888D01*
X15963039Y-13609888D02*
X15953515Y-13628936D01*
X15953515Y-13628936D02*
X15943991Y-13638460D01*
X15943991Y-13638460D02*
X15924943Y-13647984D01*
X15924943Y-13647984D02*
X15867801Y-13647984D01*
X15867801Y-13647984D02*
X15848753Y-13638460D01*
X15848753Y-13638460D02*
X15839229Y-13628936D01*
X16048753Y-13628936D02*
X16058277Y-13638460D01*
X16058277Y-13638460D02*
X16048753Y-13647984D01*
X16048753Y-13647984D02*
X16039229Y-13638460D01*
X16039229Y-13638460D02*
X16048753Y-13628936D01*
X16048753Y-13628936D02*
X16048753Y-13647984D01*
X16134467Y-13467031D02*
X16143991Y-13457508D01*
X16143991Y-13457508D02*
X16163039Y-13447984D01*
X16163039Y-13447984D02*
X16210658Y-13447984D01*
X16210658Y-13447984D02*
X16229705Y-13457508D01*
X16229705Y-13457508D02*
X16239229Y-13467031D01*
X16239229Y-13467031D02*
X16248753Y-13486079D01*
X16248753Y-13486079D02*
X16248753Y-13505127D01*
X16248753Y-13505127D02*
X16239229Y-13533698D01*
X16239229Y-13533698D02*
X16124943Y-13647984D01*
X16124943Y-13647984D02*
X16248753Y-13647984D01*
X16429705Y-13447984D02*
X16334467Y-13447984D01*
X16334467Y-13447984D02*
X16324943Y-13543222D01*
X16324943Y-13543222D02*
X16334467Y-13533698D01*
X16334467Y-13533698D02*
X16353515Y-13524174D01*
X16353515Y-13524174D02*
X16401134Y-13524174D01*
X16401134Y-13524174D02*
X16420182Y-13533698D01*
X16420182Y-13533698D02*
X16429705Y-13543222D01*
X16429705Y-13543222D02*
X16439229Y-13562269D01*
X16439229Y-13562269D02*
X16439229Y-13609888D01*
X16439229Y-13609888D02*
X16429705Y-13628936D01*
X16429705Y-13628936D02*
X16420182Y-13638460D01*
X16420182Y-13638460D02*
X16401134Y-13647984D01*
X16401134Y-13647984D02*
X16353515Y-13647984D01*
X16353515Y-13647984D02*
X16334467Y-13638460D01*
X16334467Y-13638460D02*
X16324943Y-13628936D01*
X16563039Y-13447984D02*
X16582086Y-13447984D01*
X16582086Y-13447984D02*
X16601134Y-13457508D01*
X16601134Y-13457508D02*
X16610658Y-13467031D01*
X16610658Y-13467031D02*
X16620182Y-13486079D01*
X16620182Y-13486079D02*
X16629705Y-13524174D01*
X16629705Y-13524174D02*
X16629705Y-13571793D01*
X16629705Y-13571793D02*
X16620182Y-13609888D01*
X16620182Y-13609888D02*
X16610658Y-13628936D01*
X16610658Y-13628936D02*
X16601134Y-13638460D01*
X16601134Y-13638460D02*
X16582086Y-13647984D01*
X16582086Y-13647984D02*
X16563039Y-13647984D01*
X16563039Y-13647984D02*
X16543991Y-13638460D01*
X16543991Y-13638460D02*
X16534467Y-13628936D01*
X16534467Y-13628936D02*
X16524943Y-13609888D01*
X16524943Y-13609888D02*
X16515420Y-13571793D01*
X16515420Y-13571793D02*
X16515420Y-13524174D01*
X16515420Y-13524174D02*
X16524943Y-13486079D01*
X16524943Y-13486079D02*
X16534467Y-13467031D01*
X16534467Y-13467031D02*
X16543991Y-13457508D01*
X16543991Y-13457508D02*
X16563039Y-13447984D01*
X16715420Y-13647984D02*
X16715420Y-13514650D01*
X16715420Y-13533698D02*
X16724943Y-13524174D01*
X16724943Y-13524174D02*
X16743991Y-13514650D01*
X16743991Y-13514650D02*
X16772563Y-13514650D01*
X16772563Y-13514650D02*
X16791610Y-13524174D01*
X16791610Y-13524174D02*
X16801134Y-13543222D01*
X16801134Y-13543222D02*
X16801134Y-13647984D01*
X16801134Y-13543222D02*
X16810658Y-13524174D01*
X16810658Y-13524174D02*
X16829705Y-13514650D01*
X16829705Y-13514650D02*
X16858277Y-13514650D01*
X16858277Y-13514650D02*
X16877325Y-13524174D01*
X16877325Y-13524174D02*
X16886848Y-13543222D01*
X16886848Y-13543222D02*
X16886848Y-13647984D01*
X16982086Y-13647984D02*
X16982086Y-13514650D01*
X16982086Y-13533698D02*
X16991610Y-13524174D01*
X16991610Y-13524174D02*
X17010658Y-13514650D01*
X17010658Y-13514650D02*
X17039229Y-13514650D01*
X17039229Y-13514650D02*
X17058277Y-13524174D01*
X17058277Y-13524174D02*
X17067801Y-13543222D01*
X17067801Y-13543222D02*
X17067801Y-13647984D01*
X17067801Y-13543222D02*
X17077325Y-13524174D01*
X17077325Y-13524174D02*
X17096372Y-13514650D01*
X17096372Y-13514650D02*
X17124944Y-13514650D01*
X17124944Y-13514650D02*
X17143991Y-13524174D01*
X17143991Y-13524174D02*
X17153515Y-13543222D01*
X17153515Y-13543222D02*
X17153515Y-13647984D01*
X17543991Y-13438460D02*
X17372563Y-13695603D01*
X17801134Y-13447984D02*
X17820182Y-13447984D01*
X17820182Y-13447984D02*
X17839229Y-13457508D01*
X17839229Y-13457508D02*
X17848753Y-13467031D01*
X17848753Y-13467031D02*
X17858277Y-13486079D01*
X17858277Y-13486079D02*
X17867801Y-13524174D01*
X17867801Y-13524174D02*
X17867801Y-13571793D01*
X17867801Y-13571793D02*
X17858277Y-13609888D01*
X17858277Y-13609888D02*
X17848753Y-13628936D01*
X17848753Y-13628936D02*
X17839229Y-13638460D01*
X17839229Y-13638460D02*
X17820182Y-13647984D01*
X17820182Y-13647984D02*
X17801134Y-13647984D01*
X17801134Y-13647984D02*
X17782087Y-13638460D01*
X17782087Y-13638460D02*
X17772563Y-13628936D01*
X17772563Y-13628936D02*
X17763039Y-13609888D01*
X17763039Y-13609888D02*
X17753515Y-13571793D01*
X17753515Y-13571793D02*
X17753515Y-13524174D01*
X17753515Y-13524174D02*
X17763039Y-13486079D01*
X17763039Y-13486079D02*
X17772563Y-13467031D01*
X17772563Y-13467031D02*
X17782087Y-13457508D01*
X17782087Y-13457508D02*
X17801134Y-13447984D01*
X17953515Y-13628936D02*
X17963039Y-13638460D01*
X17963039Y-13638460D02*
X17953515Y-13647984D01*
X17953515Y-13647984D02*
X17943991Y-13638460D01*
X17943991Y-13638460D02*
X17953515Y-13628936D01*
X17953515Y-13628936D02*
X17953515Y-13647984D01*
X18153515Y-13647984D02*
X18039229Y-13647984D01*
X18096372Y-13647984D02*
X18096372Y-13447984D01*
X18096372Y-13447984D02*
X18077325Y-13476555D01*
X18077325Y-13476555D02*
X18058277Y-13495603D01*
X18058277Y-13495603D02*
X18039229Y-13505127D01*
X18229706Y-13467031D02*
X18239229Y-13457508D01*
X18239229Y-13457508D02*
X18258277Y-13447984D01*
X18258277Y-13447984D02*
X18305896Y-13447984D01*
X18305896Y-13447984D02*
X18324944Y-13457508D01*
X18324944Y-13457508D02*
X18334468Y-13467031D01*
X18334468Y-13467031D02*
X18343991Y-13486079D01*
X18343991Y-13486079D02*
X18343991Y-13505127D01*
X18343991Y-13505127D02*
X18334468Y-13533698D01*
X18334468Y-13533698D02*
X18220182Y-13647984D01*
X18220182Y-13647984D02*
X18343991Y-13647984D01*
X18458277Y-13533698D02*
X18439229Y-13524174D01*
X18439229Y-13524174D02*
X18429706Y-13514650D01*
X18429706Y-13514650D02*
X18420182Y-13495603D01*
X18420182Y-13495603D02*
X18420182Y-13486079D01*
X18420182Y-13486079D02*
X18429706Y-13467031D01*
X18429706Y-13467031D02*
X18439229Y-13457508D01*
X18439229Y-13457508D02*
X18458277Y-13447984D01*
X18458277Y-13447984D02*
X18496372Y-13447984D01*
X18496372Y-13447984D02*
X18515420Y-13457508D01*
X18515420Y-13457508D02*
X18524944Y-13467031D01*
X18524944Y-13467031D02*
X18534468Y-13486079D01*
X18534468Y-13486079D02*
X18534468Y-13495603D01*
X18534468Y-13495603D02*
X18524944Y-13514650D01*
X18524944Y-13514650D02*
X18515420Y-13524174D01*
X18515420Y-13524174D02*
X18496372Y-13533698D01*
X18496372Y-13533698D02*
X18458277Y-13533698D01*
X18458277Y-13533698D02*
X18439229Y-13543222D01*
X18439229Y-13543222D02*
X18429706Y-13552746D01*
X18429706Y-13552746D02*
X18420182Y-13571793D01*
X18420182Y-13571793D02*
X18420182Y-13609888D01*
X18420182Y-13609888D02*
X18429706Y-13628936D01*
X18429706Y-13628936D02*
X18439229Y-13638460D01*
X18439229Y-13638460D02*
X18458277Y-13647984D01*
X18458277Y-13647984D02*
X18496372Y-13647984D01*
X18496372Y-13647984D02*
X18515420Y-13638460D01*
X18515420Y-13638460D02*
X18524944Y-13628936D01*
X18524944Y-13628936D02*
X18534468Y-13609888D01*
X18534468Y-13609888D02*
X18534468Y-13571793D01*
X18534468Y-13571793D02*
X18524944Y-13552746D01*
X18524944Y-13552746D02*
X18515420Y-13543222D01*
X18515420Y-13543222D02*
X18496372Y-13533698D01*
X18658277Y-13447984D02*
X18677325Y-13447984D01*
X18677325Y-13447984D02*
X18696372Y-13457508D01*
X18696372Y-13457508D02*
X18705896Y-13467031D01*
X18705896Y-13467031D02*
X18715420Y-13486079D01*
X18715420Y-13486079D02*
X18724944Y-13524174D01*
X18724944Y-13524174D02*
X18724944Y-13571793D01*
X18724944Y-13571793D02*
X18715420Y-13609888D01*
X18715420Y-13609888D02*
X18705896Y-13628936D01*
X18705896Y-13628936D02*
X18696372Y-13638460D01*
X18696372Y-13638460D02*
X18677325Y-13647984D01*
X18677325Y-13647984D02*
X18658277Y-13647984D01*
X18658277Y-13647984D02*
X18639229Y-13638460D01*
X18639229Y-13638460D02*
X18629706Y-13628936D01*
X18629706Y-13628936D02*
X18620182Y-13609888D01*
X18620182Y-13609888D02*
X18610658Y-13571793D01*
X18610658Y-13571793D02*
X18610658Y-13524174D01*
X18610658Y-13524174D02*
X18620182Y-13486079D01*
X18620182Y-13486079D02*
X18629706Y-13467031D01*
X18629706Y-13467031D02*
X18639229Y-13457508D01*
X18639229Y-13457508D02*
X18658277Y-13447984D01*
X18801134Y-13447984D02*
X18801134Y-13486079D01*
X18877325Y-13447984D02*
X18877325Y-13486079D01*
X19172563Y-13724174D02*
X19163039Y-13714650D01*
X19163039Y-13714650D02*
X19143991Y-13686079D01*
X19143991Y-13686079D02*
X19134468Y-13667031D01*
X19134468Y-13667031D02*
X19124944Y-13638460D01*
X19124944Y-13638460D02*
X19115420Y-13590841D01*
X19115420Y-13590841D02*
X19115420Y-13552746D01*
X19115420Y-13552746D02*
X19124944Y-13505127D01*
X19124944Y-13505127D02*
X19134468Y-13476555D01*
X19134468Y-13476555D02*
X19143991Y-13457508D01*
X19143991Y-13457508D02*
X19163039Y-13428936D01*
X19163039Y-13428936D02*
X19172563Y-13419412D01*
X19334468Y-13514650D02*
X19334468Y-13647984D01*
X19286849Y-13438460D02*
X19239230Y-13581317D01*
X19239230Y-13581317D02*
X19363039Y-13581317D01*
X19591611Y-13647984D02*
X19591611Y-13447984D01*
X19677325Y-13647984D02*
X19677325Y-13543222D01*
X19677325Y-13543222D02*
X19667801Y-13524174D01*
X19667801Y-13524174D02*
X19648753Y-13514650D01*
X19648753Y-13514650D02*
X19620182Y-13514650D01*
X19620182Y-13514650D02*
X19601134Y-13524174D01*
X19601134Y-13524174D02*
X19591611Y-13533698D01*
X19801134Y-13647984D02*
X19782087Y-13638460D01*
X19782087Y-13638460D02*
X19772563Y-13628936D01*
X19772563Y-13628936D02*
X19763039Y-13609888D01*
X19763039Y-13609888D02*
X19763039Y-13552746D01*
X19763039Y-13552746D02*
X19772563Y-13533698D01*
X19772563Y-13533698D02*
X19782087Y-13524174D01*
X19782087Y-13524174D02*
X19801134Y-13514650D01*
X19801134Y-13514650D02*
X19829706Y-13514650D01*
X19829706Y-13514650D02*
X19848753Y-13524174D01*
X19848753Y-13524174D02*
X19858277Y-13533698D01*
X19858277Y-13533698D02*
X19867801Y-13552746D01*
X19867801Y-13552746D02*
X19867801Y-13609888D01*
X19867801Y-13609888D02*
X19858277Y-13628936D01*
X19858277Y-13628936D02*
X19848753Y-13638460D01*
X19848753Y-13638460D02*
X19829706Y-13647984D01*
X19829706Y-13647984D02*
X19801134Y-13647984D01*
X19982087Y-13647984D02*
X19963039Y-13638460D01*
X19963039Y-13638460D02*
X19953515Y-13619412D01*
X19953515Y-13619412D02*
X19953515Y-13447984D01*
X20134468Y-13638460D02*
X20115420Y-13647984D01*
X20115420Y-13647984D02*
X20077325Y-13647984D01*
X20077325Y-13647984D02*
X20058277Y-13638460D01*
X20058277Y-13638460D02*
X20048753Y-13619412D01*
X20048753Y-13619412D02*
X20048753Y-13543222D01*
X20048753Y-13543222D02*
X20058277Y-13524174D01*
X20058277Y-13524174D02*
X20077325Y-13514650D01*
X20077325Y-13514650D02*
X20115420Y-13514650D01*
X20115420Y-13514650D02*
X20134468Y-13524174D01*
X20134468Y-13524174D02*
X20143992Y-13543222D01*
X20143992Y-13543222D02*
X20143992Y-13562269D01*
X20143992Y-13562269D02*
X20048753Y-13581317D01*
X20220182Y-13638460D02*
X20239230Y-13647984D01*
X20239230Y-13647984D02*
X20277325Y-13647984D01*
X20277325Y-13647984D02*
X20296373Y-13638460D01*
X20296373Y-13638460D02*
X20305896Y-13619412D01*
X20305896Y-13619412D02*
X20305896Y-13609888D01*
X20305896Y-13609888D02*
X20296373Y-13590841D01*
X20296373Y-13590841D02*
X20277325Y-13581317D01*
X20277325Y-13581317D02*
X20248753Y-13581317D01*
X20248753Y-13581317D02*
X20229706Y-13571793D01*
X20229706Y-13571793D02*
X20220182Y-13552746D01*
X20220182Y-13552746D02*
X20220182Y-13543222D01*
X20220182Y-13543222D02*
X20229706Y-13524174D01*
X20229706Y-13524174D02*
X20248753Y-13514650D01*
X20248753Y-13514650D02*
X20277325Y-13514650D01*
X20277325Y-13514650D02*
X20296373Y-13524174D01*
X20372563Y-13724174D02*
X20382087Y-13714650D01*
X20382087Y-13714650D02*
X20401134Y-13686079D01*
X20401134Y-13686079D02*
X20410658Y-13667031D01*
X20410658Y-13667031D02*
X20420182Y-13638460D01*
X20420182Y-13638460D02*
X20429706Y-13590841D01*
X20429706Y-13590841D02*
X20429706Y-13552746D01*
X20429706Y-13552746D02*
X20420182Y-13505127D01*
X20420182Y-13505127D02*
X20410658Y-13476555D01*
X20410658Y-13476555D02*
X20401134Y-13457508D01*
X20401134Y-13457508D02*
X20382087Y-13428936D01*
X20382087Y-13428936D02*
X20372563Y-13419412D01*
X20734468Y-13724174D02*
X20724944Y-13714650D01*
X20724944Y-13714650D02*
X20705896Y-13686079D01*
X20705896Y-13686079D02*
X20696373Y-13667031D01*
X20696373Y-13667031D02*
X20686849Y-13638460D01*
X20686849Y-13638460D02*
X20677325Y-13590841D01*
X20677325Y-13590841D02*
X20677325Y-13552746D01*
X20677325Y-13552746D02*
X20686849Y-13505127D01*
X20686849Y-13505127D02*
X20696373Y-13476555D01*
X20696373Y-13476555D02*
X20705896Y-13457508D01*
X20705896Y-13457508D02*
X20724944Y-13428936D01*
X20724944Y-13428936D02*
X20734468Y-13419412D01*
X20810658Y-13514650D02*
X20810658Y-13647984D01*
X20810658Y-13533698D02*
X20820182Y-13524174D01*
X20820182Y-13524174D02*
X20839230Y-13514650D01*
X20839230Y-13514650D02*
X20867801Y-13514650D01*
X20867801Y-13514650D02*
X20886849Y-13524174D01*
X20886849Y-13524174D02*
X20896373Y-13543222D01*
X20896373Y-13543222D02*
X20896373Y-13647984D01*
X21020182Y-13647984D02*
X21001134Y-13638460D01*
X21001134Y-13638460D02*
X20991611Y-13628936D01*
X20991611Y-13628936D02*
X20982087Y-13609888D01*
X20982087Y-13609888D02*
X20982087Y-13552746D01*
X20982087Y-13552746D02*
X20991611Y-13533698D01*
X20991611Y-13533698D02*
X21001134Y-13524174D01*
X21001134Y-13524174D02*
X21020182Y-13514650D01*
X21020182Y-13514650D02*
X21048754Y-13514650D01*
X21048754Y-13514650D02*
X21067801Y-13524174D01*
X21067801Y-13524174D02*
X21077325Y-13533698D01*
X21077325Y-13533698D02*
X21086849Y-13552746D01*
X21086849Y-13552746D02*
X21086849Y-13609888D01*
X21086849Y-13609888D02*
X21077325Y-13628936D01*
X21077325Y-13628936D02*
X21067801Y-13638460D01*
X21067801Y-13638460D02*
X21048754Y-13647984D01*
X21048754Y-13647984D02*
X21020182Y-13647984D01*
X21143992Y-13514650D02*
X21220182Y-13514650D01*
X21172563Y-13447984D02*
X21172563Y-13619412D01*
X21172563Y-13619412D02*
X21182087Y-13638460D01*
X21182087Y-13638460D02*
X21201134Y-13647984D01*
X21201134Y-13647984D02*
X21220182Y-13647984D01*
X21439230Y-13514650D02*
X21439230Y-13714650D01*
X21439230Y-13524174D02*
X21458277Y-13514650D01*
X21458277Y-13514650D02*
X21496373Y-13514650D01*
X21496373Y-13514650D02*
X21515420Y-13524174D01*
X21515420Y-13524174D02*
X21524944Y-13533698D01*
X21524944Y-13533698D02*
X21534468Y-13552746D01*
X21534468Y-13552746D02*
X21534468Y-13609888D01*
X21534468Y-13609888D02*
X21524944Y-13628936D01*
X21524944Y-13628936D02*
X21515420Y-13638460D01*
X21515420Y-13638460D02*
X21496373Y-13647984D01*
X21496373Y-13647984D02*
X21458277Y-13647984D01*
X21458277Y-13647984D02*
X21439230Y-13638460D01*
X21648754Y-13647984D02*
X21629706Y-13638460D01*
X21629706Y-13638460D02*
X21620182Y-13619412D01*
X21620182Y-13619412D02*
X21620182Y-13447984D01*
X21810658Y-13647984D02*
X21810658Y-13543222D01*
X21810658Y-13543222D02*
X21801135Y-13524174D01*
X21801135Y-13524174D02*
X21782087Y-13514650D01*
X21782087Y-13514650D02*
X21743992Y-13514650D01*
X21743992Y-13514650D02*
X21724944Y-13524174D01*
X21810658Y-13638460D02*
X21791611Y-13647984D01*
X21791611Y-13647984D02*
X21743992Y-13647984D01*
X21743992Y-13647984D02*
X21724944Y-13638460D01*
X21724944Y-13638460D02*
X21715420Y-13619412D01*
X21715420Y-13619412D02*
X21715420Y-13600365D01*
X21715420Y-13600365D02*
X21724944Y-13581317D01*
X21724944Y-13581317D02*
X21743992Y-13571793D01*
X21743992Y-13571793D02*
X21791611Y-13571793D01*
X21791611Y-13571793D02*
X21810658Y-13562269D01*
X21877325Y-13514650D02*
X21953515Y-13514650D01*
X21905896Y-13447984D02*
X21905896Y-13619412D01*
X21905896Y-13619412D02*
X21915420Y-13638460D01*
X21915420Y-13638460D02*
X21934468Y-13647984D01*
X21934468Y-13647984D02*
X21953515Y-13647984D01*
X22096373Y-13638460D02*
X22077325Y-13647984D01*
X22077325Y-13647984D02*
X22039230Y-13647984D01*
X22039230Y-13647984D02*
X22020182Y-13638460D01*
X22020182Y-13638460D02*
X22010658Y-13619412D01*
X22010658Y-13619412D02*
X22010658Y-13543222D01*
X22010658Y-13543222D02*
X22020182Y-13524174D01*
X22020182Y-13524174D02*
X22039230Y-13514650D01*
X22039230Y-13514650D02*
X22077325Y-13514650D01*
X22077325Y-13514650D02*
X22096373Y-13524174D01*
X22096373Y-13524174D02*
X22105896Y-13543222D01*
X22105896Y-13543222D02*
X22105896Y-13562269D01*
X22105896Y-13562269D02*
X22010658Y-13581317D01*
X22277325Y-13647984D02*
X22277325Y-13447984D01*
X22277325Y-13638460D02*
X22258277Y-13647984D01*
X22258277Y-13647984D02*
X22220182Y-13647984D01*
X22220182Y-13647984D02*
X22201135Y-13638460D01*
X22201135Y-13638460D02*
X22191611Y-13628936D01*
X22191611Y-13628936D02*
X22182087Y-13609888D01*
X22182087Y-13609888D02*
X22182087Y-13552746D01*
X22182087Y-13552746D02*
X22191611Y-13533698D01*
X22191611Y-13533698D02*
X22201135Y-13524174D01*
X22201135Y-13524174D02*
X22220182Y-13514650D01*
X22220182Y-13514650D02*
X22258277Y-13514650D01*
X22258277Y-13514650D02*
X22277325Y-13524174D01*
X22353516Y-13724174D02*
X22363039Y-13714650D01*
X22363039Y-13714650D02*
X22382087Y-13686079D01*
X22382087Y-13686079D02*
X22391611Y-13667031D01*
X22391611Y-13667031D02*
X22401134Y-13638460D01*
X22401134Y-13638460D02*
X22410658Y-13590841D01*
X22410658Y-13590841D02*
X22410658Y-13552746D01*
X22410658Y-13552746D02*
X22401134Y-13505127D01*
X22401134Y-13505127D02*
X22391611Y-13476555D01*
X22391611Y-13476555D02*
X22382087Y-13457508D01*
X22382087Y-13457508D02*
X22363039Y-13428936D01*
X22363039Y-13428936D02*
X22353516Y-13419412D01*
X15497500Y-13976500D02*
X15597500Y-13876500D01*
X15497500Y-13776500D01*
X15397500Y-13876500D01*
X15497500Y-13976500D01*
X15839229Y-13767984D02*
X15963039Y-13767984D01*
X15963039Y-13767984D02*
X15896372Y-13844174D01*
X15896372Y-13844174D02*
X15924943Y-13844174D01*
X15924943Y-13844174D02*
X15943991Y-13853698D01*
X15943991Y-13853698D02*
X15953515Y-13863222D01*
X15953515Y-13863222D02*
X15963039Y-13882269D01*
X15963039Y-13882269D02*
X15963039Y-13929888D01*
X15963039Y-13929888D02*
X15953515Y-13948936D01*
X15953515Y-13948936D02*
X15943991Y-13958460D01*
X15943991Y-13958460D02*
X15924943Y-13967984D01*
X15924943Y-13967984D02*
X15867801Y-13967984D01*
X15867801Y-13967984D02*
X15848753Y-13958460D01*
X15848753Y-13958460D02*
X15839229Y-13948936D01*
X16048753Y-13948936D02*
X16058277Y-13958460D01*
X16058277Y-13958460D02*
X16048753Y-13967984D01*
X16048753Y-13967984D02*
X16039229Y-13958460D01*
X16039229Y-13958460D02*
X16048753Y-13948936D01*
X16048753Y-13948936D02*
X16048753Y-13967984D01*
X16239229Y-13767984D02*
X16143991Y-13767984D01*
X16143991Y-13767984D02*
X16134467Y-13863222D01*
X16134467Y-13863222D02*
X16143991Y-13853698D01*
X16143991Y-13853698D02*
X16163039Y-13844174D01*
X16163039Y-13844174D02*
X16210658Y-13844174D01*
X16210658Y-13844174D02*
X16229705Y-13853698D01*
X16229705Y-13853698D02*
X16239229Y-13863222D01*
X16239229Y-13863222D02*
X16248753Y-13882269D01*
X16248753Y-13882269D02*
X16248753Y-13929888D01*
X16248753Y-13929888D02*
X16239229Y-13948936D01*
X16239229Y-13948936D02*
X16229705Y-13958460D01*
X16229705Y-13958460D02*
X16210658Y-13967984D01*
X16210658Y-13967984D02*
X16163039Y-13967984D01*
X16163039Y-13967984D02*
X16143991Y-13958460D01*
X16143991Y-13958460D02*
X16134467Y-13948936D01*
X16372562Y-13767984D02*
X16391610Y-13767984D01*
X16391610Y-13767984D02*
X16410658Y-13777508D01*
X16410658Y-13777508D02*
X16420182Y-13787031D01*
X16420182Y-13787031D02*
X16429705Y-13806079D01*
X16429705Y-13806079D02*
X16439229Y-13844174D01*
X16439229Y-13844174D02*
X16439229Y-13891793D01*
X16439229Y-13891793D02*
X16429705Y-13929888D01*
X16429705Y-13929888D02*
X16420182Y-13948936D01*
X16420182Y-13948936D02*
X16410658Y-13958460D01*
X16410658Y-13958460D02*
X16391610Y-13967984D01*
X16391610Y-13967984D02*
X16372562Y-13967984D01*
X16372562Y-13967984D02*
X16353515Y-13958460D01*
X16353515Y-13958460D02*
X16343991Y-13948936D01*
X16343991Y-13948936D02*
X16334467Y-13929888D01*
X16334467Y-13929888D02*
X16324943Y-13891793D01*
X16324943Y-13891793D02*
X16324943Y-13844174D01*
X16324943Y-13844174D02*
X16334467Y-13806079D01*
X16334467Y-13806079D02*
X16343991Y-13787031D01*
X16343991Y-13787031D02*
X16353515Y-13777508D01*
X16353515Y-13777508D02*
X16372562Y-13767984D01*
X16563039Y-13767984D02*
X16582086Y-13767984D01*
X16582086Y-13767984D02*
X16601134Y-13777508D01*
X16601134Y-13777508D02*
X16610658Y-13787031D01*
X16610658Y-13787031D02*
X16620182Y-13806079D01*
X16620182Y-13806079D02*
X16629705Y-13844174D01*
X16629705Y-13844174D02*
X16629705Y-13891793D01*
X16629705Y-13891793D02*
X16620182Y-13929888D01*
X16620182Y-13929888D02*
X16610658Y-13948936D01*
X16610658Y-13948936D02*
X16601134Y-13958460D01*
X16601134Y-13958460D02*
X16582086Y-13967984D01*
X16582086Y-13967984D02*
X16563039Y-13967984D01*
X16563039Y-13967984D02*
X16543991Y-13958460D01*
X16543991Y-13958460D02*
X16534467Y-13948936D01*
X16534467Y-13948936D02*
X16524943Y-13929888D01*
X16524943Y-13929888D02*
X16515420Y-13891793D01*
X16515420Y-13891793D02*
X16515420Y-13844174D01*
X16515420Y-13844174D02*
X16524943Y-13806079D01*
X16524943Y-13806079D02*
X16534467Y-13787031D01*
X16534467Y-13787031D02*
X16543991Y-13777508D01*
X16543991Y-13777508D02*
X16563039Y-13767984D01*
X16715420Y-13967984D02*
X16715420Y-13834650D01*
X16715420Y-13853698D02*
X16724943Y-13844174D01*
X16724943Y-13844174D02*
X16743991Y-13834650D01*
X16743991Y-13834650D02*
X16772563Y-13834650D01*
X16772563Y-13834650D02*
X16791610Y-13844174D01*
X16791610Y-13844174D02*
X16801134Y-13863222D01*
X16801134Y-13863222D02*
X16801134Y-13967984D01*
X16801134Y-13863222D02*
X16810658Y-13844174D01*
X16810658Y-13844174D02*
X16829705Y-13834650D01*
X16829705Y-13834650D02*
X16858277Y-13834650D01*
X16858277Y-13834650D02*
X16877325Y-13844174D01*
X16877325Y-13844174D02*
X16886848Y-13863222D01*
X16886848Y-13863222D02*
X16886848Y-13967984D01*
X16982086Y-13967984D02*
X16982086Y-13834650D01*
X16982086Y-13853698D02*
X16991610Y-13844174D01*
X16991610Y-13844174D02*
X17010658Y-13834650D01*
X17010658Y-13834650D02*
X17039229Y-13834650D01*
X17039229Y-13834650D02*
X17058277Y-13844174D01*
X17058277Y-13844174D02*
X17067801Y-13863222D01*
X17067801Y-13863222D02*
X17067801Y-13967984D01*
X17067801Y-13863222D02*
X17077325Y-13844174D01*
X17077325Y-13844174D02*
X17096372Y-13834650D01*
X17096372Y-13834650D02*
X17124944Y-13834650D01*
X17124944Y-13834650D02*
X17143991Y-13844174D01*
X17143991Y-13844174D02*
X17153515Y-13863222D01*
X17153515Y-13863222D02*
X17153515Y-13967984D01*
X17543991Y-13758460D02*
X17372563Y-14015603D01*
X17801134Y-13767984D02*
X17820182Y-13767984D01*
X17820182Y-13767984D02*
X17839229Y-13777508D01*
X17839229Y-13777508D02*
X17848753Y-13787031D01*
X17848753Y-13787031D02*
X17858277Y-13806079D01*
X17858277Y-13806079D02*
X17867801Y-13844174D01*
X17867801Y-13844174D02*
X17867801Y-13891793D01*
X17867801Y-13891793D02*
X17858277Y-13929888D01*
X17858277Y-13929888D02*
X17848753Y-13948936D01*
X17848753Y-13948936D02*
X17839229Y-13958460D01*
X17839229Y-13958460D02*
X17820182Y-13967984D01*
X17820182Y-13967984D02*
X17801134Y-13967984D01*
X17801134Y-13967984D02*
X17782087Y-13958460D01*
X17782087Y-13958460D02*
X17772563Y-13948936D01*
X17772563Y-13948936D02*
X17763039Y-13929888D01*
X17763039Y-13929888D02*
X17753515Y-13891793D01*
X17753515Y-13891793D02*
X17753515Y-13844174D01*
X17753515Y-13844174D02*
X17763039Y-13806079D01*
X17763039Y-13806079D02*
X17772563Y-13787031D01*
X17772563Y-13787031D02*
X17782087Y-13777508D01*
X17782087Y-13777508D02*
X17801134Y-13767984D01*
X17953515Y-13948936D02*
X17963039Y-13958460D01*
X17963039Y-13958460D02*
X17953515Y-13967984D01*
X17953515Y-13967984D02*
X17943991Y-13958460D01*
X17943991Y-13958460D02*
X17953515Y-13948936D01*
X17953515Y-13948936D02*
X17953515Y-13967984D01*
X18153515Y-13967984D02*
X18039229Y-13967984D01*
X18096372Y-13967984D02*
X18096372Y-13767984D01*
X18096372Y-13767984D02*
X18077325Y-13796555D01*
X18077325Y-13796555D02*
X18058277Y-13815603D01*
X18058277Y-13815603D02*
X18039229Y-13825127D01*
X18220182Y-13767984D02*
X18343991Y-13767984D01*
X18343991Y-13767984D02*
X18277325Y-13844174D01*
X18277325Y-13844174D02*
X18305896Y-13844174D01*
X18305896Y-13844174D02*
X18324944Y-13853698D01*
X18324944Y-13853698D02*
X18334468Y-13863222D01*
X18334468Y-13863222D02*
X18343991Y-13882269D01*
X18343991Y-13882269D02*
X18343991Y-13929888D01*
X18343991Y-13929888D02*
X18334468Y-13948936D01*
X18334468Y-13948936D02*
X18324944Y-13958460D01*
X18324944Y-13958460D02*
X18305896Y-13967984D01*
X18305896Y-13967984D02*
X18248753Y-13967984D01*
X18248753Y-13967984D02*
X18229706Y-13958460D01*
X18229706Y-13958460D02*
X18220182Y-13948936D01*
X18410658Y-13767984D02*
X18543991Y-13767984D01*
X18543991Y-13767984D02*
X18458277Y-13967984D01*
X18648753Y-13853698D02*
X18629706Y-13844174D01*
X18629706Y-13844174D02*
X18620182Y-13834650D01*
X18620182Y-13834650D02*
X18610658Y-13815603D01*
X18610658Y-13815603D02*
X18610658Y-13806079D01*
X18610658Y-13806079D02*
X18620182Y-13787031D01*
X18620182Y-13787031D02*
X18629706Y-13777508D01*
X18629706Y-13777508D02*
X18648753Y-13767984D01*
X18648753Y-13767984D02*
X18686849Y-13767984D01*
X18686849Y-13767984D02*
X18705896Y-13777508D01*
X18705896Y-13777508D02*
X18715420Y-13787031D01*
X18715420Y-13787031D02*
X18724944Y-13806079D01*
X18724944Y-13806079D02*
X18724944Y-13815603D01*
X18724944Y-13815603D02*
X18715420Y-13834650D01*
X18715420Y-13834650D02*
X18705896Y-13844174D01*
X18705896Y-13844174D02*
X18686849Y-13853698D01*
X18686849Y-13853698D02*
X18648753Y-13853698D01*
X18648753Y-13853698D02*
X18629706Y-13863222D01*
X18629706Y-13863222D02*
X18620182Y-13872746D01*
X18620182Y-13872746D02*
X18610658Y-13891793D01*
X18610658Y-13891793D02*
X18610658Y-13929888D01*
X18610658Y-13929888D02*
X18620182Y-13948936D01*
X18620182Y-13948936D02*
X18629706Y-13958460D01*
X18629706Y-13958460D02*
X18648753Y-13967984D01*
X18648753Y-13967984D02*
X18686849Y-13967984D01*
X18686849Y-13967984D02*
X18705896Y-13958460D01*
X18705896Y-13958460D02*
X18715420Y-13948936D01*
X18715420Y-13948936D02*
X18724944Y-13929888D01*
X18724944Y-13929888D02*
X18724944Y-13891793D01*
X18724944Y-13891793D02*
X18715420Y-13872746D01*
X18715420Y-13872746D02*
X18705896Y-13863222D01*
X18705896Y-13863222D02*
X18686849Y-13853698D01*
X18801134Y-13767984D02*
X18801134Y-13806079D01*
X18877325Y-13767984D02*
X18877325Y-13806079D01*
X19172563Y-14044174D02*
X19163039Y-14034650D01*
X19163039Y-14034650D02*
X19143991Y-14006079D01*
X19143991Y-14006079D02*
X19134468Y-13987031D01*
X19134468Y-13987031D02*
X19124944Y-13958460D01*
X19124944Y-13958460D02*
X19115420Y-13910841D01*
X19115420Y-13910841D02*
X19115420Y-13872746D01*
X19115420Y-13872746D02*
X19124944Y-13825127D01*
X19124944Y-13825127D02*
X19134468Y-13796555D01*
X19134468Y-13796555D02*
X19143991Y-13777508D01*
X19143991Y-13777508D02*
X19163039Y-13748936D01*
X19163039Y-13748936D02*
X19172563Y-13739412D01*
X19334468Y-13834650D02*
X19334468Y-13967984D01*
X19286849Y-13758460D02*
X19239230Y-13901317D01*
X19239230Y-13901317D02*
X19363039Y-13901317D01*
X19591611Y-13967984D02*
X19591611Y-13767984D01*
X19677325Y-13967984D02*
X19677325Y-13863222D01*
X19677325Y-13863222D02*
X19667801Y-13844174D01*
X19667801Y-13844174D02*
X19648753Y-13834650D01*
X19648753Y-13834650D02*
X19620182Y-13834650D01*
X19620182Y-13834650D02*
X19601134Y-13844174D01*
X19601134Y-13844174D02*
X19591611Y-13853698D01*
X19801134Y-13967984D02*
X19782087Y-13958460D01*
X19782087Y-13958460D02*
X19772563Y-13948936D01*
X19772563Y-13948936D02*
X19763039Y-13929888D01*
X19763039Y-13929888D02*
X19763039Y-13872746D01*
X19763039Y-13872746D02*
X19772563Y-13853698D01*
X19772563Y-13853698D02*
X19782087Y-13844174D01*
X19782087Y-13844174D02*
X19801134Y-13834650D01*
X19801134Y-13834650D02*
X19829706Y-13834650D01*
X19829706Y-13834650D02*
X19848753Y-13844174D01*
X19848753Y-13844174D02*
X19858277Y-13853698D01*
X19858277Y-13853698D02*
X19867801Y-13872746D01*
X19867801Y-13872746D02*
X19867801Y-13929888D01*
X19867801Y-13929888D02*
X19858277Y-13948936D01*
X19858277Y-13948936D02*
X19848753Y-13958460D01*
X19848753Y-13958460D02*
X19829706Y-13967984D01*
X19829706Y-13967984D02*
X19801134Y-13967984D01*
X19982087Y-13967984D02*
X19963039Y-13958460D01*
X19963039Y-13958460D02*
X19953515Y-13939412D01*
X19953515Y-13939412D02*
X19953515Y-13767984D01*
X20134468Y-13958460D02*
X20115420Y-13967984D01*
X20115420Y-13967984D02*
X20077325Y-13967984D01*
X20077325Y-13967984D02*
X20058277Y-13958460D01*
X20058277Y-13958460D02*
X20048753Y-13939412D01*
X20048753Y-13939412D02*
X20048753Y-13863222D01*
X20048753Y-13863222D02*
X20058277Y-13844174D01*
X20058277Y-13844174D02*
X20077325Y-13834650D01*
X20077325Y-13834650D02*
X20115420Y-13834650D01*
X20115420Y-13834650D02*
X20134468Y-13844174D01*
X20134468Y-13844174D02*
X20143992Y-13863222D01*
X20143992Y-13863222D02*
X20143992Y-13882269D01*
X20143992Y-13882269D02*
X20048753Y-13901317D01*
X20220182Y-13958460D02*
X20239230Y-13967984D01*
X20239230Y-13967984D02*
X20277325Y-13967984D01*
X20277325Y-13967984D02*
X20296373Y-13958460D01*
X20296373Y-13958460D02*
X20305896Y-13939412D01*
X20305896Y-13939412D02*
X20305896Y-13929888D01*
X20305896Y-13929888D02*
X20296373Y-13910841D01*
X20296373Y-13910841D02*
X20277325Y-13901317D01*
X20277325Y-13901317D02*
X20248753Y-13901317D01*
X20248753Y-13901317D02*
X20229706Y-13891793D01*
X20229706Y-13891793D02*
X20220182Y-13872746D01*
X20220182Y-13872746D02*
X20220182Y-13863222D01*
X20220182Y-13863222D02*
X20229706Y-13844174D01*
X20229706Y-13844174D02*
X20248753Y-13834650D01*
X20248753Y-13834650D02*
X20277325Y-13834650D01*
X20277325Y-13834650D02*
X20296373Y-13844174D01*
X20372563Y-14044174D02*
X20382087Y-14034650D01*
X20382087Y-14034650D02*
X20401134Y-14006079D01*
X20401134Y-14006079D02*
X20410658Y-13987031D01*
X20410658Y-13987031D02*
X20420182Y-13958460D01*
X20420182Y-13958460D02*
X20429706Y-13910841D01*
X20429706Y-13910841D02*
X20429706Y-13872746D01*
X20429706Y-13872746D02*
X20420182Y-13825127D01*
X20420182Y-13825127D02*
X20410658Y-13796555D01*
X20410658Y-13796555D02*
X20401134Y-13777508D01*
X20401134Y-13777508D02*
X20382087Y-13748936D01*
X20382087Y-13748936D02*
X20372563Y-13739412D01*
X20734468Y-14044174D02*
X20724944Y-14034650D01*
X20724944Y-14034650D02*
X20705896Y-14006079D01*
X20705896Y-14006079D02*
X20696373Y-13987031D01*
X20696373Y-13987031D02*
X20686849Y-13958460D01*
X20686849Y-13958460D02*
X20677325Y-13910841D01*
X20677325Y-13910841D02*
X20677325Y-13872746D01*
X20677325Y-13872746D02*
X20686849Y-13825127D01*
X20686849Y-13825127D02*
X20696373Y-13796555D01*
X20696373Y-13796555D02*
X20705896Y-13777508D01*
X20705896Y-13777508D02*
X20724944Y-13748936D01*
X20724944Y-13748936D02*
X20734468Y-13739412D01*
X20810658Y-13834650D02*
X20810658Y-13967984D01*
X20810658Y-13853698D02*
X20820182Y-13844174D01*
X20820182Y-13844174D02*
X20839230Y-13834650D01*
X20839230Y-13834650D02*
X20867801Y-13834650D01*
X20867801Y-13834650D02*
X20886849Y-13844174D01*
X20886849Y-13844174D02*
X20896373Y-13863222D01*
X20896373Y-13863222D02*
X20896373Y-13967984D01*
X21020182Y-13967984D02*
X21001134Y-13958460D01*
X21001134Y-13958460D02*
X20991611Y-13948936D01*
X20991611Y-13948936D02*
X20982087Y-13929888D01*
X20982087Y-13929888D02*
X20982087Y-13872746D01*
X20982087Y-13872746D02*
X20991611Y-13853698D01*
X20991611Y-13853698D02*
X21001134Y-13844174D01*
X21001134Y-13844174D02*
X21020182Y-13834650D01*
X21020182Y-13834650D02*
X21048754Y-13834650D01*
X21048754Y-13834650D02*
X21067801Y-13844174D01*
X21067801Y-13844174D02*
X21077325Y-13853698D01*
X21077325Y-13853698D02*
X21086849Y-13872746D01*
X21086849Y-13872746D02*
X21086849Y-13929888D01*
X21086849Y-13929888D02*
X21077325Y-13948936D01*
X21077325Y-13948936D02*
X21067801Y-13958460D01*
X21067801Y-13958460D02*
X21048754Y-13967984D01*
X21048754Y-13967984D02*
X21020182Y-13967984D01*
X21143992Y-13834650D02*
X21220182Y-13834650D01*
X21172563Y-13767984D02*
X21172563Y-13939412D01*
X21172563Y-13939412D02*
X21182087Y-13958460D01*
X21182087Y-13958460D02*
X21201134Y-13967984D01*
X21201134Y-13967984D02*
X21220182Y-13967984D01*
X21439230Y-13834650D02*
X21439230Y-14034650D01*
X21439230Y-13844174D02*
X21458277Y-13834650D01*
X21458277Y-13834650D02*
X21496373Y-13834650D01*
X21496373Y-13834650D02*
X21515420Y-13844174D01*
X21515420Y-13844174D02*
X21524944Y-13853698D01*
X21524944Y-13853698D02*
X21534468Y-13872746D01*
X21534468Y-13872746D02*
X21534468Y-13929888D01*
X21534468Y-13929888D02*
X21524944Y-13948936D01*
X21524944Y-13948936D02*
X21515420Y-13958460D01*
X21515420Y-13958460D02*
X21496373Y-13967984D01*
X21496373Y-13967984D02*
X21458277Y-13967984D01*
X21458277Y-13967984D02*
X21439230Y-13958460D01*
X21648754Y-13967984D02*
X21629706Y-13958460D01*
X21629706Y-13958460D02*
X21620182Y-13939412D01*
X21620182Y-13939412D02*
X21620182Y-13767984D01*
X21810658Y-13967984D02*
X21810658Y-13863222D01*
X21810658Y-13863222D02*
X21801135Y-13844174D01*
X21801135Y-13844174D02*
X21782087Y-13834650D01*
X21782087Y-13834650D02*
X21743992Y-13834650D01*
X21743992Y-13834650D02*
X21724944Y-13844174D01*
X21810658Y-13958460D02*
X21791611Y-13967984D01*
X21791611Y-13967984D02*
X21743992Y-13967984D01*
X21743992Y-13967984D02*
X21724944Y-13958460D01*
X21724944Y-13958460D02*
X21715420Y-13939412D01*
X21715420Y-13939412D02*
X21715420Y-13920365D01*
X21715420Y-13920365D02*
X21724944Y-13901317D01*
X21724944Y-13901317D02*
X21743992Y-13891793D01*
X21743992Y-13891793D02*
X21791611Y-13891793D01*
X21791611Y-13891793D02*
X21810658Y-13882269D01*
X21877325Y-13834650D02*
X21953515Y-13834650D01*
X21905896Y-13767984D02*
X21905896Y-13939412D01*
X21905896Y-13939412D02*
X21915420Y-13958460D01*
X21915420Y-13958460D02*
X21934468Y-13967984D01*
X21934468Y-13967984D02*
X21953515Y-13967984D01*
X22096373Y-13958460D02*
X22077325Y-13967984D01*
X22077325Y-13967984D02*
X22039230Y-13967984D01*
X22039230Y-13967984D02*
X22020182Y-13958460D01*
X22020182Y-13958460D02*
X22010658Y-13939412D01*
X22010658Y-13939412D02*
X22010658Y-13863222D01*
X22010658Y-13863222D02*
X22020182Y-13844174D01*
X22020182Y-13844174D02*
X22039230Y-13834650D01*
X22039230Y-13834650D02*
X22077325Y-13834650D01*
X22077325Y-13834650D02*
X22096373Y-13844174D01*
X22096373Y-13844174D02*
X22105896Y-13863222D01*
X22105896Y-13863222D02*
X22105896Y-13882269D01*
X22105896Y-13882269D02*
X22010658Y-13901317D01*
X22277325Y-13967984D02*
X22277325Y-13767984D01*
X22277325Y-13958460D02*
X22258277Y-13967984D01*
X22258277Y-13967984D02*
X22220182Y-13967984D01*
X22220182Y-13967984D02*
X22201135Y-13958460D01*
X22201135Y-13958460D02*
X22191611Y-13948936D01*
X22191611Y-13948936D02*
X22182087Y-13929888D01*
X22182087Y-13929888D02*
X22182087Y-13872746D01*
X22182087Y-13872746D02*
X22191611Y-13853698D01*
X22191611Y-13853698D02*
X22201135Y-13844174D01*
X22201135Y-13844174D02*
X22220182Y-13834650D01*
X22220182Y-13834650D02*
X22258277Y-13834650D01*
X22258277Y-13834650D02*
X22277325Y-13844174D01*
X22353516Y-14044174D02*
X22363039Y-14034650D01*
X22363039Y-14034650D02*
X22382087Y-14006079D01*
X22382087Y-14006079D02*
X22391611Y-13987031D01*
X22391611Y-13987031D02*
X22401134Y-13958460D01*
X22401134Y-13958460D02*
X22410658Y-13910841D01*
X22410658Y-13910841D02*
X22410658Y-13872746D01*
X22410658Y-13872746D02*
X22401134Y-13825127D01*
X22401134Y-13825127D02*
X22391611Y-13796555D01*
X22391611Y-13796555D02*
X22382087Y-13777508D01*
X22382087Y-13777508D02*
X22363039Y-13748936D01*
X22363039Y-13748936D02*
X22353516Y-13739412D01*
M02*
