M48
; DRILL file {KiCad 9.0.7+1} date 2026-06-05T15:49:27+0000
; FORMAT={-:-/ absolute / metric / decimal}
; #@! TF.CreationDate,2026-06-05T15:49:27+00:00
; #@! TF.GenerationSoftware,Kicad,Pcbnew,9.0.7+1
; #@! TF.FileFunction,Plated,1,4,PTH
FMAT,2
METRIC
; #@! TA.AperFunction,Plated,PTH,ViaDrill
T1C0.300
; #@! TA.AperFunction,Plated,PTH,ComponentDrill
T2C0.300
; #@! TA.AperFunction,Plated,PTH,ComponentDrill
T3C0.600
; #@! TA.AperFunction,Plated,PTH,ComponentDrill
T4C0.700
; #@! TA.AperFunction,Plated,PTH,ComponentDrill
T5C0.890
; #@! TA.AperFunction,Plated,PTH,ComponentDrill
T6C0.920
; #@! TA.AperFunction,Plated,PTH,ComponentDrill
T7C0.950
; #@! TA.AperFunction,Plated,PTH,ComponentDrill
T8C1.000
; #@! TA.AperFunction,Plated,PTH,ComponentDrill
T9C1.020
; #@! TA.AperFunction,Plated,PTH,ComponentDrill
T10C1.300
; #@! TA.AperFunction,Plated,PTH,ComponentDrill
T11C1.630
; #@! TA.AperFunction,Plated,PTH,ComponentDrill
T12C2.300
; #@! TA.AperFunction,Plated,PTH,ComponentDrill
T13C2.700
; #@! TA.AperFunction,Plated,PTH,ComponentDrill
T14C4.300
%
G90
G05
T1
X157.25Y-102.75
X157.6Y-97.65
X157.75Y-93.75
X158.75Y-108.0
X159.0Y-103.0
X159.0Y-105.25
X159.25Y-93.75
X160.25Y-101.25
X160.9Y-93.75
X162.5Y-93.75
X163.4Y-37.7
X164.25Y-93.75
X164.5Y-107.0
X164.5Y-108.0
X164.5Y-109.0
X165.5Y-107.0
X165.5Y-108.0
X165.5Y-109.0
X166.5Y-108.0
X166.5Y-109.0
X167.4Y-36.65
X168.0Y-102.5
X168.0Y-103.5
X168.0Y-104.5
X168.0Y-105.5
X168.4Y-118.35
X168.5Y-82.5
X168.7Y-42.6
X168.9Y-54.5
X169.0Y-102.5
X169.0Y-103.5
X169.0Y-104.5
X169.0Y-105.5
X169.65Y-118.35
X169.875Y-82.625
X171.0Y-118.35
X171.1Y-48.25
X171.2Y-94.75
X171.25Y-75.75
X171.3Y-38.5
X171.3Y-44.375
X171.85Y-103.7
X172.25Y-118.35
X172.4Y-33.8
X172.5Y-35.6
X172.55Y-47.55
X173.3Y-29.2
X173.6Y-118.35
X173.8Y-44.375
X173.9Y-32.9
X173.95Y-38.75
X174.25Y-36.75
X174.45Y-95.4
X174.7Y-101.3
X174.85Y-118.35
X175.25Y-46.9
X175.8Y-91.85
X176.2Y-118.35
X176.8Y-77.4
X177.1Y-81.6
X177.45Y-118.35
X177.65Y-71.0
X177.9Y-73.35
X178.5Y-91.0
X179.3Y-84.5
X179.8Y-68.8
X180.7Y-70.75
X180.8Y-69.6
X181.25Y-94.25
X181.25Y-95.25
X182.2Y-78.6
X182.25Y-94.25
X182.25Y-95.25
X182.65Y-72.55
X182.85Y-82.2
X183.0Y-99.5
X183.0Y-100.5
X183.5Y-105.5
X183.8Y-75.0
X184.0Y-99.5
X184.0Y-100.5
X184.5Y-62.4
X184.503Y-94.006
X185.0Y-99.5
X185.0Y-100.5
X185.2Y-85.8
X185.8Y-31.9
X186.0Y-99.5
X186.0Y-100.5
X186.0Y-106.75
X186.1Y-84.3
X186.25Y-94.0
X186.3Y-83.0
X186.8Y-82.0
X187.0Y-99.5
X187.0Y-100.5
X187.4Y-31.7
X187.8Y-81.0
X188.0Y-55.7
X188.0Y-99.5
X188.0Y-100.5
X188.5Y-106.75
X188.75Y-94.0
X189.0Y-99.5
X189.0Y-100.5
X189.45Y-86.6
X190.0Y-99.5
X190.0Y-100.5
X190.5Y-106.75
X190.8Y-89.2
X191.0Y-94.0
X191.0Y-99.5
X191.0Y-100.5
X191.7Y-70.2
X191.75Y-74.0
X192.4Y-66.4
X192.75Y-69.0
X192.75Y-67.5
X192.75Y-70.5
X193.2Y-76.4
X193.25Y-49.0
X193.3Y-36.0
X193.4Y-59.5
X193.5Y-93.5
X193.5Y-94.25
X193.5Y-95.0
X193.5Y-95.75
X194.0Y-56.0
X194.35Y-88.65
X194.85Y-105.45
X195.0Y-43.0
X195.0Y-44.0
X195.0Y-45.0
X195.0Y-85.8
X195.0Y-90.4
X195.4Y-118.35
X195.5Y-46.5
X195.5Y-54.75
X195.5Y-63.0
X195.75Y-96.5
X195.8Y-91.2
X196.0Y-43.0
X196.0Y-44.0
X196.0Y-45.0
X196.3Y-101.0
X196.5Y-97.272
X196.5Y-98.122
X196.6Y-85.8
X196.6Y-88.7
X196.6Y-91.8
X196.8Y-87.2
X197.0Y-57.5
X197.0Y-99.075
X197.0Y-99.925
X197.25Y-49.25
X197.25Y-51.25
X197.25Y-52.75
X197.25Y-55.75
X197.25Y-60.5
X197.25Y-62.25
X197.25Y-70.5
X197.5Y-64.0
X197.5Y-66.25
X198.5Y-38.0
X198.5Y-39.0
X198.5Y-40.0
X198.5Y-41.0
X199.5Y-38.0
X199.5Y-39.0
X199.5Y-40.0
X199.5Y-41.0
X199.75Y-109.2
X201.25Y-59.25
X201.25Y-89.0
X201.5Y-47.0
X201.5Y-47.8
X201.5Y-46.2
X201.5Y-85.8
X201.5Y-87.5
X201.5Y-94.25
X201.5Y-98.75
X201.75Y-54.25
X201.75Y-100.75
X201.75Y-102.25
X201.75Y-104.0
X201.75Y-105.75
X202.0Y-51.672
X202.0Y-52.522
X202.0Y-56.472
X202.0Y-57.322
X202.0Y-72.25
X202.0Y-73.75
X202.25Y-68.75
X202.4Y-78.4
X202.75Y-70.5
X202.75Y-75.0
X202.75Y-76.5
X203.0Y-43.25
X203.0Y-44.25
X203.0Y-45.25
X203.25Y-49.825
X203.25Y-50.675
X203.25Y-54.672
X203.25Y-55.522
X203.75Y-59.75
X203.8Y-66.6
X204.0Y-43.25
X204.0Y-44.25
X204.0Y-45.25
X204.2Y-74.4
X204.25Y-53.5
X204.3Y-73.4
X204.4Y-93.9
X204.449Y-46.449
X204.5Y-69.0
X204.5Y-86.25
X204.75Y-98.5
X205.0Y-76.0
X205.051Y-47.051
X205.25Y-102.5
X205.25Y-104.25
X205.25Y-106.0
X205.5Y-66.5
X207.0Y-39.0
X207.0Y-40.0
X207.0Y-41.0
X209.75Y-78.0
X209.75Y-94.75
X210.25Y-66.25
X210.25Y-81.75
X210.25Y-98.75
X210.4Y-76.0
X210.5Y-84.8
X210.5Y-86.2
X210.5Y-100.75
X210.8Y-74.8
X211.0Y-89.3
X211.0Y-93.0
X211.1Y-88.1
X211.25Y-94.5
X211.5Y-42.0
X211.5Y-43.0
X211.5Y-44.0
X211.5Y-45.0
X211.5Y-46.0
X211.5Y-47.0
X211.5Y-78.5
X212.2Y-62.1
X212.25Y-70.5
X212.25Y-79.25
X212.5Y-44.0
X212.5Y-45.0
X212.5Y-46.0
X213.25Y-69.5
X213.25Y-73.5
X214.1Y-62.6
X214.1Y-63.9
X214.4Y-65.2
X215.7Y-74.8
X215.8Y-75.8
X216.0Y-69.75
X216.2Y-51.8
X217.3Y-92.7
X217.4Y-86.9
X217.7Y-80.8
X218.2Y-62.9
X218.5Y-38.3
X219.25Y-110.75
X219.75Y-74.25
X221.75Y-74.5
X223.3Y-44.8
X224.9Y-102.1
X225.4Y-107.2
X225.75Y-110.75
X227.1Y-74.5
X228.1Y-93.0
X229.2Y-95.2
X231.1Y-101.6
X232.3Y-109.0
X236.0Y-91.8
X236.6Y-93.6
X237.4Y-86.5
X237.5Y-38.8
X237.6Y-103.5
X238.0Y-68.5
X238.1Y-65.4
X238.2Y-109.1
X238.5Y-41.6
X239.25Y-68.0
X242.0Y-92.0
X242.3Y-36.15
X242.3Y-37.15
X242.75Y-90.0
X243.0Y-57.7
X243.3Y-103.0
X243.5Y-89.0
X243.6Y-107.3
X244.2Y-39.7
X247.75Y-34.5
X248.2Y-99.4
X248.75Y-34.5
X249.6Y-106.1
X250.9Y-54.3
X251.5Y-98.75
X252.3Y-110.3
X253.1Y-36.05
X255.2Y-45.1
X256.3Y-85.1
X256.4Y-72.4
X257.7Y-31.3
X258.095Y-49.7
X259.2Y-31.2
X260.5Y-51.4
X260.6Y-31.2
X261.1Y-57.7
X261.9Y-40.4
X262.0Y-31.2
X262.0Y-90.4
X262.2Y-44.2
X263.6Y-39.4
T2
X162.439Y-100.965
X163.009Y-100.315
X163.009Y-101.615
X163.579Y-100.965
X164.149Y-100.315
X164.149Y-101.615
X164.719Y-100.965
X165.289Y-100.315
X165.289Y-101.615
X165.859Y-100.965
T3
X157.775Y-25.0
X157.775Y-115.5
X158.72Y-22.72
X158.72Y-27.28
X158.72Y-113.22
X158.72Y-117.78
X161.0Y-21.775
X161.0Y-28.225
X161.0Y-112.275
X161.0Y-118.725
X163.28Y-22.72
X163.28Y-27.28
X163.28Y-113.22
X163.28Y-117.78
X164.225Y-25.0
X164.225Y-115.5
X256.775Y-25.0
X256.775Y-115.5
X257.72Y-22.72
X257.72Y-27.28
X257.72Y-113.22
X257.72Y-117.78
X260.0Y-21.775
X260.0Y-28.225
X260.0Y-112.275
X260.0Y-118.725
X262.28Y-22.72
X262.28Y-27.28
X262.28Y-113.22
X262.28Y-117.78
X263.225Y-25.0
X263.225Y-115.5
T4
X158.996Y-40.536
X158.996Y-42.536
X158.996Y-44.536
X158.996Y-46.536
X158.996Y-48.536
X158.996Y-50.536
X158.996Y-52.536
X158.996Y-54.536
X158.996Y-56.536
X158.996Y-58.536
X181.003Y-40.536
X181.003Y-42.536
X181.003Y-44.536
X181.003Y-46.536
X181.003Y-48.536
X181.003Y-50.536
X181.003Y-52.536
X181.003Y-54.536
X181.003Y-56.536
X181.003Y-58.536
T5
X203.03Y-33.655
X204.31Y-36.195
X205.57Y-33.655
X206.85Y-36.195
X208.11Y-33.655
X209.39Y-36.195
X210.65Y-33.655
X211.93Y-36.195
X213.19Y-33.655
X214.47Y-36.195
X222.53Y-33.655
X223.81Y-36.195
X225.07Y-33.655
X226.35Y-36.195
X227.61Y-33.655
X228.89Y-36.195
X230.15Y-33.655
X231.43Y-36.195
X232.69Y-33.655
X233.97Y-36.195
T6
X242.75Y-29.63
X242.75Y-32.25
X245.25Y-29.63
X245.25Y-32.25
X247.25Y-29.63
X247.25Y-32.25
X249.75Y-29.63
X249.75Y-32.25
T7
X158.75Y-72.5
X158.75Y-80.5
X158.75Y-88.5
X161.25Y-72.5
X161.25Y-80.5
X161.25Y-88.5
X163.75Y-72.5
X163.75Y-80.5
X163.75Y-88.5
X166.25Y-72.5
X166.25Y-80.5
X166.25Y-88.5
X168.75Y-72.5
X168.75Y-88.5
X196.5Y-24.25
X196.5Y-26.75
X196.5Y-29.25
X196.5Y-31.75
X199.25Y-115.0
X201.75Y-115.0
X204.25Y-115.0
X206.75Y-115.0
X209.25Y-115.0
X218.0Y-115.0
X220.5Y-115.0
X223.0Y-115.0
X225.5Y-115.0
X228.0Y-115.0
X237.0Y-115.0
X239.5Y-115.0
X242.0Y-115.0
X244.5Y-115.0
X247.0Y-115.0
T8
X162.9Y-63.48
X162.9Y-66.02
X165.44Y-63.48
X165.44Y-66.02
X167.98Y-63.48
X167.98Y-66.02
X168.2Y-22.987
X168.2Y-26.924
X170.52Y-63.48
X170.52Y-66.02
X170.74Y-22.987
X170.74Y-26.924
X170.942Y-110.109
X170.942Y-115.109
X173.06Y-63.48
X173.06Y-66.02
X173.28Y-22.987
X173.28Y-26.924
X175.6Y-66.02
X175.6Y-63.48
X176.9Y-22.987
X176.9Y-26.924
X179.44Y-22.987
X179.44Y-26.924
X180.2Y-89.535
X180.2Y-92.075
X181.98Y-22.987
X181.98Y-26.924
X185.16Y-34.82
X185.16Y-37.36
X185.16Y-39.9
X185.16Y-42.44
X185.16Y-44.98
X185.16Y-47.52
X185.16Y-50.06
X185.16Y-52.6
X186.73Y-25.146
X187.7Y-34.82
X187.7Y-37.36
X187.7Y-39.9
X187.7Y-42.44
X187.7Y-44.98
X187.7Y-47.52
X187.7Y-50.06
X187.7Y-52.6
X189.23Y-25.146
X253.619Y-112.268
X253.619Y-114.808
X253.619Y-117.348
X262.8Y-47.425
X262.8Y-49.965
X262.8Y-52.505
X262.8Y-55.045
X262.8Y-57.585
T9
X202.125Y-22.405
X204.665Y-22.405
X212.835Y-22.405
X215.375Y-22.405
X221.625Y-22.405
X224.165Y-22.405
X232.335Y-22.405
X234.875Y-22.405
T10
X179.451Y-113.03
X184.531Y-113.03
T11
X201.005Y-30.355
X216.495Y-30.355
X220.505Y-30.355
X235.995Y-30.355
T12
X239.68Y-26.92
X239.68Y-32.6
X252.82Y-26.92
X252.82Y-32.6
T13
X191.135Y-110.443
X191.135Y-115.443
T14
X161.0Y-25.0
X161.0Y-115.5
X260.0Y-25.0
X260.0Y-115.5
M30
