G04 #@! TF.GenerationSoftware,KiCad,Pcbnew,9.0.7+1*
G04 #@! TF.CreationDate,2026-06-05T23:18:42+00:00*
G04 #@! TF.ProjectId,hw-universal-logic,68772d75-6e69-4766-9572-73616c2d6c6f,rev?*
G04 #@! TF.SameCoordinates,Original*
G04 #@! TF.FileFunction,Paste,Top*
G04 #@! TF.FilePolarity,Positive*
%FSLAX46Y46*%
G04 Gerber Fmt 4.6, Leading zero omitted, Abs format (unit mm)*
G04 Created by KiCad (PCBNEW 9.0.7+1) date 2026-06-05 23:18:42*
%MOMM*%
%LPD*%
G01*
G04 APERTURE LIST*
%ADD10C,0.010000*%
%ADD11R,4.100000X4.100000*%
%ADD12R,2.000000X0.350000*%
%ADD13R,4.600000X3.500000*%
G04 APERTURE END LIST*
D10*
X162909000Y-100865000D02*
X161969000Y-100865000D01*
X161969000Y-100065000D01*
X162909000Y-100065000D01*
X162909000Y-100865000D01*
G36*
X162909000Y-100865000D02*
G01*
X161969000Y-100865000D01*
X161969000Y-100065000D01*
X162909000Y-100065000D01*
X162909000Y-100865000D01*
G37*
X162909000Y-101865000D02*
X161969000Y-101865000D01*
X161969000Y-101065000D01*
X162909000Y-101065000D01*
X162909000Y-101865000D01*
G36*
X162909000Y-101865000D02*
G01*
X161969000Y-101865000D01*
X161969000Y-101065000D01*
X162909000Y-101065000D01*
X162909000Y-101865000D01*
G37*
X164049000Y-100865000D02*
X163109000Y-100865000D01*
X163109000Y-100065000D01*
X164049000Y-100065000D01*
X164049000Y-100865000D01*
G36*
X164049000Y-100865000D02*
G01*
X163109000Y-100865000D01*
X163109000Y-100065000D01*
X164049000Y-100065000D01*
X164049000Y-100865000D01*
G37*
X164049000Y-101865000D02*
X163109000Y-101865000D01*
X163109000Y-101065000D01*
X164049000Y-101065000D01*
X164049000Y-101865000D01*
G36*
X164049000Y-101865000D02*
G01*
X163109000Y-101865000D01*
X163109000Y-101065000D01*
X164049000Y-101065000D01*
X164049000Y-101865000D01*
G37*
X165189000Y-100865000D02*
X164249000Y-100865000D01*
X164249000Y-100065000D01*
X165189000Y-100065000D01*
X165189000Y-100865000D01*
G36*
X165189000Y-100865000D02*
G01*
X164249000Y-100865000D01*
X164249000Y-100065000D01*
X165189000Y-100065000D01*
X165189000Y-100865000D01*
G37*
X165189000Y-101865000D02*
X164249000Y-101865000D01*
X164249000Y-101065000D01*
X165189000Y-101065000D01*
X165189000Y-101865000D01*
G36*
X165189000Y-101865000D02*
G01*
X164249000Y-101865000D01*
X164249000Y-101065000D01*
X165189000Y-101065000D01*
X165189000Y-101865000D01*
G37*
X166329000Y-100865000D02*
X165389000Y-100865000D01*
X165389000Y-100065000D01*
X166329000Y-100065000D01*
X166329000Y-100865000D01*
G36*
X166329000Y-100865000D02*
G01*
X165389000Y-100865000D01*
X165389000Y-100065000D01*
X166329000Y-100065000D01*
X166329000Y-100865000D01*
G37*
X166329000Y-101865000D02*
X165389000Y-101865000D01*
X165389000Y-101065000D01*
X166329000Y-101065000D01*
X166329000Y-101865000D01*
G36*
X166329000Y-101865000D02*
G01*
X165389000Y-101865000D01*
X165389000Y-101065000D01*
X166329000Y-101065000D01*
X166329000Y-101865000D01*
G37*
G36*
G01*
X173590000Y-45820000D02*
X173590000Y-45480000D01*
G75*
G02*
X173730000Y-45340000I140000J0D01*
G01*
X174010000Y-45340000D01*
G75*
G02*
X174150000Y-45480000I0J-140000D01*
G01*
X174150000Y-45820000D01*
G75*
G02*
X174010000Y-45960000I-140000J0D01*
G01*
X173730000Y-45960000D01*
G75*
G02*
X173590000Y-45820000I0J140000D01*
G01*
G37*
G36*
G01*
X174550000Y-45820000D02*
X174550000Y-45480000D01*
G75*
G02*
X174690000Y-45340000I140000J0D01*
G01*
X174970000Y-45340000D01*
G75*
G02*
X175110000Y-45480000I0J-140000D01*
G01*
X175110000Y-45820000D01*
G75*
G02*
X174970000Y-45960000I-140000J0D01*
G01*
X174690000Y-45960000D01*
G75*
G02*
X174550000Y-45820000I0J140000D01*
G01*
G37*
G36*
G01*
X235625000Y-109975000D02*
X235625000Y-110525000D01*
G75*
G02*
X235425000Y-110725000I-200000J0D01*
G01*
X235025000Y-110725000D01*
G75*
G02*
X234825000Y-110525000I0J200000D01*
G01*
X234825000Y-109975000D01*
G75*
G02*
X235025000Y-109775000I200000J0D01*
G01*
X235425000Y-109775000D01*
G75*
G02*
X235625000Y-109975000I0J-200000D01*
G01*
G37*
G36*
G01*
X233975000Y-109975000D02*
X233975000Y-110525000D01*
G75*
G02*
X233775000Y-110725000I-200000J0D01*
G01*
X233375000Y-110725000D01*
G75*
G02*
X233175000Y-110525000I0J200000D01*
G01*
X233175000Y-109975000D01*
G75*
G02*
X233375000Y-109775000I200000J0D01*
G01*
X233775000Y-109775000D01*
G75*
G02*
X233975000Y-109975000I0J-200000D01*
G01*
G37*
G36*
G01*
X159110000Y-99740000D02*
X159660000Y-99740000D01*
G75*
G02*
X159860000Y-99940000I0J-200000D01*
G01*
X159860000Y-100340000D01*
G75*
G02*
X159660000Y-100540000I-200000J0D01*
G01*
X159110000Y-100540000D01*
G75*
G02*
X158910000Y-100340000I0J200000D01*
G01*
X158910000Y-99940000D01*
G75*
G02*
X159110000Y-99740000I200000J0D01*
G01*
G37*
G36*
G01*
X159110000Y-101390000D02*
X159660000Y-101390000D01*
G75*
G02*
X159860000Y-101590000I0J-200000D01*
G01*
X159860000Y-101990000D01*
G75*
G02*
X159660000Y-102190000I-200000J0D01*
G01*
X159110000Y-102190000D01*
G75*
G02*
X158910000Y-101990000I0J200000D01*
G01*
X158910000Y-101590000D01*
G75*
G02*
X159110000Y-101390000I200000J0D01*
G01*
G37*
G36*
G01*
X163594000Y-104633000D02*
X163594000Y-105933000D01*
G75*
G02*
X163344000Y-106183000I-250000J0D01*
G01*
X162694000Y-106183000D01*
G75*
G02*
X162444000Y-105933000I0J250000D01*
G01*
X162444000Y-104633000D01*
G75*
G02*
X162694000Y-104383000I250000J0D01*
G01*
X163344000Y-104383000D01*
G75*
G02*
X163594000Y-104633000I0J-250000D01*
G01*
G37*
G36*
G01*
X160644000Y-104633000D02*
X160644000Y-105933000D01*
G75*
G02*
X160394000Y-106183000I-250000J0D01*
G01*
X159744000Y-106183000D01*
G75*
G02*
X159494000Y-105933000I0J250000D01*
G01*
X159494000Y-104633000D01*
G75*
G02*
X159744000Y-104383000I250000J0D01*
G01*
X160394000Y-104383000D01*
G75*
G02*
X160644000Y-104633000I0J-250000D01*
G01*
G37*
G36*
G01*
X174185000Y-32080000D02*
X173815000Y-32080000D01*
G75*
G02*
X173680000Y-31945000I0J135000D01*
G01*
X173680000Y-31675000D01*
G75*
G02*
X173815000Y-31540000I135000J0D01*
G01*
X174185000Y-31540000D01*
G75*
G02*
X174320000Y-31675000I0J-135000D01*
G01*
X174320000Y-31945000D01*
G75*
G02*
X174185000Y-32080000I-135000J0D01*
G01*
G37*
G36*
G01*
X174185000Y-31060000D02*
X173815000Y-31060000D01*
G75*
G02*
X173680000Y-30925000I0J135000D01*
G01*
X173680000Y-30655000D01*
G75*
G02*
X173815000Y-30520000I135000J0D01*
G01*
X174185000Y-30520000D01*
G75*
G02*
X174320000Y-30655000I0J-135000D01*
G01*
X174320000Y-30925000D01*
G75*
G02*
X174185000Y-31060000I-135000J0D01*
G01*
G37*
G36*
G01*
X172185000Y-32080000D02*
X171815000Y-32080000D01*
G75*
G02*
X171680000Y-31945000I0J135000D01*
G01*
X171680000Y-31675000D01*
G75*
G02*
X171815000Y-31540000I135000J0D01*
G01*
X172185000Y-31540000D01*
G75*
G02*
X172320000Y-31675000I0J-135000D01*
G01*
X172320000Y-31945000D01*
G75*
G02*
X172185000Y-32080000I-135000J0D01*
G01*
G37*
G36*
G01*
X172185000Y-31060000D02*
X171815000Y-31060000D01*
G75*
G02*
X171680000Y-30925000I0J135000D01*
G01*
X171680000Y-30655000D01*
G75*
G02*
X171815000Y-30520000I135000J0D01*
G01*
X172185000Y-30520000D01*
G75*
G02*
X172320000Y-30655000I0J-135000D01*
G01*
X172320000Y-30925000D01*
G75*
G02*
X172185000Y-31060000I-135000J0D01*
G01*
G37*
G36*
G01*
X230175000Y-110500000D02*
X230175000Y-110000000D01*
G75*
G02*
X230400000Y-109775000I225000J0D01*
G01*
X230850000Y-109775000D01*
G75*
G02*
X231075000Y-110000000I0J-225000D01*
G01*
X231075000Y-110500000D01*
G75*
G02*
X230850000Y-110725000I-225000J0D01*
G01*
X230400000Y-110725000D01*
G75*
G02*
X230175000Y-110500000I0J225000D01*
G01*
G37*
G36*
G01*
X231725000Y-110500000D02*
X231725000Y-110000000D01*
G75*
G02*
X231950000Y-109775000I225000J0D01*
G01*
X232400000Y-109775000D01*
G75*
G02*
X232625000Y-110000000I0J-225000D01*
G01*
X232625000Y-110500000D01*
G75*
G02*
X232400000Y-110725000I-225000J0D01*
G01*
X231950000Y-110725000D01*
G75*
G02*
X231725000Y-110500000I0J225000D01*
G01*
G37*
G36*
G01*
X175025000Y-73600000D02*
X175025000Y-73100000D01*
G75*
G02*
X175250000Y-72875000I225000J0D01*
G01*
X175700000Y-72875000D01*
G75*
G02*
X175925000Y-73100000I0J-225000D01*
G01*
X175925000Y-73600000D01*
G75*
G02*
X175700000Y-73825000I-225000J0D01*
G01*
X175250000Y-73825000D01*
G75*
G02*
X175025000Y-73600000I0J225000D01*
G01*
G37*
G36*
G01*
X176575000Y-73600000D02*
X176575000Y-73100000D01*
G75*
G02*
X176800000Y-72875000I225000J0D01*
G01*
X177250000Y-72875000D01*
G75*
G02*
X177475000Y-73100000I0J-225000D01*
G01*
X177475000Y-73600000D01*
G75*
G02*
X177250000Y-73825000I-225000J0D01*
G01*
X176800000Y-73825000D01*
G75*
G02*
X176575000Y-73600000I0J225000D01*
G01*
G37*
G36*
G01*
X164550000Y-51400000D02*
X165450000Y-51400000D01*
G75*
G02*
X165700000Y-51650000I0J-250000D01*
G01*
X165700000Y-52350000D01*
G75*
G02*
X165450000Y-52600000I-250000J0D01*
G01*
X164550000Y-52600000D01*
G75*
G02*
X164300000Y-52350000I0J250000D01*
G01*
X164300000Y-51650000D01*
G75*
G02*
X164550000Y-51400000I250000J0D01*
G01*
G37*
G36*
G01*
X164550000Y-53400000D02*
X165450000Y-53400000D01*
G75*
G02*
X165700000Y-53650000I0J-250000D01*
G01*
X165700000Y-54350000D01*
G75*
G02*
X165450000Y-54600000I-250000J0D01*
G01*
X164550000Y-54600000D01*
G75*
G02*
X164300000Y-54350000I0J250000D01*
G01*
X164300000Y-53650000D01*
G75*
G02*
X164550000Y-53400000I250000J0D01*
G01*
G37*
G36*
G01*
X163707000Y-94406000D02*
X164207000Y-94406000D01*
G75*
G02*
X164432000Y-94631000I0J-225000D01*
G01*
X164432000Y-95081000D01*
G75*
G02*
X164207000Y-95306000I-225000J0D01*
G01*
X163707000Y-95306000D01*
G75*
G02*
X163482000Y-95081000I0J225000D01*
G01*
X163482000Y-94631000D01*
G75*
G02*
X163707000Y-94406000I225000J0D01*
G01*
G37*
G36*
G01*
X163707000Y-95956000D02*
X164207000Y-95956000D01*
G75*
G02*
X164432000Y-96181000I0J-225000D01*
G01*
X164432000Y-96631000D01*
G75*
G02*
X164207000Y-96856000I-225000J0D01*
G01*
X163707000Y-96856000D01*
G75*
G02*
X163482000Y-96631000I0J225000D01*
G01*
X163482000Y-96181000D01*
G75*
G02*
X163707000Y-95956000I225000J0D01*
G01*
G37*
G36*
G01*
X169175000Y-59350000D02*
X169175000Y-58450000D01*
G75*
G02*
X169425000Y-58200000I250000J0D01*
G01*
X169950000Y-58200000D01*
G75*
G02*
X170200000Y-58450000I0J-250000D01*
G01*
X170200000Y-59350000D01*
G75*
G02*
X169950000Y-59600000I-250000J0D01*
G01*
X169425000Y-59600000D01*
G75*
G02*
X169175000Y-59350000I0J250000D01*
G01*
G37*
G36*
G01*
X171000000Y-59350000D02*
X171000000Y-58450000D01*
G75*
G02*
X171250000Y-58200000I250000J0D01*
G01*
X171775000Y-58200000D01*
G75*
G02*
X172025000Y-58450000I0J-250000D01*
G01*
X172025000Y-59350000D01*
G75*
G02*
X171775000Y-59600000I-250000J0D01*
G01*
X171250000Y-59600000D01*
G75*
G02*
X171000000Y-59350000I0J250000D01*
G01*
G37*
G36*
G01*
X175500000Y-88875000D02*
X176000000Y-88875000D01*
G75*
G02*
X176225000Y-89100000I0J-225000D01*
G01*
X176225000Y-89550000D01*
G75*
G02*
X176000000Y-89775000I-225000J0D01*
G01*
X175500000Y-89775000D01*
G75*
G02*
X175275000Y-89550000I0J225000D01*
G01*
X175275000Y-89100000D01*
G75*
G02*
X175500000Y-88875000I225000J0D01*
G01*
G37*
G36*
G01*
X175500000Y-90425000D02*
X176000000Y-90425000D01*
G75*
G02*
X176225000Y-90650000I0J-225000D01*
G01*
X176225000Y-91100000D01*
G75*
G02*
X176000000Y-91325000I-225000J0D01*
G01*
X175500000Y-91325000D01*
G75*
G02*
X175275000Y-91100000I0J225000D01*
G01*
X175275000Y-90650000D01*
G75*
G02*
X175500000Y-90425000I225000J0D01*
G01*
G37*
G36*
G01*
X248800000Y-37900000D02*
X248800000Y-38200000D01*
G75*
G02*
X248650000Y-38350000I-150000J0D01*
G01*
X247625000Y-38350000D01*
G75*
G02*
X247475000Y-38200000I0J150000D01*
G01*
X247475000Y-37900000D01*
G75*
G02*
X247625000Y-37750000I150000J0D01*
G01*
X248650000Y-37750000D01*
G75*
G02*
X248800000Y-37900000I0J-150000D01*
G01*
G37*
G36*
G01*
X248800000Y-36950000D02*
X248800000Y-37250000D01*
G75*
G02*
X248650000Y-37400000I-150000J0D01*
G01*
X247625000Y-37400000D01*
G75*
G02*
X247475000Y-37250000I0J150000D01*
G01*
X247475000Y-36950000D01*
G75*
G02*
X247625000Y-36800000I150000J0D01*
G01*
X248650000Y-36800000D01*
G75*
G02*
X248800000Y-36950000I0J-150000D01*
G01*
G37*
G36*
G01*
X248800000Y-36000000D02*
X248800000Y-36300000D01*
G75*
G02*
X248650000Y-36450000I-150000J0D01*
G01*
X247625000Y-36450000D01*
G75*
G02*
X247475000Y-36300000I0J150000D01*
G01*
X247475000Y-36000000D01*
G75*
G02*
X247625000Y-35850000I150000J0D01*
G01*
X248650000Y-35850000D01*
G75*
G02*
X248800000Y-36000000I0J-150000D01*
G01*
G37*
G36*
G01*
X246525000Y-36000000D02*
X246525000Y-36300000D01*
G75*
G02*
X246375000Y-36450000I-150000J0D01*
G01*
X245350000Y-36450000D01*
G75*
G02*
X245200000Y-36300000I0J150000D01*
G01*
X245200000Y-36000000D01*
G75*
G02*
X245350000Y-35850000I150000J0D01*
G01*
X246375000Y-35850000D01*
G75*
G02*
X246525000Y-36000000I0J-150000D01*
G01*
G37*
G36*
G01*
X246525000Y-37900000D02*
X246525000Y-38200000D01*
G75*
G02*
X246375000Y-38350000I-150000J0D01*
G01*
X245350000Y-38350000D01*
G75*
G02*
X245200000Y-38200000I0J150000D01*
G01*
X245200000Y-37900000D01*
G75*
G02*
X245350000Y-37750000I150000J0D01*
G01*
X246375000Y-37750000D01*
G75*
G02*
X246525000Y-37900000I0J-150000D01*
G01*
G37*
G36*
G01*
X171850000Y-39750000D02*
X172050000Y-39750000D01*
G75*
G02*
X172150000Y-39850000I0J-100000D01*
G01*
X172150000Y-40975000D01*
G75*
G02*
X172050000Y-41075000I-100000J0D01*
G01*
X171850000Y-41075000D01*
G75*
G02*
X171750000Y-40975000I0J100000D01*
G01*
X171750000Y-39850000D01*
G75*
G02*
X171850000Y-39750000I100000J0D01*
G01*
G37*
G36*
G01*
X171200000Y-39750000D02*
X171400000Y-39750000D01*
G75*
G02*
X171500000Y-39850000I0J-100000D01*
G01*
X171500000Y-40975000D01*
G75*
G02*
X171400000Y-41075000I-100000J0D01*
G01*
X171200000Y-41075000D01*
G75*
G02*
X171100000Y-40975000I0J100000D01*
G01*
X171100000Y-39850000D01*
G75*
G02*
X171200000Y-39750000I100000J0D01*
G01*
G37*
G36*
G01*
X170550000Y-39750000D02*
X170750000Y-39750000D01*
G75*
G02*
X170850000Y-39850000I0J-100000D01*
G01*
X170850000Y-40975000D01*
G75*
G02*
X170750000Y-41075000I-100000J0D01*
G01*
X170550000Y-41075000D01*
G75*
G02*
X170450000Y-40975000I0J100000D01*
G01*
X170450000Y-39850000D01*
G75*
G02*
X170550000Y-39750000I100000J0D01*
G01*
G37*
G36*
G01*
X170550000Y-41525000D02*
X170750000Y-41525000D01*
G75*
G02*
X170850000Y-41625000I0J-100000D01*
G01*
X170850000Y-42750000D01*
G75*
G02*
X170750000Y-42850000I-100000J0D01*
G01*
X170550000Y-42850000D01*
G75*
G02*
X170450000Y-42750000I0J100000D01*
G01*
X170450000Y-41625000D01*
G75*
G02*
X170550000Y-41525000I100000J0D01*
G01*
G37*
G36*
G01*
X171200000Y-41525000D02*
X171400000Y-41525000D01*
G75*
G02*
X171500000Y-41625000I0J-100000D01*
G01*
X171500000Y-42750000D01*
G75*
G02*
X171400000Y-42850000I-100000J0D01*
G01*
X171200000Y-42850000D01*
G75*
G02*
X171100000Y-42750000I0J100000D01*
G01*
X171100000Y-41625000D01*
G75*
G02*
X171200000Y-41525000I100000J0D01*
G01*
G37*
G36*
G01*
X171850000Y-41525000D02*
X172050000Y-41525000D01*
G75*
G02*
X172150000Y-41625000I0J-100000D01*
G01*
X172150000Y-42750000D01*
G75*
G02*
X172050000Y-42850000I-100000J0D01*
G01*
X171850000Y-42850000D01*
G75*
G02*
X171750000Y-42750000I0J100000D01*
G01*
X171750000Y-41625000D01*
G75*
G02*
X171850000Y-41525000I100000J0D01*
G01*
G37*
G36*
G01*
X163400000Y-54600000D02*
X162500000Y-54600000D01*
G75*
G02*
X162250000Y-54350000I0J250000D01*
G01*
X162250000Y-53650000D01*
G75*
G02*
X162500000Y-53400000I250000J0D01*
G01*
X163400000Y-53400000D01*
G75*
G02*
X163650000Y-53650000I0J-250000D01*
G01*
X163650000Y-54350000D01*
G75*
G02*
X163400000Y-54600000I-250000J0D01*
G01*
G37*
G36*
G01*
X163400000Y-52600000D02*
X162500000Y-52600000D01*
G75*
G02*
X162250000Y-52350000I0J250000D01*
G01*
X162250000Y-51650000D01*
G75*
G02*
X162500000Y-51400000I250000J0D01*
G01*
X163400000Y-51400000D01*
G75*
G02*
X163650000Y-51650000I0J-250000D01*
G01*
X163650000Y-52350000D01*
G75*
G02*
X163400000Y-52600000I-250000J0D01*
G01*
G37*
G36*
G01*
X249360000Y-36559000D02*
X249360000Y-35609000D01*
G75*
G02*
X249610000Y-35359000I250000J0D01*
G01*
X250110000Y-35359000D01*
G75*
G02*
X250360000Y-35609000I0J-250000D01*
G01*
X250360000Y-36559000D01*
G75*
G02*
X250110000Y-36809000I-250000J0D01*
G01*
X249610000Y-36809000D01*
G75*
G02*
X249360000Y-36559000I0J250000D01*
G01*
G37*
G36*
G01*
X251260000Y-36559000D02*
X251260000Y-35609000D01*
G75*
G02*
X251510000Y-35359000I250000J0D01*
G01*
X252010000Y-35359000D01*
G75*
G02*
X252260000Y-35609000I0J-250000D01*
G01*
X252260000Y-36559000D01*
G75*
G02*
X252010000Y-36809000I-250000J0D01*
G01*
X251510000Y-36809000D01*
G75*
G02*
X251260000Y-36559000I0J250000D01*
G01*
G37*
G36*
G01*
X189288000Y-90348000D02*
X190188000Y-90348000D01*
G75*
G02*
X190438000Y-90598000I0J-250000D01*
G01*
X190438000Y-91298000D01*
G75*
G02*
X190188000Y-91548000I-250000J0D01*
G01*
X189288000Y-91548000D01*
G75*
G02*
X189038000Y-91298000I0J250000D01*
G01*
X189038000Y-90598000D01*
G75*
G02*
X189288000Y-90348000I250000J0D01*
G01*
G37*
G36*
G01*
X189288000Y-92348000D02*
X190188000Y-92348000D01*
G75*
G02*
X190438000Y-92598000I0J-250000D01*
G01*
X190438000Y-93298000D01*
G75*
G02*
X190188000Y-93548000I-250000J0D01*
G01*
X189288000Y-93548000D01*
G75*
G02*
X189038000Y-93298000I0J250000D01*
G01*
X189038000Y-92598000D01*
G75*
G02*
X189288000Y-92348000I250000J0D01*
G01*
G37*
G36*
G01*
X158111000Y-96856000D02*
X157611000Y-96856000D01*
G75*
G02*
X157386000Y-96631000I0J225000D01*
G01*
X157386000Y-96181000D01*
G75*
G02*
X157611000Y-95956000I225000J0D01*
G01*
X158111000Y-95956000D01*
G75*
G02*
X158336000Y-96181000I0J-225000D01*
G01*
X158336000Y-96631000D01*
G75*
G02*
X158111000Y-96856000I-225000J0D01*
G01*
G37*
G36*
G01*
X158111000Y-95306000D02*
X157611000Y-95306000D01*
G75*
G02*
X157386000Y-95081000I0J225000D01*
G01*
X157386000Y-94631000D01*
G75*
G02*
X157611000Y-94406000I225000J0D01*
G01*
X158111000Y-94406000D01*
G75*
G02*
X158336000Y-94631000I0J-225000D01*
G01*
X158336000Y-95081000D01*
G75*
G02*
X158111000Y-95306000I-225000J0D01*
G01*
G37*
G36*
G01*
X193775000Y-70775000D02*
X193775000Y-70225000D01*
G75*
G02*
X193975000Y-70025000I200000J0D01*
G01*
X194375000Y-70025000D01*
G75*
G02*
X194575000Y-70225000I0J-200000D01*
G01*
X194575000Y-70775000D01*
G75*
G02*
X194375000Y-70975000I-200000J0D01*
G01*
X193975000Y-70975000D01*
G75*
G02*
X193775000Y-70775000I0J200000D01*
G01*
G37*
G36*
G01*
X195425000Y-70775000D02*
X195425000Y-70225000D01*
G75*
G02*
X195625000Y-70025000I200000J0D01*
G01*
X196025000Y-70025000D01*
G75*
G02*
X196225000Y-70225000I0J-200000D01*
G01*
X196225000Y-70775000D01*
G75*
G02*
X196025000Y-70975000I-200000J0D01*
G01*
X195625000Y-70975000D01*
G75*
G02*
X195425000Y-70775000I0J200000D01*
G01*
G37*
G36*
G01*
X229575000Y-109975000D02*
X229575000Y-110525000D01*
G75*
G02*
X229375000Y-110725000I-200000J0D01*
G01*
X228975000Y-110725000D01*
G75*
G02*
X228775000Y-110525000I0J200000D01*
G01*
X228775000Y-109975000D01*
G75*
G02*
X228975000Y-109775000I200000J0D01*
G01*
X229375000Y-109775000D01*
G75*
G02*
X229575000Y-109975000I0J-200000D01*
G01*
G37*
G36*
G01*
X227925000Y-109975000D02*
X227925000Y-110525000D01*
G75*
G02*
X227725000Y-110725000I-200000J0D01*
G01*
X227325000Y-110725000D01*
G75*
G02*
X227125000Y-110525000I0J200000D01*
G01*
X227125000Y-109975000D01*
G75*
G02*
X227325000Y-109775000I200000J0D01*
G01*
X227725000Y-109775000D01*
G75*
G02*
X227925000Y-109975000I0J-200000D01*
G01*
G37*
G36*
G01*
X236175000Y-110500000D02*
X236175000Y-110000000D01*
G75*
G02*
X236400000Y-109775000I225000J0D01*
G01*
X236850000Y-109775000D01*
G75*
G02*
X237075000Y-110000000I0J-225000D01*
G01*
X237075000Y-110500000D01*
G75*
G02*
X236850000Y-110725000I-225000J0D01*
G01*
X236400000Y-110725000D01*
G75*
G02*
X236175000Y-110500000I0J225000D01*
G01*
G37*
G36*
G01*
X237725000Y-110500000D02*
X237725000Y-110000000D01*
G75*
G02*
X237950000Y-109775000I225000J0D01*
G01*
X238400000Y-109775000D01*
G75*
G02*
X238625000Y-110000000I0J-225000D01*
G01*
X238625000Y-110500000D01*
G75*
G02*
X238400000Y-110725000I-225000J0D01*
G01*
X237950000Y-110725000D01*
G75*
G02*
X237725000Y-110500000I0J225000D01*
G01*
G37*
G36*
G01*
X191785000Y-98570000D02*
X190485000Y-98570000D01*
G75*
G02*
X190235000Y-98320000I0J250000D01*
G01*
X190235000Y-97670000D01*
G75*
G02*
X190485000Y-97420000I250000J0D01*
G01*
X191785000Y-97420000D01*
G75*
G02*
X192035000Y-97670000I0J-250000D01*
G01*
X192035000Y-98320000D01*
G75*
G02*
X191785000Y-98570000I-250000J0D01*
G01*
G37*
G36*
G01*
X191785000Y-95620000D02*
X190485000Y-95620000D01*
G75*
G02*
X190235000Y-95370000I0J250000D01*
G01*
X190235000Y-94720000D01*
G75*
G02*
X190485000Y-94470000I250000J0D01*
G01*
X191785000Y-94470000D01*
G75*
G02*
X192035000Y-94720000I0J-250000D01*
G01*
X192035000Y-95370000D01*
G75*
G02*
X191785000Y-95620000I-250000J0D01*
G01*
G37*
G36*
G01*
X187691000Y-101963000D02*
X188991000Y-101963000D01*
G75*
G02*
X189241000Y-102213000I0J-250000D01*
G01*
X189241000Y-102863000D01*
G75*
G02*
X188991000Y-103113000I-250000J0D01*
G01*
X187691000Y-103113000D01*
G75*
G02*
X187441000Y-102863000I0J250000D01*
G01*
X187441000Y-102213000D01*
G75*
G02*
X187691000Y-101963000I250000J0D01*
G01*
G37*
G36*
G01*
X187691000Y-104913000D02*
X188991000Y-104913000D01*
G75*
G02*
X189241000Y-105163000I0J-250000D01*
G01*
X189241000Y-105813000D01*
G75*
G02*
X188991000Y-106063000I-250000J0D01*
G01*
X187691000Y-106063000D01*
G75*
G02*
X187441000Y-105813000I0J250000D01*
G01*
X187441000Y-105163000D01*
G75*
G02*
X187691000Y-104913000I250000J0D01*
G01*
G37*
G36*
G01*
X249075000Y-110500000D02*
X249075000Y-110000000D01*
G75*
G02*
X249300000Y-109775000I225000J0D01*
G01*
X249750000Y-109775000D01*
G75*
G02*
X249975000Y-110000000I0J-225000D01*
G01*
X249975000Y-110500000D01*
G75*
G02*
X249750000Y-110725000I-225000J0D01*
G01*
X249300000Y-110725000D01*
G75*
G02*
X249075000Y-110500000I0J225000D01*
G01*
G37*
G36*
G01*
X250625000Y-110500000D02*
X250625000Y-110000000D01*
G75*
G02*
X250850000Y-109775000I225000J0D01*
G01*
X251300000Y-109775000D01*
G75*
G02*
X251525000Y-110000000I0J-225000D01*
G01*
X251525000Y-110500000D01*
G75*
G02*
X251300000Y-110725000I-225000J0D01*
G01*
X250850000Y-110725000D01*
G75*
G02*
X250625000Y-110500000I0J225000D01*
G01*
G37*
G36*
G01*
X164412000Y-105631000D02*
X164412000Y-104681000D01*
G75*
G02*
X164662000Y-104431000I250000J0D01*
G01*
X165162000Y-104431000D01*
G75*
G02*
X165412000Y-104681000I0J-250000D01*
G01*
X165412000Y-105631000D01*
G75*
G02*
X165162000Y-105881000I-250000J0D01*
G01*
X164662000Y-105881000D01*
G75*
G02*
X164412000Y-105631000I0J250000D01*
G01*
G37*
G36*
G01*
X166312000Y-105631000D02*
X166312000Y-104681000D01*
G75*
G02*
X166562000Y-104431000I250000J0D01*
G01*
X167062000Y-104431000D01*
G75*
G02*
X167312000Y-104681000I0J-250000D01*
G01*
X167312000Y-105631000D01*
G75*
G02*
X167062000Y-105881000I-250000J0D01*
G01*
X166562000Y-105881000D01*
G75*
G02*
X166312000Y-105631000I0J250000D01*
G01*
G37*
G36*
G01*
X186959000Y-98570000D02*
X185659000Y-98570000D01*
G75*
G02*
X185409000Y-98320000I0J250000D01*
G01*
X185409000Y-97670000D01*
G75*
G02*
X185659000Y-97420000I250000J0D01*
G01*
X186959000Y-97420000D01*
G75*
G02*
X187209000Y-97670000I0J-250000D01*
G01*
X187209000Y-98320000D01*
G75*
G02*
X186959000Y-98570000I-250000J0D01*
G01*
G37*
G36*
G01*
X186959000Y-95620000D02*
X185659000Y-95620000D01*
G75*
G02*
X185409000Y-95370000I0J250000D01*
G01*
X185409000Y-94720000D01*
G75*
G02*
X185659000Y-94470000I250000J0D01*
G01*
X186959000Y-94470000D01*
G75*
G02*
X187209000Y-94720000I0J-250000D01*
G01*
X187209000Y-95370000D01*
G75*
G02*
X186959000Y-95620000I-250000J0D01*
G01*
G37*
G36*
G01*
X162183000Y-94406000D02*
X162683000Y-94406000D01*
G75*
G02*
X162908000Y-94631000I0J-225000D01*
G01*
X162908000Y-95081000D01*
G75*
G02*
X162683000Y-95306000I-225000J0D01*
G01*
X162183000Y-95306000D01*
G75*
G02*
X161958000Y-95081000I0J225000D01*
G01*
X161958000Y-94631000D01*
G75*
G02*
X162183000Y-94406000I225000J0D01*
G01*
G37*
G36*
G01*
X162183000Y-95956000D02*
X162683000Y-95956000D01*
G75*
G02*
X162908000Y-96181000I0J-225000D01*
G01*
X162908000Y-96631000D01*
G75*
G02*
X162683000Y-96856000I-225000J0D01*
G01*
X162183000Y-96856000D01*
G75*
G02*
X161958000Y-96631000I0J225000D01*
G01*
X161958000Y-96181000D01*
G75*
G02*
X162183000Y-95956000I225000J0D01*
G01*
G37*
G36*
G01*
X175225000Y-74525000D02*
X175775000Y-74525000D01*
G75*
G02*
X175975000Y-74725000I0J-200000D01*
G01*
X175975000Y-75125000D01*
G75*
G02*
X175775000Y-75325000I-200000J0D01*
G01*
X175225000Y-75325000D01*
G75*
G02*
X175025000Y-75125000I0J200000D01*
G01*
X175025000Y-74725000D01*
G75*
G02*
X175225000Y-74525000I200000J0D01*
G01*
G37*
G36*
G01*
X175225000Y-76175000D02*
X175775000Y-76175000D01*
G75*
G02*
X175975000Y-76375000I0J-200000D01*
G01*
X175975000Y-76775000D01*
G75*
G02*
X175775000Y-76975000I-200000J0D01*
G01*
X175225000Y-76975000D01*
G75*
G02*
X175025000Y-76775000I0J200000D01*
G01*
X175025000Y-76375000D01*
G75*
G02*
X175225000Y-76175000I200000J0D01*
G01*
G37*
G36*
G01*
X158136000Y-105619000D02*
X157586000Y-105619000D01*
G75*
G02*
X157386000Y-105419000I0J200000D01*
G01*
X157386000Y-105019000D01*
G75*
G02*
X157586000Y-104819000I200000J0D01*
G01*
X158136000Y-104819000D01*
G75*
G02*
X158336000Y-105019000I0J-200000D01*
G01*
X158336000Y-105419000D01*
G75*
G02*
X158136000Y-105619000I-200000J0D01*
G01*
G37*
G36*
G01*
X158136000Y-103969000D02*
X157586000Y-103969000D01*
G75*
G02*
X157386000Y-103769000I0J200000D01*
G01*
X157386000Y-103369000D01*
G75*
G02*
X157586000Y-103169000I200000J0D01*
G01*
X158136000Y-103169000D01*
G75*
G02*
X158336000Y-103369000I0J-200000D01*
G01*
X158336000Y-103769000D01*
G75*
G02*
X158136000Y-103969000I-200000J0D01*
G01*
G37*
G36*
G01*
X177125000Y-88875000D02*
X177675000Y-88875000D01*
G75*
G02*
X177875000Y-89075000I0J-200000D01*
G01*
X177875000Y-89475000D01*
G75*
G02*
X177675000Y-89675000I-200000J0D01*
G01*
X177125000Y-89675000D01*
G75*
G02*
X176925000Y-89475000I0J200000D01*
G01*
X176925000Y-89075000D01*
G75*
G02*
X177125000Y-88875000I200000J0D01*
G01*
G37*
G36*
G01*
X177125000Y-90525000D02*
X177675000Y-90525000D01*
G75*
G02*
X177875000Y-90725000I0J-200000D01*
G01*
X177875000Y-91125000D01*
G75*
G02*
X177675000Y-91325000I-200000J0D01*
G01*
X177125000Y-91325000D01*
G75*
G02*
X176925000Y-91125000I0J200000D01*
G01*
X176925000Y-90725000D01*
G75*
G02*
X177125000Y-90525000I200000J0D01*
G01*
G37*
G36*
G01*
X195775000Y-49975000D02*
X195225000Y-49975000D01*
G75*
G02*
X195025000Y-49775000I0J200000D01*
G01*
X195025000Y-49375000D01*
G75*
G02*
X195225000Y-49175000I200000J0D01*
G01*
X195775000Y-49175000D01*
G75*
G02*
X195975000Y-49375000I0J-200000D01*
G01*
X195975000Y-49775000D01*
G75*
G02*
X195775000Y-49975000I-200000J0D01*
G01*
G37*
G36*
G01*
X195775000Y-48325000D02*
X195225000Y-48325000D01*
G75*
G02*
X195025000Y-48125000I0J200000D01*
G01*
X195025000Y-47725000D01*
G75*
G02*
X195225000Y-47525000I200000J0D01*
G01*
X195775000Y-47525000D01*
G75*
G02*
X195975000Y-47725000I0J-200000D01*
G01*
X195975000Y-48125000D01*
G75*
G02*
X195775000Y-48325000I-200000J0D01*
G01*
G37*
G36*
G01*
X193775000Y-66275000D02*
X193775000Y-65725000D01*
G75*
G02*
X193975000Y-65525000I200000J0D01*
G01*
X194375000Y-65525000D01*
G75*
G02*
X194575000Y-65725000I0J-200000D01*
G01*
X194575000Y-66275000D01*
G75*
G02*
X194375000Y-66475000I-200000J0D01*
G01*
X193975000Y-66475000D01*
G75*
G02*
X193775000Y-66275000I0J200000D01*
G01*
G37*
G36*
G01*
X195425000Y-66275000D02*
X195425000Y-65725000D01*
G75*
G02*
X195625000Y-65525000I200000J0D01*
G01*
X196025000Y-65525000D01*
G75*
G02*
X196225000Y-65725000I0J-200000D01*
G01*
X196225000Y-66275000D01*
G75*
G02*
X196025000Y-66475000I-200000J0D01*
G01*
X195625000Y-66475000D01*
G75*
G02*
X195425000Y-66275000I0J200000D01*
G01*
G37*
G36*
G01*
X183167000Y-101928000D02*
X184117000Y-101928000D01*
G75*
G02*
X184367000Y-102178000I0J-250000D01*
G01*
X184367000Y-102678000D01*
G75*
G02*
X184117000Y-102928000I-250000J0D01*
G01*
X183167000Y-102928000D01*
G75*
G02*
X182917000Y-102678000I0J250000D01*
G01*
X182917000Y-102178000D01*
G75*
G02*
X183167000Y-101928000I250000J0D01*
G01*
G37*
G36*
G01*
X183167000Y-103828000D02*
X184117000Y-103828000D01*
G75*
G02*
X184367000Y-104078000I0J-250000D01*
G01*
X184367000Y-104578000D01*
G75*
G02*
X184117000Y-104828000I-250000J0D01*
G01*
X183167000Y-104828000D01*
G75*
G02*
X182917000Y-104578000I0J250000D01*
G01*
X182917000Y-104078000D01*
G75*
G02*
X183167000Y-103828000I250000J0D01*
G01*
G37*
G36*
G01*
X174350000Y-39750000D02*
X174550000Y-39750000D01*
G75*
G02*
X174650000Y-39850000I0J-100000D01*
G01*
X174650000Y-40975000D01*
G75*
G02*
X174550000Y-41075000I-100000J0D01*
G01*
X174350000Y-41075000D01*
G75*
G02*
X174250000Y-40975000I0J100000D01*
G01*
X174250000Y-39850000D01*
G75*
G02*
X174350000Y-39750000I100000J0D01*
G01*
G37*
G36*
G01*
X173700000Y-39750000D02*
X173900000Y-39750000D01*
G75*
G02*
X174000000Y-39850000I0J-100000D01*
G01*
X174000000Y-40975000D01*
G75*
G02*
X173900000Y-41075000I-100000J0D01*
G01*
X173700000Y-41075000D01*
G75*
G02*
X173600000Y-40975000I0J100000D01*
G01*
X173600000Y-39850000D01*
G75*
G02*
X173700000Y-39750000I100000J0D01*
G01*
G37*
G36*
G01*
X173050000Y-39750000D02*
X173250000Y-39750000D01*
G75*
G02*
X173350000Y-39850000I0J-100000D01*
G01*
X173350000Y-40975000D01*
G75*
G02*
X173250000Y-41075000I-100000J0D01*
G01*
X173050000Y-41075000D01*
G75*
G02*
X172950000Y-40975000I0J100000D01*
G01*
X172950000Y-39850000D01*
G75*
G02*
X173050000Y-39750000I100000J0D01*
G01*
G37*
G36*
G01*
X173050000Y-41525000D02*
X173250000Y-41525000D01*
G75*
G02*
X173350000Y-41625000I0J-100000D01*
G01*
X173350000Y-42750000D01*
G75*
G02*
X173250000Y-42850000I-100000J0D01*
G01*
X173050000Y-42850000D01*
G75*
G02*
X172950000Y-42750000I0J100000D01*
G01*
X172950000Y-41625000D01*
G75*
G02*
X173050000Y-41525000I100000J0D01*
G01*
G37*
G36*
G01*
X173700000Y-41525000D02*
X173900000Y-41525000D01*
G75*
G02*
X174000000Y-41625000I0J-100000D01*
G01*
X174000000Y-42750000D01*
G75*
G02*
X173900000Y-42850000I-100000J0D01*
G01*
X173700000Y-42850000D01*
G75*
G02*
X173600000Y-42750000I0J100000D01*
G01*
X173600000Y-41625000D01*
G75*
G02*
X173700000Y-41525000I100000J0D01*
G01*
G37*
G36*
G01*
X174350000Y-41525000D02*
X174550000Y-41525000D01*
G75*
G02*
X174650000Y-41625000I0J-100000D01*
G01*
X174650000Y-42750000D01*
G75*
G02*
X174550000Y-42850000I-100000J0D01*
G01*
X174350000Y-42850000D01*
G75*
G02*
X174250000Y-42750000I0J100000D01*
G01*
X174250000Y-41625000D01*
G75*
G02*
X174350000Y-41525000I100000J0D01*
G01*
G37*
G36*
G01*
X189372000Y-98570000D02*
X188072000Y-98570000D01*
G75*
G02*
X187822000Y-98320000I0J250000D01*
G01*
X187822000Y-97670000D01*
G75*
G02*
X188072000Y-97420000I250000J0D01*
G01*
X189372000Y-97420000D01*
G75*
G02*
X189622000Y-97670000I0J-250000D01*
G01*
X189622000Y-98320000D01*
G75*
G02*
X189372000Y-98570000I-250000J0D01*
G01*
G37*
G36*
G01*
X189372000Y-95620000D02*
X188072000Y-95620000D01*
G75*
G02*
X187822000Y-95370000I0J250000D01*
G01*
X187822000Y-94720000D01*
G75*
G02*
X188072000Y-94470000I250000J0D01*
G01*
X189372000Y-94470000D01*
G75*
G02*
X189622000Y-94720000I0J-250000D01*
G01*
X189622000Y-95370000D01*
G75*
G02*
X189372000Y-95620000I-250000J0D01*
G01*
G37*
G36*
G01*
X193775000Y-73775000D02*
X193775000Y-73225000D01*
G75*
G02*
X193975000Y-73025000I200000J0D01*
G01*
X194375000Y-73025000D01*
G75*
G02*
X194575000Y-73225000I0J-200000D01*
G01*
X194575000Y-73775000D01*
G75*
G02*
X194375000Y-73975000I-200000J0D01*
G01*
X193975000Y-73975000D01*
G75*
G02*
X193775000Y-73775000I0J200000D01*
G01*
G37*
G36*
G01*
X195425000Y-73775000D02*
X195425000Y-73225000D01*
G75*
G02*
X195625000Y-73025000I200000J0D01*
G01*
X196025000Y-73025000D01*
G75*
G02*
X196225000Y-73225000I0J-200000D01*
G01*
X196225000Y-73775000D01*
G75*
G02*
X196025000Y-73975000I-200000J0D01*
G01*
X195625000Y-73975000D01*
G75*
G02*
X195425000Y-73775000I0J200000D01*
G01*
G37*
G36*
G01*
X188780000Y-30879000D02*
X188410000Y-30879000D01*
G75*
G02*
X188275000Y-30744000I0J135000D01*
G01*
X188275000Y-30474000D01*
G75*
G02*
X188410000Y-30339000I135000J0D01*
G01*
X188780000Y-30339000D01*
G75*
G02*
X188915000Y-30474000I0J-135000D01*
G01*
X188915000Y-30744000D01*
G75*
G02*
X188780000Y-30879000I-135000J0D01*
G01*
G37*
G36*
G01*
X188780000Y-29859000D02*
X188410000Y-29859000D01*
G75*
G02*
X188275000Y-29724000I0J135000D01*
G01*
X188275000Y-29454000D01*
G75*
G02*
X188410000Y-29319000I135000J0D01*
G01*
X188780000Y-29319000D01*
G75*
G02*
X188915000Y-29454000I0J-135000D01*
G01*
X188915000Y-29724000D01*
G75*
G02*
X188780000Y-29859000I-135000J0D01*
G01*
G37*
G36*
G01*
X193775000Y-72275000D02*
X193775000Y-71725000D01*
G75*
G02*
X193975000Y-71525000I200000J0D01*
G01*
X194375000Y-71525000D01*
G75*
G02*
X194575000Y-71725000I0J-200000D01*
G01*
X194575000Y-72275000D01*
G75*
G02*
X194375000Y-72475000I-200000J0D01*
G01*
X193975000Y-72475000D01*
G75*
G02*
X193775000Y-72275000I0J200000D01*
G01*
G37*
G36*
G01*
X195425000Y-72275000D02*
X195425000Y-71725000D01*
G75*
G02*
X195625000Y-71525000I200000J0D01*
G01*
X196025000Y-71525000D01*
G75*
G02*
X196225000Y-71725000I0J-200000D01*
G01*
X196225000Y-72275000D01*
G75*
G02*
X196025000Y-72475000I-200000J0D01*
G01*
X195625000Y-72475000D01*
G75*
G02*
X195425000Y-72275000I0J200000D01*
G01*
G37*
G36*
G01*
X192814000Y-102159750D02*
X192814000Y-103072250D01*
G75*
G02*
X192570250Y-103316000I-243750J0D01*
G01*
X192082750Y-103316000D01*
G75*
G02*
X191839000Y-103072250I0J243750D01*
G01*
X191839000Y-102159750D01*
G75*
G02*
X192082750Y-101916000I243750J0D01*
G01*
X192570250Y-101916000D01*
G75*
G02*
X192814000Y-102159750I0J-243750D01*
G01*
G37*
G36*
G01*
X190939000Y-102159750D02*
X190939000Y-103072250D01*
G75*
G02*
X190695250Y-103316000I-243750J0D01*
G01*
X190207750Y-103316000D01*
G75*
G02*
X189964000Y-103072250I0J243750D01*
G01*
X189964000Y-102159750D01*
G75*
G02*
X190207750Y-101916000I243750J0D01*
G01*
X190695250Y-101916000D01*
G75*
G02*
X190939000Y-102159750I0J-243750D01*
G01*
G37*
G36*
G01*
X236760000Y-38580000D02*
X236760000Y-38920000D01*
G75*
G02*
X236620000Y-39060000I-140000J0D01*
G01*
X236340000Y-39060000D01*
G75*
G02*
X236200000Y-38920000I0J140000D01*
G01*
X236200000Y-38580000D01*
G75*
G02*
X236340000Y-38440000I140000J0D01*
G01*
X236620000Y-38440000D01*
G75*
G02*
X236760000Y-38580000I0J-140000D01*
G01*
G37*
G36*
G01*
X235800000Y-38580000D02*
X235800000Y-38920000D01*
G75*
G02*
X235660000Y-39060000I-140000J0D01*
G01*
X235380000Y-39060000D01*
G75*
G02*
X235240000Y-38920000I0J140000D01*
G01*
X235240000Y-38580000D01*
G75*
G02*
X235380000Y-38440000I140000J0D01*
G01*
X235660000Y-38440000D01*
G75*
G02*
X235800000Y-38580000I0J-140000D01*
G01*
G37*
G36*
G01*
X159660000Y-96856000D02*
X159110000Y-96856000D01*
G75*
G02*
X158910000Y-96656000I0J200000D01*
G01*
X158910000Y-96256000D01*
G75*
G02*
X159110000Y-96056000I200000J0D01*
G01*
X159660000Y-96056000D01*
G75*
G02*
X159860000Y-96256000I0J-200000D01*
G01*
X159860000Y-96656000D01*
G75*
G02*
X159660000Y-96856000I-200000J0D01*
G01*
G37*
G36*
G01*
X159660000Y-95206000D02*
X159110000Y-95206000D01*
G75*
G02*
X158910000Y-95006000I0J200000D01*
G01*
X158910000Y-94606000D01*
G75*
G02*
X159110000Y-94406000I200000J0D01*
G01*
X159660000Y-94406000D01*
G75*
G02*
X159860000Y-94606000I0J-200000D01*
G01*
X159860000Y-95006000D01*
G75*
G02*
X159660000Y-95206000I-200000J0D01*
G01*
G37*
G36*
G01*
X192220000Y-93548000D02*
X191320000Y-93548000D01*
G75*
G02*
X191070000Y-93298000I0J250000D01*
G01*
X191070000Y-92598000D01*
G75*
G02*
X191320000Y-92348000I250000J0D01*
G01*
X192220000Y-92348000D01*
G75*
G02*
X192470000Y-92598000I0J-250000D01*
G01*
X192470000Y-93298000D01*
G75*
G02*
X192220000Y-93548000I-250000J0D01*
G01*
G37*
G36*
G01*
X192220000Y-91548000D02*
X191320000Y-91548000D01*
G75*
G02*
X191070000Y-91298000I0J250000D01*
G01*
X191070000Y-90598000D01*
G75*
G02*
X191320000Y-90348000I250000J0D01*
G01*
X192220000Y-90348000D01*
G75*
G02*
X192470000Y-90598000I0J-250000D01*
G01*
X192470000Y-91298000D01*
G75*
G02*
X192220000Y-91548000I-250000J0D01*
G01*
G37*
G36*
G01*
X218670000Y-37660000D02*
X218330000Y-37660000D01*
G75*
G02*
X218190000Y-37520000I0J140000D01*
G01*
X218190000Y-37240000D01*
G75*
G02*
X218330000Y-37100000I140000J0D01*
G01*
X218670000Y-37100000D01*
G75*
G02*
X218810000Y-37240000I0J-140000D01*
G01*
X218810000Y-37520000D01*
G75*
G02*
X218670000Y-37660000I-140000J0D01*
G01*
G37*
G36*
G01*
X218670000Y-36700000D02*
X218330000Y-36700000D01*
G75*
G02*
X218190000Y-36560000I0J140000D01*
G01*
X218190000Y-36280000D01*
G75*
G02*
X218330000Y-36140000I140000J0D01*
G01*
X218670000Y-36140000D01*
G75*
G02*
X218810000Y-36280000I0J-140000D01*
G01*
X218810000Y-36560000D01*
G75*
G02*
X218670000Y-36700000I-140000J0D01*
G01*
G37*
G36*
G01*
X195775000Y-53975000D02*
X195225000Y-53975000D01*
G75*
G02*
X195025000Y-53775000I0J200000D01*
G01*
X195025000Y-53375000D01*
G75*
G02*
X195225000Y-53175000I200000J0D01*
G01*
X195775000Y-53175000D01*
G75*
G02*
X195975000Y-53375000I0J-200000D01*
G01*
X195975000Y-53775000D01*
G75*
G02*
X195775000Y-53975000I-200000J0D01*
G01*
G37*
G36*
G01*
X195775000Y-52325000D02*
X195225000Y-52325000D01*
G75*
G02*
X195025000Y-52125000I0J200000D01*
G01*
X195025000Y-51725000D01*
G75*
G02*
X195225000Y-51525000I200000J0D01*
G01*
X195775000Y-51525000D01*
G75*
G02*
X195975000Y-51725000I0J-200000D01*
G01*
X195975000Y-52125000D01*
G75*
G02*
X195775000Y-52325000I-200000J0D01*
G01*
G37*
G36*
G01*
X261755000Y-32050000D02*
X262055000Y-32050000D01*
G75*
G02*
X262205000Y-32200000I0J-150000D01*
G01*
X262205000Y-33850000D01*
G75*
G02*
X262055000Y-34000000I-150000J0D01*
G01*
X261755000Y-34000000D01*
G75*
G02*
X261605000Y-33850000I0J150000D01*
G01*
X261605000Y-32200000D01*
G75*
G02*
X261755000Y-32050000I150000J0D01*
G01*
G37*
G36*
G01*
X260485000Y-32050000D02*
X260785000Y-32050000D01*
G75*
G02*
X260935000Y-32200000I0J-150000D01*
G01*
X260935000Y-33850000D01*
G75*
G02*
X260785000Y-34000000I-150000J0D01*
G01*
X260485000Y-34000000D01*
G75*
G02*
X260335000Y-33850000I0J150000D01*
G01*
X260335000Y-32200000D01*
G75*
G02*
X260485000Y-32050000I150000J0D01*
G01*
G37*
G36*
G01*
X259215000Y-32050000D02*
X259515000Y-32050000D01*
G75*
G02*
X259665000Y-32200000I0J-150000D01*
G01*
X259665000Y-33850000D01*
G75*
G02*
X259515000Y-34000000I-150000J0D01*
G01*
X259215000Y-34000000D01*
G75*
G02*
X259065000Y-33850000I0J150000D01*
G01*
X259065000Y-32200000D01*
G75*
G02*
X259215000Y-32050000I150000J0D01*
G01*
G37*
G36*
G01*
X257945000Y-32050000D02*
X258245000Y-32050000D01*
G75*
G02*
X258395000Y-32200000I0J-150000D01*
G01*
X258395000Y-33850000D01*
G75*
G02*
X258245000Y-34000000I-150000J0D01*
G01*
X257945000Y-34000000D01*
G75*
G02*
X257795000Y-33850000I0J150000D01*
G01*
X257795000Y-32200000D01*
G75*
G02*
X257945000Y-32050000I150000J0D01*
G01*
G37*
G36*
G01*
X257945000Y-37000000D02*
X258245000Y-37000000D01*
G75*
G02*
X258395000Y-37150000I0J-150000D01*
G01*
X258395000Y-38800000D01*
G75*
G02*
X258245000Y-38950000I-150000J0D01*
G01*
X257945000Y-38950000D01*
G75*
G02*
X257795000Y-38800000I0J150000D01*
G01*
X257795000Y-37150000D01*
G75*
G02*
X257945000Y-37000000I150000J0D01*
G01*
G37*
G36*
G01*
X259215000Y-37000000D02*
X259515000Y-37000000D01*
G75*
G02*
X259665000Y-37150000I0J-150000D01*
G01*
X259665000Y-38800000D01*
G75*
G02*
X259515000Y-38950000I-150000J0D01*
G01*
X259215000Y-38950000D01*
G75*
G02*
X259065000Y-38800000I0J150000D01*
G01*
X259065000Y-37150000D01*
G75*
G02*
X259215000Y-37000000I150000J0D01*
G01*
G37*
G36*
G01*
X260485000Y-37000000D02*
X260785000Y-37000000D01*
G75*
G02*
X260935000Y-37150000I0J-150000D01*
G01*
X260935000Y-38800000D01*
G75*
G02*
X260785000Y-38950000I-150000J0D01*
G01*
X260485000Y-38950000D01*
G75*
G02*
X260335000Y-38800000I0J150000D01*
G01*
X260335000Y-37150000D01*
G75*
G02*
X260485000Y-37000000I150000J0D01*
G01*
G37*
G36*
G01*
X261755000Y-37000000D02*
X262055000Y-37000000D01*
G75*
G02*
X262205000Y-37150000I0J-150000D01*
G01*
X262205000Y-38800000D01*
G75*
G02*
X262055000Y-38950000I-150000J0D01*
G01*
X261755000Y-38950000D01*
G75*
G02*
X261605000Y-38800000I0J150000D01*
G01*
X261605000Y-37150000D01*
G75*
G02*
X261755000Y-37000000I150000J0D01*
G01*
G37*
G36*
G01*
X187282000Y-29339000D02*
X187622000Y-29339000D01*
G75*
G02*
X187762000Y-29479000I0J-140000D01*
G01*
X187762000Y-29759000D01*
G75*
G02*
X187622000Y-29899000I-140000J0D01*
G01*
X187282000Y-29899000D01*
G75*
G02*
X187142000Y-29759000I0J140000D01*
G01*
X187142000Y-29479000D01*
G75*
G02*
X187282000Y-29339000I140000J0D01*
G01*
G37*
G36*
G01*
X187282000Y-30299000D02*
X187622000Y-30299000D01*
G75*
G02*
X187762000Y-30439000I0J-140000D01*
G01*
X187762000Y-30719000D01*
G75*
G02*
X187622000Y-30859000I-140000J0D01*
G01*
X187282000Y-30859000D01*
G75*
G02*
X187142000Y-30719000I0J140000D01*
G01*
X187142000Y-30439000D01*
G75*
G02*
X187282000Y-30299000I140000J0D01*
G01*
G37*
G36*
G01*
X244480000Y-35965000D02*
X244480000Y-36335000D01*
G75*
G02*
X244345000Y-36470000I-135000J0D01*
G01*
X244075000Y-36470000D01*
G75*
G02*
X243940000Y-36335000I0J135000D01*
G01*
X243940000Y-35965000D01*
G75*
G02*
X244075000Y-35830000I135000J0D01*
G01*
X244345000Y-35830000D01*
G75*
G02*
X244480000Y-35965000I0J-135000D01*
G01*
G37*
G36*
G01*
X243460000Y-35965000D02*
X243460000Y-36335000D01*
G75*
G02*
X243325000Y-36470000I-135000J0D01*
G01*
X243055000Y-36470000D01*
G75*
G02*
X242920000Y-36335000I0J135000D01*
G01*
X242920000Y-35965000D01*
G75*
G02*
X243055000Y-35830000I135000J0D01*
G01*
X243325000Y-35830000D01*
G75*
G02*
X243460000Y-35965000I0J-135000D01*
G01*
G37*
D11*
X170637000Y-99441000D03*
X180137000Y-99441000D03*
G36*
G01*
X193775000Y-69275000D02*
X193775000Y-68725000D01*
G75*
G02*
X193975000Y-68525000I200000J0D01*
G01*
X194375000Y-68525000D01*
G75*
G02*
X194575000Y-68725000I0J-200000D01*
G01*
X194575000Y-69275000D01*
G75*
G02*
X194375000Y-69475000I-200000J0D01*
G01*
X193975000Y-69475000D01*
G75*
G02*
X193775000Y-69275000I0J200000D01*
G01*
G37*
G36*
G01*
X195425000Y-69275000D02*
X195425000Y-68725000D01*
G75*
G02*
X195625000Y-68525000I200000J0D01*
G01*
X196025000Y-68525000D01*
G75*
G02*
X196225000Y-68725000I0J-200000D01*
G01*
X196225000Y-69275000D01*
G75*
G02*
X196025000Y-69475000I-200000J0D01*
G01*
X195625000Y-69475000D01*
G75*
G02*
X195425000Y-69275000I0J200000D01*
G01*
G37*
G36*
G01*
X192814000Y-104960000D02*
X192814000Y-105860000D01*
G75*
G02*
X192564000Y-106110000I-250000J0D01*
G01*
X192039000Y-106110000D01*
G75*
G02*
X191789000Y-105860000I0J250000D01*
G01*
X191789000Y-104960000D01*
G75*
G02*
X192039000Y-104710000I250000J0D01*
G01*
X192564000Y-104710000D01*
G75*
G02*
X192814000Y-104960000I0J-250000D01*
G01*
G37*
G36*
G01*
X190989000Y-104960000D02*
X190989000Y-105860000D01*
G75*
G02*
X190739000Y-106110000I-250000J0D01*
G01*
X190214000Y-106110000D01*
G75*
G02*
X189964000Y-105860000I0J250000D01*
G01*
X189964000Y-104960000D01*
G75*
G02*
X190214000Y-104710000I250000J0D01*
G01*
X190739000Y-104710000D01*
G75*
G02*
X190989000Y-104960000I0J-250000D01*
G01*
G37*
G36*
G01*
X244458000Y-37946000D02*
X244458000Y-38286000D01*
G75*
G02*
X244318000Y-38426000I-140000J0D01*
G01*
X244038000Y-38426000D01*
G75*
G02*
X243898000Y-38286000I0J140000D01*
G01*
X243898000Y-37946000D01*
G75*
G02*
X244038000Y-37806000I140000J0D01*
G01*
X244318000Y-37806000D01*
G75*
G02*
X244458000Y-37946000I0J-140000D01*
G01*
G37*
G36*
G01*
X243498000Y-37946000D02*
X243498000Y-38286000D01*
G75*
G02*
X243358000Y-38426000I-140000J0D01*
G01*
X243078000Y-38426000D01*
G75*
G02*
X242938000Y-38286000I0J140000D01*
G01*
X242938000Y-37946000D01*
G75*
G02*
X243078000Y-37806000I140000J0D01*
G01*
X243358000Y-37806000D01*
G75*
G02*
X243498000Y-37946000I0J-140000D01*
G01*
G37*
G36*
G01*
X263685000Y-36780000D02*
X263315000Y-36780000D01*
G75*
G02*
X263180000Y-36645000I0J135000D01*
G01*
X263180000Y-36375000D01*
G75*
G02*
X263315000Y-36240000I135000J0D01*
G01*
X263685000Y-36240000D01*
G75*
G02*
X263820000Y-36375000I0J-135000D01*
G01*
X263820000Y-36645000D01*
G75*
G02*
X263685000Y-36780000I-135000J0D01*
G01*
G37*
G36*
G01*
X263685000Y-35760000D02*
X263315000Y-35760000D01*
G75*
G02*
X263180000Y-35625000I0J135000D01*
G01*
X263180000Y-35355000D01*
G75*
G02*
X263315000Y-35220000I135000J0D01*
G01*
X263685000Y-35220000D01*
G75*
G02*
X263820000Y-35355000I0J-135000D01*
G01*
X263820000Y-35625000D01*
G75*
G02*
X263685000Y-35760000I-135000J0D01*
G01*
G37*
G36*
G01*
X158136000Y-102190000D02*
X157586000Y-102190000D01*
G75*
G02*
X157386000Y-101990000I0J200000D01*
G01*
X157386000Y-101590000D01*
G75*
G02*
X157586000Y-101390000I200000J0D01*
G01*
X158136000Y-101390000D01*
G75*
G02*
X158336000Y-101590000I0J-200000D01*
G01*
X158336000Y-101990000D01*
G75*
G02*
X158136000Y-102190000I-200000J0D01*
G01*
G37*
G36*
G01*
X158136000Y-100540000D02*
X157586000Y-100540000D01*
G75*
G02*
X157386000Y-100340000I0J200000D01*
G01*
X157386000Y-99940000D01*
G75*
G02*
X157586000Y-99740000I200000J0D01*
G01*
X158136000Y-99740000D01*
G75*
G02*
X158336000Y-99940000I0J-200000D01*
G01*
X158336000Y-100340000D01*
G75*
G02*
X158136000Y-100540000I-200000J0D01*
G01*
G37*
G36*
G01*
X164800000Y-55325000D02*
X165100000Y-55325000D01*
G75*
G02*
X165250000Y-55475000I0J-150000D01*
G01*
X165250000Y-56650000D01*
G75*
G02*
X165100000Y-56800000I-150000J0D01*
G01*
X164800000Y-56800000D01*
G75*
G02*
X164650000Y-56650000I0J150000D01*
G01*
X164650000Y-55475000D01*
G75*
G02*
X164800000Y-55325000I150000J0D01*
G01*
G37*
G36*
G01*
X162900000Y-55325000D02*
X163200000Y-55325000D01*
G75*
G02*
X163350000Y-55475000I0J-150000D01*
G01*
X163350000Y-56650000D01*
G75*
G02*
X163200000Y-56800000I-150000J0D01*
G01*
X162900000Y-56800000D01*
G75*
G02*
X162750000Y-56650000I0J150000D01*
G01*
X162750000Y-55475000D01*
G75*
G02*
X162900000Y-55325000I150000J0D01*
G01*
G37*
G36*
G01*
X163850000Y-57200000D02*
X164150000Y-57200000D01*
G75*
G02*
X164300000Y-57350000I0J-150000D01*
G01*
X164300000Y-58525000D01*
G75*
G02*
X164150000Y-58675000I-150000J0D01*
G01*
X163850000Y-58675000D01*
G75*
G02*
X163700000Y-58525000I0J150000D01*
G01*
X163700000Y-57350000D01*
G75*
G02*
X163850000Y-57200000I150000J0D01*
G01*
G37*
G36*
G01*
X242920000Y-37335000D02*
X242920000Y-36965000D01*
G75*
G02*
X243055000Y-36830000I135000J0D01*
G01*
X243325000Y-36830000D01*
G75*
G02*
X243460000Y-36965000I0J-135000D01*
G01*
X243460000Y-37335000D01*
G75*
G02*
X243325000Y-37470000I-135000J0D01*
G01*
X243055000Y-37470000D01*
G75*
G02*
X242920000Y-37335000I0J135000D01*
G01*
G37*
G36*
G01*
X243940000Y-37335000D02*
X243940000Y-36965000D01*
G75*
G02*
X244075000Y-36830000I135000J0D01*
G01*
X244345000Y-36830000D01*
G75*
G02*
X244480000Y-36965000I0J-135000D01*
G01*
X244480000Y-37335000D01*
G75*
G02*
X244345000Y-37470000I-135000J0D01*
G01*
X244075000Y-37470000D01*
G75*
G02*
X243940000Y-37335000I0J135000D01*
G01*
G37*
G36*
G01*
X195775000Y-61975000D02*
X195225000Y-61975000D01*
G75*
G02*
X195025000Y-61775000I0J200000D01*
G01*
X195025000Y-61375000D01*
G75*
G02*
X195225000Y-61175000I200000J0D01*
G01*
X195775000Y-61175000D01*
G75*
G02*
X195975000Y-61375000I0J-200000D01*
G01*
X195975000Y-61775000D01*
G75*
G02*
X195775000Y-61975000I-200000J0D01*
G01*
G37*
G36*
G01*
X195775000Y-60325000D02*
X195225000Y-60325000D01*
G75*
G02*
X195025000Y-60125000I0J200000D01*
G01*
X195025000Y-59725000D01*
G75*
G02*
X195225000Y-59525000I200000J0D01*
G01*
X195775000Y-59525000D01*
G75*
G02*
X195975000Y-59725000I0J-200000D01*
G01*
X195975000Y-60125000D01*
G75*
G02*
X195775000Y-60325000I-200000J0D01*
G01*
G37*
G36*
G01*
X171185000Y-32080000D02*
X170815000Y-32080000D01*
G75*
G02*
X170680000Y-31945000I0J135000D01*
G01*
X170680000Y-31675000D01*
G75*
G02*
X170815000Y-31540000I135000J0D01*
G01*
X171185000Y-31540000D01*
G75*
G02*
X171320000Y-31675000I0J-135000D01*
G01*
X171320000Y-31945000D01*
G75*
G02*
X171185000Y-32080000I-135000J0D01*
G01*
G37*
G36*
G01*
X171185000Y-31060000D02*
X170815000Y-31060000D01*
G75*
G02*
X170680000Y-30925000I0J135000D01*
G01*
X170680000Y-30655000D01*
G75*
G02*
X170815000Y-30520000I135000J0D01*
G01*
X171185000Y-30520000D01*
G75*
G02*
X171320000Y-30655000I0J-135000D01*
G01*
X171320000Y-30925000D01*
G75*
G02*
X171185000Y-31060000I-135000J0D01*
G01*
G37*
G36*
G01*
X165739000Y-94406000D02*
X166239000Y-94406000D01*
G75*
G02*
X166464000Y-94631000I0J-225000D01*
G01*
X166464000Y-95081000D01*
G75*
G02*
X166239000Y-95306000I-225000J0D01*
G01*
X165739000Y-95306000D01*
G75*
G02*
X165514000Y-95081000I0J225000D01*
G01*
X165514000Y-94631000D01*
G75*
G02*
X165739000Y-94406000I225000J0D01*
G01*
G37*
G36*
G01*
X165739000Y-95956000D02*
X166239000Y-95956000D01*
G75*
G02*
X166464000Y-96181000I0J-225000D01*
G01*
X166464000Y-96631000D01*
G75*
G02*
X166239000Y-96856000I-225000J0D01*
G01*
X165739000Y-96856000D01*
G75*
G02*
X165514000Y-96631000I0J225000D01*
G01*
X165514000Y-96181000D01*
G75*
G02*
X165739000Y-95956000I225000J0D01*
G01*
G37*
G36*
G01*
X157398000Y-98929000D02*
X157398000Y-98429000D01*
G75*
G02*
X157623000Y-98204000I225000J0D01*
G01*
X158073000Y-98204000D01*
G75*
G02*
X158298000Y-98429000I0J-225000D01*
G01*
X158298000Y-98929000D01*
G75*
G02*
X158073000Y-99154000I-225000J0D01*
G01*
X157623000Y-99154000D01*
G75*
G02*
X157398000Y-98929000I0J225000D01*
G01*
G37*
G36*
G01*
X158948000Y-98929000D02*
X158948000Y-98429000D01*
G75*
G02*
X159173000Y-98204000I225000J0D01*
G01*
X159623000Y-98204000D01*
G75*
G02*
X159848000Y-98429000I0J-225000D01*
G01*
X159848000Y-98929000D01*
G75*
G02*
X159623000Y-99154000I-225000J0D01*
G01*
X159173000Y-99154000D01*
G75*
G02*
X158948000Y-98929000I0J225000D01*
G01*
G37*
G36*
G01*
X193775000Y-67775000D02*
X193775000Y-67225000D01*
G75*
G02*
X193975000Y-67025000I200000J0D01*
G01*
X194375000Y-67025000D01*
G75*
G02*
X194575000Y-67225000I0J-200000D01*
G01*
X194575000Y-67775000D01*
G75*
G02*
X194375000Y-67975000I-200000J0D01*
G01*
X193975000Y-67975000D01*
G75*
G02*
X193775000Y-67775000I0J200000D01*
G01*
G37*
G36*
G01*
X195425000Y-67775000D02*
X195425000Y-67225000D01*
G75*
G02*
X195625000Y-67025000I200000J0D01*
G01*
X196025000Y-67025000D01*
G75*
G02*
X196225000Y-67225000I0J-200000D01*
G01*
X196225000Y-67775000D01*
G75*
G02*
X196025000Y-67975000I-200000J0D01*
G01*
X195625000Y-67975000D01*
G75*
G02*
X195425000Y-67775000I0J200000D01*
G01*
G37*
G36*
G01*
X171130000Y-45090000D02*
X171470000Y-45090000D01*
G75*
G02*
X171610000Y-45230000I0J-140000D01*
G01*
X171610000Y-45510000D01*
G75*
G02*
X171470000Y-45650000I-140000J0D01*
G01*
X171130000Y-45650000D01*
G75*
G02*
X170990000Y-45510000I0J140000D01*
G01*
X170990000Y-45230000D01*
G75*
G02*
X171130000Y-45090000I140000J0D01*
G01*
G37*
G36*
G01*
X171130000Y-46050000D02*
X171470000Y-46050000D01*
G75*
G02*
X171610000Y-46190000I0J-140000D01*
G01*
X171610000Y-46470000D01*
G75*
G02*
X171470000Y-46610000I-140000J0D01*
G01*
X171130000Y-46610000D01*
G75*
G02*
X170990000Y-46470000I0J140000D01*
G01*
X170990000Y-46190000D01*
G75*
G02*
X171130000Y-46050000I140000J0D01*
G01*
G37*
D12*
X199320000Y-42797000D03*
X207520000Y-43097000D03*
X199320000Y-43397000D03*
X207520000Y-43697000D03*
X199320000Y-43997000D03*
X207520000Y-44297000D03*
X199320000Y-44597000D03*
X207520000Y-44897000D03*
X199320000Y-45197000D03*
X207520000Y-45497000D03*
X199320000Y-45797000D03*
X207520000Y-46097000D03*
X199320000Y-46397000D03*
X207520000Y-46697000D03*
X199320000Y-46997000D03*
X207520000Y-47297000D03*
X199320000Y-47597000D03*
X207520000Y-47897000D03*
X199320000Y-48197000D03*
X207520000Y-48497000D03*
X199320000Y-48797000D03*
X207520000Y-49097000D03*
X199320000Y-49397000D03*
X207520000Y-49697000D03*
X199320000Y-49997000D03*
X207520000Y-50297000D03*
X199320000Y-50597000D03*
X207520000Y-50897000D03*
X199320000Y-51197000D03*
X207520000Y-51497000D03*
X199320000Y-51797000D03*
X207520000Y-52097000D03*
X199320000Y-52397000D03*
X207520000Y-52697000D03*
X199320000Y-52997000D03*
X207520000Y-53297000D03*
X199320000Y-53597000D03*
X207520000Y-53897000D03*
X199320000Y-54197000D03*
X207520000Y-54497000D03*
X199320000Y-54797000D03*
X207520000Y-55097000D03*
X199320000Y-55397000D03*
X207520000Y-55697000D03*
X199320000Y-55997000D03*
X207520000Y-56297000D03*
X199320000Y-56597000D03*
X207520000Y-56897000D03*
X199320000Y-57197000D03*
X207520000Y-57497000D03*
X199320000Y-57797000D03*
X207520000Y-58097000D03*
X199320000Y-58397000D03*
X207520000Y-58697000D03*
X199320000Y-58997000D03*
X207520000Y-59297000D03*
X199320000Y-59597000D03*
X207520000Y-59897000D03*
X199320000Y-60197000D03*
X207520000Y-60497000D03*
X199320000Y-60797000D03*
X207520000Y-61097000D03*
X199320000Y-61397000D03*
X207520000Y-61697000D03*
X199320000Y-61997000D03*
X207520000Y-62297000D03*
X199320000Y-62597000D03*
X207520000Y-62897000D03*
X199320000Y-63197000D03*
X207520000Y-63497000D03*
X199320000Y-63797000D03*
X207520000Y-64097000D03*
X199320000Y-66797000D03*
X207520000Y-67097000D03*
X199320000Y-67397000D03*
X207520000Y-67697000D03*
X199320000Y-67997000D03*
X207520000Y-68297000D03*
X199320000Y-68597000D03*
X207520000Y-68897000D03*
X199320000Y-69197000D03*
X207520000Y-69497000D03*
X199320000Y-69797000D03*
X207520000Y-70097000D03*
X199320000Y-70397000D03*
X207520000Y-70697000D03*
X199320000Y-70997000D03*
X207520000Y-71297000D03*
X199320000Y-71597000D03*
X207520000Y-71897000D03*
X199320000Y-72197000D03*
X207520000Y-72497000D03*
X199320000Y-72797000D03*
X207520000Y-73097000D03*
X199320000Y-73397000D03*
X207520000Y-73697000D03*
X199320000Y-73997000D03*
X207520000Y-74297000D03*
X199320000Y-74597000D03*
X207520000Y-74897000D03*
X199320000Y-75197000D03*
X207520000Y-75497000D03*
X199320000Y-75797000D03*
X207520000Y-76097000D03*
X199320000Y-76397000D03*
X207520000Y-76697000D03*
X199320000Y-76997000D03*
X207520000Y-77297000D03*
X199320000Y-77597000D03*
X207520000Y-77897000D03*
X199320000Y-78197000D03*
X207520000Y-78497000D03*
X199320000Y-78797000D03*
X207520000Y-79097000D03*
X199320000Y-79397000D03*
X207520000Y-79697000D03*
X199320000Y-79997000D03*
X207520000Y-80297000D03*
X199320000Y-80597000D03*
X207520000Y-80897000D03*
X199320000Y-81197000D03*
X207520000Y-81497000D03*
X199320000Y-81797000D03*
X207520000Y-82097000D03*
X199320000Y-82397000D03*
X207520000Y-82697000D03*
X199320000Y-82997000D03*
X207520000Y-83297000D03*
X199320000Y-83597000D03*
X207520000Y-83897000D03*
X199320000Y-84197000D03*
X207520000Y-84497000D03*
X199320000Y-84797000D03*
X207520000Y-85097000D03*
X199320000Y-85397000D03*
X207520000Y-85697000D03*
X199320000Y-85997000D03*
X207520000Y-86297000D03*
X199320000Y-86597000D03*
X207520000Y-86897000D03*
X199320000Y-87197000D03*
X207520000Y-87497000D03*
X199320000Y-87797000D03*
X207520000Y-88097000D03*
X199320000Y-88397000D03*
X207520000Y-88697000D03*
X199320000Y-88997000D03*
X207520000Y-89297000D03*
X199320000Y-89597000D03*
X207520000Y-89897000D03*
X199320000Y-90197000D03*
X207520000Y-90497000D03*
X199320000Y-90797000D03*
X207520000Y-91097000D03*
X199320000Y-91397000D03*
X207520000Y-91697000D03*
X199320000Y-91997000D03*
X207520000Y-92297000D03*
X199320000Y-92597000D03*
X207520000Y-92897000D03*
X199320000Y-93197000D03*
X207520000Y-93497000D03*
X199320000Y-93797000D03*
X207520000Y-94097000D03*
X199320000Y-94397000D03*
X207520000Y-94697000D03*
X199320000Y-94997000D03*
X207520000Y-95297000D03*
X199320000Y-95597000D03*
X207520000Y-95897000D03*
X199320000Y-96197000D03*
X207520000Y-96497000D03*
X199320000Y-96797000D03*
X207520000Y-97097000D03*
X199320000Y-97397000D03*
X207520000Y-97697000D03*
X199320000Y-97997000D03*
X207520000Y-98297000D03*
X199320000Y-98597000D03*
X207520000Y-98897000D03*
X199320000Y-99197000D03*
X207520000Y-99497000D03*
X199320000Y-99797000D03*
X207520000Y-100097000D03*
X199320000Y-100397000D03*
X207520000Y-100697000D03*
X199320000Y-100997000D03*
X207520000Y-101297000D03*
X199320000Y-101597000D03*
X207520000Y-101897000D03*
X199320000Y-102197000D03*
X207520000Y-102497000D03*
X199320000Y-102797000D03*
X207520000Y-103097000D03*
X199320000Y-103397000D03*
X207520000Y-103697000D03*
X199320000Y-103997000D03*
X207520000Y-104297000D03*
X199320000Y-104597000D03*
X207520000Y-104897000D03*
X199320000Y-105197000D03*
X207520000Y-105497000D03*
X199320000Y-105797000D03*
X207520000Y-106097000D03*
D13*
X215420000Y-41647000D03*
X215420000Y-107247000D03*
G36*
G01*
X188365000Y-92748000D02*
X188365000Y-93048000D01*
G75*
G02*
X188215000Y-93198000I-150000J0D01*
G01*
X187040000Y-93198000D01*
G75*
G02*
X186890000Y-93048000I0J150000D01*
G01*
X186890000Y-92748000D01*
G75*
G02*
X187040000Y-92598000I150000J0D01*
G01*
X188215000Y-92598000D01*
G75*
G02*
X188365000Y-92748000I0J-150000D01*
G01*
G37*
G36*
G01*
X188365000Y-90848000D02*
X188365000Y-91148000D01*
G75*
G02*
X188215000Y-91298000I-150000J0D01*
G01*
X187040000Y-91298000D01*
G75*
G02*
X186890000Y-91148000I0J150000D01*
G01*
X186890000Y-90848000D01*
G75*
G02*
X187040000Y-90698000I150000J0D01*
G01*
X188215000Y-90698000D01*
G75*
G02*
X188365000Y-90848000I0J-150000D01*
G01*
G37*
G36*
G01*
X186490000Y-91798000D02*
X186490000Y-92098000D01*
G75*
G02*
X186340000Y-92248000I-150000J0D01*
G01*
X185165000Y-92248000D01*
G75*
G02*
X185015000Y-92098000I0J150000D01*
G01*
X185015000Y-91798000D01*
G75*
G02*
X185165000Y-91648000I150000J0D01*
G01*
X186340000Y-91648000D01*
G75*
G02*
X186490000Y-91798000I0J-150000D01*
G01*
G37*
G36*
G01*
X185688500Y-28622000D02*
X185913500Y-28622000D01*
G75*
G02*
X186026000Y-28734500I0J-112500D01*
G01*
X186026000Y-29109500D01*
G75*
G02*
X185913500Y-29222000I-112500J0D01*
G01*
X185688500Y-29222000D01*
G75*
G02*
X185576000Y-29109500I0J112500D01*
G01*
X185576000Y-28734500D01*
G75*
G02*
X185688500Y-28622000I112500J0D01*
G01*
G37*
G36*
G01*
X185688500Y-30722000D02*
X185913500Y-30722000D01*
G75*
G02*
X186026000Y-30834500I0J-112500D01*
G01*
X186026000Y-31209500D01*
G75*
G02*
X185913500Y-31322000I-112500J0D01*
G01*
X185688500Y-31322000D01*
G75*
G02*
X185576000Y-31209500I0J112500D01*
G01*
X185576000Y-30834500D01*
G75*
G02*
X185688500Y-30722000I112500J0D01*
G01*
G37*
G36*
G01*
X183750000Y-93644000D02*
X183150000Y-93644000D01*
G75*
G02*
X182900000Y-93394000I0J250000D01*
G01*
X182900000Y-92794000D01*
G75*
G02*
X183150000Y-92544000I250000J0D01*
G01*
X183750000Y-92544000D01*
G75*
G02*
X184000000Y-92794000I0J-250000D01*
G01*
X184000000Y-93394000D01*
G75*
G02*
X183750000Y-93644000I-250000J0D01*
G01*
G37*
G36*
G01*
X183750000Y-90844000D02*
X183150000Y-90844000D01*
G75*
G02*
X182900000Y-90594000I0J250000D01*
G01*
X182900000Y-89994000D01*
G75*
G02*
X183150000Y-89744000I250000J0D01*
G01*
X183750000Y-89744000D01*
G75*
G02*
X184000000Y-89994000I0J-250000D01*
G01*
X184000000Y-90594000D01*
G75*
G02*
X183750000Y-90844000I-250000J0D01*
G01*
G37*
G36*
G01*
X184538000Y-98570000D02*
X183238000Y-98570000D01*
G75*
G02*
X182988000Y-98320000I0J250000D01*
G01*
X182988000Y-97670000D01*
G75*
G02*
X183238000Y-97420000I250000J0D01*
G01*
X184538000Y-97420000D01*
G75*
G02*
X184788000Y-97670000I0J-250000D01*
G01*
X184788000Y-98320000D01*
G75*
G02*
X184538000Y-98570000I-250000J0D01*
G01*
G37*
G36*
G01*
X184538000Y-95620000D02*
X183238000Y-95620000D01*
G75*
G02*
X182988000Y-95370000I0J250000D01*
G01*
X182988000Y-94720000D01*
G75*
G02*
X183238000Y-94470000I250000J0D01*
G01*
X184538000Y-94470000D01*
G75*
G02*
X184788000Y-94720000I0J-250000D01*
G01*
X184788000Y-95370000D01*
G75*
G02*
X184538000Y-95620000I-250000J0D01*
G01*
G37*
G36*
G01*
X193775000Y-75275000D02*
X193775000Y-74725000D01*
G75*
G02*
X193975000Y-74525000I200000J0D01*
G01*
X194375000Y-74525000D01*
G75*
G02*
X194575000Y-74725000I0J-200000D01*
G01*
X194575000Y-75275000D01*
G75*
G02*
X194375000Y-75475000I-200000J0D01*
G01*
X193975000Y-75475000D01*
G75*
G02*
X193775000Y-75275000I0J200000D01*
G01*
G37*
G36*
G01*
X195425000Y-75275000D02*
X195425000Y-74725000D01*
G75*
G02*
X195625000Y-74525000I200000J0D01*
G01*
X196025000Y-74525000D01*
G75*
G02*
X196225000Y-74725000I0J-200000D01*
G01*
X196225000Y-75275000D01*
G75*
G02*
X196025000Y-75475000I-200000J0D01*
G01*
X195625000Y-75475000D01*
G75*
G02*
X195425000Y-75275000I0J200000D01*
G01*
G37*
G36*
G01*
X166555250Y-98765000D02*
X166742750Y-98765000D01*
G75*
G02*
X166774000Y-98796250I0J-31250D01*
G01*
X166774000Y-99483750D01*
G75*
G02*
X166742750Y-99515000I-31250J0D01*
G01*
X166555250Y-99515000D01*
G75*
G02*
X166524000Y-99483750I0J31250D01*
G01*
X166524000Y-98796250D01*
G75*
G02*
X166555250Y-98765000I31250J0D01*
G01*
G37*
G36*
G01*
X166055250Y-98765000D02*
X166242750Y-98765000D01*
G75*
G02*
X166274000Y-98796250I0J-31250D01*
G01*
X166274000Y-99483750D01*
G75*
G02*
X166242750Y-99515000I-31250J0D01*
G01*
X166055250Y-99515000D01*
G75*
G02*
X166024000Y-99483750I0J31250D01*
G01*
X166024000Y-98796250D01*
G75*
G02*
X166055250Y-98765000I31250J0D01*
G01*
G37*
G36*
G01*
X165555250Y-98765000D02*
X165742750Y-98765000D01*
G75*
G02*
X165774000Y-98796250I0J-31250D01*
G01*
X165774000Y-99483750D01*
G75*
G02*
X165742750Y-99515000I-31250J0D01*
G01*
X165555250Y-99515000D01*
G75*
G02*
X165524000Y-99483750I0J31250D01*
G01*
X165524000Y-98796250D01*
G75*
G02*
X165555250Y-98765000I31250J0D01*
G01*
G37*
G36*
G01*
X165055250Y-98765000D02*
X165242750Y-98765000D01*
G75*
G02*
X165274000Y-98796250I0J-31250D01*
G01*
X165274000Y-99483750D01*
G75*
G02*
X165242750Y-99515000I-31250J0D01*
G01*
X165055250Y-99515000D01*
G75*
G02*
X165024000Y-99483750I0J31250D01*
G01*
X165024000Y-98796250D01*
G75*
G02*
X165055250Y-98765000I31250J0D01*
G01*
G37*
G36*
G01*
X164555250Y-98765000D02*
X164742750Y-98765000D01*
G75*
G02*
X164774000Y-98796250I0J-31250D01*
G01*
X164774000Y-99483750D01*
G75*
G02*
X164742750Y-99515000I-31250J0D01*
G01*
X164555250Y-99515000D01*
G75*
G02*
X164524000Y-99483750I0J31250D01*
G01*
X164524000Y-98796250D01*
G75*
G02*
X164555250Y-98765000I31250J0D01*
G01*
G37*
G36*
G01*
X164055250Y-98765000D02*
X164242750Y-98765000D01*
G75*
G02*
X164274000Y-98796250I0J-31250D01*
G01*
X164274000Y-99483750D01*
G75*
G02*
X164242750Y-99515000I-31250J0D01*
G01*
X164055250Y-99515000D01*
G75*
G02*
X164024000Y-99483750I0J31250D01*
G01*
X164024000Y-98796250D01*
G75*
G02*
X164055250Y-98765000I31250J0D01*
G01*
G37*
G36*
G01*
X163555250Y-98765000D02*
X163742750Y-98765000D01*
G75*
G02*
X163774000Y-98796250I0J-31250D01*
G01*
X163774000Y-99483750D01*
G75*
G02*
X163742750Y-99515000I-31250J0D01*
G01*
X163555250Y-99515000D01*
G75*
G02*
X163524000Y-99483750I0J31250D01*
G01*
X163524000Y-98796250D01*
G75*
G02*
X163555250Y-98765000I31250J0D01*
G01*
G37*
G36*
G01*
X163055250Y-98765000D02*
X163242750Y-98765000D01*
G75*
G02*
X163274000Y-98796250I0J-31250D01*
G01*
X163274000Y-99483750D01*
G75*
G02*
X163242750Y-99515000I-31250J0D01*
G01*
X163055250Y-99515000D01*
G75*
G02*
X163024000Y-99483750I0J31250D01*
G01*
X163024000Y-98796250D01*
G75*
G02*
X163055250Y-98765000I31250J0D01*
G01*
G37*
G36*
G01*
X162555250Y-98765000D02*
X162742750Y-98765000D01*
G75*
G02*
X162774000Y-98796250I0J-31250D01*
G01*
X162774000Y-99483750D01*
G75*
G02*
X162742750Y-99515000I-31250J0D01*
G01*
X162555250Y-99515000D01*
G75*
G02*
X162524000Y-99483750I0J31250D01*
G01*
X162524000Y-98796250D01*
G75*
G02*
X162555250Y-98765000I31250J0D01*
G01*
G37*
G36*
G01*
X162055250Y-98765000D02*
X162242750Y-98765000D01*
G75*
G02*
X162274000Y-98796250I0J-31250D01*
G01*
X162274000Y-99483750D01*
G75*
G02*
X162242750Y-99515000I-31250J0D01*
G01*
X162055250Y-99515000D01*
G75*
G02*
X162024000Y-99483750I0J31250D01*
G01*
X162024000Y-98796250D01*
G75*
G02*
X162055250Y-98765000I31250J0D01*
G01*
G37*
G36*
G01*
X161555250Y-98765000D02*
X161742750Y-98765000D01*
G75*
G02*
X161774000Y-98796250I0J-31250D01*
G01*
X161774000Y-99483750D01*
G75*
G02*
X161742750Y-99515000I-31250J0D01*
G01*
X161555250Y-99515000D01*
G75*
G02*
X161524000Y-99483750I0J31250D01*
G01*
X161524000Y-98796250D01*
G75*
G02*
X161555250Y-98765000I31250J0D01*
G01*
G37*
G36*
G01*
X160980250Y-100090000D02*
X161517750Y-100090000D01*
G75*
G02*
X161549000Y-100121250I0J-31250D01*
G01*
X161549000Y-100308750D01*
G75*
G02*
X161517750Y-100340000I-31250J0D01*
G01*
X160980250Y-100340000D01*
G75*
G02*
X160949000Y-100308750I0J31250D01*
G01*
X160949000Y-100121250D01*
G75*
G02*
X160980250Y-100090000I31250J0D01*
G01*
G37*
G36*
G01*
X160980250Y-100590000D02*
X161517750Y-100590000D01*
G75*
G02*
X161549000Y-100621250I0J-31250D01*
G01*
X161549000Y-100808750D01*
G75*
G02*
X161517750Y-100840000I-31250J0D01*
G01*
X160980250Y-100840000D01*
G75*
G02*
X160949000Y-100808750I0J31250D01*
G01*
X160949000Y-100621250D01*
G75*
G02*
X160980250Y-100590000I31250J0D01*
G01*
G37*
G36*
G01*
X160980250Y-101090000D02*
X161517750Y-101090000D01*
G75*
G02*
X161549000Y-101121250I0J-31250D01*
G01*
X161549000Y-101308750D01*
G75*
G02*
X161517750Y-101340000I-31250J0D01*
G01*
X160980250Y-101340000D01*
G75*
G02*
X160949000Y-101308750I0J31250D01*
G01*
X160949000Y-101121250D01*
G75*
G02*
X160980250Y-101090000I31250J0D01*
G01*
G37*
G36*
G01*
X160980250Y-101590000D02*
X161517750Y-101590000D01*
G75*
G02*
X161549000Y-101621250I0J-31250D01*
G01*
X161549000Y-101808750D01*
G75*
G02*
X161517750Y-101840000I-31250J0D01*
G01*
X160980250Y-101840000D01*
G75*
G02*
X160949000Y-101808750I0J31250D01*
G01*
X160949000Y-101621250D01*
G75*
G02*
X160980250Y-101590000I31250J0D01*
G01*
G37*
G36*
G01*
X161555250Y-102415000D02*
X161742750Y-102415000D01*
G75*
G02*
X161774000Y-102446250I0J-31250D01*
G01*
X161774000Y-103133750D01*
G75*
G02*
X161742750Y-103165000I-31250J0D01*
G01*
X161555250Y-103165000D01*
G75*
G02*
X161524000Y-103133750I0J31250D01*
G01*
X161524000Y-102446250D01*
G75*
G02*
X161555250Y-102415000I31250J0D01*
G01*
G37*
G36*
G01*
X162055250Y-102415000D02*
X162242750Y-102415000D01*
G75*
G02*
X162274000Y-102446250I0J-31250D01*
G01*
X162274000Y-103133750D01*
G75*
G02*
X162242750Y-103165000I-31250J0D01*
G01*
X162055250Y-103165000D01*
G75*
G02*
X162024000Y-103133750I0J31250D01*
G01*
X162024000Y-102446250D01*
G75*
G02*
X162055250Y-102415000I31250J0D01*
G01*
G37*
G36*
G01*
X162555250Y-102415000D02*
X162742750Y-102415000D01*
G75*
G02*
X162774000Y-102446250I0J-31250D01*
G01*
X162774000Y-103133750D01*
G75*
G02*
X162742750Y-103165000I-31250J0D01*
G01*
X162555250Y-103165000D01*
G75*
G02*
X162524000Y-103133750I0J31250D01*
G01*
X162524000Y-102446250D01*
G75*
G02*
X162555250Y-102415000I31250J0D01*
G01*
G37*
G36*
G01*
X163055250Y-102415000D02*
X163242750Y-102415000D01*
G75*
G02*
X163274000Y-102446250I0J-31250D01*
G01*
X163274000Y-103133750D01*
G75*
G02*
X163242750Y-103165000I-31250J0D01*
G01*
X163055250Y-103165000D01*
G75*
G02*
X163024000Y-103133750I0J31250D01*
G01*
X163024000Y-102446250D01*
G75*
G02*
X163055250Y-102415000I31250J0D01*
G01*
G37*
G36*
G01*
X163555250Y-102415000D02*
X163742750Y-102415000D01*
G75*
G02*
X163774000Y-102446250I0J-31250D01*
G01*
X163774000Y-103133750D01*
G75*
G02*
X163742750Y-103165000I-31250J0D01*
G01*
X163555250Y-103165000D01*
G75*
G02*
X163524000Y-103133750I0J31250D01*
G01*
X163524000Y-102446250D01*
G75*
G02*
X163555250Y-102415000I31250J0D01*
G01*
G37*
G36*
G01*
X164055250Y-102415000D02*
X164242750Y-102415000D01*
G75*
G02*
X164274000Y-102446250I0J-31250D01*
G01*
X164274000Y-103133750D01*
G75*
G02*
X164242750Y-103165000I-31250J0D01*
G01*
X164055250Y-103165000D01*
G75*
G02*
X164024000Y-103133750I0J31250D01*
G01*
X164024000Y-102446250D01*
G75*
G02*
X164055250Y-102415000I31250J0D01*
G01*
G37*
G36*
G01*
X164555250Y-102415000D02*
X164742750Y-102415000D01*
G75*
G02*
X164774000Y-102446250I0J-31250D01*
G01*
X164774000Y-103133750D01*
G75*
G02*
X164742750Y-103165000I-31250J0D01*
G01*
X164555250Y-103165000D01*
G75*
G02*
X164524000Y-103133750I0J31250D01*
G01*
X164524000Y-102446250D01*
G75*
G02*
X164555250Y-102415000I31250J0D01*
G01*
G37*
G36*
G01*
X165055250Y-102415000D02*
X165242750Y-102415000D01*
G75*
G02*
X165274000Y-102446250I0J-31250D01*
G01*
X165274000Y-103133750D01*
G75*
G02*
X165242750Y-103165000I-31250J0D01*
G01*
X165055250Y-103165000D01*
G75*
G02*
X165024000Y-103133750I0J31250D01*
G01*
X165024000Y-102446250D01*
G75*
G02*
X165055250Y-102415000I31250J0D01*
G01*
G37*
G36*
G01*
X165555250Y-102415000D02*
X165742750Y-102415000D01*
G75*
G02*
X165774000Y-102446250I0J-31250D01*
G01*
X165774000Y-103133750D01*
G75*
G02*
X165742750Y-103165000I-31250J0D01*
G01*
X165555250Y-103165000D01*
G75*
G02*
X165524000Y-103133750I0J31250D01*
G01*
X165524000Y-102446250D01*
G75*
G02*
X165555250Y-102415000I31250J0D01*
G01*
G37*
G36*
G01*
X166055250Y-102415000D02*
X166242750Y-102415000D01*
G75*
G02*
X166274000Y-102446250I0J-31250D01*
G01*
X166274000Y-103133750D01*
G75*
G02*
X166242750Y-103165000I-31250J0D01*
G01*
X166055250Y-103165000D01*
G75*
G02*
X166024000Y-103133750I0J31250D01*
G01*
X166024000Y-102446250D01*
G75*
G02*
X166055250Y-102415000I31250J0D01*
G01*
G37*
G36*
G01*
X166555250Y-102415000D02*
X166742750Y-102415000D01*
G75*
G02*
X166774000Y-102446250I0J-31250D01*
G01*
X166774000Y-103133750D01*
G75*
G02*
X166742750Y-103165000I-31250J0D01*
G01*
X166555250Y-103165000D01*
G75*
G02*
X166524000Y-103133750I0J31250D01*
G01*
X166524000Y-102446250D01*
G75*
G02*
X166555250Y-102415000I31250J0D01*
G01*
G37*
G36*
G01*
X166780250Y-101590000D02*
X167317750Y-101590000D01*
G75*
G02*
X167349000Y-101621250I0J-31250D01*
G01*
X167349000Y-101808750D01*
G75*
G02*
X167317750Y-101840000I-31250J0D01*
G01*
X166780250Y-101840000D01*
G75*
G02*
X166749000Y-101808750I0J31250D01*
G01*
X166749000Y-101621250D01*
G75*
G02*
X166780250Y-101590000I31250J0D01*
G01*
G37*
G36*
G01*
X166780250Y-101090000D02*
X167317750Y-101090000D01*
G75*
G02*
X167349000Y-101121250I0J-31250D01*
G01*
X167349000Y-101308750D01*
G75*
G02*
X167317750Y-101340000I-31250J0D01*
G01*
X166780250Y-101340000D01*
G75*
G02*
X166749000Y-101308750I0J31250D01*
G01*
X166749000Y-101121250D01*
G75*
G02*
X166780250Y-101090000I31250J0D01*
G01*
G37*
G36*
G01*
X166780250Y-100590000D02*
X167317750Y-100590000D01*
G75*
G02*
X167349000Y-100621250I0J-31250D01*
G01*
X167349000Y-100808750D01*
G75*
G02*
X167317750Y-100840000I-31250J0D01*
G01*
X166780250Y-100840000D01*
G75*
G02*
X166749000Y-100808750I0J31250D01*
G01*
X166749000Y-100621250D01*
G75*
G02*
X166780250Y-100590000I31250J0D01*
G01*
G37*
G36*
G01*
X166780250Y-100090000D02*
X167317750Y-100090000D01*
G75*
G02*
X167349000Y-100121250I0J-31250D01*
G01*
X167349000Y-100308750D01*
G75*
G02*
X167317750Y-100340000I-31250J0D01*
G01*
X166780250Y-100340000D01*
G75*
G02*
X166749000Y-100308750I0J31250D01*
G01*
X166749000Y-100121250D01*
G75*
G02*
X166780250Y-100090000I31250J0D01*
G01*
G37*
G36*
G01*
X263330000Y-37240000D02*
X263670000Y-37240000D01*
G75*
G02*
X263810000Y-37380000I0J-140000D01*
G01*
X263810000Y-37660000D01*
G75*
G02*
X263670000Y-37800000I-140000J0D01*
G01*
X263330000Y-37800000D01*
G75*
G02*
X263190000Y-37660000I0J140000D01*
G01*
X263190000Y-37380000D01*
G75*
G02*
X263330000Y-37240000I140000J0D01*
G01*
G37*
G36*
G01*
X263330000Y-38200000D02*
X263670000Y-38200000D01*
G75*
G02*
X263810000Y-38340000I0J-140000D01*
G01*
X263810000Y-38620000D01*
G75*
G02*
X263670000Y-38760000I-140000J0D01*
G01*
X263330000Y-38760000D01*
G75*
G02*
X263190000Y-38620000I0J140000D01*
G01*
X263190000Y-38340000D01*
G75*
G02*
X263330000Y-38200000I140000J0D01*
G01*
G37*
G36*
G01*
X185278000Y-101963000D02*
X186578000Y-101963000D01*
G75*
G02*
X186828000Y-102213000I0J-250000D01*
G01*
X186828000Y-102863000D01*
G75*
G02*
X186578000Y-103113000I-250000J0D01*
G01*
X185278000Y-103113000D01*
G75*
G02*
X185028000Y-102863000I0J250000D01*
G01*
X185028000Y-102213000D01*
G75*
G02*
X185278000Y-101963000I250000J0D01*
G01*
G37*
G36*
G01*
X185278000Y-104913000D02*
X186578000Y-104913000D01*
G75*
G02*
X186828000Y-105163000I0J-250000D01*
G01*
X186828000Y-105813000D01*
G75*
G02*
X186578000Y-106063000I-250000J0D01*
G01*
X185278000Y-106063000D01*
G75*
G02*
X185028000Y-105813000I0J250000D01*
G01*
X185028000Y-105163000D01*
G75*
G02*
X185278000Y-104913000I250000J0D01*
G01*
G37*
G36*
G01*
X249360000Y-38718000D02*
X249360000Y-37768000D01*
G75*
G02*
X249610000Y-37518000I250000J0D01*
G01*
X250110000Y-37518000D01*
G75*
G02*
X250360000Y-37768000I0J-250000D01*
G01*
X250360000Y-38718000D01*
G75*
G02*
X250110000Y-38968000I-250000J0D01*
G01*
X249610000Y-38968000D01*
G75*
G02*
X249360000Y-38718000I0J250000D01*
G01*
G37*
G36*
G01*
X251260000Y-38718000D02*
X251260000Y-37768000D01*
G75*
G02*
X251510000Y-37518000I250000J0D01*
G01*
X252010000Y-37518000D01*
G75*
G02*
X252260000Y-37768000I0J-250000D01*
G01*
X252260000Y-38718000D01*
G75*
G02*
X252010000Y-38968000I-250000J0D01*
G01*
X251510000Y-38968000D01*
G75*
G02*
X251260000Y-38718000I0J250000D01*
G01*
G37*
G36*
G01*
X248425000Y-109975000D02*
X248425000Y-110525000D01*
G75*
G02*
X248225000Y-110725000I-200000J0D01*
G01*
X247825000Y-110725000D01*
G75*
G02*
X247625000Y-110525000I0J200000D01*
G01*
X247625000Y-109975000D01*
G75*
G02*
X247825000Y-109775000I200000J0D01*
G01*
X248225000Y-109775000D01*
G75*
G02*
X248425000Y-109975000I0J-200000D01*
G01*
G37*
G36*
G01*
X246775000Y-109975000D02*
X246775000Y-110525000D01*
G75*
G02*
X246575000Y-110725000I-200000J0D01*
G01*
X246175000Y-110725000D01*
G75*
G02*
X245975000Y-110525000I0J200000D01*
G01*
X245975000Y-109975000D01*
G75*
G02*
X246175000Y-109775000I200000J0D01*
G01*
X246575000Y-109775000D01*
G75*
G02*
X246775000Y-109975000I0J-200000D01*
G01*
G37*
G36*
G01*
X162450000Y-42175000D02*
X163350000Y-42175000D01*
G75*
G02*
X163600000Y-42425000I0J-250000D01*
G01*
X163600000Y-42950000D01*
G75*
G02*
X163350000Y-43200000I-250000J0D01*
G01*
X162450000Y-43200000D01*
G75*
G02*
X162200000Y-42950000I0J250000D01*
G01*
X162200000Y-42425000D01*
G75*
G02*
X162450000Y-42175000I250000J0D01*
G01*
G37*
G36*
G01*
X162450000Y-44000000D02*
X163350000Y-44000000D01*
G75*
G02*
X163600000Y-44250000I0J-250000D01*
G01*
X163600000Y-44775000D01*
G75*
G02*
X163350000Y-45025000I-250000J0D01*
G01*
X162450000Y-45025000D01*
G75*
G02*
X162200000Y-44775000I0J250000D01*
G01*
X162200000Y-44250000D01*
G75*
G02*
X162450000Y-44000000I250000J0D01*
G01*
G37*
G36*
G01*
X160634000Y-94406000D02*
X161184000Y-94406000D01*
G75*
G02*
X161384000Y-94606000I0J-200000D01*
G01*
X161384000Y-95006000D01*
G75*
G02*
X161184000Y-95206000I-200000J0D01*
G01*
X160634000Y-95206000D01*
G75*
G02*
X160434000Y-95006000I0J200000D01*
G01*
X160434000Y-94606000D01*
G75*
G02*
X160634000Y-94406000I200000J0D01*
G01*
G37*
G36*
G01*
X160634000Y-96056000D02*
X161184000Y-96056000D01*
G75*
G02*
X161384000Y-96256000I0J-200000D01*
G01*
X161384000Y-96656000D01*
G75*
G02*
X161184000Y-96856000I-200000J0D01*
G01*
X160634000Y-96856000D01*
G75*
G02*
X160434000Y-96656000I0J200000D01*
G01*
X160434000Y-96256000D01*
G75*
G02*
X160634000Y-96056000I200000J0D01*
G01*
G37*
G36*
G01*
X173185000Y-32080000D02*
X172815000Y-32080000D01*
G75*
G02*
X172680000Y-31945000I0J135000D01*
G01*
X172680000Y-31675000D01*
G75*
G02*
X172815000Y-31540000I135000J0D01*
G01*
X173185000Y-31540000D01*
G75*
G02*
X173320000Y-31675000I0J-135000D01*
G01*
X173320000Y-31945000D01*
G75*
G02*
X173185000Y-32080000I-135000J0D01*
G01*
G37*
G36*
G01*
X173185000Y-31060000D02*
X172815000Y-31060000D01*
G75*
G02*
X172680000Y-30925000I0J135000D01*
G01*
X172680000Y-30655000D01*
G75*
G02*
X172815000Y-30520000I135000J0D01*
G01*
X173185000Y-30520000D01*
G75*
G02*
X173320000Y-30655000I0J-135000D01*
G01*
X173320000Y-30925000D01*
G75*
G02*
X173185000Y-31060000I-135000J0D01*
G01*
G37*
G36*
G01*
X195775000Y-58475000D02*
X195225000Y-58475000D01*
G75*
G02*
X195025000Y-58275000I0J200000D01*
G01*
X195025000Y-57875000D01*
G75*
G02*
X195225000Y-57675000I200000J0D01*
G01*
X195775000Y-57675000D01*
G75*
G02*
X195975000Y-57875000I0J-200000D01*
G01*
X195975000Y-58275000D01*
G75*
G02*
X195775000Y-58475000I-200000J0D01*
G01*
G37*
G36*
G01*
X195775000Y-56825000D02*
X195225000Y-56825000D01*
G75*
G02*
X195025000Y-56625000I0J200000D01*
G01*
X195025000Y-56225000D01*
G75*
G02*
X195225000Y-56025000I200000J0D01*
G01*
X195775000Y-56025000D01*
G75*
G02*
X195975000Y-56225000I0J-200000D01*
G01*
X195975000Y-56625000D01*
G75*
G02*
X195775000Y-56825000I-200000J0D01*
G01*
G37*
G36*
G01*
X163594000Y-107227000D02*
X163594000Y-108527000D01*
G75*
G02*
X163344000Y-108777000I-250000J0D01*
G01*
X162694000Y-108777000D01*
G75*
G02*
X162444000Y-108527000I0J250000D01*
G01*
X162444000Y-107227000D01*
G75*
G02*
X162694000Y-106977000I250000J0D01*
G01*
X163344000Y-106977000D01*
G75*
G02*
X163594000Y-107227000I0J-250000D01*
G01*
G37*
G36*
G01*
X160644000Y-107227000D02*
X160644000Y-108527000D01*
G75*
G02*
X160394000Y-108777000I-250000J0D01*
G01*
X159744000Y-108777000D01*
G75*
G02*
X159494000Y-108527000I0J250000D01*
G01*
X159494000Y-107227000D01*
G75*
G02*
X159744000Y-106977000I250000J0D01*
G01*
X160394000Y-106977000D01*
G75*
G02*
X160644000Y-107227000I0J-250000D01*
G01*
G37*
M02*
