G04 #@! TF.GenerationSoftware,KiCad,Pcbnew,9.0.7+1*
G04 #@! TF.CreationDate,2026-06-05T23:18:42+00:00*
G04 #@! TF.ProjectId,hw-universal-logic,68772d75-6e69-4766-9572-73616c2d6c6f,rev?*
G04 #@! TF.SameCoordinates,Original*
G04 #@! TF.FileFunction,Soldermask,Top*
G04 #@! TF.FilePolarity,Negative*
%FSLAX46Y46*%
G04 Gerber Fmt 4.6, Leading zero omitted, Abs format (unit mm)*
G04 Created by KiCad (PCBNEW 9.0.7+1) date 2026-06-05 23:18:42*
%MOMM*%
%LPD*%
G01*
G04 APERTURE LIST*
%ADD10R,1.700000X1.700000*%
%ADD11O,1.700000X1.700000*%
%ADD12O,1.700000X2.000000*%
%ADD13C,0.900000*%
%ADD14C,8.600000*%
%ADD15O,1.950000X1.700000*%
%ADD16O,1.700000X1.950000*%
%ADD17C,1.412000*%
%ADD18R,2.000000X2.000000*%
%ADD19C,2.000000*%
%ADD20R,1.500000X1.500000*%
%ADD21C,1.500000*%
%ADD22C,3.000000*%
%ADD23R,3.800000X3.800000*%
%ADD24C,3.800000*%
%ADD25C,3.250000*%
%ADD26C,1.602000*%
%ADD27C,1.734000*%
%ADD28C,2.649000*%
%ADD29R,4.100000X4.100000*%
%ADD30R,2.600000X2.600000*%
%ADD31C,2.600000*%
%ADD32C,3.500000*%
%ADD33C,1.600000*%
%ADD34C,1.100000*%
%ADD35O,8.400000X6.400000*%
G04 APERTURE END LIST*
D10*
X168200000Y-22987000D03*
D11*
X170740000Y-22987000D03*
X173280000Y-22987000D03*
G36*
G01*
X173590000Y-45820000D02*
X173590000Y-45480000D01*
G75*
G02*
X173730000Y-45340000I140000J0D01*
G01*
X174010000Y-45340000D01*
G75*
G02*
X174150000Y-45480000I0J-140000D01*
G01*
X174150000Y-45820000D01*
G75*
G02*
X174010000Y-45960000I-140000J0D01*
G01*
X173730000Y-45960000D01*
G75*
G02*
X173590000Y-45820000I0J140000D01*
G01*
G37*
G36*
G01*
X174550000Y-45820000D02*
X174550000Y-45480000D01*
G75*
G02*
X174690000Y-45340000I140000J0D01*
G01*
X174970000Y-45340000D01*
G75*
G02*
X175110000Y-45480000I0J-140000D01*
G01*
X175110000Y-45820000D01*
G75*
G02*
X174970000Y-45960000I-140000J0D01*
G01*
X174690000Y-45960000D01*
G75*
G02*
X174550000Y-45820000I0J140000D01*
G01*
G37*
G36*
G01*
X190080000Y-24396000D02*
X190080000Y-25896000D01*
G75*
G02*
X189830000Y-26146000I-250000J0D01*
G01*
X188630000Y-26146000D01*
G75*
G02*
X188380000Y-25896000I0J250000D01*
G01*
X188380000Y-24396000D01*
G75*
G02*
X188630000Y-24146000I250000J0D01*
G01*
X189830000Y-24146000D01*
G75*
G02*
X190080000Y-24396000I0J-250000D01*
G01*
G37*
D12*
X186730000Y-25146000D03*
D13*
X157775000Y-115500000D03*
X158719581Y-113219581D03*
X158719581Y-117780419D03*
X161000000Y-112275000D03*
D14*
X161000000Y-115500000D03*
D13*
X161000000Y-118725000D03*
X163280419Y-113219581D03*
X163280419Y-117780419D03*
X164225000Y-115500000D03*
G36*
G01*
X235625000Y-109975000D02*
X235625000Y-110525000D01*
G75*
G02*
X235425000Y-110725000I-200000J0D01*
G01*
X235025000Y-110725000D01*
G75*
G02*
X234825000Y-110525000I0J200000D01*
G01*
X234825000Y-109975000D01*
G75*
G02*
X235025000Y-109775000I200000J0D01*
G01*
X235425000Y-109775000D01*
G75*
G02*
X235625000Y-109975000I0J-200000D01*
G01*
G37*
G36*
G01*
X233975000Y-109975000D02*
X233975000Y-110525000D01*
G75*
G02*
X233775000Y-110725000I-200000J0D01*
G01*
X233375000Y-110725000D01*
G75*
G02*
X233175000Y-110525000I0J200000D01*
G01*
X233175000Y-109975000D01*
G75*
G02*
X233375000Y-109775000I200000J0D01*
G01*
X233775000Y-109775000D01*
G75*
G02*
X233975000Y-109975000I0J-200000D01*
G01*
G37*
G36*
G01*
X195775000Y-23400000D02*
X197225000Y-23400000D01*
G75*
G02*
X197475000Y-23650000I0J-250000D01*
G01*
X197475000Y-24850000D01*
G75*
G02*
X197225000Y-25100000I-250000J0D01*
G01*
X195775000Y-25100000D01*
G75*
G02*
X195525000Y-24850000I0J250000D01*
G01*
X195525000Y-23650000D01*
G75*
G02*
X195775000Y-23400000I250000J0D01*
G01*
G37*
D15*
X196500000Y-26750000D03*
X196500000Y-29250000D03*
X196500000Y-31750000D03*
G36*
G01*
X159110000Y-99740000D02*
X159660000Y-99740000D01*
G75*
G02*
X159860000Y-99940000I0J-200000D01*
G01*
X159860000Y-100340000D01*
G75*
G02*
X159660000Y-100540000I-200000J0D01*
G01*
X159110000Y-100540000D01*
G75*
G02*
X158910000Y-100340000I0J200000D01*
G01*
X158910000Y-99940000D01*
G75*
G02*
X159110000Y-99740000I200000J0D01*
G01*
G37*
G36*
G01*
X159110000Y-101390000D02*
X159660000Y-101390000D01*
G75*
G02*
X159860000Y-101590000I0J-200000D01*
G01*
X159860000Y-101990000D01*
G75*
G02*
X159660000Y-102190000I-200000J0D01*
G01*
X159110000Y-102190000D01*
G75*
G02*
X158910000Y-101990000I0J200000D01*
G01*
X158910000Y-101590000D01*
G75*
G02*
X159110000Y-101390000I200000J0D01*
G01*
G37*
G36*
G01*
X163594000Y-104633000D02*
X163594000Y-105933000D01*
G75*
G02*
X163344000Y-106183000I-250000J0D01*
G01*
X162694000Y-106183000D01*
G75*
G02*
X162444000Y-105933000I0J250000D01*
G01*
X162444000Y-104633000D01*
G75*
G02*
X162694000Y-104383000I250000J0D01*
G01*
X163344000Y-104383000D01*
G75*
G02*
X163594000Y-104633000I0J-250000D01*
G01*
G37*
G36*
G01*
X160644000Y-104633000D02*
X160644000Y-105933000D01*
G75*
G02*
X160394000Y-106183000I-250000J0D01*
G01*
X159744000Y-106183000D01*
G75*
G02*
X159494000Y-105933000I0J250000D01*
G01*
X159494000Y-104633000D01*
G75*
G02*
X159744000Y-104383000I250000J0D01*
G01*
X160394000Y-104383000D01*
G75*
G02*
X160644000Y-104633000I0J-250000D01*
G01*
G37*
D10*
X168200000Y-26924000D03*
D11*
X170740000Y-26924000D03*
X173280000Y-26924000D03*
D10*
X176900000Y-22987000D03*
D11*
X179440000Y-22987000D03*
X181980000Y-22987000D03*
G36*
G01*
X174185000Y-32080000D02*
X173815000Y-32080000D01*
G75*
G02*
X173680000Y-31945000I0J135000D01*
G01*
X173680000Y-31675000D01*
G75*
G02*
X173815000Y-31540000I135000J0D01*
G01*
X174185000Y-31540000D01*
G75*
G02*
X174320000Y-31675000I0J-135000D01*
G01*
X174320000Y-31945000D01*
G75*
G02*
X174185000Y-32080000I-135000J0D01*
G01*
G37*
G36*
G01*
X174185000Y-31060000D02*
X173815000Y-31060000D01*
G75*
G02*
X173680000Y-30925000I0J135000D01*
G01*
X173680000Y-30655000D01*
G75*
G02*
X173815000Y-30520000I135000J0D01*
G01*
X174185000Y-30520000D01*
G75*
G02*
X174320000Y-30655000I0J-135000D01*
G01*
X174320000Y-30925000D01*
G75*
G02*
X174185000Y-31060000I-135000J0D01*
G01*
G37*
D10*
X253619000Y-117348000D03*
D11*
X253619000Y-114808000D03*
X253619000Y-112268000D03*
G36*
G01*
X172185000Y-32080000D02*
X171815000Y-32080000D01*
G75*
G02*
X171680000Y-31945000I0J135000D01*
G01*
X171680000Y-31675000D01*
G75*
G02*
X171815000Y-31540000I135000J0D01*
G01*
X172185000Y-31540000D01*
G75*
G02*
X172320000Y-31675000I0J-135000D01*
G01*
X172320000Y-31945000D01*
G75*
G02*
X172185000Y-32080000I-135000J0D01*
G01*
G37*
G36*
G01*
X172185000Y-31060000D02*
X171815000Y-31060000D01*
G75*
G02*
X171680000Y-30925000I0J135000D01*
G01*
X171680000Y-30655000D01*
G75*
G02*
X171815000Y-30520000I135000J0D01*
G01*
X172185000Y-30520000D01*
G75*
G02*
X172320000Y-30655000I0J-135000D01*
G01*
X172320000Y-30925000D01*
G75*
G02*
X172185000Y-31060000I-135000J0D01*
G01*
G37*
G36*
G01*
X230175000Y-110500000D02*
X230175000Y-110000000D01*
G75*
G02*
X230400000Y-109775000I225000J0D01*
G01*
X230850000Y-109775000D01*
G75*
G02*
X231075000Y-110000000I0J-225000D01*
G01*
X231075000Y-110500000D01*
G75*
G02*
X230850000Y-110725000I-225000J0D01*
G01*
X230400000Y-110725000D01*
G75*
G02*
X230175000Y-110500000I0J225000D01*
G01*
G37*
G36*
G01*
X231725000Y-110500000D02*
X231725000Y-110000000D01*
G75*
G02*
X231950000Y-109775000I225000J0D01*
G01*
X232400000Y-109775000D01*
G75*
G02*
X232625000Y-110000000I0J-225000D01*
G01*
X232625000Y-110500000D01*
G75*
G02*
X232400000Y-110725000I-225000J0D01*
G01*
X231950000Y-110725000D01*
G75*
G02*
X231725000Y-110500000I0J225000D01*
G01*
G37*
G36*
G01*
X175025000Y-73600000D02*
X175025000Y-73100000D01*
G75*
G02*
X175250000Y-72875000I225000J0D01*
G01*
X175700000Y-72875000D01*
G75*
G02*
X175925000Y-73100000I0J-225000D01*
G01*
X175925000Y-73600000D01*
G75*
G02*
X175700000Y-73825000I-225000J0D01*
G01*
X175250000Y-73825000D01*
G75*
G02*
X175025000Y-73600000I0J225000D01*
G01*
G37*
G36*
G01*
X176575000Y-73600000D02*
X176575000Y-73100000D01*
G75*
G02*
X176800000Y-72875000I225000J0D01*
G01*
X177250000Y-72875000D01*
G75*
G02*
X177475000Y-73100000I0J-225000D01*
G01*
X177475000Y-73600000D01*
G75*
G02*
X177250000Y-73825000I-225000J0D01*
G01*
X176800000Y-73825000D01*
G75*
G02*
X176575000Y-73600000I0J225000D01*
G01*
G37*
G36*
G01*
X157900000Y-89225000D02*
X157900000Y-87775000D01*
G75*
G02*
X158150000Y-87525000I250000J0D01*
G01*
X159350000Y-87525000D01*
G75*
G02*
X159600000Y-87775000I0J-250000D01*
G01*
X159600000Y-89225000D01*
G75*
G02*
X159350000Y-89475000I-250000J0D01*
G01*
X158150000Y-89475000D01*
G75*
G02*
X157900000Y-89225000I0J250000D01*
G01*
G37*
D16*
X161250000Y-88500000D03*
X163750000Y-88500000D03*
X166250000Y-88500000D03*
X168750000Y-88500000D03*
G36*
G01*
X158290100Y-41139800D02*
X158290100Y-39931800D01*
G75*
G02*
X158392100Y-39829800I102000J0D01*
G01*
X159600100Y-39829800D01*
G75*
G02*
X159702100Y-39931800I0J-102000D01*
G01*
X159702100Y-41139800D01*
G75*
G02*
X159600100Y-41241800I-102000J0D01*
G01*
X158392100Y-41241800D01*
G75*
G02*
X158290100Y-41139800I0J102000D01*
G01*
G37*
D17*
X158996100Y-42535800D03*
X158996100Y-44535800D03*
X158996100Y-46535800D03*
X158996100Y-48535800D03*
X158996100Y-50535800D03*
X158996100Y-52535800D03*
X158996100Y-54535800D03*
X158996100Y-56535800D03*
X158996100Y-58535800D03*
X181003400Y-58535800D03*
X181003400Y-56535800D03*
X181003400Y-54535800D03*
X181003400Y-52535800D03*
X181003400Y-50535800D03*
X181003400Y-48535800D03*
X181003400Y-46535800D03*
X181003400Y-44535800D03*
X181003400Y-42535800D03*
X181003400Y-40535800D03*
G36*
G01*
X164550000Y-51400000D02*
X165450000Y-51400000D01*
G75*
G02*
X165700000Y-51650000I0J-250000D01*
G01*
X165700000Y-52350000D01*
G75*
G02*
X165450000Y-52600000I-250000J0D01*
G01*
X164550000Y-52600000D01*
G75*
G02*
X164300000Y-52350000I0J250000D01*
G01*
X164300000Y-51650000D01*
G75*
G02*
X164550000Y-51400000I250000J0D01*
G01*
G37*
G36*
G01*
X164550000Y-53400000D02*
X165450000Y-53400000D01*
G75*
G02*
X165700000Y-53650000I0J-250000D01*
G01*
X165700000Y-54350000D01*
G75*
G02*
X165450000Y-54600000I-250000J0D01*
G01*
X164550000Y-54600000D01*
G75*
G02*
X164300000Y-54350000I0J250000D01*
G01*
X164300000Y-53650000D01*
G75*
G02*
X164550000Y-53400000I250000J0D01*
G01*
G37*
G36*
G01*
X163707000Y-94406000D02*
X164207000Y-94406000D01*
G75*
G02*
X164432000Y-94631000I0J-225000D01*
G01*
X164432000Y-95081000D01*
G75*
G02*
X164207000Y-95306000I-225000J0D01*
G01*
X163707000Y-95306000D01*
G75*
G02*
X163482000Y-95081000I0J225000D01*
G01*
X163482000Y-94631000D01*
G75*
G02*
X163707000Y-94406000I225000J0D01*
G01*
G37*
G36*
G01*
X163707000Y-95956000D02*
X164207000Y-95956000D01*
G75*
G02*
X164432000Y-96181000I0J-225000D01*
G01*
X164432000Y-96631000D01*
G75*
G02*
X164207000Y-96856000I-225000J0D01*
G01*
X163707000Y-96856000D01*
G75*
G02*
X163482000Y-96631000I0J225000D01*
G01*
X163482000Y-96181000D01*
G75*
G02*
X163707000Y-95956000I225000J0D01*
G01*
G37*
G36*
G01*
X169175000Y-59350000D02*
X169175000Y-58450000D01*
G75*
G02*
X169425000Y-58200000I250000J0D01*
G01*
X169950000Y-58200000D01*
G75*
G02*
X170200000Y-58450000I0J-250000D01*
G01*
X170200000Y-59350000D01*
G75*
G02*
X169950000Y-59600000I-250000J0D01*
G01*
X169425000Y-59600000D01*
G75*
G02*
X169175000Y-59350000I0J250000D01*
G01*
G37*
G36*
G01*
X171000000Y-59350000D02*
X171000000Y-58450000D01*
G75*
G02*
X171250000Y-58200000I250000J0D01*
G01*
X171775000Y-58200000D01*
G75*
G02*
X172025000Y-58450000I0J-250000D01*
G01*
X172025000Y-59350000D01*
G75*
G02*
X171775000Y-59600000I-250000J0D01*
G01*
X171250000Y-59600000D01*
G75*
G02*
X171000000Y-59350000I0J250000D01*
G01*
G37*
D18*
X170942000Y-110109000D03*
D19*
X170942000Y-115109000D03*
G36*
G01*
X175500000Y-88875000D02*
X176000000Y-88875000D01*
G75*
G02*
X176225000Y-89100000I0J-225000D01*
G01*
X176225000Y-89550000D01*
G75*
G02*
X176000000Y-89775000I-225000J0D01*
G01*
X175500000Y-89775000D01*
G75*
G02*
X175275000Y-89550000I0J225000D01*
G01*
X175275000Y-89100000D01*
G75*
G02*
X175500000Y-88875000I225000J0D01*
G01*
G37*
G36*
G01*
X175500000Y-90425000D02*
X176000000Y-90425000D01*
G75*
G02*
X176225000Y-90650000I0J-225000D01*
G01*
X176225000Y-91100000D01*
G75*
G02*
X176000000Y-91325000I-225000J0D01*
G01*
X175500000Y-91325000D01*
G75*
G02*
X175275000Y-91100000I0J225000D01*
G01*
X175275000Y-90650000D01*
G75*
G02*
X175500000Y-90425000I225000J0D01*
G01*
G37*
G36*
G01*
X248800000Y-37900000D02*
X248800000Y-38200000D01*
G75*
G02*
X248650000Y-38350000I-150000J0D01*
G01*
X247625000Y-38350000D01*
G75*
G02*
X247475000Y-38200000I0J150000D01*
G01*
X247475000Y-37900000D01*
G75*
G02*
X247625000Y-37750000I150000J0D01*
G01*
X248650000Y-37750000D01*
G75*
G02*
X248800000Y-37900000I0J-150000D01*
G01*
G37*
G36*
G01*
X248800000Y-36950000D02*
X248800000Y-37250000D01*
G75*
G02*
X248650000Y-37400000I-150000J0D01*
G01*
X247625000Y-37400000D01*
G75*
G02*
X247475000Y-37250000I0J150000D01*
G01*
X247475000Y-36950000D01*
G75*
G02*
X247625000Y-36800000I150000J0D01*
G01*
X248650000Y-36800000D01*
G75*
G02*
X248800000Y-36950000I0J-150000D01*
G01*
G37*
G36*
G01*
X248800000Y-36000000D02*
X248800000Y-36300000D01*
G75*
G02*
X248650000Y-36450000I-150000J0D01*
G01*
X247625000Y-36450000D01*
G75*
G02*
X247475000Y-36300000I0J150000D01*
G01*
X247475000Y-36000000D01*
G75*
G02*
X247625000Y-35850000I150000J0D01*
G01*
X248650000Y-35850000D01*
G75*
G02*
X248800000Y-36000000I0J-150000D01*
G01*
G37*
G36*
G01*
X246525000Y-36000000D02*
X246525000Y-36300000D01*
G75*
G02*
X246375000Y-36450000I-150000J0D01*
G01*
X245350000Y-36450000D01*
G75*
G02*
X245200000Y-36300000I0J150000D01*
G01*
X245200000Y-36000000D01*
G75*
G02*
X245350000Y-35850000I150000J0D01*
G01*
X246375000Y-35850000D01*
G75*
G02*
X246525000Y-36000000I0J-150000D01*
G01*
G37*
G36*
G01*
X246525000Y-37900000D02*
X246525000Y-38200000D01*
G75*
G02*
X246375000Y-38350000I-150000J0D01*
G01*
X245350000Y-38350000D01*
G75*
G02*
X245200000Y-38200000I0J150000D01*
G01*
X245200000Y-37900000D01*
G75*
G02*
X245350000Y-37750000I150000J0D01*
G01*
X246375000Y-37750000D01*
G75*
G02*
X246525000Y-37900000I0J-150000D01*
G01*
G37*
G36*
G01*
X171850000Y-39750000D02*
X172050000Y-39750000D01*
G75*
G02*
X172150000Y-39850000I0J-100000D01*
G01*
X172150000Y-40975000D01*
G75*
G02*
X172050000Y-41075000I-100000J0D01*
G01*
X171850000Y-41075000D01*
G75*
G02*
X171750000Y-40975000I0J100000D01*
G01*
X171750000Y-39850000D01*
G75*
G02*
X171850000Y-39750000I100000J0D01*
G01*
G37*
G36*
G01*
X171200000Y-39750000D02*
X171400000Y-39750000D01*
G75*
G02*
X171500000Y-39850000I0J-100000D01*
G01*
X171500000Y-40975000D01*
G75*
G02*
X171400000Y-41075000I-100000J0D01*
G01*
X171200000Y-41075000D01*
G75*
G02*
X171100000Y-40975000I0J100000D01*
G01*
X171100000Y-39850000D01*
G75*
G02*
X171200000Y-39750000I100000J0D01*
G01*
G37*
G36*
G01*
X170550000Y-39750000D02*
X170750000Y-39750000D01*
G75*
G02*
X170850000Y-39850000I0J-100000D01*
G01*
X170850000Y-40975000D01*
G75*
G02*
X170750000Y-41075000I-100000J0D01*
G01*
X170550000Y-41075000D01*
G75*
G02*
X170450000Y-40975000I0J100000D01*
G01*
X170450000Y-39850000D01*
G75*
G02*
X170550000Y-39750000I100000J0D01*
G01*
G37*
G36*
G01*
X170550000Y-41525000D02*
X170750000Y-41525000D01*
G75*
G02*
X170850000Y-41625000I0J-100000D01*
G01*
X170850000Y-42750000D01*
G75*
G02*
X170750000Y-42850000I-100000J0D01*
G01*
X170550000Y-42850000D01*
G75*
G02*
X170450000Y-42750000I0J100000D01*
G01*
X170450000Y-41625000D01*
G75*
G02*
X170550000Y-41525000I100000J0D01*
G01*
G37*
G36*
G01*
X171200000Y-41525000D02*
X171400000Y-41525000D01*
G75*
G02*
X171500000Y-41625000I0J-100000D01*
G01*
X171500000Y-42750000D01*
G75*
G02*
X171400000Y-42850000I-100000J0D01*
G01*
X171200000Y-42850000D01*
G75*
G02*
X171100000Y-42750000I0J100000D01*
G01*
X171100000Y-41625000D01*
G75*
G02*
X171200000Y-41525000I100000J0D01*
G01*
G37*
G36*
G01*
X171850000Y-41525000D02*
X172050000Y-41525000D01*
G75*
G02*
X172150000Y-41625000I0J-100000D01*
G01*
X172150000Y-42750000D01*
G75*
G02*
X172050000Y-42850000I-100000J0D01*
G01*
X171850000Y-42850000D01*
G75*
G02*
X171750000Y-42750000I0J100000D01*
G01*
X171750000Y-41625000D01*
G75*
G02*
X171850000Y-41525000I100000J0D01*
G01*
G37*
D20*
X249750000Y-32250000D03*
D21*
X247250000Y-32250000D03*
X245250000Y-32250000D03*
X242750000Y-32250000D03*
X249750000Y-29630000D03*
X247250000Y-29630000D03*
X245250000Y-29630000D03*
X242750000Y-29630000D03*
D22*
X252820000Y-32600000D03*
X252820000Y-26920000D03*
X239680000Y-32600000D03*
X239680000Y-26920000D03*
G36*
G01*
X163400000Y-54600000D02*
X162500000Y-54600000D01*
G75*
G02*
X162250000Y-54350000I0J250000D01*
G01*
X162250000Y-53650000D01*
G75*
G02*
X162500000Y-53400000I250000J0D01*
G01*
X163400000Y-53400000D01*
G75*
G02*
X163650000Y-53650000I0J-250000D01*
G01*
X163650000Y-54350000D01*
G75*
G02*
X163400000Y-54600000I-250000J0D01*
G01*
G37*
G36*
G01*
X163400000Y-52600000D02*
X162500000Y-52600000D01*
G75*
G02*
X162250000Y-52350000I0J250000D01*
G01*
X162250000Y-51650000D01*
G75*
G02*
X162500000Y-51400000I250000J0D01*
G01*
X163400000Y-51400000D01*
G75*
G02*
X163650000Y-51650000I0J-250000D01*
G01*
X163650000Y-52350000D01*
G75*
G02*
X163400000Y-52600000I-250000J0D01*
G01*
G37*
G36*
G01*
X249360000Y-36559000D02*
X249360000Y-35609000D01*
G75*
G02*
X249610000Y-35359000I250000J0D01*
G01*
X250110000Y-35359000D01*
G75*
G02*
X250360000Y-35609000I0J-250000D01*
G01*
X250360000Y-36559000D01*
G75*
G02*
X250110000Y-36809000I-250000J0D01*
G01*
X249610000Y-36809000D01*
G75*
G02*
X249360000Y-36559000I0J250000D01*
G01*
G37*
G36*
G01*
X251260000Y-36559000D02*
X251260000Y-35609000D01*
G75*
G02*
X251510000Y-35359000I250000J0D01*
G01*
X252010000Y-35359000D01*
G75*
G02*
X252260000Y-35609000I0J-250000D01*
G01*
X252260000Y-36559000D01*
G75*
G02*
X252010000Y-36809000I-250000J0D01*
G01*
X251510000Y-36809000D01*
G75*
G02*
X251260000Y-36559000I0J250000D01*
G01*
G37*
G36*
G01*
X189288000Y-90348000D02*
X190188000Y-90348000D01*
G75*
G02*
X190438000Y-90598000I0J-250000D01*
G01*
X190438000Y-91298000D01*
G75*
G02*
X190188000Y-91548000I-250000J0D01*
G01*
X189288000Y-91548000D01*
G75*
G02*
X189038000Y-91298000I0J250000D01*
G01*
X189038000Y-90598000D01*
G75*
G02*
X189288000Y-90348000I250000J0D01*
G01*
G37*
G36*
G01*
X189288000Y-92348000D02*
X190188000Y-92348000D01*
G75*
G02*
X190438000Y-92598000I0J-250000D01*
G01*
X190438000Y-93298000D01*
G75*
G02*
X190188000Y-93548000I-250000J0D01*
G01*
X189288000Y-93548000D01*
G75*
G02*
X189038000Y-93298000I0J250000D01*
G01*
X189038000Y-92598000D01*
G75*
G02*
X189288000Y-92348000I250000J0D01*
G01*
G37*
G36*
G01*
X158111000Y-96856000D02*
X157611000Y-96856000D01*
G75*
G02*
X157386000Y-96631000I0J225000D01*
G01*
X157386000Y-96181000D01*
G75*
G02*
X157611000Y-95956000I225000J0D01*
G01*
X158111000Y-95956000D01*
G75*
G02*
X158336000Y-96181000I0J-225000D01*
G01*
X158336000Y-96631000D01*
G75*
G02*
X158111000Y-96856000I-225000J0D01*
G01*
G37*
G36*
G01*
X158111000Y-95306000D02*
X157611000Y-95306000D01*
G75*
G02*
X157386000Y-95081000I0J225000D01*
G01*
X157386000Y-94631000D01*
G75*
G02*
X157611000Y-94406000I225000J0D01*
G01*
X158111000Y-94406000D01*
G75*
G02*
X158336000Y-94631000I0J-225000D01*
G01*
X158336000Y-95081000D01*
G75*
G02*
X158111000Y-95306000I-225000J0D01*
G01*
G37*
D10*
X176900000Y-26924000D03*
D11*
X179440000Y-26924000D03*
X181980000Y-26924000D03*
G36*
G01*
X193775000Y-70775000D02*
X193775000Y-70225000D01*
G75*
G02*
X193975000Y-70025000I200000J0D01*
G01*
X194375000Y-70025000D01*
G75*
G02*
X194575000Y-70225000I0J-200000D01*
G01*
X194575000Y-70775000D01*
G75*
G02*
X194375000Y-70975000I-200000J0D01*
G01*
X193975000Y-70975000D01*
G75*
G02*
X193775000Y-70775000I0J200000D01*
G01*
G37*
G36*
G01*
X195425000Y-70775000D02*
X195425000Y-70225000D01*
G75*
G02*
X195625000Y-70025000I200000J0D01*
G01*
X196025000Y-70025000D01*
G75*
G02*
X196225000Y-70225000I0J-200000D01*
G01*
X196225000Y-70775000D01*
G75*
G02*
X196025000Y-70975000I-200000J0D01*
G01*
X195625000Y-70975000D01*
G75*
G02*
X195425000Y-70775000I0J200000D01*
G01*
G37*
G36*
G01*
X229575000Y-109975000D02*
X229575000Y-110525000D01*
G75*
G02*
X229375000Y-110725000I-200000J0D01*
G01*
X228975000Y-110725000D01*
G75*
G02*
X228775000Y-110525000I0J200000D01*
G01*
X228775000Y-109975000D01*
G75*
G02*
X228975000Y-109775000I200000J0D01*
G01*
X229375000Y-109775000D01*
G75*
G02*
X229575000Y-109975000I0J-200000D01*
G01*
G37*
G36*
G01*
X227925000Y-109975000D02*
X227925000Y-110525000D01*
G75*
G02*
X227725000Y-110725000I-200000J0D01*
G01*
X227325000Y-110725000D01*
G75*
G02*
X227125000Y-110525000I0J200000D01*
G01*
X227125000Y-109975000D01*
G75*
G02*
X227325000Y-109775000I200000J0D01*
G01*
X227725000Y-109775000D01*
G75*
G02*
X227925000Y-109975000I0J-200000D01*
G01*
G37*
G36*
G01*
X236175000Y-110500000D02*
X236175000Y-110000000D01*
G75*
G02*
X236400000Y-109775000I225000J0D01*
G01*
X236850000Y-109775000D01*
G75*
G02*
X237075000Y-110000000I0J-225000D01*
G01*
X237075000Y-110500000D01*
G75*
G02*
X236850000Y-110725000I-225000J0D01*
G01*
X236400000Y-110725000D01*
G75*
G02*
X236175000Y-110500000I0J225000D01*
G01*
G37*
G36*
G01*
X237725000Y-110500000D02*
X237725000Y-110000000D01*
G75*
G02*
X237950000Y-109775000I225000J0D01*
G01*
X238400000Y-109775000D01*
G75*
G02*
X238625000Y-110000000I0J-225000D01*
G01*
X238625000Y-110500000D01*
G75*
G02*
X238400000Y-110725000I-225000J0D01*
G01*
X237950000Y-110725000D01*
G75*
G02*
X237725000Y-110500000I0J225000D01*
G01*
G37*
G36*
G01*
X191785000Y-98570000D02*
X190485000Y-98570000D01*
G75*
G02*
X190235000Y-98320000I0J250000D01*
G01*
X190235000Y-97670000D01*
G75*
G02*
X190485000Y-97420000I250000J0D01*
G01*
X191785000Y-97420000D01*
G75*
G02*
X192035000Y-97670000I0J-250000D01*
G01*
X192035000Y-98320000D01*
G75*
G02*
X191785000Y-98570000I-250000J0D01*
G01*
G37*
G36*
G01*
X191785000Y-95620000D02*
X190485000Y-95620000D01*
G75*
G02*
X190235000Y-95370000I0J250000D01*
G01*
X190235000Y-94720000D01*
G75*
G02*
X190485000Y-94470000I250000J0D01*
G01*
X191785000Y-94470000D01*
G75*
G02*
X192035000Y-94720000I0J-250000D01*
G01*
X192035000Y-95370000D01*
G75*
G02*
X191785000Y-95620000I-250000J0D01*
G01*
G37*
G36*
G01*
X187691000Y-101963000D02*
X188991000Y-101963000D01*
G75*
G02*
X189241000Y-102213000I0J-250000D01*
G01*
X189241000Y-102863000D01*
G75*
G02*
X188991000Y-103113000I-250000J0D01*
G01*
X187691000Y-103113000D01*
G75*
G02*
X187441000Y-102863000I0J250000D01*
G01*
X187441000Y-102213000D01*
G75*
G02*
X187691000Y-101963000I250000J0D01*
G01*
G37*
G36*
G01*
X187691000Y-104913000D02*
X188991000Y-104913000D01*
G75*
G02*
X189241000Y-105163000I0J-250000D01*
G01*
X189241000Y-105813000D01*
G75*
G02*
X188991000Y-106063000I-250000J0D01*
G01*
X187691000Y-106063000D01*
G75*
G02*
X187441000Y-105813000I0J250000D01*
G01*
X187441000Y-105163000D01*
G75*
G02*
X187691000Y-104913000I250000J0D01*
G01*
G37*
G36*
G01*
X249075000Y-110500000D02*
X249075000Y-110000000D01*
G75*
G02*
X249300000Y-109775000I225000J0D01*
G01*
X249750000Y-109775000D01*
G75*
G02*
X249975000Y-110000000I0J-225000D01*
G01*
X249975000Y-110500000D01*
G75*
G02*
X249750000Y-110725000I-225000J0D01*
G01*
X249300000Y-110725000D01*
G75*
G02*
X249075000Y-110500000I0J225000D01*
G01*
G37*
G36*
G01*
X250625000Y-110500000D02*
X250625000Y-110000000D01*
G75*
G02*
X250850000Y-109775000I225000J0D01*
G01*
X251300000Y-109775000D01*
G75*
G02*
X251525000Y-110000000I0J-225000D01*
G01*
X251525000Y-110500000D01*
G75*
G02*
X251300000Y-110725000I-225000J0D01*
G01*
X250850000Y-110725000D01*
G75*
G02*
X250625000Y-110500000I0J225000D01*
G01*
G37*
G36*
G01*
X164412000Y-105631000D02*
X164412000Y-104681000D01*
G75*
G02*
X164662000Y-104431000I250000J0D01*
G01*
X165162000Y-104431000D01*
G75*
G02*
X165412000Y-104681000I0J-250000D01*
G01*
X165412000Y-105631000D01*
G75*
G02*
X165162000Y-105881000I-250000J0D01*
G01*
X164662000Y-105881000D01*
G75*
G02*
X164412000Y-105631000I0J250000D01*
G01*
G37*
G36*
G01*
X166312000Y-105631000D02*
X166312000Y-104681000D01*
G75*
G02*
X166562000Y-104431000I250000J0D01*
G01*
X167062000Y-104431000D01*
G75*
G02*
X167312000Y-104681000I0J-250000D01*
G01*
X167312000Y-105631000D01*
G75*
G02*
X167062000Y-105881000I-250000J0D01*
G01*
X166562000Y-105881000D01*
G75*
G02*
X166312000Y-105631000I0J250000D01*
G01*
G37*
G36*
G01*
X186959000Y-98570000D02*
X185659000Y-98570000D01*
G75*
G02*
X185409000Y-98320000I0J250000D01*
G01*
X185409000Y-97670000D01*
G75*
G02*
X185659000Y-97420000I250000J0D01*
G01*
X186959000Y-97420000D01*
G75*
G02*
X187209000Y-97670000I0J-250000D01*
G01*
X187209000Y-98320000D01*
G75*
G02*
X186959000Y-98570000I-250000J0D01*
G01*
G37*
G36*
G01*
X186959000Y-95620000D02*
X185659000Y-95620000D01*
G75*
G02*
X185409000Y-95370000I0J250000D01*
G01*
X185409000Y-94720000D01*
G75*
G02*
X185659000Y-94470000I250000J0D01*
G01*
X186959000Y-94470000D01*
G75*
G02*
X187209000Y-94720000I0J-250000D01*
G01*
X187209000Y-95370000D01*
G75*
G02*
X186959000Y-95620000I-250000J0D01*
G01*
G37*
G36*
G01*
X162183000Y-94406000D02*
X162683000Y-94406000D01*
G75*
G02*
X162908000Y-94631000I0J-225000D01*
G01*
X162908000Y-95081000D01*
G75*
G02*
X162683000Y-95306000I-225000J0D01*
G01*
X162183000Y-95306000D01*
G75*
G02*
X161958000Y-95081000I0J225000D01*
G01*
X161958000Y-94631000D01*
G75*
G02*
X162183000Y-94406000I225000J0D01*
G01*
G37*
G36*
G01*
X162183000Y-95956000D02*
X162683000Y-95956000D01*
G75*
G02*
X162908000Y-96181000I0J-225000D01*
G01*
X162908000Y-96631000D01*
G75*
G02*
X162683000Y-96856000I-225000J0D01*
G01*
X162183000Y-96856000D01*
G75*
G02*
X161958000Y-96631000I0J225000D01*
G01*
X161958000Y-96181000D01*
G75*
G02*
X162183000Y-95956000I225000J0D01*
G01*
G37*
G36*
G01*
X175225000Y-74525000D02*
X175775000Y-74525000D01*
G75*
G02*
X175975000Y-74725000I0J-200000D01*
G01*
X175975000Y-75125000D01*
G75*
G02*
X175775000Y-75325000I-200000J0D01*
G01*
X175225000Y-75325000D01*
G75*
G02*
X175025000Y-75125000I0J200000D01*
G01*
X175025000Y-74725000D01*
G75*
G02*
X175225000Y-74525000I200000J0D01*
G01*
G37*
G36*
G01*
X175225000Y-76175000D02*
X175775000Y-76175000D01*
G75*
G02*
X175975000Y-76375000I0J-200000D01*
G01*
X175975000Y-76775000D01*
G75*
G02*
X175775000Y-76975000I-200000J0D01*
G01*
X175225000Y-76975000D01*
G75*
G02*
X175025000Y-76775000I0J200000D01*
G01*
X175025000Y-76375000D01*
G75*
G02*
X175225000Y-76175000I200000J0D01*
G01*
G37*
G36*
G01*
X158136000Y-105619000D02*
X157586000Y-105619000D01*
G75*
G02*
X157386000Y-105419000I0J200000D01*
G01*
X157386000Y-105019000D01*
G75*
G02*
X157586000Y-104819000I200000J0D01*
G01*
X158136000Y-104819000D01*
G75*
G02*
X158336000Y-105019000I0J-200000D01*
G01*
X158336000Y-105419000D01*
G75*
G02*
X158136000Y-105619000I-200000J0D01*
G01*
G37*
G36*
G01*
X158136000Y-103969000D02*
X157586000Y-103969000D01*
G75*
G02*
X157386000Y-103769000I0J200000D01*
G01*
X157386000Y-103369000D01*
G75*
G02*
X157586000Y-103169000I200000J0D01*
G01*
X158136000Y-103169000D01*
G75*
G02*
X158336000Y-103369000I0J-200000D01*
G01*
X158336000Y-103769000D01*
G75*
G02*
X158136000Y-103969000I-200000J0D01*
G01*
G37*
G36*
G01*
X177125000Y-88875000D02*
X177675000Y-88875000D01*
G75*
G02*
X177875000Y-89075000I0J-200000D01*
G01*
X177875000Y-89475000D01*
G75*
G02*
X177675000Y-89675000I-200000J0D01*
G01*
X177125000Y-89675000D01*
G75*
G02*
X176925000Y-89475000I0J200000D01*
G01*
X176925000Y-89075000D01*
G75*
G02*
X177125000Y-88875000I200000J0D01*
G01*
G37*
G36*
G01*
X177125000Y-90525000D02*
X177675000Y-90525000D01*
G75*
G02*
X177875000Y-90725000I0J-200000D01*
G01*
X177875000Y-91125000D01*
G75*
G02*
X177675000Y-91325000I-200000J0D01*
G01*
X177125000Y-91325000D01*
G75*
G02*
X176925000Y-91125000I0J200000D01*
G01*
X176925000Y-90725000D01*
G75*
G02*
X177125000Y-90525000I200000J0D01*
G01*
G37*
G36*
G01*
X195775000Y-49975000D02*
X195225000Y-49975000D01*
G75*
G02*
X195025000Y-49775000I0J200000D01*
G01*
X195025000Y-49375000D01*
G75*
G02*
X195225000Y-49175000I200000J0D01*
G01*
X195775000Y-49175000D01*
G75*
G02*
X195975000Y-49375000I0J-200000D01*
G01*
X195975000Y-49775000D01*
G75*
G02*
X195775000Y-49975000I-200000J0D01*
G01*
G37*
G36*
G01*
X195775000Y-48325000D02*
X195225000Y-48325000D01*
G75*
G02*
X195025000Y-48125000I0J200000D01*
G01*
X195025000Y-47725000D01*
G75*
G02*
X195225000Y-47525000I200000J0D01*
G01*
X195775000Y-47525000D01*
G75*
G02*
X195975000Y-47725000I0J-200000D01*
G01*
X195975000Y-48125000D01*
G75*
G02*
X195775000Y-48325000I-200000J0D01*
G01*
G37*
G36*
G01*
X157900000Y-73225000D02*
X157900000Y-71775000D01*
G75*
G02*
X158150000Y-71525000I250000J0D01*
G01*
X159350000Y-71525000D01*
G75*
G02*
X159600000Y-71775000I0J-250000D01*
G01*
X159600000Y-73225000D01*
G75*
G02*
X159350000Y-73475000I-250000J0D01*
G01*
X158150000Y-73475000D01*
G75*
G02*
X157900000Y-73225000I0J250000D01*
G01*
G37*
D16*
X161250000Y-72500000D03*
X163750000Y-72500000D03*
X166250000Y-72500000D03*
X168750000Y-72500000D03*
G36*
G01*
X193775000Y-66275000D02*
X193775000Y-65725000D01*
G75*
G02*
X193975000Y-65525000I200000J0D01*
G01*
X194375000Y-65525000D01*
G75*
G02*
X194575000Y-65725000I0J-200000D01*
G01*
X194575000Y-66275000D01*
G75*
G02*
X194375000Y-66475000I-200000J0D01*
G01*
X193975000Y-66475000D01*
G75*
G02*
X193775000Y-66275000I0J200000D01*
G01*
G37*
G36*
G01*
X195425000Y-66275000D02*
X195425000Y-65725000D01*
G75*
G02*
X195625000Y-65525000I200000J0D01*
G01*
X196025000Y-65525000D01*
G75*
G02*
X196225000Y-65725000I0J-200000D01*
G01*
X196225000Y-66275000D01*
G75*
G02*
X196025000Y-66475000I-200000J0D01*
G01*
X195625000Y-66475000D01*
G75*
G02*
X195425000Y-66275000I0J200000D01*
G01*
G37*
G36*
G01*
X217150000Y-115725000D02*
X217150000Y-114275000D01*
G75*
G02*
X217400000Y-114025000I250000J0D01*
G01*
X218600000Y-114025000D01*
G75*
G02*
X218850000Y-114275000I0J-250000D01*
G01*
X218850000Y-115725000D01*
G75*
G02*
X218600000Y-115975000I-250000J0D01*
G01*
X217400000Y-115975000D01*
G75*
G02*
X217150000Y-115725000I0J250000D01*
G01*
G37*
X220500000Y-115000000D03*
X223000000Y-115000000D03*
X225500000Y-115000000D03*
X228000000Y-115000000D03*
G36*
G01*
X183167000Y-101928000D02*
X184117000Y-101928000D01*
G75*
G02*
X184367000Y-102178000I0J-250000D01*
G01*
X184367000Y-102678000D01*
G75*
G02*
X184117000Y-102928000I-250000J0D01*
G01*
X183167000Y-102928000D01*
G75*
G02*
X182917000Y-102678000I0J250000D01*
G01*
X182917000Y-102178000D01*
G75*
G02*
X183167000Y-101928000I250000J0D01*
G01*
G37*
G36*
G01*
X183167000Y-103828000D02*
X184117000Y-103828000D01*
G75*
G02*
X184367000Y-104078000I0J-250000D01*
G01*
X184367000Y-104578000D01*
G75*
G02*
X184117000Y-104828000I-250000J0D01*
G01*
X183167000Y-104828000D01*
G75*
G02*
X182917000Y-104578000I0J250000D01*
G01*
X182917000Y-104078000D01*
G75*
G02*
X183167000Y-103828000I250000J0D01*
G01*
G37*
D13*
X157775000Y-25000000D03*
X158719581Y-22719581D03*
X158719581Y-27280419D03*
X161000000Y-21775000D03*
D14*
X161000000Y-25000000D03*
D13*
X161000000Y-28225000D03*
X163280419Y-22719581D03*
X163280419Y-27280419D03*
X164225000Y-25000000D03*
G36*
G01*
X174350000Y-39750000D02*
X174550000Y-39750000D01*
G75*
G02*
X174650000Y-39850000I0J-100000D01*
G01*
X174650000Y-40975000D01*
G75*
G02*
X174550000Y-41075000I-100000J0D01*
G01*
X174350000Y-41075000D01*
G75*
G02*
X174250000Y-40975000I0J100000D01*
G01*
X174250000Y-39850000D01*
G75*
G02*
X174350000Y-39750000I100000J0D01*
G01*
G37*
G36*
G01*
X173700000Y-39750000D02*
X173900000Y-39750000D01*
G75*
G02*
X174000000Y-39850000I0J-100000D01*
G01*
X174000000Y-40975000D01*
G75*
G02*
X173900000Y-41075000I-100000J0D01*
G01*
X173700000Y-41075000D01*
G75*
G02*
X173600000Y-40975000I0J100000D01*
G01*
X173600000Y-39850000D01*
G75*
G02*
X173700000Y-39750000I100000J0D01*
G01*
G37*
G36*
G01*
X173050000Y-39750000D02*
X173250000Y-39750000D01*
G75*
G02*
X173350000Y-39850000I0J-100000D01*
G01*
X173350000Y-40975000D01*
G75*
G02*
X173250000Y-41075000I-100000J0D01*
G01*
X173050000Y-41075000D01*
G75*
G02*
X172950000Y-40975000I0J100000D01*
G01*
X172950000Y-39850000D01*
G75*
G02*
X173050000Y-39750000I100000J0D01*
G01*
G37*
G36*
G01*
X173050000Y-41525000D02*
X173250000Y-41525000D01*
G75*
G02*
X173350000Y-41625000I0J-100000D01*
G01*
X173350000Y-42750000D01*
G75*
G02*
X173250000Y-42850000I-100000J0D01*
G01*
X173050000Y-42850000D01*
G75*
G02*
X172950000Y-42750000I0J100000D01*
G01*
X172950000Y-41625000D01*
G75*
G02*
X173050000Y-41525000I100000J0D01*
G01*
G37*
G36*
G01*
X173700000Y-41525000D02*
X173900000Y-41525000D01*
G75*
G02*
X174000000Y-41625000I0J-100000D01*
G01*
X174000000Y-42750000D01*
G75*
G02*
X173900000Y-42850000I-100000J0D01*
G01*
X173700000Y-42850000D01*
G75*
G02*
X173600000Y-42750000I0J100000D01*
G01*
X173600000Y-41625000D01*
G75*
G02*
X173700000Y-41525000I100000J0D01*
G01*
G37*
G36*
G01*
X174350000Y-41525000D02*
X174550000Y-41525000D01*
G75*
G02*
X174650000Y-41625000I0J-100000D01*
G01*
X174650000Y-42750000D01*
G75*
G02*
X174550000Y-42850000I-100000J0D01*
G01*
X174350000Y-42850000D01*
G75*
G02*
X174250000Y-42750000I0J100000D01*
G01*
X174250000Y-41625000D01*
G75*
G02*
X174350000Y-41525000I100000J0D01*
G01*
G37*
D23*
X191135000Y-115443000D03*
D24*
X191135000Y-110443000D03*
G36*
G01*
X189372000Y-98570000D02*
X188072000Y-98570000D01*
G75*
G02*
X187822000Y-98320000I0J250000D01*
G01*
X187822000Y-97670000D01*
G75*
G02*
X188072000Y-97420000I250000J0D01*
G01*
X189372000Y-97420000D01*
G75*
G02*
X189622000Y-97670000I0J-250000D01*
G01*
X189622000Y-98320000D01*
G75*
G02*
X189372000Y-98570000I-250000J0D01*
G01*
G37*
G36*
G01*
X189372000Y-95620000D02*
X188072000Y-95620000D01*
G75*
G02*
X187822000Y-95370000I0J250000D01*
G01*
X187822000Y-94720000D01*
G75*
G02*
X188072000Y-94470000I250000J0D01*
G01*
X189372000Y-94470000D01*
G75*
G02*
X189622000Y-94720000I0J-250000D01*
G01*
X189622000Y-95370000D01*
G75*
G02*
X189372000Y-95620000I-250000J0D01*
G01*
G37*
G36*
G01*
X193775000Y-73775000D02*
X193775000Y-73225000D01*
G75*
G02*
X193975000Y-73025000I200000J0D01*
G01*
X194375000Y-73025000D01*
G75*
G02*
X194575000Y-73225000I0J-200000D01*
G01*
X194575000Y-73775000D01*
G75*
G02*
X194375000Y-73975000I-200000J0D01*
G01*
X193975000Y-73975000D01*
G75*
G02*
X193775000Y-73775000I0J200000D01*
G01*
G37*
G36*
G01*
X195425000Y-73775000D02*
X195425000Y-73225000D01*
G75*
G02*
X195625000Y-73025000I200000J0D01*
G01*
X196025000Y-73025000D01*
G75*
G02*
X196225000Y-73225000I0J-200000D01*
G01*
X196225000Y-73775000D01*
G75*
G02*
X196025000Y-73975000I-200000J0D01*
G01*
X195625000Y-73975000D01*
G75*
G02*
X195425000Y-73775000I0J200000D01*
G01*
G37*
G36*
G01*
X198400000Y-115725000D02*
X198400000Y-114275000D01*
G75*
G02*
X198650000Y-114025000I250000J0D01*
G01*
X199850000Y-114025000D01*
G75*
G02*
X200100000Y-114275000I0J-250000D01*
G01*
X200100000Y-115725000D01*
G75*
G02*
X199850000Y-115975000I-250000J0D01*
G01*
X198650000Y-115975000D01*
G75*
G02*
X198400000Y-115725000I0J250000D01*
G01*
G37*
D16*
X201750000Y-115000000D03*
X204250000Y-115000000D03*
X206750000Y-115000000D03*
X209250000Y-115000000D03*
G36*
G01*
X188780000Y-30879000D02*
X188410000Y-30879000D01*
G75*
G02*
X188275000Y-30744000I0J135000D01*
G01*
X188275000Y-30474000D01*
G75*
G02*
X188410000Y-30339000I135000J0D01*
G01*
X188780000Y-30339000D01*
G75*
G02*
X188915000Y-30474000I0J-135000D01*
G01*
X188915000Y-30744000D01*
G75*
G02*
X188780000Y-30879000I-135000J0D01*
G01*
G37*
G36*
G01*
X188780000Y-29859000D02*
X188410000Y-29859000D01*
G75*
G02*
X188275000Y-29724000I0J135000D01*
G01*
X188275000Y-29454000D01*
G75*
G02*
X188410000Y-29319000I135000J0D01*
G01*
X188780000Y-29319000D01*
G75*
G02*
X188915000Y-29454000I0J-135000D01*
G01*
X188915000Y-29724000D01*
G75*
G02*
X188780000Y-29859000I-135000J0D01*
G01*
G37*
G36*
G01*
X193775000Y-72275000D02*
X193775000Y-71725000D01*
G75*
G02*
X193975000Y-71525000I200000J0D01*
G01*
X194375000Y-71525000D01*
G75*
G02*
X194575000Y-71725000I0J-200000D01*
G01*
X194575000Y-72275000D01*
G75*
G02*
X194375000Y-72475000I-200000J0D01*
G01*
X193975000Y-72475000D01*
G75*
G02*
X193775000Y-72275000I0J200000D01*
G01*
G37*
G36*
G01*
X195425000Y-72275000D02*
X195425000Y-71725000D01*
G75*
G02*
X195625000Y-71525000I200000J0D01*
G01*
X196025000Y-71525000D01*
G75*
G02*
X196225000Y-71725000I0J-200000D01*
G01*
X196225000Y-72275000D01*
G75*
G02*
X196025000Y-72475000I-200000J0D01*
G01*
X195625000Y-72475000D01*
G75*
G02*
X195425000Y-72275000I0J200000D01*
G01*
G37*
D25*
X222535000Y-27305000D03*
X233965000Y-27305000D03*
G36*
G01*
X233169000Y-36894000D02*
X233169000Y-35496000D01*
G75*
G02*
X233271000Y-35394000I102000J0D01*
G01*
X234669000Y-35394000D01*
G75*
G02*
X234771000Y-35496000I0J-102000D01*
G01*
X234771000Y-36894000D01*
G75*
G02*
X234669000Y-36996000I-102000J0D01*
G01*
X233271000Y-36996000D01*
G75*
G02*
X233169000Y-36894000I0J102000D01*
G01*
G37*
D26*
X232690000Y-33655000D03*
X231430000Y-36195000D03*
X230150000Y-33655000D03*
X228890000Y-36195000D03*
X227610000Y-33655000D03*
X226350000Y-36195000D03*
X225070000Y-33655000D03*
X223810000Y-36195000D03*
X222530000Y-33655000D03*
D27*
X234875000Y-22405000D03*
X232335000Y-22405000D03*
X224165000Y-22405000D03*
X221625000Y-22405000D03*
D28*
X235995000Y-30355000D03*
X220505000Y-30355000D03*
D13*
X256775000Y-25000000D03*
X257719581Y-22719581D03*
X257719581Y-27280419D03*
X260000000Y-21775000D03*
D14*
X260000000Y-25000000D03*
D13*
X260000000Y-28225000D03*
X262280419Y-22719581D03*
X262280419Y-27280419D03*
X263225000Y-25000000D03*
G36*
G01*
X192814000Y-102159750D02*
X192814000Y-103072250D01*
G75*
G02*
X192570250Y-103316000I-243750J0D01*
G01*
X192082750Y-103316000D01*
G75*
G02*
X191839000Y-103072250I0J243750D01*
G01*
X191839000Y-102159750D01*
G75*
G02*
X192082750Y-101916000I243750J0D01*
G01*
X192570250Y-101916000D01*
G75*
G02*
X192814000Y-102159750I0J-243750D01*
G01*
G37*
G36*
G01*
X190939000Y-102159750D02*
X190939000Y-103072250D01*
G75*
G02*
X190695250Y-103316000I-243750J0D01*
G01*
X190207750Y-103316000D01*
G75*
G02*
X189964000Y-103072250I0J243750D01*
G01*
X189964000Y-102159750D01*
G75*
G02*
X190207750Y-101916000I243750J0D01*
G01*
X190695250Y-101916000D01*
G75*
G02*
X190939000Y-102159750I0J-243750D01*
G01*
G37*
G36*
G01*
X236150000Y-115725000D02*
X236150000Y-114275000D01*
G75*
G02*
X236400000Y-114025000I250000J0D01*
G01*
X237600000Y-114025000D01*
G75*
G02*
X237850000Y-114275000I0J-250000D01*
G01*
X237850000Y-115725000D01*
G75*
G02*
X237600000Y-115975000I-250000J0D01*
G01*
X236400000Y-115975000D01*
G75*
G02*
X236150000Y-115725000I0J250000D01*
G01*
G37*
D16*
X239500000Y-115000000D03*
X242000000Y-115000000D03*
X244500000Y-115000000D03*
X247000000Y-115000000D03*
D10*
X262800000Y-47425000D03*
D11*
X262800000Y-49965000D03*
X262800000Y-52505000D03*
X262800000Y-55045000D03*
X262800000Y-57585000D03*
G36*
G01*
X236760000Y-38580000D02*
X236760000Y-38920000D01*
G75*
G02*
X236620000Y-39060000I-140000J0D01*
G01*
X236340000Y-39060000D01*
G75*
G02*
X236200000Y-38920000I0J140000D01*
G01*
X236200000Y-38580000D01*
G75*
G02*
X236340000Y-38440000I140000J0D01*
G01*
X236620000Y-38440000D01*
G75*
G02*
X236760000Y-38580000I0J-140000D01*
G01*
G37*
G36*
G01*
X235800000Y-38580000D02*
X235800000Y-38920000D01*
G75*
G02*
X235660000Y-39060000I-140000J0D01*
G01*
X235380000Y-39060000D01*
G75*
G02*
X235240000Y-38920000I0J140000D01*
G01*
X235240000Y-38580000D01*
G75*
G02*
X235380000Y-38440000I140000J0D01*
G01*
X235660000Y-38440000D01*
G75*
G02*
X235800000Y-38580000I0J-140000D01*
G01*
G37*
G36*
G01*
X159660000Y-96856000D02*
X159110000Y-96856000D01*
G75*
G02*
X158910000Y-96656000I0J200000D01*
G01*
X158910000Y-96256000D01*
G75*
G02*
X159110000Y-96056000I200000J0D01*
G01*
X159660000Y-96056000D01*
G75*
G02*
X159860000Y-96256000I0J-200000D01*
G01*
X159860000Y-96656000D01*
G75*
G02*
X159660000Y-96856000I-200000J0D01*
G01*
G37*
G36*
G01*
X159660000Y-95206000D02*
X159110000Y-95206000D01*
G75*
G02*
X158910000Y-95006000I0J200000D01*
G01*
X158910000Y-94606000D01*
G75*
G02*
X159110000Y-94406000I200000J0D01*
G01*
X159660000Y-94406000D01*
G75*
G02*
X159860000Y-94606000I0J-200000D01*
G01*
X159860000Y-95006000D01*
G75*
G02*
X159660000Y-95206000I-200000J0D01*
G01*
G37*
G36*
G01*
X192220000Y-93548000D02*
X191320000Y-93548000D01*
G75*
G02*
X191070000Y-93298000I0J250000D01*
G01*
X191070000Y-92598000D01*
G75*
G02*
X191320000Y-92348000I250000J0D01*
G01*
X192220000Y-92348000D01*
G75*
G02*
X192470000Y-92598000I0J-250000D01*
G01*
X192470000Y-93298000D01*
G75*
G02*
X192220000Y-93548000I-250000J0D01*
G01*
G37*
G36*
G01*
X192220000Y-91548000D02*
X191320000Y-91548000D01*
G75*
G02*
X191070000Y-91298000I0J250000D01*
G01*
X191070000Y-90598000D01*
G75*
G02*
X191320000Y-90348000I250000J0D01*
G01*
X192220000Y-90348000D01*
G75*
G02*
X192470000Y-90598000I0J-250000D01*
G01*
X192470000Y-91298000D01*
G75*
G02*
X192220000Y-91548000I-250000J0D01*
G01*
G37*
G36*
G01*
X218670000Y-37660000D02*
X218330000Y-37660000D01*
G75*
G02*
X218190000Y-37520000I0J140000D01*
G01*
X218190000Y-37240000D01*
G75*
G02*
X218330000Y-37100000I140000J0D01*
G01*
X218670000Y-37100000D01*
G75*
G02*
X218810000Y-37240000I0J-140000D01*
G01*
X218810000Y-37520000D01*
G75*
G02*
X218670000Y-37660000I-140000J0D01*
G01*
G37*
G36*
G01*
X218670000Y-36700000D02*
X218330000Y-36700000D01*
G75*
G02*
X218190000Y-36560000I0J140000D01*
G01*
X218190000Y-36280000D01*
G75*
G02*
X218330000Y-36140000I140000J0D01*
G01*
X218670000Y-36140000D01*
G75*
G02*
X218810000Y-36280000I0J-140000D01*
G01*
X218810000Y-36560000D01*
G75*
G02*
X218670000Y-36700000I-140000J0D01*
G01*
G37*
G36*
G01*
X195775000Y-53975000D02*
X195225000Y-53975000D01*
G75*
G02*
X195025000Y-53775000I0J200000D01*
G01*
X195025000Y-53375000D01*
G75*
G02*
X195225000Y-53175000I200000J0D01*
G01*
X195775000Y-53175000D01*
G75*
G02*
X195975000Y-53375000I0J-200000D01*
G01*
X195975000Y-53775000D01*
G75*
G02*
X195775000Y-53975000I-200000J0D01*
G01*
G37*
G36*
G01*
X195775000Y-52325000D02*
X195225000Y-52325000D01*
G75*
G02*
X195025000Y-52125000I0J200000D01*
G01*
X195025000Y-51725000D01*
G75*
G02*
X195225000Y-51525000I200000J0D01*
G01*
X195775000Y-51525000D01*
G75*
G02*
X195975000Y-51725000I0J-200000D01*
G01*
X195975000Y-52125000D01*
G75*
G02*
X195775000Y-52325000I-200000J0D01*
G01*
G37*
G36*
G01*
X261755000Y-32050000D02*
X262055000Y-32050000D01*
G75*
G02*
X262205000Y-32200000I0J-150000D01*
G01*
X262205000Y-33850000D01*
G75*
G02*
X262055000Y-34000000I-150000J0D01*
G01*
X261755000Y-34000000D01*
G75*
G02*
X261605000Y-33850000I0J150000D01*
G01*
X261605000Y-32200000D01*
G75*
G02*
X261755000Y-32050000I150000J0D01*
G01*
G37*
G36*
G01*
X260485000Y-32050000D02*
X260785000Y-32050000D01*
G75*
G02*
X260935000Y-32200000I0J-150000D01*
G01*
X260935000Y-33850000D01*
G75*
G02*
X260785000Y-34000000I-150000J0D01*
G01*
X260485000Y-34000000D01*
G75*
G02*
X260335000Y-33850000I0J150000D01*
G01*
X260335000Y-32200000D01*
G75*
G02*
X260485000Y-32050000I150000J0D01*
G01*
G37*
G36*
G01*
X259215000Y-32050000D02*
X259515000Y-32050000D01*
G75*
G02*
X259665000Y-32200000I0J-150000D01*
G01*
X259665000Y-33850000D01*
G75*
G02*
X259515000Y-34000000I-150000J0D01*
G01*
X259215000Y-34000000D01*
G75*
G02*
X259065000Y-33850000I0J150000D01*
G01*
X259065000Y-32200000D01*
G75*
G02*
X259215000Y-32050000I150000J0D01*
G01*
G37*
G36*
G01*
X257945000Y-32050000D02*
X258245000Y-32050000D01*
G75*
G02*
X258395000Y-32200000I0J-150000D01*
G01*
X258395000Y-33850000D01*
G75*
G02*
X258245000Y-34000000I-150000J0D01*
G01*
X257945000Y-34000000D01*
G75*
G02*
X257795000Y-33850000I0J150000D01*
G01*
X257795000Y-32200000D01*
G75*
G02*
X257945000Y-32050000I150000J0D01*
G01*
G37*
G36*
G01*
X257945000Y-37000000D02*
X258245000Y-37000000D01*
G75*
G02*
X258395000Y-37150000I0J-150000D01*
G01*
X258395000Y-38800000D01*
G75*
G02*
X258245000Y-38950000I-150000J0D01*
G01*
X257945000Y-38950000D01*
G75*
G02*
X257795000Y-38800000I0J150000D01*
G01*
X257795000Y-37150000D01*
G75*
G02*
X257945000Y-37000000I150000J0D01*
G01*
G37*
G36*
G01*
X259215000Y-37000000D02*
X259515000Y-37000000D01*
G75*
G02*
X259665000Y-37150000I0J-150000D01*
G01*
X259665000Y-38800000D01*
G75*
G02*
X259515000Y-38950000I-150000J0D01*
G01*
X259215000Y-38950000D01*
G75*
G02*
X259065000Y-38800000I0J150000D01*
G01*
X259065000Y-37150000D01*
G75*
G02*
X259215000Y-37000000I150000J0D01*
G01*
G37*
G36*
G01*
X260485000Y-37000000D02*
X260785000Y-37000000D01*
G75*
G02*
X260935000Y-37150000I0J-150000D01*
G01*
X260935000Y-38800000D01*
G75*
G02*
X260785000Y-38950000I-150000J0D01*
G01*
X260485000Y-38950000D01*
G75*
G02*
X260335000Y-38800000I0J150000D01*
G01*
X260335000Y-37150000D01*
G75*
G02*
X260485000Y-37000000I150000J0D01*
G01*
G37*
G36*
G01*
X261755000Y-37000000D02*
X262055000Y-37000000D01*
G75*
G02*
X262205000Y-37150000I0J-150000D01*
G01*
X262205000Y-38800000D01*
G75*
G02*
X262055000Y-38950000I-150000J0D01*
G01*
X261755000Y-38950000D01*
G75*
G02*
X261605000Y-38800000I0J150000D01*
G01*
X261605000Y-37150000D01*
G75*
G02*
X261755000Y-37000000I150000J0D01*
G01*
G37*
G36*
G01*
X187282000Y-29339000D02*
X187622000Y-29339000D01*
G75*
G02*
X187762000Y-29479000I0J-140000D01*
G01*
X187762000Y-29759000D01*
G75*
G02*
X187622000Y-29899000I-140000J0D01*
G01*
X187282000Y-29899000D01*
G75*
G02*
X187142000Y-29759000I0J140000D01*
G01*
X187142000Y-29479000D01*
G75*
G02*
X187282000Y-29339000I140000J0D01*
G01*
G37*
G36*
G01*
X187282000Y-30299000D02*
X187622000Y-30299000D01*
G75*
G02*
X187762000Y-30439000I0J-140000D01*
G01*
X187762000Y-30719000D01*
G75*
G02*
X187622000Y-30859000I-140000J0D01*
G01*
X187282000Y-30859000D01*
G75*
G02*
X187142000Y-30719000I0J140000D01*
G01*
X187142000Y-30439000D01*
G75*
G02*
X187282000Y-30299000I140000J0D01*
G01*
G37*
G36*
G01*
X244480000Y-35965000D02*
X244480000Y-36335000D01*
G75*
G02*
X244345000Y-36470000I-135000J0D01*
G01*
X244075000Y-36470000D01*
G75*
G02*
X243940000Y-36335000I0J135000D01*
G01*
X243940000Y-35965000D01*
G75*
G02*
X244075000Y-35830000I135000J0D01*
G01*
X244345000Y-35830000D01*
G75*
G02*
X244480000Y-35965000I0J-135000D01*
G01*
G37*
G36*
G01*
X243460000Y-35965000D02*
X243460000Y-36335000D01*
G75*
G02*
X243325000Y-36470000I-135000J0D01*
G01*
X243055000Y-36470000D01*
G75*
G02*
X242920000Y-36335000I0J135000D01*
G01*
X242920000Y-35965000D01*
G75*
G02*
X243055000Y-35830000I135000J0D01*
G01*
X243325000Y-35830000D01*
G75*
G02*
X243460000Y-35965000I0J-135000D01*
G01*
G37*
D29*
X170637000Y-99441000D03*
X180137000Y-99441000D03*
D30*
X179451000Y-113030000D03*
D31*
X184531000Y-113030000D03*
G36*
G01*
X193775000Y-69275000D02*
X193775000Y-68725000D01*
G75*
G02*
X193975000Y-68525000I200000J0D01*
G01*
X194375000Y-68525000D01*
G75*
G02*
X194575000Y-68725000I0J-200000D01*
G01*
X194575000Y-69275000D01*
G75*
G02*
X194375000Y-69475000I-200000J0D01*
G01*
X193975000Y-69475000D01*
G75*
G02*
X193775000Y-69275000I0J200000D01*
G01*
G37*
G36*
G01*
X195425000Y-69275000D02*
X195425000Y-68725000D01*
G75*
G02*
X195625000Y-68525000I200000J0D01*
G01*
X196025000Y-68525000D01*
G75*
G02*
X196225000Y-68725000I0J-200000D01*
G01*
X196225000Y-69275000D01*
G75*
G02*
X196025000Y-69475000I-200000J0D01*
G01*
X195625000Y-69475000D01*
G75*
G02*
X195425000Y-69275000I0J200000D01*
G01*
G37*
G36*
G01*
X192814000Y-104960000D02*
X192814000Y-105860000D01*
G75*
G02*
X192564000Y-106110000I-250000J0D01*
G01*
X192039000Y-106110000D01*
G75*
G02*
X191789000Y-105860000I0J250000D01*
G01*
X191789000Y-104960000D01*
G75*
G02*
X192039000Y-104710000I250000J0D01*
G01*
X192564000Y-104710000D01*
G75*
G02*
X192814000Y-104960000I0J-250000D01*
G01*
G37*
G36*
G01*
X190989000Y-104960000D02*
X190989000Y-105860000D01*
G75*
G02*
X190739000Y-106110000I-250000J0D01*
G01*
X190214000Y-106110000D01*
G75*
G02*
X189964000Y-105860000I0J250000D01*
G01*
X189964000Y-104960000D01*
G75*
G02*
X190214000Y-104710000I250000J0D01*
G01*
X190739000Y-104710000D01*
G75*
G02*
X190989000Y-104960000I0J-250000D01*
G01*
G37*
G36*
G01*
X157900000Y-81225000D02*
X157900000Y-79775000D01*
G75*
G02*
X158150000Y-79525000I250000J0D01*
G01*
X159350000Y-79525000D01*
G75*
G02*
X159600000Y-79775000I0J-250000D01*
G01*
X159600000Y-81225000D01*
G75*
G02*
X159350000Y-81475000I-250000J0D01*
G01*
X158150000Y-81475000D01*
G75*
G02*
X157900000Y-81225000I0J250000D01*
G01*
G37*
D16*
X161250000Y-80500000D03*
X163750000Y-80500000D03*
X166250000Y-80500000D03*
G36*
G01*
X244458000Y-37946000D02*
X244458000Y-38286000D01*
G75*
G02*
X244318000Y-38426000I-140000J0D01*
G01*
X244038000Y-38426000D01*
G75*
G02*
X243898000Y-38286000I0J140000D01*
G01*
X243898000Y-37946000D01*
G75*
G02*
X244038000Y-37806000I140000J0D01*
G01*
X244318000Y-37806000D01*
G75*
G02*
X244458000Y-37946000I0J-140000D01*
G01*
G37*
G36*
G01*
X243498000Y-37946000D02*
X243498000Y-38286000D01*
G75*
G02*
X243358000Y-38426000I-140000J0D01*
G01*
X243078000Y-38426000D01*
G75*
G02*
X242938000Y-38286000I0J140000D01*
G01*
X242938000Y-37946000D01*
G75*
G02*
X243078000Y-37806000I140000J0D01*
G01*
X243358000Y-37806000D01*
G75*
G02*
X243498000Y-37946000I0J-140000D01*
G01*
G37*
G36*
G01*
X263685000Y-36780000D02*
X263315000Y-36780000D01*
G75*
G02*
X263180000Y-36645000I0J135000D01*
G01*
X263180000Y-36375000D01*
G75*
G02*
X263315000Y-36240000I135000J0D01*
G01*
X263685000Y-36240000D01*
G75*
G02*
X263820000Y-36375000I0J-135000D01*
G01*
X263820000Y-36645000D01*
G75*
G02*
X263685000Y-36780000I-135000J0D01*
G01*
G37*
G36*
G01*
X263685000Y-35760000D02*
X263315000Y-35760000D01*
G75*
G02*
X263180000Y-35625000I0J135000D01*
G01*
X263180000Y-35355000D01*
G75*
G02*
X263315000Y-35220000I135000J0D01*
G01*
X263685000Y-35220000D01*
G75*
G02*
X263820000Y-35355000I0J-135000D01*
G01*
X263820000Y-35625000D01*
G75*
G02*
X263685000Y-35760000I-135000J0D01*
G01*
G37*
G36*
G01*
X158136000Y-102190000D02*
X157586000Y-102190000D01*
G75*
G02*
X157386000Y-101990000I0J200000D01*
G01*
X157386000Y-101590000D01*
G75*
G02*
X157586000Y-101390000I200000J0D01*
G01*
X158136000Y-101390000D01*
G75*
G02*
X158336000Y-101590000I0J-200000D01*
G01*
X158336000Y-101990000D01*
G75*
G02*
X158136000Y-102190000I-200000J0D01*
G01*
G37*
G36*
G01*
X158136000Y-100540000D02*
X157586000Y-100540000D01*
G75*
G02*
X157386000Y-100340000I0J200000D01*
G01*
X157386000Y-99940000D01*
G75*
G02*
X157586000Y-99740000I200000J0D01*
G01*
X158136000Y-99740000D01*
G75*
G02*
X158336000Y-99940000I0J-200000D01*
G01*
X158336000Y-100340000D01*
G75*
G02*
X158136000Y-100540000I-200000J0D01*
G01*
G37*
D25*
X203035000Y-27305000D03*
X214465000Y-27305000D03*
G36*
G01*
X213669000Y-36894000D02*
X213669000Y-35496000D01*
G75*
G02*
X213771000Y-35394000I102000J0D01*
G01*
X215169000Y-35394000D01*
G75*
G02*
X215271000Y-35496000I0J-102000D01*
G01*
X215271000Y-36894000D01*
G75*
G02*
X215169000Y-36996000I-102000J0D01*
G01*
X213771000Y-36996000D01*
G75*
G02*
X213669000Y-36894000I0J102000D01*
G01*
G37*
D26*
X213190000Y-33655000D03*
X211930000Y-36195000D03*
X210650000Y-33655000D03*
X209390000Y-36195000D03*
X208110000Y-33655000D03*
X206850000Y-36195000D03*
X205570000Y-33655000D03*
X204310000Y-36195000D03*
X203030000Y-33655000D03*
D27*
X215375000Y-22405000D03*
X212835000Y-22405000D03*
X204665000Y-22405000D03*
X202125000Y-22405000D03*
D28*
X216495000Y-30355000D03*
X201005000Y-30355000D03*
D10*
X185160000Y-34820000D03*
D11*
X187700000Y-34820000D03*
X185160000Y-37360000D03*
X187700000Y-37360000D03*
X185160000Y-39900000D03*
X187700000Y-39900000D03*
X185160000Y-42440000D03*
X187700000Y-42440000D03*
X185160000Y-44980000D03*
X187700000Y-44980000D03*
X185160000Y-47520000D03*
X187700000Y-47520000D03*
X185160000Y-50060000D03*
X187700000Y-50060000D03*
X185160000Y-52600000D03*
X187700000Y-52600000D03*
G36*
G01*
X164800000Y-55325000D02*
X165100000Y-55325000D01*
G75*
G02*
X165250000Y-55475000I0J-150000D01*
G01*
X165250000Y-56650000D01*
G75*
G02*
X165100000Y-56800000I-150000J0D01*
G01*
X164800000Y-56800000D01*
G75*
G02*
X164650000Y-56650000I0J150000D01*
G01*
X164650000Y-55475000D01*
G75*
G02*
X164800000Y-55325000I150000J0D01*
G01*
G37*
G36*
G01*
X162900000Y-55325000D02*
X163200000Y-55325000D01*
G75*
G02*
X163350000Y-55475000I0J-150000D01*
G01*
X163350000Y-56650000D01*
G75*
G02*
X163200000Y-56800000I-150000J0D01*
G01*
X162900000Y-56800000D01*
G75*
G02*
X162750000Y-56650000I0J150000D01*
G01*
X162750000Y-55475000D01*
G75*
G02*
X162900000Y-55325000I150000J0D01*
G01*
G37*
G36*
G01*
X163850000Y-57200000D02*
X164150000Y-57200000D01*
G75*
G02*
X164300000Y-57350000I0J-150000D01*
G01*
X164300000Y-58525000D01*
G75*
G02*
X164150000Y-58675000I-150000J0D01*
G01*
X163850000Y-58675000D01*
G75*
G02*
X163700000Y-58525000I0J150000D01*
G01*
X163700000Y-57350000D01*
G75*
G02*
X163850000Y-57200000I150000J0D01*
G01*
G37*
D10*
X180200000Y-92075000D03*
D11*
X180200000Y-89535000D03*
G36*
G01*
X242920000Y-37335000D02*
X242920000Y-36965000D01*
G75*
G02*
X243055000Y-36830000I135000J0D01*
G01*
X243325000Y-36830000D01*
G75*
G02*
X243460000Y-36965000I0J-135000D01*
G01*
X243460000Y-37335000D01*
G75*
G02*
X243325000Y-37470000I-135000J0D01*
G01*
X243055000Y-37470000D01*
G75*
G02*
X242920000Y-37335000I0J135000D01*
G01*
G37*
G36*
G01*
X243940000Y-37335000D02*
X243940000Y-36965000D01*
G75*
G02*
X244075000Y-36830000I135000J0D01*
G01*
X244345000Y-36830000D01*
G75*
G02*
X244480000Y-36965000I0J-135000D01*
G01*
X244480000Y-37335000D01*
G75*
G02*
X244345000Y-37470000I-135000J0D01*
G01*
X244075000Y-37470000D01*
G75*
G02*
X243940000Y-37335000I0J135000D01*
G01*
G37*
D13*
X256775000Y-115500000D03*
X257719581Y-113219581D03*
X257719581Y-117780419D03*
X260000000Y-112275000D03*
D14*
X260000000Y-115500000D03*
D13*
X260000000Y-118725000D03*
X262280419Y-113219581D03*
X262280419Y-117780419D03*
X263225000Y-115500000D03*
G36*
G01*
X195775000Y-61975000D02*
X195225000Y-61975000D01*
G75*
G02*
X195025000Y-61775000I0J200000D01*
G01*
X195025000Y-61375000D01*
G75*
G02*
X195225000Y-61175000I200000J0D01*
G01*
X195775000Y-61175000D01*
G75*
G02*
X195975000Y-61375000I0J-200000D01*
G01*
X195975000Y-61775000D01*
G75*
G02*
X195775000Y-61975000I-200000J0D01*
G01*
G37*
G36*
G01*
X195775000Y-60325000D02*
X195225000Y-60325000D01*
G75*
G02*
X195025000Y-60125000I0J200000D01*
G01*
X195025000Y-59725000D01*
G75*
G02*
X195225000Y-59525000I200000J0D01*
G01*
X195775000Y-59525000D01*
G75*
G02*
X195975000Y-59725000I0J-200000D01*
G01*
X195975000Y-60125000D01*
G75*
G02*
X195775000Y-60325000I-200000J0D01*
G01*
G37*
G36*
G01*
X171185000Y-32080000D02*
X170815000Y-32080000D01*
G75*
G02*
X170680000Y-31945000I0J135000D01*
G01*
X170680000Y-31675000D01*
G75*
G02*
X170815000Y-31540000I135000J0D01*
G01*
X171185000Y-31540000D01*
G75*
G02*
X171320000Y-31675000I0J-135000D01*
G01*
X171320000Y-31945000D01*
G75*
G02*
X171185000Y-32080000I-135000J0D01*
G01*
G37*
G36*
G01*
X171185000Y-31060000D02*
X170815000Y-31060000D01*
G75*
G02*
X170680000Y-30925000I0J135000D01*
G01*
X170680000Y-30655000D01*
G75*
G02*
X170815000Y-30520000I135000J0D01*
G01*
X171185000Y-30520000D01*
G75*
G02*
X171320000Y-30655000I0J-135000D01*
G01*
X171320000Y-30925000D01*
G75*
G02*
X171185000Y-31060000I-135000J0D01*
G01*
G37*
G36*
G01*
X165739000Y-94406000D02*
X166239000Y-94406000D01*
G75*
G02*
X166464000Y-94631000I0J-225000D01*
G01*
X166464000Y-95081000D01*
G75*
G02*
X166239000Y-95306000I-225000J0D01*
G01*
X165739000Y-95306000D01*
G75*
G02*
X165514000Y-95081000I0J225000D01*
G01*
X165514000Y-94631000D01*
G75*
G02*
X165739000Y-94406000I225000J0D01*
G01*
G37*
G36*
G01*
X165739000Y-95956000D02*
X166239000Y-95956000D01*
G75*
G02*
X166464000Y-96181000I0J-225000D01*
G01*
X166464000Y-96631000D01*
G75*
G02*
X166239000Y-96856000I-225000J0D01*
G01*
X165739000Y-96856000D01*
G75*
G02*
X165514000Y-96631000I0J225000D01*
G01*
X165514000Y-96181000D01*
G75*
G02*
X165739000Y-95956000I225000J0D01*
G01*
G37*
D32*
X159500000Y-33500000D03*
X159500000Y-64500000D03*
X179250000Y-64500000D03*
X179499999Y-33500000D03*
D10*
X175600000Y-63480000D03*
D11*
X173060000Y-63480000D03*
X170520000Y-63480000D03*
X167980000Y-63480000D03*
X165440000Y-63480000D03*
X162900000Y-63480000D03*
X175599999Y-66020000D03*
X173060000Y-66020000D03*
X170520000Y-66020000D03*
X167980000Y-66020000D03*
X165440000Y-66020001D03*
X162900000Y-66020000D03*
G36*
G01*
X157398000Y-98929000D02*
X157398000Y-98429000D01*
G75*
G02*
X157623000Y-98204000I225000J0D01*
G01*
X158073000Y-98204000D01*
G75*
G02*
X158298000Y-98429000I0J-225000D01*
G01*
X158298000Y-98929000D01*
G75*
G02*
X158073000Y-99154000I-225000J0D01*
G01*
X157623000Y-99154000D01*
G75*
G02*
X157398000Y-98929000I0J225000D01*
G01*
G37*
G36*
G01*
X158948000Y-98929000D02*
X158948000Y-98429000D01*
G75*
G02*
X159173000Y-98204000I225000J0D01*
G01*
X159623000Y-98204000D01*
G75*
G02*
X159848000Y-98429000I0J-225000D01*
G01*
X159848000Y-98929000D01*
G75*
G02*
X159623000Y-99154000I-225000J0D01*
G01*
X159173000Y-99154000D01*
G75*
G02*
X158948000Y-98929000I0J225000D01*
G01*
G37*
G36*
G01*
X193775000Y-67775000D02*
X193775000Y-67225000D01*
G75*
G02*
X193975000Y-67025000I200000J0D01*
G01*
X194375000Y-67025000D01*
G75*
G02*
X194575000Y-67225000I0J-200000D01*
G01*
X194575000Y-67775000D01*
G75*
G02*
X194375000Y-67975000I-200000J0D01*
G01*
X193975000Y-67975000D01*
G75*
G02*
X193775000Y-67775000I0J200000D01*
G01*
G37*
G36*
G01*
X195425000Y-67775000D02*
X195425000Y-67225000D01*
G75*
G02*
X195625000Y-67025000I200000J0D01*
G01*
X196025000Y-67025000D01*
G75*
G02*
X196225000Y-67225000I0J-200000D01*
G01*
X196225000Y-67775000D01*
G75*
G02*
X196025000Y-67975000I-200000J0D01*
G01*
X195625000Y-67975000D01*
G75*
G02*
X195425000Y-67775000I0J200000D01*
G01*
G37*
G36*
G01*
X171130000Y-45090000D02*
X171470000Y-45090000D01*
G75*
G02*
X171610000Y-45230000I0J-140000D01*
G01*
X171610000Y-45510000D01*
G75*
G02*
X171470000Y-45650000I-140000J0D01*
G01*
X171130000Y-45650000D01*
G75*
G02*
X170990000Y-45510000I0J140000D01*
G01*
X170990000Y-45230000D01*
G75*
G02*
X171130000Y-45090000I140000J0D01*
G01*
G37*
G36*
G01*
X171130000Y-46050000D02*
X171470000Y-46050000D01*
G75*
G02*
X171610000Y-46190000I0J-140000D01*
G01*
X171610000Y-46470000D01*
G75*
G02*
X171470000Y-46610000I-140000J0D01*
G01*
X171130000Y-46610000D01*
G75*
G02*
X170990000Y-46470000I0J140000D01*
G01*
X170990000Y-46190000D01*
G75*
G02*
X171130000Y-46050000I140000J0D01*
G01*
G37*
D33*
X203420000Y-41047000D03*
D34*
X203420000Y-107847000D03*
D35*
X260220000Y-63647000D03*
X260220000Y-96647000D03*
G36*
G01*
X198218000Y-42972000D02*
X198218000Y-42622000D01*
G75*
G02*
X198320000Y-42520000I102000J0D01*
G01*
X200320000Y-42520000D01*
G75*
G02*
X200422000Y-42622000I0J-102000D01*
G01*
X200422000Y-42972000D01*
G75*
G02*
X200320000Y-43074000I-102000J0D01*
G01*
X198320000Y-43074000D01*
G75*
G02*
X198218000Y-42972000I0J102000D01*
G01*
G37*
G36*
G01*
X206418000Y-43272000D02*
X206418000Y-42922000D01*
G75*
G02*
X206520000Y-42820000I102000J0D01*
G01*
X208520000Y-42820000D01*
G75*
G02*
X208622000Y-42922000I0J-102000D01*
G01*
X208622000Y-43272000D01*
G75*
G02*
X208520000Y-43374000I-102000J0D01*
G01*
X206520000Y-43374000D01*
G75*
G02*
X206418000Y-43272000I0J102000D01*
G01*
G37*
G36*
G01*
X198218000Y-43572000D02*
X198218000Y-43222000D01*
G75*
G02*
X198320000Y-43120000I102000J0D01*
G01*
X200320000Y-43120000D01*
G75*
G02*
X200422000Y-43222000I0J-102000D01*
G01*
X200422000Y-43572000D01*
G75*
G02*
X200320000Y-43674000I-102000J0D01*
G01*
X198320000Y-43674000D01*
G75*
G02*
X198218000Y-43572000I0J102000D01*
G01*
G37*
G36*
G01*
X206418000Y-43872000D02*
X206418000Y-43522000D01*
G75*
G02*
X206520000Y-43420000I102000J0D01*
G01*
X208520000Y-43420000D01*
G75*
G02*
X208622000Y-43522000I0J-102000D01*
G01*
X208622000Y-43872000D01*
G75*
G02*
X208520000Y-43974000I-102000J0D01*
G01*
X206520000Y-43974000D01*
G75*
G02*
X206418000Y-43872000I0J102000D01*
G01*
G37*
G36*
G01*
X198218000Y-44172000D02*
X198218000Y-43822000D01*
G75*
G02*
X198320000Y-43720000I102000J0D01*
G01*
X200320000Y-43720000D01*
G75*
G02*
X200422000Y-43822000I0J-102000D01*
G01*
X200422000Y-44172000D01*
G75*
G02*
X200320000Y-44274000I-102000J0D01*
G01*
X198320000Y-44274000D01*
G75*
G02*
X198218000Y-44172000I0J102000D01*
G01*
G37*
G36*
G01*
X206418000Y-44472000D02*
X206418000Y-44122000D01*
G75*
G02*
X206520000Y-44020000I102000J0D01*
G01*
X208520000Y-44020000D01*
G75*
G02*
X208622000Y-44122000I0J-102000D01*
G01*
X208622000Y-44472000D01*
G75*
G02*
X208520000Y-44574000I-102000J0D01*
G01*
X206520000Y-44574000D01*
G75*
G02*
X206418000Y-44472000I0J102000D01*
G01*
G37*
G36*
G01*
X198218000Y-44772000D02*
X198218000Y-44422000D01*
G75*
G02*
X198320000Y-44320000I102000J0D01*
G01*
X200320000Y-44320000D01*
G75*
G02*
X200422000Y-44422000I0J-102000D01*
G01*
X200422000Y-44772000D01*
G75*
G02*
X200320000Y-44874000I-102000J0D01*
G01*
X198320000Y-44874000D01*
G75*
G02*
X198218000Y-44772000I0J102000D01*
G01*
G37*
G36*
G01*
X206418000Y-45072000D02*
X206418000Y-44722000D01*
G75*
G02*
X206520000Y-44620000I102000J0D01*
G01*
X208520000Y-44620000D01*
G75*
G02*
X208622000Y-44722000I0J-102000D01*
G01*
X208622000Y-45072000D01*
G75*
G02*
X208520000Y-45174000I-102000J0D01*
G01*
X206520000Y-45174000D01*
G75*
G02*
X206418000Y-45072000I0J102000D01*
G01*
G37*
G36*
G01*
X198218000Y-45372000D02*
X198218000Y-45022000D01*
G75*
G02*
X198320000Y-44920000I102000J0D01*
G01*
X200320000Y-44920000D01*
G75*
G02*
X200422000Y-45022000I0J-102000D01*
G01*
X200422000Y-45372000D01*
G75*
G02*
X200320000Y-45474000I-102000J0D01*
G01*
X198320000Y-45474000D01*
G75*
G02*
X198218000Y-45372000I0J102000D01*
G01*
G37*
G36*
G01*
X206418000Y-45672000D02*
X206418000Y-45322000D01*
G75*
G02*
X206520000Y-45220000I102000J0D01*
G01*
X208520000Y-45220000D01*
G75*
G02*
X208622000Y-45322000I0J-102000D01*
G01*
X208622000Y-45672000D01*
G75*
G02*
X208520000Y-45774000I-102000J0D01*
G01*
X206520000Y-45774000D01*
G75*
G02*
X206418000Y-45672000I0J102000D01*
G01*
G37*
G36*
G01*
X198218000Y-45972000D02*
X198218000Y-45622000D01*
G75*
G02*
X198320000Y-45520000I102000J0D01*
G01*
X200320000Y-45520000D01*
G75*
G02*
X200422000Y-45622000I0J-102000D01*
G01*
X200422000Y-45972000D01*
G75*
G02*
X200320000Y-46074000I-102000J0D01*
G01*
X198320000Y-46074000D01*
G75*
G02*
X198218000Y-45972000I0J102000D01*
G01*
G37*
G36*
G01*
X206418000Y-46272000D02*
X206418000Y-45922000D01*
G75*
G02*
X206520000Y-45820000I102000J0D01*
G01*
X208520000Y-45820000D01*
G75*
G02*
X208622000Y-45922000I0J-102000D01*
G01*
X208622000Y-46272000D01*
G75*
G02*
X208520000Y-46374000I-102000J0D01*
G01*
X206520000Y-46374000D01*
G75*
G02*
X206418000Y-46272000I0J102000D01*
G01*
G37*
G36*
G01*
X198218000Y-46572000D02*
X198218000Y-46222000D01*
G75*
G02*
X198320000Y-46120000I102000J0D01*
G01*
X200320000Y-46120000D01*
G75*
G02*
X200422000Y-46222000I0J-102000D01*
G01*
X200422000Y-46572000D01*
G75*
G02*
X200320000Y-46674000I-102000J0D01*
G01*
X198320000Y-46674000D01*
G75*
G02*
X198218000Y-46572000I0J102000D01*
G01*
G37*
G36*
G01*
X206418000Y-46872000D02*
X206418000Y-46522000D01*
G75*
G02*
X206520000Y-46420000I102000J0D01*
G01*
X208520000Y-46420000D01*
G75*
G02*
X208622000Y-46522000I0J-102000D01*
G01*
X208622000Y-46872000D01*
G75*
G02*
X208520000Y-46974000I-102000J0D01*
G01*
X206520000Y-46974000D01*
G75*
G02*
X206418000Y-46872000I0J102000D01*
G01*
G37*
G36*
G01*
X198218000Y-47172000D02*
X198218000Y-46822000D01*
G75*
G02*
X198320000Y-46720000I102000J0D01*
G01*
X200320000Y-46720000D01*
G75*
G02*
X200422000Y-46822000I0J-102000D01*
G01*
X200422000Y-47172000D01*
G75*
G02*
X200320000Y-47274000I-102000J0D01*
G01*
X198320000Y-47274000D01*
G75*
G02*
X198218000Y-47172000I0J102000D01*
G01*
G37*
G36*
G01*
X206418000Y-47472000D02*
X206418000Y-47122000D01*
G75*
G02*
X206520000Y-47020000I102000J0D01*
G01*
X208520000Y-47020000D01*
G75*
G02*
X208622000Y-47122000I0J-102000D01*
G01*
X208622000Y-47472000D01*
G75*
G02*
X208520000Y-47574000I-102000J0D01*
G01*
X206520000Y-47574000D01*
G75*
G02*
X206418000Y-47472000I0J102000D01*
G01*
G37*
G36*
G01*
X198218000Y-47772000D02*
X198218000Y-47422000D01*
G75*
G02*
X198320000Y-47320000I102000J0D01*
G01*
X200320000Y-47320000D01*
G75*
G02*
X200422000Y-47422000I0J-102000D01*
G01*
X200422000Y-47772000D01*
G75*
G02*
X200320000Y-47874000I-102000J0D01*
G01*
X198320000Y-47874000D01*
G75*
G02*
X198218000Y-47772000I0J102000D01*
G01*
G37*
G36*
G01*
X206418000Y-48072000D02*
X206418000Y-47722000D01*
G75*
G02*
X206520000Y-47620000I102000J0D01*
G01*
X208520000Y-47620000D01*
G75*
G02*
X208622000Y-47722000I0J-102000D01*
G01*
X208622000Y-48072000D01*
G75*
G02*
X208520000Y-48174000I-102000J0D01*
G01*
X206520000Y-48174000D01*
G75*
G02*
X206418000Y-48072000I0J102000D01*
G01*
G37*
G36*
G01*
X198218000Y-48372000D02*
X198218000Y-48022000D01*
G75*
G02*
X198320000Y-47920000I102000J0D01*
G01*
X200320000Y-47920000D01*
G75*
G02*
X200422000Y-48022000I0J-102000D01*
G01*
X200422000Y-48372000D01*
G75*
G02*
X200320000Y-48474000I-102000J0D01*
G01*
X198320000Y-48474000D01*
G75*
G02*
X198218000Y-48372000I0J102000D01*
G01*
G37*
G36*
G01*
X206418000Y-48672000D02*
X206418000Y-48322000D01*
G75*
G02*
X206520000Y-48220000I102000J0D01*
G01*
X208520000Y-48220000D01*
G75*
G02*
X208622000Y-48322000I0J-102000D01*
G01*
X208622000Y-48672000D01*
G75*
G02*
X208520000Y-48774000I-102000J0D01*
G01*
X206520000Y-48774000D01*
G75*
G02*
X206418000Y-48672000I0J102000D01*
G01*
G37*
G36*
G01*
X198218000Y-48972000D02*
X198218000Y-48622000D01*
G75*
G02*
X198320000Y-48520000I102000J0D01*
G01*
X200320000Y-48520000D01*
G75*
G02*
X200422000Y-48622000I0J-102000D01*
G01*
X200422000Y-48972000D01*
G75*
G02*
X200320000Y-49074000I-102000J0D01*
G01*
X198320000Y-49074000D01*
G75*
G02*
X198218000Y-48972000I0J102000D01*
G01*
G37*
G36*
G01*
X206418000Y-49272000D02*
X206418000Y-48922000D01*
G75*
G02*
X206520000Y-48820000I102000J0D01*
G01*
X208520000Y-48820000D01*
G75*
G02*
X208622000Y-48922000I0J-102000D01*
G01*
X208622000Y-49272000D01*
G75*
G02*
X208520000Y-49374000I-102000J0D01*
G01*
X206520000Y-49374000D01*
G75*
G02*
X206418000Y-49272000I0J102000D01*
G01*
G37*
G36*
G01*
X198218000Y-49572000D02*
X198218000Y-49222000D01*
G75*
G02*
X198320000Y-49120000I102000J0D01*
G01*
X200320000Y-49120000D01*
G75*
G02*
X200422000Y-49222000I0J-102000D01*
G01*
X200422000Y-49572000D01*
G75*
G02*
X200320000Y-49674000I-102000J0D01*
G01*
X198320000Y-49674000D01*
G75*
G02*
X198218000Y-49572000I0J102000D01*
G01*
G37*
G36*
G01*
X206418000Y-49872000D02*
X206418000Y-49522000D01*
G75*
G02*
X206520000Y-49420000I102000J0D01*
G01*
X208520000Y-49420000D01*
G75*
G02*
X208622000Y-49522000I0J-102000D01*
G01*
X208622000Y-49872000D01*
G75*
G02*
X208520000Y-49974000I-102000J0D01*
G01*
X206520000Y-49974000D01*
G75*
G02*
X206418000Y-49872000I0J102000D01*
G01*
G37*
G36*
G01*
X198218000Y-50172000D02*
X198218000Y-49822000D01*
G75*
G02*
X198320000Y-49720000I102000J0D01*
G01*
X200320000Y-49720000D01*
G75*
G02*
X200422000Y-49822000I0J-102000D01*
G01*
X200422000Y-50172000D01*
G75*
G02*
X200320000Y-50274000I-102000J0D01*
G01*
X198320000Y-50274000D01*
G75*
G02*
X198218000Y-50172000I0J102000D01*
G01*
G37*
G36*
G01*
X206418000Y-50472000D02*
X206418000Y-50122000D01*
G75*
G02*
X206520000Y-50020000I102000J0D01*
G01*
X208520000Y-50020000D01*
G75*
G02*
X208622000Y-50122000I0J-102000D01*
G01*
X208622000Y-50472000D01*
G75*
G02*
X208520000Y-50574000I-102000J0D01*
G01*
X206520000Y-50574000D01*
G75*
G02*
X206418000Y-50472000I0J102000D01*
G01*
G37*
G36*
G01*
X198218000Y-50772000D02*
X198218000Y-50422000D01*
G75*
G02*
X198320000Y-50320000I102000J0D01*
G01*
X200320000Y-50320000D01*
G75*
G02*
X200422000Y-50422000I0J-102000D01*
G01*
X200422000Y-50772000D01*
G75*
G02*
X200320000Y-50874000I-102000J0D01*
G01*
X198320000Y-50874000D01*
G75*
G02*
X198218000Y-50772000I0J102000D01*
G01*
G37*
G36*
G01*
X206418000Y-51072000D02*
X206418000Y-50722000D01*
G75*
G02*
X206520000Y-50620000I102000J0D01*
G01*
X208520000Y-50620000D01*
G75*
G02*
X208622000Y-50722000I0J-102000D01*
G01*
X208622000Y-51072000D01*
G75*
G02*
X208520000Y-51174000I-102000J0D01*
G01*
X206520000Y-51174000D01*
G75*
G02*
X206418000Y-51072000I0J102000D01*
G01*
G37*
G36*
G01*
X198218000Y-51372000D02*
X198218000Y-51022000D01*
G75*
G02*
X198320000Y-50920000I102000J0D01*
G01*
X200320000Y-50920000D01*
G75*
G02*
X200422000Y-51022000I0J-102000D01*
G01*
X200422000Y-51372000D01*
G75*
G02*
X200320000Y-51474000I-102000J0D01*
G01*
X198320000Y-51474000D01*
G75*
G02*
X198218000Y-51372000I0J102000D01*
G01*
G37*
G36*
G01*
X206418000Y-51672000D02*
X206418000Y-51322000D01*
G75*
G02*
X206520000Y-51220000I102000J0D01*
G01*
X208520000Y-51220000D01*
G75*
G02*
X208622000Y-51322000I0J-102000D01*
G01*
X208622000Y-51672000D01*
G75*
G02*
X208520000Y-51774000I-102000J0D01*
G01*
X206520000Y-51774000D01*
G75*
G02*
X206418000Y-51672000I0J102000D01*
G01*
G37*
G36*
G01*
X198218000Y-51972000D02*
X198218000Y-51622000D01*
G75*
G02*
X198320000Y-51520000I102000J0D01*
G01*
X200320000Y-51520000D01*
G75*
G02*
X200422000Y-51622000I0J-102000D01*
G01*
X200422000Y-51972000D01*
G75*
G02*
X200320000Y-52074000I-102000J0D01*
G01*
X198320000Y-52074000D01*
G75*
G02*
X198218000Y-51972000I0J102000D01*
G01*
G37*
G36*
G01*
X206418000Y-52272000D02*
X206418000Y-51922000D01*
G75*
G02*
X206520000Y-51820000I102000J0D01*
G01*
X208520000Y-51820000D01*
G75*
G02*
X208622000Y-51922000I0J-102000D01*
G01*
X208622000Y-52272000D01*
G75*
G02*
X208520000Y-52374000I-102000J0D01*
G01*
X206520000Y-52374000D01*
G75*
G02*
X206418000Y-52272000I0J102000D01*
G01*
G37*
G36*
G01*
X198218000Y-52572000D02*
X198218000Y-52222000D01*
G75*
G02*
X198320000Y-52120000I102000J0D01*
G01*
X200320000Y-52120000D01*
G75*
G02*
X200422000Y-52222000I0J-102000D01*
G01*
X200422000Y-52572000D01*
G75*
G02*
X200320000Y-52674000I-102000J0D01*
G01*
X198320000Y-52674000D01*
G75*
G02*
X198218000Y-52572000I0J102000D01*
G01*
G37*
G36*
G01*
X206418000Y-52872000D02*
X206418000Y-52522000D01*
G75*
G02*
X206520000Y-52420000I102000J0D01*
G01*
X208520000Y-52420000D01*
G75*
G02*
X208622000Y-52522000I0J-102000D01*
G01*
X208622000Y-52872000D01*
G75*
G02*
X208520000Y-52974000I-102000J0D01*
G01*
X206520000Y-52974000D01*
G75*
G02*
X206418000Y-52872000I0J102000D01*
G01*
G37*
G36*
G01*
X198218000Y-53172000D02*
X198218000Y-52822000D01*
G75*
G02*
X198320000Y-52720000I102000J0D01*
G01*
X200320000Y-52720000D01*
G75*
G02*
X200422000Y-52822000I0J-102000D01*
G01*
X200422000Y-53172000D01*
G75*
G02*
X200320000Y-53274000I-102000J0D01*
G01*
X198320000Y-53274000D01*
G75*
G02*
X198218000Y-53172000I0J102000D01*
G01*
G37*
G36*
G01*
X206418000Y-53472000D02*
X206418000Y-53122000D01*
G75*
G02*
X206520000Y-53020000I102000J0D01*
G01*
X208520000Y-53020000D01*
G75*
G02*
X208622000Y-53122000I0J-102000D01*
G01*
X208622000Y-53472000D01*
G75*
G02*
X208520000Y-53574000I-102000J0D01*
G01*
X206520000Y-53574000D01*
G75*
G02*
X206418000Y-53472000I0J102000D01*
G01*
G37*
G36*
G01*
X198218000Y-53772000D02*
X198218000Y-53422000D01*
G75*
G02*
X198320000Y-53320000I102000J0D01*
G01*
X200320000Y-53320000D01*
G75*
G02*
X200422000Y-53422000I0J-102000D01*
G01*
X200422000Y-53772000D01*
G75*
G02*
X200320000Y-53874000I-102000J0D01*
G01*
X198320000Y-53874000D01*
G75*
G02*
X198218000Y-53772000I0J102000D01*
G01*
G37*
G36*
G01*
X206418000Y-54072000D02*
X206418000Y-53722000D01*
G75*
G02*
X206520000Y-53620000I102000J0D01*
G01*
X208520000Y-53620000D01*
G75*
G02*
X208622000Y-53722000I0J-102000D01*
G01*
X208622000Y-54072000D01*
G75*
G02*
X208520000Y-54174000I-102000J0D01*
G01*
X206520000Y-54174000D01*
G75*
G02*
X206418000Y-54072000I0J102000D01*
G01*
G37*
G36*
G01*
X198218000Y-54372000D02*
X198218000Y-54022000D01*
G75*
G02*
X198320000Y-53920000I102000J0D01*
G01*
X200320000Y-53920000D01*
G75*
G02*
X200422000Y-54022000I0J-102000D01*
G01*
X200422000Y-54372000D01*
G75*
G02*
X200320000Y-54474000I-102000J0D01*
G01*
X198320000Y-54474000D01*
G75*
G02*
X198218000Y-54372000I0J102000D01*
G01*
G37*
G36*
G01*
X206418000Y-54672000D02*
X206418000Y-54322000D01*
G75*
G02*
X206520000Y-54220000I102000J0D01*
G01*
X208520000Y-54220000D01*
G75*
G02*
X208622000Y-54322000I0J-102000D01*
G01*
X208622000Y-54672000D01*
G75*
G02*
X208520000Y-54774000I-102000J0D01*
G01*
X206520000Y-54774000D01*
G75*
G02*
X206418000Y-54672000I0J102000D01*
G01*
G37*
G36*
G01*
X198218000Y-54972000D02*
X198218000Y-54622000D01*
G75*
G02*
X198320000Y-54520000I102000J0D01*
G01*
X200320000Y-54520000D01*
G75*
G02*
X200422000Y-54622000I0J-102000D01*
G01*
X200422000Y-54972000D01*
G75*
G02*
X200320000Y-55074000I-102000J0D01*
G01*
X198320000Y-55074000D01*
G75*
G02*
X198218000Y-54972000I0J102000D01*
G01*
G37*
G36*
G01*
X206418000Y-55272000D02*
X206418000Y-54922000D01*
G75*
G02*
X206520000Y-54820000I102000J0D01*
G01*
X208520000Y-54820000D01*
G75*
G02*
X208622000Y-54922000I0J-102000D01*
G01*
X208622000Y-55272000D01*
G75*
G02*
X208520000Y-55374000I-102000J0D01*
G01*
X206520000Y-55374000D01*
G75*
G02*
X206418000Y-55272000I0J102000D01*
G01*
G37*
G36*
G01*
X198218000Y-55572000D02*
X198218000Y-55222000D01*
G75*
G02*
X198320000Y-55120000I102000J0D01*
G01*
X200320000Y-55120000D01*
G75*
G02*
X200422000Y-55222000I0J-102000D01*
G01*
X200422000Y-55572000D01*
G75*
G02*
X200320000Y-55674000I-102000J0D01*
G01*
X198320000Y-55674000D01*
G75*
G02*
X198218000Y-55572000I0J102000D01*
G01*
G37*
G36*
G01*
X206418000Y-55872000D02*
X206418000Y-55522000D01*
G75*
G02*
X206520000Y-55420000I102000J0D01*
G01*
X208520000Y-55420000D01*
G75*
G02*
X208622000Y-55522000I0J-102000D01*
G01*
X208622000Y-55872000D01*
G75*
G02*
X208520000Y-55974000I-102000J0D01*
G01*
X206520000Y-55974000D01*
G75*
G02*
X206418000Y-55872000I0J102000D01*
G01*
G37*
G36*
G01*
X198218000Y-56172000D02*
X198218000Y-55822000D01*
G75*
G02*
X198320000Y-55720000I102000J0D01*
G01*
X200320000Y-55720000D01*
G75*
G02*
X200422000Y-55822000I0J-102000D01*
G01*
X200422000Y-56172000D01*
G75*
G02*
X200320000Y-56274000I-102000J0D01*
G01*
X198320000Y-56274000D01*
G75*
G02*
X198218000Y-56172000I0J102000D01*
G01*
G37*
G36*
G01*
X206418000Y-56472000D02*
X206418000Y-56122000D01*
G75*
G02*
X206520000Y-56020000I102000J0D01*
G01*
X208520000Y-56020000D01*
G75*
G02*
X208622000Y-56122000I0J-102000D01*
G01*
X208622000Y-56472000D01*
G75*
G02*
X208520000Y-56574000I-102000J0D01*
G01*
X206520000Y-56574000D01*
G75*
G02*
X206418000Y-56472000I0J102000D01*
G01*
G37*
G36*
G01*
X198218000Y-56772000D02*
X198218000Y-56422000D01*
G75*
G02*
X198320000Y-56320000I102000J0D01*
G01*
X200320000Y-56320000D01*
G75*
G02*
X200422000Y-56422000I0J-102000D01*
G01*
X200422000Y-56772000D01*
G75*
G02*
X200320000Y-56874000I-102000J0D01*
G01*
X198320000Y-56874000D01*
G75*
G02*
X198218000Y-56772000I0J102000D01*
G01*
G37*
G36*
G01*
X206418000Y-57072000D02*
X206418000Y-56722000D01*
G75*
G02*
X206520000Y-56620000I102000J0D01*
G01*
X208520000Y-56620000D01*
G75*
G02*
X208622000Y-56722000I0J-102000D01*
G01*
X208622000Y-57072000D01*
G75*
G02*
X208520000Y-57174000I-102000J0D01*
G01*
X206520000Y-57174000D01*
G75*
G02*
X206418000Y-57072000I0J102000D01*
G01*
G37*
G36*
G01*
X198218000Y-57372000D02*
X198218000Y-57022000D01*
G75*
G02*
X198320000Y-56920000I102000J0D01*
G01*
X200320000Y-56920000D01*
G75*
G02*
X200422000Y-57022000I0J-102000D01*
G01*
X200422000Y-57372000D01*
G75*
G02*
X200320000Y-57474000I-102000J0D01*
G01*
X198320000Y-57474000D01*
G75*
G02*
X198218000Y-57372000I0J102000D01*
G01*
G37*
G36*
G01*
X206418000Y-57672000D02*
X206418000Y-57322000D01*
G75*
G02*
X206520000Y-57220000I102000J0D01*
G01*
X208520000Y-57220000D01*
G75*
G02*
X208622000Y-57322000I0J-102000D01*
G01*
X208622000Y-57672000D01*
G75*
G02*
X208520000Y-57774000I-102000J0D01*
G01*
X206520000Y-57774000D01*
G75*
G02*
X206418000Y-57672000I0J102000D01*
G01*
G37*
G36*
G01*
X198218000Y-57972000D02*
X198218000Y-57622000D01*
G75*
G02*
X198320000Y-57520000I102000J0D01*
G01*
X200320000Y-57520000D01*
G75*
G02*
X200422000Y-57622000I0J-102000D01*
G01*
X200422000Y-57972000D01*
G75*
G02*
X200320000Y-58074000I-102000J0D01*
G01*
X198320000Y-58074000D01*
G75*
G02*
X198218000Y-57972000I0J102000D01*
G01*
G37*
G36*
G01*
X206418000Y-58272000D02*
X206418000Y-57922000D01*
G75*
G02*
X206520000Y-57820000I102000J0D01*
G01*
X208520000Y-57820000D01*
G75*
G02*
X208622000Y-57922000I0J-102000D01*
G01*
X208622000Y-58272000D01*
G75*
G02*
X208520000Y-58374000I-102000J0D01*
G01*
X206520000Y-58374000D01*
G75*
G02*
X206418000Y-58272000I0J102000D01*
G01*
G37*
G36*
G01*
X198218000Y-58572000D02*
X198218000Y-58222000D01*
G75*
G02*
X198320000Y-58120000I102000J0D01*
G01*
X200320000Y-58120000D01*
G75*
G02*
X200422000Y-58222000I0J-102000D01*
G01*
X200422000Y-58572000D01*
G75*
G02*
X200320000Y-58674000I-102000J0D01*
G01*
X198320000Y-58674000D01*
G75*
G02*
X198218000Y-58572000I0J102000D01*
G01*
G37*
G36*
G01*
X206418000Y-58872000D02*
X206418000Y-58522000D01*
G75*
G02*
X206520000Y-58420000I102000J0D01*
G01*
X208520000Y-58420000D01*
G75*
G02*
X208622000Y-58522000I0J-102000D01*
G01*
X208622000Y-58872000D01*
G75*
G02*
X208520000Y-58974000I-102000J0D01*
G01*
X206520000Y-58974000D01*
G75*
G02*
X206418000Y-58872000I0J102000D01*
G01*
G37*
G36*
G01*
X198218000Y-59172000D02*
X198218000Y-58822000D01*
G75*
G02*
X198320000Y-58720000I102000J0D01*
G01*
X200320000Y-58720000D01*
G75*
G02*
X200422000Y-58822000I0J-102000D01*
G01*
X200422000Y-59172000D01*
G75*
G02*
X200320000Y-59274000I-102000J0D01*
G01*
X198320000Y-59274000D01*
G75*
G02*
X198218000Y-59172000I0J102000D01*
G01*
G37*
G36*
G01*
X206418000Y-59472000D02*
X206418000Y-59122000D01*
G75*
G02*
X206520000Y-59020000I102000J0D01*
G01*
X208520000Y-59020000D01*
G75*
G02*
X208622000Y-59122000I0J-102000D01*
G01*
X208622000Y-59472000D01*
G75*
G02*
X208520000Y-59574000I-102000J0D01*
G01*
X206520000Y-59574000D01*
G75*
G02*
X206418000Y-59472000I0J102000D01*
G01*
G37*
G36*
G01*
X198218000Y-59772000D02*
X198218000Y-59422000D01*
G75*
G02*
X198320000Y-59320000I102000J0D01*
G01*
X200320000Y-59320000D01*
G75*
G02*
X200422000Y-59422000I0J-102000D01*
G01*
X200422000Y-59772000D01*
G75*
G02*
X200320000Y-59874000I-102000J0D01*
G01*
X198320000Y-59874000D01*
G75*
G02*
X198218000Y-59772000I0J102000D01*
G01*
G37*
G36*
G01*
X206418000Y-60072000D02*
X206418000Y-59722000D01*
G75*
G02*
X206520000Y-59620000I102000J0D01*
G01*
X208520000Y-59620000D01*
G75*
G02*
X208622000Y-59722000I0J-102000D01*
G01*
X208622000Y-60072000D01*
G75*
G02*
X208520000Y-60174000I-102000J0D01*
G01*
X206520000Y-60174000D01*
G75*
G02*
X206418000Y-60072000I0J102000D01*
G01*
G37*
G36*
G01*
X198218000Y-60372000D02*
X198218000Y-60022000D01*
G75*
G02*
X198320000Y-59920000I102000J0D01*
G01*
X200320000Y-59920000D01*
G75*
G02*
X200422000Y-60022000I0J-102000D01*
G01*
X200422000Y-60372000D01*
G75*
G02*
X200320000Y-60474000I-102000J0D01*
G01*
X198320000Y-60474000D01*
G75*
G02*
X198218000Y-60372000I0J102000D01*
G01*
G37*
G36*
G01*
X206418000Y-60672000D02*
X206418000Y-60322000D01*
G75*
G02*
X206520000Y-60220000I102000J0D01*
G01*
X208520000Y-60220000D01*
G75*
G02*
X208622000Y-60322000I0J-102000D01*
G01*
X208622000Y-60672000D01*
G75*
G02*
X208520000Y-60774000I-102000J0D01*
G01*
X206520000Y-60774000D01*
G75*
G02*
X206418000Y-60672000I0J102000D01*
G01*
G37*
G36*
G01*
X198218000Y-60972000D02*
X198218000Y-60622000D01*
G75*
G02*
X198320000Y-60520000I102000J0D01*
G01*
X200320000Y-60520000D01*
G75*
G02*
X200422000Y-60622000I0J-102000D01*
G01*
X200422000Y-60972000D01*
G75*
G02*
X200320000Y-61074000I-102000J0D01*
G01*
X198320000Y-61074000D01*
G75*
G02*
X198218000Y-60972000I0J102000D01*
G01*
G37*
G36*
G01*
X206418000Y-61272000D02*
X206418000Y-60922000D01*
G75*
G02*
X206520000Y-60820000I102000J0D01*
G01*
X208520000Y-60820000D01*
G75*
G02*
X208622000Y-60922000I0J-102000D01*
G01*
X208622000Y-61272000D01*
G75*
G02*
X208520000Y-61374000I-102000J0D01*
G01*
X206520000Y-61374000D01*
G75*
G02*
X206418000Y-61272000I0J102000D01*
G01*
G37*
G36*
G01*
X198218000Y-61572000D02*
X198218000Y-61222000D01*
G75*
G02*
X198320000Y-61120000I102000J0D01*
G01*
X200320000Y-61120000D01*
G75*
G02*
X200422000Y-61222000I0J-102000D01*
G01*
X200422000Y-61572000D01*
G75*
G02*
X200320000Y-61674000I-102000J0D01*
G01*
X198320000Y-61674000D01*
G75*
G02*
X198218000Y-61572000I0J102000D01*
G01*
G37*
G36*
G01*
X206418000Y-61872000D02*
X206418000Y-61522000D01*
G75*
G02*
X206520000Y-61420000I102000J0D01*
G01*
X208520000Y-61420000D01*
G75*
G02*
X208622000Y-61522000I0J-102000D01*
G01*
X208622000Y-61872000D01*
G75*
G02*
X208520000Y-61974000I-102000J0D01*
G01*
X206520000Y-61974000D01*
G75*
G02*
X206418000Y-61872000I0J102000D01*
G01*
G37*
G36*
G01*
X198218000Y-62172000D02*
X198218000Y-61822000D01*
G75*
G02*
X198320000Y-61720000I102000J0D01*
G01*
X200320000Y-61720000D01*
G75*
G02*
X200422000Y-61822000I0J-102000D01*
G01*
X200422000Y-62172000D01*
G75*
G02*
X200320000Y-62274000I-102000J0D01*
G01*
X198320000Y-62274000D01*
G75*
G02*
X198218000Y-62172000I0J102000D01*
G01*
G37*
G36*
G01*
X206418000Y-62472000D02*
X206418000Y-62122000D01*
G75*
G02*
X206520000Y-62020000I102000J0D01*
G01*
X208520000Y-62020000D01*
G75*
G02*
X208622000Y-62122000I0J-102000D01*
G01*
X208622000Y-62472000D01*
G75*
G02*
X208520000Y-62574000I-102000J0D01*
G01*
X206520000Y-62574000D01*
G75*
G02*
X206418000Y-62472000I0J102000D01*
G01*
G37*
G36*
G01*
X198218000Y-62772000D02*
X198218000Y-62422000D01*
G75*
G02*
X198320000Y-62320000I102000J0D01*
G01*
X200320000Y-62320000D01*
G75*
G02*
X200422000Y-62422000I0J-102000D01*
G01*
X200422000Y-62772000D01*
G75*
G02*
X200320000Y-62874000I-102000J0D01*
G01*
X198320000Y-62874000D01*
G75*
G02*
X198218000Y-62772000I0J102000D01*
G01*
G37*
G36*
G01*
X206418000Y-63072000D02*
X206418000Y-62722000D01*
G75*
G02*
X206520000Y-62620000I102000J0D01*
G01*
X208520000Y-62620000D01*
G75*
G02*
X208622000Y-62722000I0J-102000D01*
G01*
X208622000Y-63072000D01*
G75*
G02*
X208520000Y-63174000I-102000J0D01*
G01*
X206520000Y-63174000D01*
G75*
G02*
X206418000Y-63072000I0J102000D01*
G01*
G37*
G36*
G01*
X198218000Y-63372000D02*
X198218000Y-63022000D01*
G75*
G02*
X198320000Y-62920000I102000J0D01*
G01*
X200320000Y-62920000D01*
G75*
G02*
X200422000Y-63022000I0J-102000D01*
G01*
X200422000Y-63372000D01*
G75*
G02*
X200320000Y-63474000I-102000J0D01*
G01*
X198320000Y-63474000D01*
G75*
G02*
X198218000Y-63372000I0J102000D01*
G01*
G37*
G36*
G01*
X206418000Y-63672000D02*
X206418000Y-63322000D01*
G75*
G02*
X206520000Y-63220000I102000J0D01*
G01*
X208520000Y-63220000D01*
G75*
G02*
X208622000Y-63322000I0J-102000D01*
G01*
X208622000Y-63672000D01*
G75*
G02*
X208520000Y-63774000I-102000J0D01*
G01*
X206520000Y-63774000D01*
G75*
G02*
X206418000Y-63672000I0J102000D01*
G01*
G37*
G36*
G01*
X198218000Y-63972000D02*
X198218000Y-63622000D01*
G75*
G02*
X198320000Y-63520000I102000J0D01*
G01*
X200320000Y-63520000D01*
G75*
G02*
X200422000Y-63622000I0J-102000D01*
G01*
X200422000Y-63972000D01*
G75*
G02*
X200320000Y-64074000I-102000J0D01*
G01*
X198320000Y-64074000D01*
G75*
G02*
X198218000Y-63972000I0J102000D01*
G01*
G37*
G36*
G01*
X206418000Y-64272000D02*
X206418000Y-63922000D01*
G75*
G02*
X206520000Y-63820000I102000J0D01*
G01*
X208520000Y-63820000D01*
G75*
G02*
X208622000Y-63922000I0J-102000D01*
G01*
X208622000Y-64272000D01*
G75*
G02*
X208520000Y-64374000I-102000J0D01*
G01*
X206520000Y-64374000D01*
G75*
G02*
X206418000Y-64272000I0J102000D01*
G01*
G37*
G36*
G01*
X198218000Y-66972000D02*
X198218000Y-66622000D01*
G75*
G02*
X198320000Y-66520000I102000J0D01*
G01*
X200320000Y-66520000D01*
G75*
G02*
X200422000Y-66622000I0J-102000D01*
G01*
X200422000Y-66972000D01*
G75*
G02*
X200320000Y-67074000I-102000J0D01*
G01*
X198320000Y-67074000D01*
G75*
G02*
X198218000Y-66972000I0J102000D01*
G01*
G37*
G36*
G01*
X206418000Y-67272000D02*
X206418000Y-66922000D01*
G75*
G02*
X206520000Y-66820000I102000J0D01*
G01*
X208520000Y-66820000D01*
G75*
G02*
X208622000Y-66922000I0J-102000D01*
G01*
X208622000Y-67272000D01*
G75*
G02*
X208520000Y-67374000I-102000J0D01*
G01*
X206520000Y-67374000D01*
G75*
G02*
X206418000Y-67272000I0J102000D01*
G01*
G37*
G36*
G01*
X198218000Y-67572000D02*
X198218000Y-67222000D01*
G75*
G02*
X198320000Y-67120000I102000J0D01*
G01*
X200320000Y-67120000D01*
G75*
G02*
X200422000Y-67222000I0J-102000D01*
G01*
X200422000Y-67572000D01*
G75*
G02*
X200320000Y-67674000I-102000J0D01*
G01*
X198320000Y-67674000D01*
G75*
G02*
X198218000Y-67572000I0J102000D01*
G01*
G37*
G36*
G01*
X206418000Y-67872000D02*
X206418000Y-67522000D01*
G75*
G02*
X206520000Y-67420000I102000J0D01*
G01*
X208520000Y-67420000D01*
G75*
G02*
X208622000Y-67522000I0J-102000D01*
G01*
X208622000Y-67872000D01*
G75*
G02*
X208520000Y-67974000I-102000J0D01*
G01*
X206520000Y-67974000D01*
G75*
G02*
X206418000Y-67872000I0J102000D01*
G01*
G37*
G36*
G01*
X198218000Y-68172000D02*
X198218000Y-67822000D01*
G75*
G02*
X198320000Y-67720000I102000J0D01*
G01*
X200320000Y-67720000D01*
G75*
G02*
X200422000Y-67822000I0J-102000D01*
G01*
X200422000Y-68172000D01*
G75*
G02*
X200320000Y-68274000I-102000J0D01*
G01*
X198320000Y-68274000D01*
G75*
G02*
X198218000Y-68172000I0J102000D01*
G01*
G37*
G36*
G01*
X206418000Y-68472000D02*
X206418000Y-68122000D01*
G75*
G02*
X206520000Y-68020000I102000J0D01*
G01*
X208520000Y-68020000D01*
G75*
G02*
X208622000Y-68122000I0J-102000D01*
G01*
X208622000Y-68472000D01*
G75*
G02*
X208520000Y-68574000I-102000J0D01*
G01*
X206520000Y-68574000D01*
G75*
G02*
X206418000Y-68472000I0J102000D01*
G01*
G37*
G36*
G01*
X198218000Y-68772000D02*
X198218000Y-68422000D01*
G75*
G02*
X198320000Y-68320000I102000J0D01*
G01*
X200320000Y-68320000D01*
G75*
G02*
X200422000Y-68422000I0J-102000D01*
G01*
X200422000Y-68772000D01*
G75*
G02*
X200320000Y-68874000I-102000J0D01*
G01*
X198320000Y-68874000D01*
G75*
G02*
X198218000Y-68772000I0J102000D01*
G01*
G37*
G36*
G01*
X206418000Y-69072000D02*
X206418000Y-68722000D01*
G75*
G02*
X206520000Y-68620000I102000J0D01*
G01*
X208520000Y-68620000D01*
G75*
G02*
X208622000Y-68722000I0J-102000D01*
G01*
X208622000Y-69072000D01*
G75*
G02*
X208520000Y-69174000I-102000J0D01*
G01*
X206520000Y-69174000D01*
G75*
G02*
X206418000Y-69072000I0J102000D01*
G01*
G37*
G36*
G01*
X198218000Y-69372000D02*
X198218000Y-69022000D01*
G75*
G02*
X198320000Y-68920000I102000J0D01*
G01*
X200320000Y-68920000D01*
G75*
G02*
X200422000Y-69022000I0J-102000D01*
G01*
X200422000Y-69372000D01*
G75*
G02*
X200320000Y-69474000I-102000J0D01*
G01*
X198320000Y-69474000D01*
G75*
G02*
X198218000Y-69372000I0J102000D01*
G01*
G37*
G36*
G01*
X206418000Y-69672000D02*
X206418000Y-69322000D01*
G75*
G02*
X206520000Y-69220000I102000J0D01*
G01*
X208520000Y-69220000D01*
G75*
G02*
X208622000Y-69322000I0J-102000D01*
G01*
X208622000Y-69672000D01*
G75*
G02*
X208520000Y-69774000I-102000J0D01*
G01*
X206520000Y-69774000D01*
G75*
G02*
X206418000Y-69672000I0J102000D01*
G01*
G37*
G36*
G01*
X198218000Y-69972000D02*
X198218000Y-69622000D01*
G75*
G02*
X198320000Y-69520000I102000J0D01*
G01*
X200320000Y-69520000D01*
G75*
G02*
X200422000Y-69622000I0J-102000D01*
G01*
X200422000Y-69972000D01*
G75*
G02*
X200320000Y-70074000I-102000J0D01*
G01*
X198320000Y-70074000D01*
G75*
G02*
X198218000Y-69972000I0J102000D01*
G01*
G37*
G36*
G01*
X206418000Y-70272000D02*
X206418000Y-69922000D01*
G75*
G02*
X206520000Y-69820000I102000J0D01*
G01*
X208520000Y-69820000D01*
G75*
G02*
X208622000Y-69922000I0J-102000D01*
G01*
X208622000Y-70272000D01*
G75*
G02*
X208520000Y-70374000I-102000J0D01*
G01*
X206520000Y-70374000D01*
G75*
G02*
X206418000Y-70272000I0J102000D01*
G01*
G37*
G36*
G01*
X198218000Y-70572000D02*
X198218000Y-70222000D01*
G75*
G02*
X198320000Y-70120000I102000J0D01*
G01*
X200320000Y-70120000D01*
G75*
G02*
X200422000Y-70222000I0J-102000D01*
G01*
X200422000Y-70572000D01*
G75*
G02*
X200320000Y-70674000I-102000J0D01*
G01*
X198320000Y-70674000D01*
G75*
G02*
X198218000Y-70572000I0J102000D01*
G01*
G37*
G36*
G01*
X206418000Y-70872000D02*
X206418000Y-70522000D01*
G75*
G02*
X206520000Y-70420000I102000J0D01*
G01*
X208520000Y-70420000D01*
G75*
G02*
X208622000Y-70522000I0J-102000D01*
G01*
X208622000Y-70872000D01*
G75*
G02*
X208520000Y-70974000I-102000J0D01*
G01*
X206520000Y-70974000D01*
G75*
G02*
X206418000Y-70872000I0J102000D01*
G01*
G37*
G36*
G01*
X198218000Y-71172000D02*
X198218000Y-70822000D01*
G75*
G02*
X198320000Y-70720000I102000J0D01*
G01*
X200320000Y-70720000D01*
G75*
G02*
X200422000Y-70822000I0J-102000D01*
G01*
X200422000Y-71172000D01*
G75*
G02*
X200320000Y-71274000I-102000J0D01*
G01*
X198320000Y-71274000D01*
G75*
G02*
X198218000Y-71172000I0J102000D01*
G01*
G37*
G36*
G01*
X206418000Y-71472000D02*
X206418000Y-71122000D01*
G75*
G02*
X206520000Y-71020000I102000J0D01*
G01*
X208520000Y-71020000D01*
G75*
G02*
X208622000Y-71122000I0J-102000D01*
G01*
X208622000Y-71472000D01*
G75*
G02*
X208520000Y-71574000I-102000J0D01*
G01*
X206520000Y-71574000D01*
G75*
G02*
X206418000Y-71472000I0J102000D01*
G01*
G37*
G36*
G01*
X198218000Y-71772000D02*
X198218000Y-71422000D01*
G75*
G02*
X198320000Y-71320000I102000J0D01*
G01*
X200320000Y-71320000D01*
G75*
G02*
X200422000Y-71422000I0J-102000D01*
G01*
X200422000Y-71772000D01*
G75*
G02*
X200320000Y-71874000I-102000J0D01*
G01*
X198320000Y-71874000D01*
G75*
G02*
X198218000Y-71772000I0J102000D01*
G01*
G37*
G36*
G01*
X206418000Y-72072000D02*
X206418000Y-71722000D01*
G75*
G02*
X206520000Y-71620000I102000J0D01*
G01*
X208520000Y-71620000D01*
G75*
G02*
X208622000Y-71722000I0J-102000D01*
G01*
X208622000Y-72072000D01*
G75*
G02*
X208520000Y-72174000I-102000J0D01*
G01*
X206520000Y-72174000D01*
G75*
G02*
X206418000Y-72072000I0J102000D01*
G01*
G37*
G36*
G01*
X198218000Y-72372000D02*
X198218000Y-72022000D01*
G75*
G02*
X198320000Y-71920000I102000J0D01*
G01*
X200320000Y-71920000D01*
G75*
G02*
X200422000Y-72022000I0J-102000D01*
G01*
X200422000Y-72372000D01*
G75*
G02*
X200320000Y-72474000I-102000J0D01*
G01*
X198320000Y-72474000D01*
G75*
G02*
X198218000Y-72372000I0J102000D01*
G01*
G37*
G36*
G01*
X206418000Y-72672000D02*
X206418000Y-72322000D01*
G75*
G02*
X206520000Y-72220000I102000J0D01*
G01*
X208520000Y-72220000D01*
G75*
G02*
X208622000Y-72322000I0J-102000D01*
G01*
X208622000Y-72672000D01*
G75*
G02*
X208520000Y-72774000I-102000J0D01*
G01*
X206520000Y-72774000D01*
G75*
G02*
X206418000Y-72672000I0J102000D01*
G01*
G37*
G36*
G01*
X198218000Y-72972000D02*
X198218000Y-72622000D01*
G75*
G02*
X198320000Y-72520000I102000J0D01*
G01*
X200320000Y-72520000D01*
G75*
G02*
X200422000Y-72622000I0J-102000D01*
G01*
X200422000Y-72972000D01*
G75*
G02*
X200320000Y-73074000I-102000J0D01*
G01*
X198320000Y-73074000D01*
G75*
G02*
X198218000Y-72972000I0J102000D01*
G01*
G37*
G36*
G01*
X206418000Y-73272000D02*
X206418000Y-72922000D01*
G75*
G02*
X206520000Y-72820000I102000J0D01*
G01*
X208520000Y-72820000D01*
G75*
G02*
X208622000Y-72922000I0J-102000D01*
G01*
X208622000Y-73272000D01*
G75*
G02*
X208520000Y-73374000I-102000J0D01*
G01*
X206520000Y-73374000D01*
G75*
G02*
X206418000Y-73272000I0J102000D01*
G01*
G37*
G36*
G01*
X198218000Y-73572000D02*
X198218000Y-73222000D01*
G75*
G02*
X198320000Y-73120000I102000J0D01*
G01*
X200320000Y-73120000D01*
G75*
G02*
X200422000Y-73222000I0J-102000D01*
G01*
X200422000Y-73572000D01*
G75*
G02*
X200320000Y-73674000I-102000J0D01*
G01*
X198320000Y-73674000D01*
G75*
G02*
X198218000Y-73572000I0J102000D01*
G01*
G37*
G36*
G01*
X206418000Y-73872000D02*
X206418000Y-73522000D01*
G75*
G02*
X206520000Y-73420000I102000J0D01*
G01*
X208520000Y-73420000D01*
G75*
G02*
X208622000Y-73522000I0J-102000D01*
G01*
X208622000Y-73872000D01*
G75*
G02*
X208520000Y-73974000I-102000J0D01*
G01*
X206520000Y-73974000D01*
G75*
G02*
X206418000Y-73872000I0J102000D01*
G01*
G37*
G36*
G01*
X198218000Y-74172000D02*
X198218000Y-73822000D01*
G75*
G02*
X198320000Y-73720000I102000J0D01*
G01*
X200320000Y-73720000D01*
G75*
G02*
X200422000Y-73822000I0J-102000D01*
G01*
X200422000Y-74172000D01*
G75*
G02*
X200320000Y-74274000I-102000J0D01*
G01*
X198320000Y-74274000D01*
G75*
G02*
X198218000Y-74172000I0J102000D01*
G01*
G37*
G36*
G01*
X206418000Y-74472000D02*
X206418000Y-74122000D01*
G75*
G02*
X206520000Y-74020000I102000J0D01*
G01*
X208520000Y-74020000D01*
G75*
G02*
X208622000Y-74122000I0J-102000D01*
G01*
X208622000Y-74472000D01*
G75*
G02*
X208520000Y-74574000I-102000J0D01*
G01*
X206520000Y-74574000D01*
G75*
G02*
X206418000Y-74472000I0J102000D01*
G01*
G37*
G36*
G01*
X198218000Y-74772000D02*
X198218000Y-74422000D01*
G75*
G02*
X198320000Y-74320000I102000J0D01*
G01*
X200320000Y-74320000D01*
G75*
G02*
X200422000Y-74422000I0J-102000D01*
G01*
X200422000Y-74772000D01*
G75*
G02*
X200320000Y-74874000I-102000J0D01*
G01*
X198320000Y-74874000D01*
G75*
G02*
X198218000Y-74772000I0J102000D01*
G01*
G37*
G36*
G01*
X206418000Y-75072000D02*
X206418000Y-74722000D01*
G75*
G02*
X206520000Y-74620000I102000J0D01*
G01*
X208520000Y-74620000D01*
G75*
G02*
X208622000Y-74722000I0J-102000D01*
G01*
X208622000Y-75072000D01*
G75*
G02*
X208520000Y-75174000I-102000J0D01*
G01*
X206520000Y-75174000D01*
G75*
G02*
X206418000Y-75072000I0J102000D01*
G01*
G37*
G36*
G01*
X198218000Y-75372000D02*
X198218000Y-75022000D01*
G75*
G02*
X198320000Y-74920000I102000J0D01*
G01*
X200320000Y-74920000D01*
G75*
G02*
X200422000Y-75022000I0J-102000D01*
G01*
X200422000Y-75372000D01*
G75*
G02*
X200320000Y-75474000I-102000J0D01*
G01*
X198320000Y-75474000D01*
G75*
G02*
X198218000Y-75372000I0J102000D01*
G01*
G37*
G36*
G01*
X206418000Y-75672000D02*
X206418000Y-75322000D01*
G75*
G02*
X206520000Y-75220000I102000J0D01*
G01*
X208520000Y-75220000D01*
G75*
G02*
X208622000Y-75322000I0J-102000D01*
G01*
X208622000Y-75672000D01*
G75*
G02*
X208520000Y-75774000I-102000J0D01*
G01*
X206520000Y-75774000D01*
G75*
G02*
X206418000Y-75672000I0J102000D01*
G01*
G37*
G36*
G01*
X198218000Y-75972000D02*
X198218000Y-75622000D01*
G75*
G02*
X198320000Y-75520000I102000J0D01*
G01*
X200320000Y-75520000D01*
G75*
G02*
X200422000Y-75622000I0J-102000D01*
G01*
X200422000Y-75972000D01*
G75*
G02*
X200320000Y-76074000I-102000J0D01*
G01*
X198320000Y-76074000D01*
G75*
G02*
X198218000Y-75972000I0J102000D01*
G01*
G37*
G36*
G01*
X206418000Y-76272000D02*
X206418000Y-75922000D01*
G75*
G02*
X206520000Y-75820000I102000J0D01*
G01*
X208520000Y-75820000D01*
G75*
G02*
X208622000Y-75922000I0J-102000D01*
G01*
X208622000Y-76272000D01*
G75*
G02*
X208520000Y-76374000I-102000J0D01*
G01*
X206520000Y-76374000D01*
G75*
G02*
X206418000Y-76272000I0J102000D01*
G01*
G37*
G36*
G01*
X198218000Y-76572000D02*
X198218000Y-76222000D01*
G75*
G02*
X198320000Y-76120000I102000J0D01*
G01*
X200320000Y-76120000D01*
G75*
G02*
X200422000Y-76222000I0J-102000D01*
G01*
X200422000Y-76572000D01*
G75*
G02*
X200320000Y-76674000I-102000J0D01*
G01*
X198320000Y-76674000D01*
G75*
G02*
X198218000Y-76572000I0J102000D01*
G01*
G37*
G36*
G01*
X206418000Y-76872000D02*
X206418000Y-76522000D01*
G75*
G02*
X206520000Y-76420000I102000J0D01*
G01*
X208520000Y-76420000D01*
G75*
G02*
X208622000Y-76522000I0J-102000D01*
G01*
X208622000Y-76872000D01*
G75*
G02*
X208520000Y-76974000I-102000J0D01*
G01*
X206520000Y-76974000D01*
G75*
G02*
X206418000Y-76872000I0J102000D01*
G01*
G37*
G36*
G01*
X198218000Y-77172000D02*
X198218000Y-76822000D01*
G75*
G02*
X198320000Y-76720000I102000J0D01*
G01*
X200320000Y-76720000D01*
G75*
G02*
X200422000Y-76822000I0J-102000D01*
G01*
X200422000Y-77172000D01*
G75*
G02*
X200320000Y-77274000I-102000J0D01*
G01*
X198320000Y-77274000D01*
G75*
G02*
X198218000Y-77172000I0J102000D01*
G01*
G37*
G36*
G01*
X206418000Y-77472000D02*
X206418000Y-77122000D01*
G75*
G02*
X206520000Y-77020000I102000J0D01*
G01*
X208520000Y-77020000D01*
G75*
G02*
X208622000Y-77122000I0J-102000D01*
G01*
X208622000Y-77472000D01*
G75*
G02*
X208520000Y-77574000I-102000J0D01*
G01*
X206520000Y-77574000D01*
G75*
G02*
X206418000Y-77472000I0J102000D01*
G01*
G37*
G36*
G01*
X198218000Y-77772000D02*
X198218000Y-77422000D01*
G75*
G02*
X198320000Y-77320000I102000J0D01*
G01*
X200320000Y-77320000D01*
G75*
G02*
X200422000Y-77422000I0J-102000D01*
G01*
X200422000Y-77772000D01*
G75*
G02*
X200320000Y-77874000I-102000J0D01*
G01*
X198320000Y-77874000D01*
G75*
G02*
X198218000Y-77772000I0J102000D01*
G01*
G37*
G36*
G01*
X206418000Y-78072000D02*
X206418000Y-77722000D01*
G75*
G02*
X206520000Y-77620000I102000J0D01*
G01*
X208520000Y-77620000D01*
G75*
G02*
X208622000Y-77722000I0J-102000D01*
G01*
X208622000Y-78072000D01*
G75*
G02*
X208520000Y-78174000I-102000J0D01*
G01*
X206520000Y-78174000D01*
G75*
G02*
X206418000Y-78072000I0J102000D01*
G01*
G37*
G36*
G01*
X198218000Y-78372000D02*
X198218000Y-78022000D01*
G75*
G02*
X198320000Y-77920000I102000J0D01*
G01*
X200320000Y-77920000D01*
G75*
G02*
X200422000Y-78022000I0J-102000D01*
G01*
X200422000Y-78372000D01*
G75*
G02*
X200320000Y-78474000I-102000J0D01*
G01*
X198320000Y-78474000D01*
G75*
G02*
X198218000Y-78372000I0J102000D01*
G01*
G37*
G36*
G01*
X206418000Y-78672000D02*
X206418000Y-78322000D01*
G75*
G02*
X206520000Y-78220000I102000J0D01*
G01*
X208520000Y-78220000D01*
G75*
G02*
X208622000Y-78322000I0J-102000D01*
G01*
X208622000Y-78672000D01*
G75*
G02*
X208520000Y-78774000I-102000J0D01*
G01*
X206520000Y-78774000D01*
G75*
G02*
X206418000Y-78672000I0J102000D01*
G01*
G37*
G36*
G01*
X198218000Y-78972000D02*
X198218000Y-78622000D01*
G75*
G02*
X198320000Y-78520000I102000J0D01*
G01*
X200320000Y-78520000D01*
G75*
G02*
X200422000Y-78622000I0J-102000D01*
G01*
X200422000Y-78972000D01*
G75*
G02*
X200320000Y-79074000I-102000J0D01*
G01*
X198320000Y-79074000D01*
G75*
G02*
X198218000Y-78972000I0J102000D01*
G01*
G37*
G36*
G01*
X206418000Y-79272000D02*
X206418000Y-78922000D01*
G75*
G02*
X206520000Y-78820000I102000J0D01*
G01*
X208520000Y-78820000D01*
G75*
G02*
X208622000Y-78922000I0J-102000D01*
G01*
X208622000Y-79272000D01*
G75*
G02*
X208520000Y-79374000I-102000J0D01*
G01*
X206520000Y-79374000D01*
G75*
G02*
X206418000Y-79272000I0J102000D01*
G01*
G37*
G36*
G01*
X198218000Y-79572000D02*
X198218000Y-79222000D01*
G75*
G02*
X198320000Y-79120000I102000J0D01*
G01*
X200320000Y-79120000D01*
G75*
G02*
X200422000Y-79222000I0J-102000D01*
G01*
X200422000Y-79572000D01*
G75*
G02*
X200320000Y-79674000I-102000J0D01*
G01*
X198320000Y-79674000D01*
G75*
G02*
X198218000Y-79572000I0J102000D01*
G01*
G37*
G36*
G01*
X206418000Y-79872000D02*
X206418000Y-79522000D01*
G75*
G02*
X206520000Y-79420000I102000J0D01*
G01*
X208520000Y-79420000D01*
G75*
G02*
X208622000Y-79522000I0J-102000D01*
G01*
X208622000Y-79872000D01*
G75*
G02*
X208520000Y-79974000I-102000J0D01*
G01*
X206520000Y-79974000D01*
G75*
G02*
X206418000Y-79872000I0J102000D01*
G01*
G37*
G36*
G01*
X198218000Y-80172000D02*
X198218000Y-79822000D01*
G75*
G02*
X198320000Y-79720000I102000J0D01*
G01*
X200320000Y-79720000D01*
G75*
G02*
X200422000Y-79822000I0J-102000D01*
G01*
X200422000Y-80172000D01*
G75*
G02*
X200320000Y-80274000I-102000J0D01*
G01*
X198320000Y-80274000D01*
G75*
G02*
X198218000Y-80172000I0J102000D01*
G01*
G37*
G36*
G01*
X206418000Y-80472000D02*
X206418000Y-80122000D01*
G75*
G02*
X206520000Y-80020000I102000J0D01*
G01*
X208520000Y-80020000D01*
G75*
G02*
X208622000Y-80122000I0J-102000D01*
G01*
X208622000Y-80472000D01*
G75*
G02*
X208520000Y-80574000I-102000J0D01*
G01*
X206520000Y-80574000D01*
G75*
G02*
X206418000Y-80472000I0J102000D01*
G01*
G37*
G36*
G01*
X198218000Y-80772000D02*
X198218000Y-80422000D01*
G75*
G02*
X198320000Y-80320000I102000J0D01*
G01*
X200320000Y-80320000D01*
G75*
G02*
X200422000Y-80422000I0J-102000D01*
G01*
X200422000Y-80772000D01*
G75*
G02*
X200320000Y-80874000I-102000J0D01*
G01*
X198320000Y-80874000D01*
G75*
G02*
X198218000Y-80772000I0J102000D01*
G01*
G37*
G36*
G01*
X206418000Y-81072000D02*
X206418000Y-80722000D01*
G75*
G02*
X206520000Y-80620000I102000J0D01*
G01*
X208520000Y-80620000D01*
G75*
G02*
X208622000Y-80722000I0J-102000D01*
G01*
X208622000Y-81072000D01*
G75*
G02*
X208520000Y-81174000I-102000J0D01*
G01*
X206520000Y-81174000D01*
G75*
G02*
X206418000Y-81072000I0J102000D01*
G01*
G37*
G36*
G01*
X198218000Y-81372000D02*
X198218000Y-81022000D01*
G75*
G02*
X198320000Y-80920000I102000J0D01*
G01*
X200320000Y-80920000D01*
G75*
G02*
X200422000Y-81022000I0J-102000D01*
G01*
X200422000Y-81372000D01*
G75*
G02*
X200320000Y-81474000I-102000J0D01*
G01*
X198320000Y-81474000D01*
G75*
G02*
X198218000Y-81372000I0J102000D01*
G01*
G37*
G36*
G01*
X206418000Y-81672000D02*
X206418000Y-81322000D01*
G75*
G02*
X206520000Y-81220000I102000J0D01*
G01*
X208520000Y-81220000D01*
G75*
G02*
X208622000Y-81322000I0J-102000D01*
G01*
X208622000Y-81672000D01*
G75*
G02*
X208520000Y-81774000I-102000J0D01*
G01*
X206520000Y-81774000D01*
G75*
G02*
X206418000Y-81672000I0J102000D01*
G01*
G37*
G36*
G01*
X198218000Y-81972000D02*
X198218000Y-81622000D01*
G75*
G02*
X198320000Y-81520000I102000J0D01*
G01*
X200320000Y-81520000D01*
G75*
G02*
X200422000Y-81622000I0J-102000D01*
G01*
X200422000Y-81972000D01*
G75*
G02*
X200320000Y-82074000I-102000J0D01*
G01*
X198320000Y-82074000D01*
G75*
G02*
X198218000Y-81972000I0J102000D01*
G01*
G37*
G36*
G01*
X206418000Y-82272000D02*
X206418000Y-81922000D01*
G75*
G02*
X206520000Y-81820000I102000J0D01*
G01*
X208520000Y-81820000D01*
G75*
G02*
X208622000Y-81922000I0J-102000D01*
G01*
X208622000Y-82272000D01*
G75*
G02*
X208520000Y-82374000I-102000J0D01*
G01*
X206520000Y-82374000D01*
G75*
G02*
X206418000Y-82272000I0J102000D01*
G01*
G37*
G36*
G01*
X198218000Y-82572000D02*
X198218000Y-82222000D01*
G75*
G02*
X198320000Y-82120000I102000J0D01*
G01*
X200320000Y-82120000D01*
G75*
G02*
X200422000Y-82222000I0J-102000D01*
G01*
X200422000Y-82572000D01*
G75*
G02*
X200320000Y-82674000I-102000J0D01*
G01*
X198320000Y-82674000D01*
G75*
G02*
X198218000Y-82572000I0J102000D01*
G01*
G37*
G36*
G01*
X206418000Y-82872000D02*
X206418000Y-82522000D01*
G75*
G02*
X206520000Y-82420000I102000J0D01*
G01*
X208520000Y-82420000D01*
G75*
G02*
X208622000Y-82522000I0J-102000D01*
G01*
X208622000Y-82872000D01*
G75*
G02*
X208520000Y-82974000I-102000J0D01*
G01*
X206520000Y-82974000D01*
G75*
G02*
X206418000Y-82872000I0J102000D01*
G01*
G37*
G36*
G01*
X198218000Y-83172000D02*
X198218000Y-82822000D01*
G75*
G02*
X198320000Y-82720000I102000J0D01*
G01*
X200320000Y-82720000D01*
G75*
G02*
X200422000Y-82822000I0J-102000D01*
G01*
X200422000Y-83172000D01*
G75*
G02*
X200320000Y-83274000I-102000J0D01*
G01*
X198320000Y-83274000D01*
G75*
G02*
X198218000Y-83172000I0J102000D01*
G01*
G37*
G36*
G01*
X206418000Y-83472000D02*
X206418000Y-83122000D01*
G75*
G02*
X206520000Y-83020000I102000J0D01*
G01*
X208520000Y-83020000D01*
G75*
G02*
X208622000Y-83122000I0J-102000D01*
G01*
X208622000Y-83472000D01*
G75*
G02*
X208520000Y-83574000I-102000J0D01*
G01*
X206520000Y-83574000D01*
G75*
G02*
X206418000Y-83472000I0J102000D01*
G01*
G37*
G36*
G01*
X198218000Y-83772000D02*
X198218000Y-83422000D01*
G75*
G02*
X198320000Y-83320000I102000J0D01*
G01*
X200320000Y-83320000D01*
G75*
G02*
X200422000Y-83422000I0J-102000D01*
G01*
X200422000Y-83772000D01*
G75*
G02*
X200320000Y-83874000I-102000J0D01*
G01*
X198320000Y-83874000D01*
G75*
G02*
X198218000Y-83772000I0J102000D01*
G01*
G37*
G36*
G01*
X206418000Y-84072000D02*
X206418000Y-83722000D01*
G75*
G02*
X206520000Y-83620000I102000J0D01*
G01*
X208520000Y-83620000D01*
G75*
G02*
X208622000Y-83722000I0J-102000D01*
G01*
X208622000Y-84072000D01*
G75*
G02*
X208520000Y-84174000I-102000J0D01*
G01*
X206520000Y-84174000D01*
G75*
G02*
X206418000Y-84072000I0J102000D01*
G01*
G37*
G36*
G01*
X198218000Y-84372000D02*
X198218000Y-84022000D01*
G75*
G02*
X198320000Y-83920000I102000J0D01*
G01*
X200320000Y-83920000D01*
G75*
G02*
X200422000Y-84022000I0J-102000D01*
G01*
X200422000Y-84372000D01*
G75*
G02*
X200320000Y-84474000I-102000J0D01*
G01*
X198320000Y-84474000D01*
G75*
G02*
X198218000Y-84372000I0J102000D01*
G01*
G37*
G36*
G01*
X206418000Y-84672000D02*
X206418000Y-84322000D01*
G75*
G02*
X206520000Y-84220000I102000J0D01*
G01*
X208520000Y-84220000D01*
G75*
G02*
X208622000Y-84322000I0J-102000D01*
G01*
X208622000Y-84672000D01*
G75*
G02*
X208520000Y-84774000I-102000J0D01*
G01*
X206520000Y-84774000D01*
G75*
G02*
X206418000Y-84672000I0J102000D01*
G01*
G37*
G36*
G01*
X198218000Y-84972000D02*
X198218000Y-84622000D01*
G75*
G02*
X198320000Y-84520000I102000J0D01*
G01*
X200320000Y-84520000D01*
G75*
G02*
X200422000Y-84622000I0J-102000D01*
G01*
X200422000Y-84972000D01*
G75*
G02*
X200320000Y-85074000I-102000J0D01*
G01*
X198320000Y-85074000D01*
G75*
G02*
X198218000Y-84972000I0J102000D01*
G01*
G37*
G36*
G01*
X206418000Y-85272000D02*
X206418000Y-84922000D01*
G75*
G02*
X206520000Y-84820000I102000J0D01*
G01*
X208520000Y-84820000D01*
G75*
G02*
X208622000Y-84922000I0J-102000D01*
G01*
X208622000Y-85272000D01*
G75*
G02*
X208520000Y-85374000I-102000J0D01*
G01*
X206520000Y-85374000D01*
G75*
G02*
X206418000Y-85272000I0J102000D01*
G01*
G37*
G36*
G01*
X198218000Y-85572000D02*
X198218000Y-85222000D01*
G75*
G02*
X198320000Y-85120000I102000J0D01*
G01*
X200320000Y-85120000D01*
G75*
G02*
X200422000Y-85222000I0J-102000D01*
G01*
X200422000Y-85572000D01*
G75*
G02*
X200320000Y-85674000I-102000J0D01*
G01*
X198320000Y-85674000D01*
G75*
G02*
X198218000Y-85572000I0J102000D01*
G01*
G37*
G36*
G01*
X206418000Y-85872000D02*
X206418000Y-85522000D01*
G75*
G02*
X206520000Y-85420000I102000J0D01*
G01*
X208520000Y-85420000D01*
G75*
G02*
X208622000Y-85522000I0J-102000D01*
G01*
X208622000Y-85872000D01*
G75*
G02*
X208520000Y-85974000I-102000J0D01*
G01*
X206520000Y-85974000D01*
G75*
G02*
X206418000Y-85872000I0J102000D01*
G01*
G37*
G36*
G01*
X198218000Y-86172000D02*
X198218000Y-85822000D01*
G75*
G02*
X198320000Y-85720000I102000J0D01*
G01*
X200320000Y-85720000D01*
G75*
G02*
X200422000Y-85822000I0J-102000D01*
G01*
X200422000Y-86172000D01*
G75*
G02*
X200320000Y-86274000I-102000J0D01*
G01*
X198320000Y-86274000D01*
G75*
G02*
X198218000Y-86172000I0J102000D01*
G01*
G37*
G36*
G01*
X206418000Y-86472000D02*
X206418000Y-86122000D01*
G75*
G02*
X206520000Y-86020000I102000J0D01*
G01*
X208520000Y-86020000D01*
G75*
G02*
X208622000Y-86122000I0J-102000D01*
G01*
X208622000Y-86472000D01*
G75*
G02*
X208520000Y-86574000I-102000J0D01*
G01*
X206520000Y-86574000D01*
G75*
G02*
X206418000Y-86472000I0J102000D01*
G01*
G37*
G36*
G01*
X198218000Y-86772000D02*
X198218000Y-86422000D01*
G75*
G02*
X198320000Y-86320000I102000J0D01*
G01*
X200320000Y-86320000D01*
G75*
G02*
X200422000Y-86422000I0J-102000D01*
G01*
X200422000Y-86772000D01*
G75*
G02*
X200320000Y-86874000I-102000J0D01*
G01*
X198320000Y-86874000D01*
G75*
G02*
X198218000Y-86772000I0J102000D01*
G01*
G37*
G36*
G01*
X206418000Y-87072000D02*
X206418000Y-86722000D01*
G75*
G02*
X206520000Y-86620000I102000J0D01*
G01*
X208520000Y-86620000D01*
G75*
G02*
X208622000Y-86722000I0J-102000D01*
G01*
X208622000Y-87072000D01*
G75*
G02*
X208520000Y-87174000I-102000J0D01*
G01*
X206520000Y-87174000D01*
G75*
G02*
X206418000Y-87072000I0J102000D01*
G01*
G37*
G36*
G01*
X198218000Y-87372000D02*
X198218000Y-87022000D01*
G75*
G02*
X198320000Y-86920000I102000J0D01*
G01*
X200320000Y-86920000D01*
G75*
G02*
X200422000Y-87022000I0J-102000D01*
G01*
X200422000Y-87372000D01*
G75*
G02*
X200320000Y-87474000I-102000J0D01*
G01*
X198320000Y-87474000D01*
G75*
G02*
X198218000Y-87372000I0J102000D01*
G01*
G37*
G36*
G01*
X206418000Y-87672000D02*
X206418000Y-87322000D01*
G75*
G02*
X206520000Y-87220000I102000J0D01*
G01*
X208520000Y-87220000D01*
G75*
G02*
X208622000Y-87322000I0J-102000D01*
G01*
X208622000Y-87672000D01*
G75*
G02*
X208520000Y-87774000I-102000J0D01*
G01*
X206520000Y-87774000D01*
G75*
G02*
X206418000Y-87672000I0J102000D01*
G01*
G37*
G36*
G01*
X198218000Y-87972000D02*
X198218000Y-87622000D01*
G75*
G02*
X198320000Y-87520000I102000J0D01*
G01*
X200320000Y-87520000D01*
G75*
G02*
X200422000Y-87622000I0J-102000D01*
G01*
X200422000Y-87972000D01*
G75*
G02*
X200320000Y-88074000I-102000J0D01*
G01*
X198320000Y-88074000D01*
G75*
G02*
X198218000Y-87972000I0J102000D01*
G01*
G37*
G36*
G01*
X206418000Y-88272000D02*
X206418000Y-87922000D01*
G75*
G02*
X206520000Y-87820000I102000J0D01*
G01*
X208520000Y-87820000D01*
G75*
G02*
X208622000Y-87922000I0J-102000D01*
G01*
X208622000Y-88272000D01*
G75*
G02*
X208520000Y-88374000I-102000J0D01*
G01*
X206520000Y-88374000D01*
G75*
G02*
X206418000Y-88272000I0J102000D01*
G01*
G37*
G36*
G01*
X198218000Y-88572000D02*
X198218000Y-88222000D01*
G75*
G02*
X198320000Y-88120000I102000J0D01*
G01*
X200320000Y-88120000D01*
G75*
G02*
X200422000Y-88222000I0J-102000D01*
G01*
X200422000Y-88572000D01*
G75*
G02*
X200320000Y-88674000I-102000J0D01*
G01*
X198320000Y-88674000D01*
G75*
G02*
X198218000Y-88572000I0J102000D01*
G01*
G37*
G36*
G01*
X206418000Y-88872000D02*
X206418000Y-88522000D01*
G75*
G02*
X206520000Y-88420000I102000J0D01*
G01*
X208520000Y-88420000D01*
G75*
G02*
X208622000Y-88522000I0J-102000D01*
G01*
X208622000Y-88872000D01*
G75*
G02*
X208520000Y-88974000I-102000J0D01*
G01*
X206520000Y-88974000D01*
G75*
G02*
X206418000Y-88872000I0J102000D01*
G01*
G37*
G36*
G01*
X198218000Y-89172000D02*
X198218000Y-88822000D01*
G75*
G02*
X198320000Y-88720000I102000J0D01*
G01*
X200320000Y-88720000D01*
G75*
G02*
X200422000Y-88822000I0J-102000D01*
G01*
X200422000Y-89172000D01*
G75*
G02*
X200320000Y-89274000I-102000J0D01*
G01*
X198320000Y-89274000D01*
G75*
G02*
X198218000Y-89172000I0J102000D01*
G01*
G37*
G36*
G01*
X206418000Y-89472000D02*
X206418000Y-89122000D01*
G75*
G02*
X206520000Y-89020000I102000J0D01*
G01*
X208520000Y-89020000D01*
G75*
G02*
X208622000Y-89122000I0J-102000D01*
G01*
X208622000Y-89472000D01*
G75*
G02*
X208520000Y-89574000I-102000J0D01*
G01*
X206520000Y-89574000D01*
G75*
G02*
X206418000Y-89472000I0J102000D01*
G01*
G37*
G36*
G01*
X198218000Y-89772000D02*
X198218000Y-89422000D01*
G75*
G02*
X198320000Y-89320000I102000J0D01*
G01*
X200320000Y-89320000D01*
G75*
G02*
X200422000Y-89422000I0J-102000D01*
G01*
X200422000Y-89772000D01*
G75*
G02*
X200320000Y-89874000I-102000J0D01*
G01*
X198320000Y-89874000D01*
G75*
G02*
X198218000Y-89772000I0J102000D01*
G01*
G37*
G36*
G01*
X206418000Y-90072000D02*
X206418000Y-89722000D01*
G75*
G02*
X206520000Y-89620000I102000J0D01*
G01*
X208520000Y-89620000D01*
G75*
G02*
X208622000Y-89722000I0J-102000D01*
G01*
X208622000Y-90072000D01*
G75*
G02*
X208520000Y-90174000I-102000J0D01*
G01*
X206520000Y-90174000D01*
G75*
G02*
X206418000Y-90072000I0J102000D01*
G01*
G37*
G36*
G01*
X198218000Y-90372000D02*
X198218000Y-90022000D01*
G75*
G02*
X198320000Y-89920000I102000J0D01*
G01*
X200320000Y-89920000D01*
G75*
G02*
X200422000Y-90022000I0J-102000D01*
G01*
X200422000Y-90372000D01*
G75*
G02*
X200320000Y-90474000I-102000J0D01*
G01*
X198320000Y-90474000D01*
G75*
G02*
X198218000Y-90372000I0J102000D01*
G01*
G37*
G36*
G01*
X206418000Y-90672000D02*
X206418000Y-90322000D01*
G75*
G02*
X206520000Y-90220000I102000J0D01*
G01*
X208520000Y-90220000D01*
G75*
G02*
X208622000Y-90322000I0J-102000D01*
G01*
X208622000Y-90672000D01*
G75*
G02*
X208520000Y-90774000I-102000J0D01*
G01*
X206520000Y-90774000D01*
G75*
G02*
X206418000Y-90672000I0J102000D01*
G01*
G37*
G36*
G01*
X198218000Y-90972000D02*
X198218000Y-90622000D01*
G75*
G02*
X198320000Y-90520000I102000J0D01*
G01*
X200320000Y-90520000D01*
G75*
G02*
X200422000Y-90622000I0J-102000D01*
G01*
X200422000Y-90972000D01*
G75*
G02*
X200320000Y-91074000I-102000J0D01*
G01*
X198320000Y-91074000D01*
G75*
G02*
X198218000Y-90972000I0J102000D01*
G01*
G37*
G36*
G01*
X206418000Y-91272000D02*
X206418000Y-90922000D01*
G75*
G02*
X206520000Y-90820000I102000J0D01*
G01*
X208520000Y-90820000D01*
G75*
G02*
X208622000Y-90922000I0J-102000D01*
G01*
X208622000Y-91272000D01*
G75*
G02*
X208520000Y-91374000I-102000J0D01*
G01*
X206520000Y-91374000D01*
G75*
G02*
X206418000Y-91272000I0J102000D01*
G01*
G37*
G36*
G01*
X198218000Y-91572000D02*
X198218000Y-91222000D01*
G75*
G02*
X198320000Y-91120000I102000J0D01*
G01*
X200320000Y-91120000D01*
G75*
G02*
X200422000Y-91222000I0J-102000D01*
G01*
X200422000Y-91572000D01*
G75*
G02*
X200320000Y-91674000I-102000J0D01*
G01*
X198320000Y-91674000D01*
G75*
G02*
X198218000Y-91572000I0J102000D01*
G01*
G37*
G36*
G01*
X206418000Y-91872000D02*
X206418000Y-91522000D01*
G75*
G02*
X206520000Y-91420000I102000J0D01*
G01*
X208520000Y-91420000D01*
G75*
G02*
X208622000Y-91522000I0J-102000D01*
G01*
X208622000Y-91872000D01*
G75*
G02*
X208520000Y-91974000I-102000J0D01*
G01*
X206520000Y-91974000D01*
G75*
G02*
X206418000Y-91872000I0J102000D01*
G01*
G37*
G36*
G01*
X198218000Y-92172000D02*
X198218000Y-91822000D01*
G75*
G02*
X198320000Y-91720000I102000J0D01*
G01*
X200320000Y-91720000D01*
G75*
G02*
X200422000Y-91822000I0J-102000D01*
G01*
X200422000Y-92172000D01*
G75*
G02*
X200320000Y-92274000I-102000J0D01*
G01*
X198320000Y-92274000D01*
G75*
G02*
X198218000Y-92172000I0J102000D01*
G01*
G37*
G36*
G01*
X206418000Y-92472000D02*
X206418000Y-92122000D01*
G75*
G02*
X206520000Y-92020000I102000J0D01*
G01*
X208520000Y-92020000D01*
G75*
G02*
X208622000Y-92122000I0J-102000D01*
G01*
X208622000Y-92472000D01*
G75*
G02*
X208520000Y-92574000I-102000J0D01*
G01*
X206520000Y-92574000D01*
G75*
G02*
X206418000Y-92472000I0J102000D01*
G01*
G37*
G36*
G01*
X198218000Y-92772000D02*
X198218000Y-92422000D01*
G75*
G02*
X198320000Y-92320000I102000J0D01*
G01*
X200320000Y-92320000D01*
G75*
G02*
X200422000Y-92422000I0J-102000D01*
G01*
X200422000Y-92772000D01*
G75*
G02*
X200320000Y-92874000I-102000J0D01*
G01*
X198320000Y-92874000D01*
G75*
G02*
X198218000Y-92772000I0J102000D01*
G01*
G37*
G36*
G01*
X206418000Y-93072000D02*
X206418000Y-92722000D01*
G75*
G02*
X206520000Y-92620000I102000J0D01*
G01*
X208520000Y-92620000D01*
G75*
G02*
X208622000Y-92722000I0J-102000D01*
G01*
X208622000Y-93072000D01*
G75*
G02*
X208520000Y-93174000I-102000J0D01*
G01*
X206520000Y-93174000D01*
G75*
G02*
X206418000Y-93072000I0J102000D01*
G01*
G37*
G36*
G01*
X198218000Y-93372000D02*
X198218000Y-93022000D01*
G75*
G02*
X198320000Y-92920000I102000J0D01*
G01*
X200320000Y-92920000D01*
G75*
G02*
X200422000Y-93022000I0J-102000D01*
G01*
X200422000Y-93372000D01*
G75*
G02*
X200320000Y-93474000I-102000J0D01*
G01*
X198320000Y-93474000D01*
G75*
G02*
X198218000Y-93372000I0J102000D01*
G01*
G37*
G36*
G01*
X206418000Y-93672000D02*
X206418000Y-93322000D01*
G75*
G02*
X206520000Y-93220000I102000J0D01*
G01*
X208520000Y-93220000D01*
G75*
G02*
X208622000Y-93322000I0J-102000D01*
G01*
X208622000Y-93672000D01*
G75*
G02*
X208520000Y-93774000I-102000J0D01*
G01*
X206520000Y-93774000D01*
G75*
G02*
X206418000Y-93672000I0J102000D01*
G01*
G37*
G36*
G01*
X198218000Y-93972000D02*
X198218000Y-93622000D01*
G75*
G02*
X198320000Y-93520000I102000J0D01*
G01*
X200320000Y-93520000D01*
G75*
G02*
X200422000Y-93622000I0J-102000D01*
G01*
X200422000Y-93972000D01*
G75*
G02*
X200320000Y-94074000I-102000J0D01*
G01*
X198320000Y-94074000D01*
G75*
G02*
X198218000Y-93972000I0J102000D01*
G01*
G37*
G36*
G01*
X206418000Y-94272000D02*
X206418000Y-93922000D01*
G75*
G02*
X206520000Y-93820000I102000J0D01*
G01*
X208520000Y-93820000D01*
G75*
G02*
X208622000Y-93922000I0J-102000D01*
G01*
X208622000Y-94272000D01*
G75*
G02*
X208520000Y-94374000I-102000J0D01*
G01*
X206520000Y-94374000D01*
G75*
G02*
X206418000Y-94272000I0J102000D01*
G01*
G37*
G36*
G01*
X198218000Y-94572000D02*
X198218000Y-94222000D01*
G75*
G02*
X198320000Y-94120000I102000J0D01*
G01*
X200320000Y-94120000D01*
G75*
G02*
X200422000Y-94222000I0J-102000D01*
G01*
X200422000Y-94572000D01*
G75*
G02*
X200320000Y-94674000I-102000J0D01*
G01*
X198320000Y-94674000D01*
G75*
G02*
X198218000Y-94572000I0J102000D01*
G01*
G37*
G36*
G01*
X206418000Y-94872000D02*
X206418000Y-94522000D01*
G75*
G02*
X206520000Y-94420000I102000J0D01*
G01*
X208520000Y-94420000D01*
G75*
G02*
X208622000Y-94522000I0J-102000D01*
G01*
X208622000Y-94872000D01*
G75*
G02*
X208520000Y-94974000I-102000J0D01*
G01*
X206520000Y-94974000D01*
G75*
G02*
X206418000Y-94872000I0J102000D01*
G01*
G37*
G36*
G01*
X198218000Y-95172000D02*
X198218000Y-94822000D01*
G75*
G02*
X198320000Y-94720000I102000J0D01*
G01*
X200320000Y-94720000D01*
G75*
G02*
X200422000Y-94822000I0J-102000D01*
G01*
X200422000Y-95172000D01*
G75*
G02*
X200320000Y-95274000I-102000J0D01*
G01*
X198320000Y-95274000D01*
G75*
G02*
X198218000Y-95172000I0J102000D01*
G01*
G37*
G36*
G01*
X206418000Y-95472000D02*
X206418000Y-95122000D01*
G75*
G02*
X206520000Y-95020000I102000J0D01*
G01*
X208520000Y-95020000D01*
G75*
G02*
X208622000Y-95122000I0J-102000D01*
G01*
X208622000Y-95472000D01*
G75*
G02*
X208520000Y-95574000I-102000J0D01*
G01*
X206520000Y-95574000D01*
G75*
G02*
X206418000Y-95472000I0J102000D01*
G01*
G37*
G36*
G01*
X198218000Y-95772000D02*
X198218000Y-95422000D01*
G75*
G02*
X198320000Y-95320000I102000J0D01*
G01*
X200320000Y-95320000D01*
G75*
G02*
X200422000Y-95422000I0J-102000D01*
G01*
X200422000Y-95772000D01*
G75*
G02*
X200320000Y-95874000I-102000J0D01*
G01*
X198320000Y-95874000D01*
G75*
G02*
X198218000Y-95772000I0J102000D01*
G01*
G37*
G36*
G01*
X206418000Y-96072000D02*
X206418000Y-95722000D01*
G75*
G02*
X206520000Y-95620000I102000J0D01*
G01*
X208520000Y-95620000D01*
G75*
G02*
X208622000Y-95722000I0J-102000D01*
G01*
X208622000Y-96072000D01*
G75*
G02*
X208520000Y-96174000I-102000J0D01*
G01*
X206520000Y-96174000D01*
G75*
G02*
X206418000Y-96072000I0J102000D01*
G01*
G37*
G36*
G01*
X198218000Y-96372000D02*
X198218000Y-96022000D01*
G75*
G02*
X198320000Y-95920000I102000J0D01*
G01*
X200320000Y-95920000D01*
G75*
G02*
X200422000Y-96022000I0J-102000D01*
G01*
X200422000Y-96372000D01*
G75*
G02*
X200320000Y-96474000I-102000J0D01*
G01*
X198320000Y-96474000D01*
G75*
G02*
X198218000Y-96372000I0J102000D01*
G01*
G37*
G36*
G01*
X206418000Y-96672000D02*
X206418000Y-96322000D01*
G75*
G02*
X206520000Y-96220000I102000J0D01*
G01*
X208520000Y-96220000D01*
G75*
G02*
X208622000Y-96322000I0J-102000D01*
G01*
X208622000Y-96672000D01*
G75*
G02*
X208520000Y-96774000I-102000J0D01*
G01*
X206520000Y-96774000D01*
G75*
G02*
X206418000Y-96672000I0J102000D01*
G01*
G37*
G36*
G01*
X198218000Y-96972000D02*
X198218000Y-96622000D01*
G75*
G02*
X198320000Y-96520000I102000J0D01*
G01*
X200320000Y-96520000D01*
G75*
G02*
X200422000Y-96622000I0J-102000D01*
G01*
X200422000Y-96972000D01*
G75*
G02*
X200320000Y-97074000I-102000J0D01*
G01*
X198320000Y-97074000D01*
G75*
G02*
X198218000Y-96972000I0J102000D01*
G01*
G37*
G36*
G01*
X206418000Y-97272000D02*
X206418000Y-96922000D01*
G75*
G02*
X206520000Y-96820000I102000J0D01*
G01*
X208520000Y-96820000D01*
G75*
G02*
X208622000Y-96922000I0J-102000D01*
G01*
X208622000Y-97272000D01*
G75*
G02*
X208520000Y-97374000I-102000J0D01*
G01*
X206520000Y-97374000D01*
G75*
G02*
X206418000Y-97272000I0J102000D01*
G01*
G37*
G36*
G01*
X198218000Y-97572000D02*
X198218000Y-97222000D01*
G75*
G02*
X198320000Y-97120000I102000J0D01*
G01*
X200320000Y-97120000D01*
G75*
G02*
X200422000Y-97222000I0J-102000D01*
G01*
X200422000Y-97572000D01*
G75*
G02*
X200320000Y-97674000I-102000J0D01*
G01*
X198320000Y-97674000D01*
G75*
G02*
X198218000Y-97572000I0J102000D01*
G01*
G37*
G36*
G01*
X206418000Y-97872000D02*
X206418000Y-97522000D01*
G75*
G02*
X206520000Y-97420000I102000J0D01*
G01*
X208520000Y-97420000D01*
G75*
G02*
X208622000Y-97522000I0J-102000D01*
G01*
X208622000Y-97872000D01*
G75*
G02*
X208520000Y-97974000I-102000J0D01*
G01*
X206520000Y-97974000D01*
G75*
G02*
X206418000Y-97872000I0J102000D01*
G01*
G37*
G36*
G01*
X198218000Y-98172000D02*
X198218000Y-97822000D01*
G75*
G02*
X198320000Y-97720000I102000J0D01*
G01*
X200320000Y-97720000D01*
G75*
G02*
X200422000Y-97822000I0J-102000D01*
G01*
X200422000Y-98172000D01*
G75*
G02*
X200320000Y-98274000I-102000J0D01*
G01*
X198320000Y-98274000D01*
G75*
G02*
X198218000Y-98172000I0J102000D01*
G01*
G37*
G36*
G01*
X206418000Y-98472000D02*
X206418000Y-98122000D01*
G75*
G02*
X206520000Y-98020000I102000J0D01*
G01*
X208520000Y-98020000D01*
G75*
G02*
X208622000Y-98122000I0J-102000D01*
G01*
X208622000Y-98472000D01*
G75*
G02*
X208520000Y-98574000I-102000J0D01*
G01*
X206520000Y-98574000D01*
G75*
G02*
X206418000Y-98472000I0J102000D01*
G01*
G37*
G36*
G01*
X198218000Y-98772000D02*
X198218000Y-98422000D01*
G75*
G02*
X198320000Y-98320000I102000J0D01*
G01*
X200320000Y-98320000D01*
G75*
G02*
X200422000Y-98422000I0J-102000D01*
G01*
X200422000Y-98772000D01*
G75*
G02*
X200320000Y-98874000I-102000J0D01*
G01*
X198320000Y-98874000D01*
G75*
G02*
X198218000Y-98772000I0J102000D01*
G01*
G37*
G36*
G01*
X206418000Y-99072000D02*
X206418000Y-98722000D01*
G75*
G02*
X206520000Y-98620000I102000J0D01*
G01*
X208520000Y-98620000D01*
G75*
G02*
X208622000Y-98722000I0J-102000D01*
G01*
X208622000Y-99072000D01*
G75*
G02*
X208520000Y-99174000I-102000J0D01*
G01*
X206520000Y-99174000D01*
G75*
G02*
X206418000Y-99072000I0J102000D01*
G01*
G37*
G36*
G01*
X198218000Y-99372000D02*
X198218000Y-99022000D01*
G75*
G02*
X198320000Y-98920000I102000J0D01*
G01*
X200320000Y-98920000D01*
G75*
G02*
X200422000Y-99022000I0J-102000D01*
G01*
X200422000Y-99372000D01*
G75*
G02*
X200320000Y-99474000I-102000J0D01*
G01*
X198320000Y-99474000D01*
G75*
G02*
X198218000Y-99372000I0J102000D01*
G01*
G37*
G36*
G01*
X206418000Y-99672000D02*
X206418000Y-99322000D01*
G75*
G02*
X206520000Y-99220000I102000J0D01*
G01*
X208520000Y-99220000D01*
G75*
G02*
X208622000Y-99322000I0J-102000D01*
G01*
X208622000Y-99672000D01*
G75*
G02*
X208520000Y-99774000I-102000J0D01*
G01*
X206520000Y-99774000D01*
G75*
G02*
X206418000Y-99672000I0J102000D01*
G01*
G37*
G36*
G01*
X198218000Y-99972000D02*
X198218000Y-99622000D01*
G75*
G02*
X198320000Y-99520000I102000J0D01*
G01*
X200320000Y-99520000D01*
G75*
G02*
X200422000Y-99622000I0J-102000D01*
G01*
X200422000Y-99972000D01*
G75*
G02*
X200320000Y-100074000I-102000J0D01*
G01*
X198320000Y-100074000D01*
G75*
G02*
X198218000Y-99972000I0J102000D01*
G01*
G37*
G36*
G01*
X206418000Y-100272000D02*
X206418000Y-99922000D01*
G75*
G02*
X206520000Y-99820000I102000J0D01*
G01*
X208520000Y-99820000D01*
G75*
G02*
X208622000Y-99922000I0J-102000D01*
G01*
X208622000Y-100272000D01*
G75*
G02*
X208520000Y-100374000I-102000J0D01*
G01*
X206520000Y-100374000D01*
G75*
G02*
X206418000Y-100272000I0J102000D01*
G01*
G37*
G36*
G01*
X198218000Y-100572000D02*
X198218000Y-100222000D01*
G75*
G02*
X198320000Y-100120000I102000J0D01*
G01*
X200320000Y-100120000D01*
G75*
G02*
X200422000Y-100222000I0J-102000D01*
G01*
X200422000Y-100572000D01*
G75*
G02*
X200320000Y-100674000I-102000J0D01*
G01*
X198320000Y-100674000D01*
G75*
G02*
X198218000Y-100572000I0J102000D01*
G01*
G37*
G36*
G01*
X206418000Y-100872000D02*
X206418000Y-100522000D01*
G75*
G02*
X206520000Y-100420000I102000J0D01*
G01*
X208520000Y-100420000D01*
G75*
G02*
X208622000Y-100522000I0J-102000D01*
G01*
X208622000Y-100872000D01*
G75*
G02*
X208520000Y-100974000I-102000J0D01*
G01*
X206520000Y-100974000D01*
G75*
G02*
X206418000Y-100872000I0J102000D01*
G01*
G37*
G36*
G01*
X198218000Y-101172000D02*
X198218000Y-100822000D01*
G75*
G02*
X198320000Y-100720000I102000J0D01*
G01*
X200320000Y-100720000D01*
G75*
G02*
X200422000Y-100822000I0J-102000D01*
G01*
X200422000Y-101172000D01*
G75*
G02*
X200320000Y-101274000I-102000J0D01*
G01*
X198320000Y-101274000D01*
G75*
G02*
X198218000Y-101172000I0J102000D01*
G01*
G37*
G36*
G01*
X206418000Y-101472000D02*
X206418000Y-101122000D01*
G75*
G02*
X206520000Y-101020000I102000J0D01*
G01*
X208520000Y-101020000D01*
G75*
G02*
X208622000Y-101122000I0J-102000D01*
G01*
X208622000Y-101472000D01*
G75*
G02*
X208520000Y-101574000I-102000J0D01*
G01*
X206520000Y-101574000D01*
G75*
G02*
X206418000Y-101472000I0J102000D01*
G01*
G37*
G36*
G01*
X198218000Y-101772000D02*
X198218000Y-101422000D01*
G75*
G02*
X198320000Y-101320000I102000J0D01*
G01*
X200320000Y-101320000D01*
G75*
G02*
X200422000Y-101422000I0J-102000D01*
G01*
X200422000Y-101772000D01*
G75*
G02*
X200320000Y-101874000I-102000J0D01*
G01*
X198320000Y-101874000D01*
G75*
G02*
X198218000Y-101772000I0J102000D01*
G01*
G37*
G36*
G01*
X206418000Y-102072000D02*
X206418000Y-101722000D01*
G75*
G02*
X206520000Y-101620000I102000J0D01*
G01*
X208520000Y-101620000D01*
G75*
G02*
X208622000Y-101722000I0J-102000D01*
G01*
X208622000Y-102072000D01*
G75*
G02*
X208520000Y-102174000I-102000J0D01*
G01*
X206520000Y-102174000D01*
G75*
G02*
X206418000Y-102072000I0J102000D01*
G01*
G37*
G36*
G01*
X198218000Y-102372000D02*
X198218000Y-102022000D01*
G75*
G02*
X198320000Y-101920000I102000J0D01*
G01*
X200320000Y-101920000D01*
G75*
G02*
X200422000Y-102022000I0J-102000D01*
G01*
X200422000Y-102372000D01*
G75*
G02*
X200320000Y-102474000I-102000J0D01*
G01*
X198320000Y-102474000D01*
G75*
G02*
X198218000Y-102372000I0J102000D01*
G01*
G37*
G36*
G01*
X206418000Y-102672000D02*
X206418000Y-102322000D01*
G75*
G02*
X206520000Y-102220000I102000J0D01*
G01*
X208520000Y-102220000D01*
G75*
G02*
X208622000Y-102322000I0J-102000D01*
G01*
X208622000Y-102672000D01*
G75*
G02*
X208520000Y-102774000I-102000J0D01*
G01*
X206520000Y-102774000D01*
G75*
G02*
X206418000Y-102672000I0J102000D01*
G01*
G37*
G36*
G01*
X198218000Y-102972000D02*
X198218000Y-102622000D01*
G75*
G02*
X198320000Y-102520000I102000J0D01*
G01*
X200320000Y-102520000D01*
G75*
G02*
X200422000Y-102622000I0J-102000D01*
G01*
X200422000Y-102972000D01*
G75*
G02*
X200320000Y-103074000I-102000J0D01*
G01*
X198320000Y-103074000D01*
G75*
G02*
X198218000Y-102972000I0J102000D01*
G01*
G37*
G36*
G01*
X206418000Y-103272000D02*
X206418000Y-102922000D01*
G75*
G02*
X206520000Y-102820000I102000J0D01*
G01*
X208520000Y-102820000D01*
G75*
G02*
X208622000Y-102922000I0J-102000D01*
G01*
X208622000Y-103272000D01*
G75*
G02*
X208520000Y-103374000I-102000J0D01*
G01*
X206520000Y-103374000D01*
G75*
G02*
X206418000Y-103272000I0J102000D01*
G01*
G37*
G36*
G01*
X198218000Y-103572000D02*
X198218000Y-103222000D01*
G75*
G02*
X198320000Y-103120000I102000J0D01*
G01*
X200320000Y-103120000D01*
G75*
G02*
X200422000Y-103222000I0J-102000D01*
G01*
X200422000Y-103572000D01*
G75*
G02*
X200320000Y-103674000I-102000J0D01*
G01*
X198320000Y-103674000D01*
G75*
G02*
X198218000Y-103572000I0J102000D01*
G01*
G37*
G36*
G01*
X206418000Y-103872000D02*
X206418000Y-103522000D01*
G75*
G02*
X206520000Y-103420000I102000J0D01*
G01*
X208520000Y-103420000D01*
G75*
G02*
X208622000Y-103522000I0J-102000D01*
G01*
X208622000Y-103872000D01*
G75*
G02*
X208520000Y-103974000I-102000J0D01*
G01*
X206520000Y-103974000D01*
G75*
G02*
X206418000Y-103872000I0J102000D01*
G01*
G37*
G36*
G01*
X198218000Y-104172000D02*
X198218000Y-103822000D01*
G75*
G02*
X198320000Y-103720000I102000J0D01*
G01*
X200320000Y-103720000D01*
G75*
G02*
X200422000Y-103822000I0J-102000D01*
G01*
X200422000Y-104172000D01*
G75*
G02*
X200320000Y-104274000I-102000J0D01*
G01*
X198320000Y-104274000D01*
G75*
G02*
X198218000Y-104172000I0J102000D01*
G01*
G37*
G36*
G01*
X206418000Y-104472000D02*
X206418000Y-104122000D01*
G75*
G02*
X206520000Y-104020000I102000J0D01*
G01*
X208520000Y-104020000D01*
G75*
G02*
X208622000Y-104122000I0J-102000D01*
G01*
X208622000Y-104472000D01*
G75*
G02*
X208520000Y-104574000I-102000J0D01*
G01*
X206520000Y-104574000D01*
G75*
G02*
X206418000Y-104472000I0J102000D01*
G01*
G37*
G36*
G01*
X198218000Y-104772000D02*
X198218000Y-104422000D01*
G75*
G02*
X198320000Y-104320000I102000J0D01*
G01*
X200320000Y-104320000D01*
G75*
G02*
X200422000Y-104422000I0J-102000D01*
G01*
X200422000Y-104772000D01*
G75*
G02*
X200320000Y-104874000I-102000J0D01*
G01*
X198320000Y-104874000D01*
G75*
G02*
X198218000Y-104772000I0J102000D01*
G01*
G37*
G36*
G01*
X206418000Y-105072000D02*
X206418000Y-104722000D01*
G75*
G02*
X206520000Y-104620000I102000J0D01*
G01*
X208520000Y-104620000D01*
G75*
G02*
X208622000Y-104722000I0J-102000D01*
G01*
X208622000Y-105072000D01*
G75*
G02*
X208520000Y-105174000I-102000J0D01*
G01*
X206520000Y-105174000D01*
G75*
G02*
X206418000Y-105072000I0J102000D01*
G01*
G37*
G36*
G01*
X198218000Y-105372000D02*
X198218000Y-105022000D01*
G75*
G02*
X198320000Y-104920000I102000J0D01*
G01*
X200320000Y-104920000D01*
G75*
G02*
X200422000Y-105022000I0J-102000D01*
G01*
X200422000Y-105372000D01*
G75*
G02*
X200320000Y-105474000I-102000J0D01*
G01*
X198320000Y-105474000D01*
G75*
G02*
X198218000Y-105372000I0J102000D01*
G01*
G37*
G36*
G01*
X206418000Y-105672000D02*
X206418000Y-105322000D01*
G75*
G02*
X206520000Y-105220000I102000J0D01*
G01*
X208520000Y-105220000D01*
G75*
G02*
X208622000Y-105322000I0J-102000D01*
G01*
X208622000Y-105672000D01*
G75*
G02*
X208520000Y-105774000I-102000J0D01*
G01*
X206520000Y-105774000D01*
G75*
G02*
X206418000Y-105672000I0J102000D01*
G01*
G37*
G36*
G01*
X198218000Y-105972000D02*
X198218000Y-105622000D01*
G75*
G02*
X198320000Y-105520000I102000J0D01*
G01*
X200320000Y-105520000D01*
G75*
G02*
X200422000Y-105622000I0J-102000D01*
G01*
X200422000Y-105972000D01*
G75*
G02*
X200320000Y-106074000I-102000J0D01*
G01*
X198320000Y-106074000D01*
G75*
G02*
X198218000Y-105972000I0J102000D01*
G01*
G37*
G36*
G01*
X206418000Y-106272000D02*
X206418000Y-105922000D01*
G75*
G02*
X206520000Y-105820000I102000J0D01*
G01*
X208520000Y-105820000D01*
G75*
G02*
X208622000Y-105922000I0J-102000D01*
G01*
X208622000Y-106272000D01*
G75*
G02*
X208520000Y-106374000I-102000J0D01*
G01*
X206520000Y-106374000D01*
G75*
G02*
X206418000Y-106272000I0J102000D01*
G01*
G37*
G36*
G01*
X213018000Y-43397000D02*
X213018000Y-39897000D01*
G75*
G02*
X213120000Y-39795000I102000J0D01*
G01*
X217720000Y-39795000D01*
G75*
G02*
X217822000Y-39897000I0J-102000D01*
G01*
X217822000Y-43397000D01*
G75*
G02*
X217720000Y-43499000I-102000J0D01*
G01*
X213120000Y-43499000D01*
G75*
G02*
X213018000Y-43397000I0J102000D01*
G01*
G37*
G36*
G01*
X213018000Y-108997000D02*
X213018000Y-105497000D01*
G75*
G02*
X213120000Y-105395000I102000J0D01*
G01*
X217720000Y-105395000D01*
G75*
G02*
X217822000Y-105497000I0J-102000D01*
G01*
X217822000Y-108997000D01*
G75*
G02*
X217720000Y-109099000I-102000J0D01*
G01*
X213120000Y-109099000D01*
G75*
G02*
X213018000Y-108997000I0J102000D01*
G01*
G37*
G36*
G01*
X188365000Y-92748000D02*
X188365000Y-93048000D01*
G75*
G02*
X188215000Y-93198000I-150000J0D01*
G01*
X187040000Y-93198000D01*
G75*
G02*
X186890000Y-93048000I0J150000D01*
G01*
X186890000Y-92748000D01*
G75*
G02*
X187040000Y-92598000I150000J0D01*
G01*
X188215000Y-92598000D01*
G75*
G02*
X188365000Y-92748000I0J-150000D01*
G01*
G37*
G36*
G01*
X188365000Y-90848000D02*
X188365000Y-91148000D01*
G75*
G02*
X188215000Y-91298000I-150000J0D01*
G01*
X187040000Y-91298000D01*
G75*
G02*
X186890000Y-91148000I0J150000D01*
G01*
X186890000Y-90848000D01*
G75*
G02*
X187040000Y-90698000I150000J0D01*
G01*
X188215000Y-90698000D01*
G75*
G02*
X188365000Y-90848000I0J-150000D01*
G01*
G37*
G36*
G01*
X186490000Y-91798000D02*
X186490000Y-92098000D01*
G75*
G02*
X186340000Y-92248000I-150000J0D01*
G01*
X185165000Y-92248000D01*
G75*
G02*
X185015000Y-92098000I0J150000D01*
G01*
X185015000Y-91798000D01*
G75*
G02*
X185165000Y-91648000I150000J0D01*
G01*
X186340000Y-91648000D01*
G75*
G02*
X186490000Y-91798000I0J-150000D01*
G01*
G37*
G36*
G01*
X185688500Y-28622000D02*
X185913500Y-28622000D01*
G75*
G02*
X186026000Y-28734500I0J-112500D01*
G01*
X186026000Y-29109500D01*
G75*
G02*
X185913500Y-29222000I-112500J0D01*
G01*
X185688500Y-29222000D01*
G75*
G02*
X185576000Y-29109500I0J112500D01*
G01*
X185576000Y-28734500D01*
G75*
G02*
X185688500Y-28622000I112500J0D01*
G01*
G37*
G36*
G01*
X185688500Y-30722000D02*
X185913500Y-30722000D01*
G75*
G02*
X186026000Y-30834500I0J-112500D01*
G01*
X186026000Y-31209500D01*
G75*
G02*
X185913500Y-31322000I-112500J0D01*
G01*
X185688500Y-31322000D01*
G75*
G02*
X185576000Y-31209500I0J112500D01*
G01*
X185576000Y-30834500D01*
G75*
G02*
X185688500Y-30722000I112500J0D01*
G01*
G37*
G36*
G01*
X183750000Y-93644000D02*
X183150000Y-93644000D01*
G75*
G02*
X182900000Y-93394000I0J250000D01*
G01*
X182900000Y-92794000D01*
G75*
G02*
X183150000Y-92544000I250000J0D01*
G01*
X183750000Y-92544000D01*
G75*
G02*
X184000000Y-92794000I0J-250000D01*
G01*
X184000000Y-93394000D01*
G75*
G02*
X183750000Y-93644000I-250000J0D01*
G01*
G37*
G36*
G01*
X183750000Y-90844000D02*
X183150000Y-90844000D01*
G75*
G02*
X182900000Y-90594000I0J250000D01*
G01*
X182900000Y-89994000D01*
G75*
G02*
X183150000Y-89744000I250000J0D01*
G01*
X183750000Y-89744000D01*
G75*
G02*
X184000000Y-89994000I0J-250000D01*
G01*
X184000000Y-90594000D01*
G75*
G02*
X183750000Y-90844000I-250000J0D01*
G01*
G37*
G36*
G01*
X184538000Y-98570000D02*
X183238000Y-98570000D01*
G75*
G02*
X182988000Y-98320000I0J250000D01*
G01*
X182988000Y-97670000D01*
G75*
G02*
X183238000Y-97420000I250000J0D01*
G01*
X184538000Y-97420000D01*
G75*
G02*
X184788000Y-97670000I0J-250000D01*
G01*
X184788000Y-98320000D01*
G75*
G02*
X184538000Y-98570000I-250000J0D01*
G01*
G37*
G36*
G01*
X184538000Y-95620000D02*
X183238000Y-95620000D01*
G75*
G02*
X182988000Y-95370000I0J250000D01*
G01*
X182988000Y-94720000D01*
G75*
G02*
X183238000Y-94470000I250000J0D01*
G01*
X184538000Y-94470000D01*
G75*
G02*
X184788000Y-94720000I0J-250000D01*
G01*
X184788000Y-95370000D01*
G75*
G02*
X184538000Y-95620000I-250000J0D01*
G01*
G37*
G36*
G01*
X193775000Y-75275000D02*
X193775000Y-74725000D01*
G75*
G02*
X193975000Y-74525000I200000J0D01*
G01*
X194375000Y-74525000D01*
G75*
G02*
X194575000Y-74725000I0J-200000D01*
G01*
X194575000Y-75275000D01*
G75*
G02*
X194375000Y-75475000I-200000J0D01*
G01*
X193975000Y-75475000D01*
G75*
G02*
X193775000Y-75275000I0J200000D01*
G01*
G37*
G36*
G01*
X195425000Y-75275000D02*
X195425000Y-74725000D01*
G75*
G02*
X195625000Y-74525000I200000J0D01*
G01*
X196025000Y-74525000D01*
G75*
G02*
X196225000Y-74725000I0J-200000D01*
G01*
X196225000Y-75275000D01*
G75*
G02*
X196025000Y-75475000I-200000J0D01*
G01*
X195625000Y-75475000D01*
G75*
G02*
X195425000Y-75275000I0J200000D01*
G01*
G37*
G36*
G01*
X166478750Y-98663000D02*
X166819250Y-98663000D01*
G75*
G02*
X166876000Y-98719750I0J-56750D01*
G01*
X166876000Y-99560250D01*
G75*
G02*
X166819250Y-99617000I-56750J0D01*
G01*
X166478750Y-99617000D01*
G75*
G02*
X166422000Y-99560250I0J56750D01*
G01*
X166422000Y-98719750D01*
G75*
G02*
X166478750Y-98663000I56750J0D01*
G01*
G37*
G36*
G01*
X165978750Y-98663000D02*
X166319250Y-98663000D01*
G75*
G02*
X166376000Y-98719750I0J-56750D01*
G01*
X166376000Y-99560250D01*
G75*
G02*
X166319250Y-99617000I-56750J0D01*
G01*
X165978750Y-99617000D01*
G75*
G02*
X165922000Y-99560250I0J56750D01*
G01*
X165922000Y-98719750D01*
G75*
G02*
X165978750Y-98663000I56750J0D01*
G01*
G37*
G36*
G01*
X165478750Y-98663000D02*
X165819250Y-98663000D01*
G75*
G02*
X165876000Y-98719750I0J-56750D01*
G01*
X165876000Y-99560250D01*
G75*
G02*
X165819250Y-99617000I-56750J0D01*
G01*
X165478750Y-99617000D01*
G75*
G02*
X165422000Y-99560250I0J56750D01*
G01*
X165422000Y-98719750D01*
G75*
G02*
X165478750Y-98663000I56750J0D01*
G01*
G37*
G36*
G01*
X164978750Y-98663000D02*
X165319250Y-98663000D01*
G75*
G02*
X165376000Y-98719750I0J-56750D01*
G01*
X165376000Y-99560250D01*
G75*
G02*
X165319250Y-99617000I-56750J0D01*
G01*
X164978750Y-99617000D01*
G75*
G02*
X164922000Y-99560250I0J56750D01*
G01*
X164922000Y-98719750D01*
G75*
G02*
X164978750Y-98663000I56750J0D01*
G01*
G37*
G36*
G01*
X164478750Y-98663000D02*
X164819250Y-98663000D01*
G75*
G02*
X164876000Y-98719750I0J-56750D01*
G01*
X164876000Y-99560250D01*
G75*
G02*
X164819250Y-99617000I-56750J0D01*
G01*
X164478750Y-99617000D01*
G75*
G02*
X164422000Y-99560250I0J56750D01*
G01*
X164422000Y-98719750D01*
G75*
G02*
X164478750Y-98663000I56750J0D01*
G01*
G37*
G36*
G01*
X163978750Y-98663000D02*
X164319250Y-98663000D01*
G75*
G02*
X164376000Y-98719750I0J-56750D01*
G01*
X164376000Y-99560250D01*
G75*
G02*
X164319250Y-99617000I-56750J0D01*
G01*
X163978750Y-99617000D01*
G75*
G02*
X163922000Y-99560250I0J56750D01*
G01*
X163922000Y-98719750D01*
G75*
G02*
X163978750Y-98663000I56750J0D01*
G01*
G37*
G36*
G01*
X163478750Y-98663000D02*
X163819250Y-98663000D01*
G75*
G02*
X163876000Y-98719750I0J-56750D01*
G01*
X163876000Y-99560250D01*
G75*
G02*
X163819250Y-99617000I-56750J0D01*
G01*
X163478750Y-99617000D01*
G75*
G02*
X163422000Y-99560250I0J56750D01*
G01*
X163422000Y-98719750D01*
G75*
G02*
X163478750Y-98663000I56750J0D01*
G01*
G37*
G36*
G01*
X162978750Y-98663000D02*
X163319250Y-98663000D01*
G75*
G02*
X163376000Y-98719750I0J-56750D01*
G01*
X163376000Y-99560250D01*
G75*
G02*
X163319250Y-99617000I-56750J0D01*
G01*
X162978750Y-99617000D01*
G75*
G02*
X162922000Y-99560250I0J56750D01*
G01*
X162922000Y-98719750D01*
G75*
G02*
X162978750Y-98663000I56750J0D01*
G01*
G37*
G36*
G01*
X162478750Y-98663000D02*
X162819250Y-98663000D01*
G75*
G02*
X162876000Y-98719750I0J-56750D01*
G01*
X162876000Y-99560250D01*
G75*
G02*
X162819250Y-99617000I-56750J0D01*
G01*
X162478750Y-99617000D01*
G75*
G02*
X162422000Y-99560250I0J56750D01*
G01*
X162422000Y-98719750D01*
G75*
G02*
X162478750Y-98663000I56750J0D01*
G01*
G37*
G36*
G01*
X161978750Y-98663000D02*
X162319250Y-98663000D01*
G75*
G02*
X162376000Y-98719750I0J-56750D01*
G01*
X162376000Y-99560250D01*
G75*
G02*
X162319250Y-99617000I-56750J0D01*
G01*
X161978750Y-99617000D01*
G75*
G02*
X161922000Y-99560250I0J56750D01*
G01*
X161922000Y-98719750D01*
G75*
G02*
X161978750Y-98663000I56750J0D01*
G01*
G37*
G36*
G01*
X161478750Y-98663000D02*
X161819250Y-98663000D01*
G75*
G02*
X161876000Y-98719750I0J-56750D01*
G01*
X161876000Y-99560250D01*
G75*
G02*
X161819250Y-99617000I-56750J0D01*
G01*
X161478750Y-99617000D01*
G75*
G02*
X161422000Y-99560250I0J56750D01*
G01*
X161422000Y-98719750D01*
G75*
G02*
X161478750Y-98663000I56750J0D01*
G01*
G37*
G36*
G01*
X160903750Y-99988000D02*
X161594250Y-99988000D01*
G75*
G02*
X161651000Y-100044750I0J-56750D01*
G01*
X161651000Y-100385250D01*
G75*
G02*
X161594250Y-100442000I-56750J0D01*
G01*
X160903750Y-100442000D01*
G75*
G02*
X160847000Y-100385250I0J56750D01*
G01*
X160847000Y-100044750D01*
G75*
G02*
X160903750Y-99988000I56750J0D01*
G01*
G37*
G36*
G01*
X160903750Y-100488000D02*
X161594250Y-100488000D01*
G75*
G02*
X161651000Y-100544750I0J-56750D01*
G01*
X161651000Y-100885250D01*
G75*
G02*
X161594250Y-100942000I-56750J0D01*
G01*
X160903750Y-100942000D01*
G75*
G02*
X160847000Y-100885250I0J56750D01*
G01*
X160847000Y-100544750D01*
G75*
G02*
X160903750Y-100488000I56750J0D01*
G01*
G37*
G36*
G01*
X160903750Y-100988000D02*
X161594250Y-100988000D01*
G75*
G02*
X161651000Y-101044750I0J-56750D01*
G01*
X161651000Y-101385250D01*
G75*
G02*
X161594250Y-101442000I-56750J0D01*
G01*
X160903750Y-101442000D01*
G75*
G02*
X160847000Y-101385250I0J56750D01*
G01*
X160847000Y-101044750D01*
G75*
G02*
X160903750Y-100988000I56750J0D01*
G01*
G37*
G36*
G01*
X160903750Y-101488000D02*
X161594250Y-101488000D01*
G75*
G02*
X161651000Y-101544750I0J-56750D01*
G01*
X161651000Y-101885250D01*
G75*
G02*
X161594250Y-101942000I-56750J0D01*
G01*
X160903750Y-101942000D01*
G75*
G02*
X160847000Y-101885250I0J56750D01*
G01*
X160847000Y-101544750D01*
G75*
G02*
X160903750Y-101488000I56750J0D01*
G01*
G37*
G36*
G01*
X161478750Y-102313000D02*
X161819250Y-102313000D01*
G75*
G02*
X161876000Y-102369750I0J-56750D01*
G01*
X161876000Y-103210250D01*
G75*
G02*
X161819250Y-103267000I-56750J0D01*
G01*
X161478750Y-103267000D01*
G75*
G02*
X161422000Y-103210250I0J56750D01*
G01*
X161422000Y-102369750D01*
G75*
G02*
X161478750Y-102313000I56750J0D01*
G01*
G37*
G36*
G01*
X161978750Y-102313000D02*
X162319250Y-102313000D01*
G75*
G02*
X162376000Y-102369750I0J-56750D01*
G01*
X162376000Y-103210250D01*
G75*
G02*
X162319250Y-103267000I-56750J0D01*
G01*
X161978750Y-103267000D01*
G75*
G02*
X161922000Y-103210250I0J56750D01*
G01*
X161922000Y-102369750D01*
G75*
G02*
X161978750Y-102313000I56750J0D01*
G01*
G37*
G36*
G01*
X162478750Y-102313000D02*
X162819250Y-102313000D01*
G75*
G02*
X162876000Y-102369750I0J-56750D01*
G01*
X162876000Y-103210250D01*
G75*
G02*
X162819250Y-103267000I-56750J0D01*
G01*
X162478750Y-103267000D01*
G75*
G02*
X162422000Y-103210250I0J56750D01*
G01*
X162422000Y-102369750D01*
G75*
G02*
X162478750Y-102313000I56750J0D01*
G01*
G37*
G36*
G01*
X162978750Y-102313000D02*
X163319250Y-102313000D01*
G75*
G02*
X163376000Y-102369750I0J-56750D01*
G01*
X163376000Y-103210250D01*
G75*
G02*
X163319250Y-103267000I-56750J0D01*
G01*
X162978750Y-103267000D01*
G75*
G02*
X162922000Y-103210250I0J56750D01*
G01*
X162922000Y-102369750D01*
G75*
G02*
X162978750Y-102313000I56750J0D01*
G01*
G37*
G36*
G01*
X163478750Y-102313000D02*
X163819250Y-102313000D01*
G75*
G02*
X163876000Y-102369750I0J-56750D01*
G01*
X163876000Y-103210250D01*
G75*
G02*
X163819250Y-103267000I-56750J0D01*
G01*
X163478750Y-103267000D01*
G75*
G02*
X163422000Y-103210250I0J56750D01*
G01*
X163422000Y-102369750D01*
G75*
G02*
X163478750Y-102313000I56750J0D01*
G01*
G37*
G36*
G01*
X163978750Y-102313000D02*
X164319250Y-102313000D01*
G75*
G02*
X164376000Y-102369750I0J-56750D01*
G01*
X164376000Y-103210250D01*
G75*
G02*
X164319250Y-103267000I-56750J0D01*
G01*
X163978750Y-103267000D01*
G75*
G02*
X163922000Y-103210250I0J56750D01*
G01*
X163922000Y-102369750D01*
G75*
G02*
X163978750Y-102313000I56750J0D01*
G01*
G37*
G36*
G01*
X164478750Y-102313000D02*
X164819250Y-102313000D01*
G75*
G02*
X164876000Y-102369750I0J-56750D01*
G01*
X164876000Y-103210250D01*
G75*
G02*
X164819250Y-103267000I-56750J0D01*
G01*
X164478750Y-103267000D01*
G75*
G02*
X164422000Y-103210250I0J56750D01*
G01*
X164422000Y-102369750D01*
G75*
G02*
X164478750Y-102313000I56750J0D01*
G01*
G37*
G36*
G01*
X164978750Y-102313000D02*
X165319250Y-102313000D01*
G75*
G02*
X165376000Y-102369750I0J-56750D01*
G01*
X165376000Y-103210250D01*
G75*
G02*
X165319250Y-103267000I-56750J0D01*
G01*
X164978750Y-103267000D01*
G75*
G02*
X164922000Y-103210250I0J56750D01*
G01*
X164922000Y-102369750D01*
G75*
G02*
X164978750Y-102313000I56750J0D01*
G01*
G37*
G36*
G01*
X165478750Y-102313000D02*
X165819250Y-102313000D01*
G75*
G02*
X165876000Y-102369750I0J-56750D01*
G01*
X165876000Y-103210250D01*
G75*
G02*
X165819250Y-103267000I-56750J0D01*
G01*
X165478750Y-103267000D01*
G75*
G02*
X165422000Y-103210250I0J56750D01*
G01*
X165422000Y-102369750D01*
G75*
G02*
X165478750Y-102313000I56750J0D01*
G01*
G37*
G36*
G01*
X165978750Y-102313000D02*
X166319250Y-102313000D01*
G75*
G02*
X166376000Y-102369750I0J-56750D01*
G01*
X166376000Y-103210250D01*
G75*
G02*
X166319250Y-103267000I-56750J0D01*
G01*
X165978750Y-103267000D01*
G75*
G02*
X165922000Y-103210250I0J56750D01*
G01*
X165922000Y-102369750D01*
G75*
G02*
X165978750Y-102313000I56750J0D01*
G01*
G37*
G36*
G01*
X166478750Y-102313000D02*
X166819250Y-102313000D01*
G75*
G02*
X166876000Y-102369750I0J-56750D01*
G01*
X166876000Y-103210250D01*
G75*
G02*
X166819250Y-103267000I-56750J0D01*
G01*
X166478750Y-103267000D01*
G75*
G02*
X166422000Y-103210250I0J56750D01*
G01*
X166422000Y-102369750D01*
G75*
G02*
X166478750Y-102313000I56750J0D01*
G01*
G37*
G36*
G01*
X166703750Y-101488000D02*
X167394250Y-101488000D01*
G75*
G02*
X167451000Y-101544750I0J-56750D01*
G01*
X167451000Y-101885250D01*
G75*
G02*
X167394250Y-101942000I-56750J0D01*
G01*
X166703750Y-101942000D01*
G75*
G02*
X166647000Y-101885250I0J56750D01*
G01*
X166647000Y-101544750D01*
G75*
G02*
X166703750Y-101488000I56750J0D01*
G01*
G37*
G36*
G01*
X166703750Y-100988000D02*
X167394250Y-100988000D01*
G75*
G02*
X167451000Y-101044750I0J-56750D01*
G01*
X167451000Y-101385250D01*
G75*
G02*
X167394250Y-101442000I-56750J0D01*
G01*
X166703750Y-101442000D01*
G75*
G02*
X166647000Y-101385250I0J56750D01*
G01*
X166647000Y-101044750D01*
G75*
G02*
X166703750Y-100988000I56750J0D01*
G01*
G37*
G36*
G01*
X166703750Y-100488000D02*
X167394250Y-100488000D01*
G75*
G02*
X167451000Y-100544750I0J-56750D01*
G01*
X167451000Y-100885250D01*
G75*
G02*
X167394250Y-100942000I-56750J0D01*
G01*
X166703750Y-100942000D01*
G75*
G02*
X166647000Y-100885250I0J56750D01*
G01*
X166647000Y-100544750D01*
G75*
G02*
X166703750Y-100488000I56750J0D01*
G01*
G37*
G36*
G01*
X166703750Y-99988000D02*
X167394250Y-99988000D01*
G75*
G02*
X167451000Y-100044750I0J-56750D01*
G01*
X167451000Y-100385250D01*
G75*
G02*
X167394250Y-100442000I-56750J0D01*
G01*
X166703750Y-100442000D01*
G75*
G02*
X166647000Y-100385250I0J56750D01*
G01*
X166647000Y-100044750D01*
G75*
G02*
X166703750Y-99988000I56750J0D01*
G01*
G37*
G36*
G01*
X161899000Y-99963000D02*
X166399000Y-99963000D01*
G75*
G02*
X166501000Y-100065000I0J-102000D01*
G01*
X166501000Y-101865000D01*
G75*
G02*
X166399000Y-101967000I-102000J0D01*
G01*
X161899000Y-101967000D01*
G75*
G02*
X161797000Y-101865000I0J102000D01*
G01*
X161797000Y-100065000D01*
G75*
G02*
X161899000Y-99963000I102000J0D01*
G01*
G37*
G36*
G01*
X263330000Y-37240000D02*
X263670000Y-37240000D01*
G75*
G02*
X263810000Y-37380000I0J-140000D01*
G01*
X263810000Y-37660000D01*
G75*
G02*
X263670000Y-37800000I-140000J0D01*
G01*
X263330000Y-37800000D01*
G75*
G02*
X263190000Y-37660000I0J140000D01*
G01*
X263190000Y-37380000D01*
G75*
G02*
X263330000Y-37240000I140000J0D01*
G01*
G37*
G36*
G01*
X263330000Y-38200000D02*
X263670000Y-38200000D01*
G75*
G02*
X263810000Y-38340000I0J-140000D01*
G01*
X263810000Y-38620000D01*
G75*
G02*
X263670000Y-38760000I-140000J0D01*
G01*
X263330000Y-38760000D01*
G75*
G02*
X263190000Y-38620000I0J140000D01*
G01*
X263190000Y-38340000D01*
G75*
G02*
X263330000Y-38200000I140000J0D01*
G01*
G37*
G36*
G01*
X185278000Y-101963000D02*
X186578000Y-101963000D01*
G75*
G02*
X186828000Y-102213000I0J-250000D01*
G01*
X186828000Y-102863000D01*
G75*
G02*
X186578000Y-103113000I-250000J0D01*
G01*
X185278000Y-103113000D01*
G75*
G02*
X185028000Y-102863000I0J250000D01*
G01*
X185028000Y-102213000D01*
G75*
G02*
X185278000Y-101963000I250000J0D01*
G01*
G37*
G36*
G01*
X185278000Y-104913000D02*
X186578000Y-104913000D01*
G75*
G02*
X186828000Y-105163000I0J-250000D01*
G01*
X186828000Y-105813000D01*
G75*
G02*
X186578000Y-106063000I-250000J0D01*
G01*
X185278000Y-106063000D01*
G75*
G02*
X185028000Y-105813000I0J250000D01*
G01*
X185028000Y-105163000D01*
G75*
G02*
X185278000Y-104913000I250000J0D01*
G01*
G37*
G36*
G01*
X249360000Y-38718000D02*
X249360000Y-37768000D01*
G75*
G02*
X249610000Y-37518000I250000J0D01*
G01*
X250110000Y-37518000D01*
G75*
G02*
X250360000Y-37768000I0J-250000D01*
G01*
X250360000Y-38718000D01*
G75*
G02*
X250110000Y-38968000I-250000J0D01*
G01*
X249610000Y-38968000D01*
G75*
G02*
X249360000Y-38718000I0J250000D01*
G01*
G37*
G36*
G01*
X251260000Y-38718000D02*
X251260000Y-37768000D01*
G75*
G02*
X251510000Y-37518000I250000J0D01*
G01*
X252010000Y-37518000D01*
G75*
G02*
X252260000Y-37768000I0J-250000D01*
G01*
X252260000Y-38718000D01*
G75*
G02*
X252010000Y-38968000I-250000J0D01*
G01*
X251510000Y-38968000D01*
G75*
G02*
X251260000Y-38718000I0J250000D01*
G01*
G37*
G36*
G01*
X248425000Y-109975000D02*
X248425000Y-110525000D01*
G75*
G02*
X248225000Y-110725000I-200000J0D01*
G01*
X247825000Y-110725000D01*
G75*
G02*
X247625000Y-110525000I0J200000D01*
G01*
X247625000Y-109975000D01*
G75*
G02*
X247825000Y-109775000I200000J0D01*
G01*
X248225000Y-109775000D01*
G75*
G02*
X248425000Y-109975000I0J-200000D01*
G01*
G37*
G36*
G01*
X246775000Y-109975000D02*
X246775000Y-110525000D01*
G75*
G02*
X246575000Y-110725000I-200000J0D01*
G01*
X246175000Y-110725000D01*
G75*
G02*
X245975000Y-110525000I0J200000D01*
G01*
X245975000Y-109975000D01*
G75*
G02*
X246175000Y-109775000I200000J0D01*
G01*
X246575000Y-109775000D01*
G75*
G02*
X246775000Y-109975000I0J-200000D01*
G01*
G37*
G36*
G01*
X162450000Y-42175000D02*
X163350000Y-42175000D01*
G75*
G02*
X163600000Y-42425000I0J-250000D01*
G01*
X163600000Y-42950000D01*
G75*
G02*
X163350000Y-43200000I-250000J0D01*
G01*
X162450000Y-43200000D01*
G75*
G02*
X162200000Y-42950000I0J250000D01*
G01*
X162200000Y-42425000D01*
G75*
G02*
X162450000Y-42175000I250000J0D01*
G01*
G37*
G36*
G01*
X162450000Y-44000000D02*
X163350000Y-44000000D01*
G75*
G02*
X163600000Y-44250000I0J-250000D01*
G01*
X163600000Y-44775000D01*
G75*
G02*
X163350000Y-45025000I-250000J0D01*
G01*
X162450000Y-45025000D01*
G75*
G02*
X162200000Y-44775000I0J250000D01*
G01*
X162200000Y-44250000D01*
G75*
G02*
X162450000Y-44000000I250000J0D01*
G01*
G37*
G36*
G01*
X160634000Y-94406000D02*
X161184000Y-94406000D01*
G75*
G02*
X161384000Y-94606000I0J-200000D01*
G01*
X161384000Y-95006000D01*
G75*
G02*
X161184000Y-95206000I-200000J0D01*
G01*
X160634000Y-95206000D01*
G75*
G02*
X160434000Y-95006000I0J200000D01*
G01*
X160434000Y-94606000D01*
G75*
G02*
X160634000Y-94406000I200000J0D01*
G01*
G37*
G36*
G01*
X160634000Y-96056000D02*
X161184000Y-96056000D01*
G75*
G02*
X161384000Y-96256000I0J-200000D01*
G01*
X161384000Y-96656000D01*
G75*
G02*
X161184000Y-96856000I-200000J0D01*
G01*
X160634000Y-96856000D01*
G75*
G02*
X160434000Y-96656000I0J200000D01*
G01*
X160434000Y-96256000D01*
G75*
G02*
X160634000Y-96056000I200000J0D01*
G01*
G37*
G36*
G01*
X173185000Y-32080000D02*
X172815000Y-32080000D01*
G75*
G02*
X172680000Y-31945000I0J135000D01*
G01*
X172680000Y-31675000D01*
G75*
G02*
X172815000Y-31540000I135000J0D01*
G01*
X173185000Y-31540000D01*
G75*
G02*
X173320000Y-31675000I0J-135000D01*
G01*
X173320000Y-31945000D01*
G75*
G02*
X173185000Y-32080000I-135000J0D01*
G01*
G37*
G36*
G01*
X173185000Y-31060000D02*
X172815000Y-31060000D01*
G75*
G02*
X172680000Y-30925000I0J135000D01*
G01*
X172680000Y-30655000D01*
G75*
G02*
X172815000Y-30520000I135000J0D01*
G01*
X173185000Y-30520000D01*
G75*
G02*
X173320000Y-30655000I0J-135000D01*
G01*
X173320000Y-30925000D01*
G75*
G02*
X173185000Y-31060000I-135000J0D01*
G01*
G37*
G36*
G01*
X195775000Y-58475000D02*
X195225000Y-58475000D01*
G75*
G02*
X195025000Y-58275000I0J200000D01*
G01*
X195025000Y-57875000D01*
G75*
G02*
X195225000Y-57675000I200000J0D01*
G01*
X195775000Y-57675000D01*
G75*
G02*
X195975000Y-57875000I0J-200000D01*
G01*
X195975000Y-58275000D01*
G75*
G02*
X195775000Y-58475000I-200000J0D01*
G01*
G37*
G36*
G01*
X195775000Y-56825000D02*
X195225000Y-56825000D01*
G75*
G02*
X195025000Y-56625000I0J200000D01*
G01*
X195025000Y-56225000D01*
G75*
G02*
X195225000Y-56025000I200000J0D01*
G01*
X195775000Y-56025000D01*
G75*
G02*
X195975000Y-56225000I0J-200000D01*
G01*
X195975000Y-56625000D01*
G75*
G02*
X195775000Y-56825000I-200000J0D01*
G01*
G37*
G36*
G01*
X163594000Y-107227000D02*
X163594000Y-108527000D01*
G75*
G02*
X163344000Y-108777000I-250000J0D01*
G01*
X162694000Y-108777000D01*
G75*
G02*
X162444000Y-108527000I0J250000D01*
G01*
X162444000Y-107227000D01*
G75*
G02*
X162694000Y-106977000I250000J0D01*
G01*
X163344000Y-106977000D01*
G75*
G02*
X163594000Y-107227000I0J-250000D01*
G01*
G37*
G36*
G01*
X160644000Y-107227000D02*
X160644000Y-108527000D01*
G75*
G02*
X160394000Y-108777000I-250000J0D01*
G01*
X159744000Y-108777000D01*
G75*
G02*
X159494000Y-108527000I0J250000D01*
G01*
X159494000Y-107227000D01*
G75*
G02*
X159744000Y-106977000I250000J0D01*
G01*
X160394000Y-106977000D01*
G75*
G02*
X160644000Y-107227000I0J-250000D01*
G01*
G37*
M02*
